<?xml version="1.0" encoding="UTF-8"?>
<svg version="1.1" xmlns="http://www.w3.org/2000/svg" width="480" height="185">
<path d="M0 0 C38.94 0 77.88 0 118 0 C118 7.92 118 15.84 118 24 C79.06 24 40.12 24 0 24 C0 16.08 0 8.16 0 0 Z " fill="#F7F8FA" transform="translate(194,45)"/>
<path d="M0 0 C0.83015625 0.30550781 1.6603125 0.61101563 2.515625 0.92578125 C13.59812357 5.71774211 21.05434346 14.72197474 26.07421875 25.46875 C27 28 27 28 27 31 C8.27859013 32.48481898 8.27859013 32.48481898 3.140625 29.13671875 C1.25 26.75 1.25 26.75 -0.4140625 24.26953125 C-3.1290475 20.3842941 -6.46814431 19.02965929 -11 18 C-19.84296549 16.92184243 -27.7759377 17.38868961 -35 23 C-35.96165107 24.4214569 -36.89898045 25.85964263 -37.8125 27.3125 C-39.75554503 29.86334484 -41.16175797 30.87260812 -44.34863281 31.35693359 C-50.5736146 31.706937 -56.78522153 31.43430786 -63 31 C-62.0266489 22.30387637 -56.57024802 14.63164116 -50 9 C-49.36578125 8.43667969 -48.7315625 7.87335937 -48.078125 7.29296875 C-34.66760131 -4.00135528 -16.26868341 -6.03913248 0 0 Z " fill="#F6B012" transform="translate(271,12)"/>
<path d="M0 0 C3.37409559 -0.20453151 6.74658992 -0.32801449 10.125 -0.4375 C11.07632813 -0.49615234 12.02765625 -0.55480469 13.0078125 -0.61523438 C20.02022618 -0.78567499 20.02022618 -0.78567499 22.85595703 1.48828125 C24.390625 3.34765625 24.390625 3.34765625 25.75634766 5.27416992 C27.37891077 7.52581866 29.17389581 8.6191339 31.625 9.875 C32.35976562 10.26429687 33.09453125 10.65359375 33.8515625 11.0546875 C40.24849815 13.86933918 47.65903595 14.08218728 54.25 11.75 C59.14153625 9.63394307 63.06545789 7.45474622 66 2.88671875 C67.75096549 0.74207213 68.62550396 0.0768741 71.37036133 -0.48657227 C74.20583667 -0.59047417 76.97915549 -0.52342235 79.8125 -0.375 C81.28106445 -0.33439453 81.28106445 -0.33439453 82.77929688 -0.29296875 C85.18846621 -0.22245648 87.59308819 -0.12398568 90 0 C88.55844465 9.75274483 82.12082393 17.85468667 74.73828125 24.02734375 C64.30312798 31.54482221 52.85344683 35.22050534 40 34 C26.2687847 31.66897141 14.52931658 25.8361619 6.109375 14.44140625 C3.16082002 9.739463 1.42227951 5.38622517 0 0 Z " fill="#F6AE12" transform="translate(208,71)"/>
<path d="M0 0 C126.72 0 253.44 0 384 0 C383.67 0.99 383.34 1.98 383 3 C256.94 3 130.88 3 1 3 C0.67 2.01 0.34 1.02 0 0 Z " fill="#000000" transform="translate(61,116)"/>
<path d="M0 0 C2.64 0 5.28 0 8 0 C9.98 6.27 11.96 12.54 14 19 C15.98 12.73 17.96 6.46 20 0 C22.64 0 25.28 0 28 0 C27.67 0.66 27.34 1.32 27 2 C26.34 2 25.68 2 25 2 C25.33 10.58 25.66 19.16 26 28 C27.32 28.33 28.64 28.66 30 29 C29.86149295 25.54133208 29.71295273 22.08316725 29.5625 18.625 C29.52318359 17.64015625 29.48386719 16.6553125 29.44335938 15.640625 C29.40146484 14.69960937 29.35957031 13.75859375 29.31640625 12.7890625 C29.27974854 11.91975098 29.24309082 11.05043945 29.20532227 10.15478516 C29.12598456 7.9516738 29.12598456 7.9516738 28 6 C32.95 6 37.9 6 43 6 C43 7.98 43 9.96 43 12 C42.34 12 41.68 12 41 12 C40.505 10.515 40.505 10.515 40 9 C38.02 8.67 36.04 8.34 34 8 C34 10.97 34 13.94 34 17 C35.65 16.67 37.3 16.34 39 16 C39.33 15.01 39.66 14.02 40 13 C40.33 13 40.66 13 41 13 C41 15.97 41 18.94 41 22 C40.34 21.67 39.68 21.34 39 21 C39 20.34 39 19.68 39 19 C37.35 19 35.7 19 34 19 C34 21.97 34 24.94 34 28 C36.35171131 27.40138258 38.6859378 26.73075648 41 26 C41.33 25.34 41.66 24.68 42 24 C42.66 24 43.32 24 44 24 C43.67 26.31 43.34 28.62 43 31 C34.75 31 26.5 31 18 31 C18 30.34 18 29.68 18 29 C18.66 28.67 19.32 28.34 20 28 C20 22.72 20 17.44 20 12 C18.02 18.27 16.04 24.54 14 31 C13.34 31 12.68 31 12 31 C10.02 24.73 8.04 18.46 6 12 C6 17.61 6 23.22 6 29 C6.99 29.33 7.98 29.66 9 30 C8 31 8 31 6.15234375 31.09765625 C4.1015625 31.06510417 2.05078125 31.03255208 0 31 C0 30.34 0 29.68 0 29 C0.66 28.67 1.32 28.34 2 28 C2.33 19.42 2.66 10.84 3 2 C2.01 1.67 1.02 1.34 0 1 C0 0.67 0 0.34 0 0 Z " fill="#000000" transform="translate(322,124)"/>
<path d="M0 0 C3.3 0 6.6 0 10 0 C9.67 0.66 9.34 1.32 9 2 C8.34 2 7.68 2 7 2 C7 5.63 7 9.26 7 13 C9.64 13 12.28 13 15 13 C15 9.37 15 5.74 15 2 C14.34 2 13.68 2 13 2 C13 1.34 13 0.68 13 0 C16.3 0 19.6 0 23 0 C22.67 0.66 22.34 1.32 22 2 C21.34 2 20.68 2 20 2 C20.10946343 6.29221231 20.24018895 10.5835149 20.375 14.875 C20.4059375 16.09832031 20.436875 17.32164062 20.46875 18.58203125 C20.50742188 19.74863281 20.54609375 20.91523438 20.5859375 22.1171875 C20.63306885 23.73536377 20.63306885 23.73536377 20.68115234 25.38623047 C20.74676322 28.15761654 20.74676322 28.15761654 23 30 C22 31 22 31 19.93359375 31.09765625 C19.10988281 31.08605469 18.28617188 31.07445312 17.4375 31.0625 C16.19806641 31.04896484 16.19806641 31.04896484 14.93359375 31.03515625 C13.97646484 31.01775391 13.97646484 31.01775391 13 31 C13.33 30.01 13.66 29.02 14 28 C14.22325814 25.94106379 14.40705759 23.87766347 14.5625 21.8125 C14.64628906 20.72582031 14.73007813 19.63914063 14.81640625 18.51953125 C14.90728516 17.27236328 14.90728516 17.27236328 15 16 C12.36 16 9.72 16 7 16 C7.11347619 17.97986082 7.2410935 19.95891598 7.375 21.9375 C7.47941406 23.59072266 7.47941406 23.59072266 7.5859375 25.27734375 C7.72257813 26.17582031 7.85921875 27.07429688 8 28 C8.66 28.33 9.32 28.66 10 29 C10 29.66 10 30.32 10 31 C6.7 31 3.4 31 0 31 C0 30.34 0 29.68 0 29 C0.66 29 1.32 29 2 29 C2 20.42 2 11.84 2 3 C1.34 2.67 0.68 2.34 0 2 C0 1.34 0 0.68 0 0 Z " fill="#000000" transform="translate(169,124)"/>
<path d="M0 0 C1.4540625 0.0309375 1.4540625 0.0309375 2.9375 0.0625 C3.9275 2.0425 4.9175 4.0225 5.9375 6.0625 C6.5975 4.0825 7.2575 2.1025 7.9375 0.0625 C10.2475 0.0625 12.5575 0.0625 14.9375 0.0625 C17.23362756 11.58414009 17.23362756 11.58414009 16.9375 17.0625 C14.9575 17.0625 12.9775 17.0625 10.9375 17.0625 C10.6075 15.0825 10.2775 13.1025 9.9375 11.0625 C9.2775 13.0425 8.6175 15.0225 7.9375 17.0625 C6.2875 17.0625 4.6375 17.0625 2.9375 17.0625 C2.2775 15.7425 1.6175 14.4225 0.9375 13.0625 C0.6075 14.3825 0.2775 15.7025 -0.0625 17.0625 C-2.0425 17.0625 -4.0225 17.0625 -6.0625 17.0625 C-5.75518013 14.41596869 -5.44190678 11.770385 -5.125 9.125 C-5.03798828 8.37025391 -4.95097656 7.61550781 -4.86132812 6.83789062 C-4.04341313 0.08251864 -4.04341313 0.08251864 0 0 Z " fill="#163983" transform="translate(249.0625,47.9375)"/>
<path d="M0 0 C2.64 0 5.28 0 8 0 C8.33 2.31 8.66 4.62 9 7 C11.36980013 4.04622502 11.36980013 4.04622502 11 0 C16.28 0 21.56 0 27 0 C26.01 1.485 26.01 1.485 25 3 C24.72521627 5.22485741 24.72521627 5.22485741 24.8046875 7.66796875 C24.81113281 8.56064453 24.81757813 9.45332031 24.82421875 10.37304688 C24.84097656 11.30181641 24.85773438 12.23058594 24.875 13.1875 C24.88402344 14.12787109 24.89304687 15.06824219 24.90234375 16.03710938 C24.92590944 18.35832968 24.95880884 20.67903644 25 23 C25.66 23 26.32 23 27 23 C27 23.66 27 24.32 27 25 C21.06 25 15.12 25 9 25 C9 24.34 9 23.68 9 23 C9.66 23 10.32 23 11 23 C10.01 20.69 9.02 18.38 8 16 C6.14223235 19.13498292 5.79859524 21.37471432 6 25 C4.02 25 2.04 25 0 25 C1.1255286 21.90479635 2.45040199 19.29837536 4.25 16.5625 C6.33224599 13.19755167 6.33224599 13.19755167 5.5 10 C3.78767524 6.57535047 1.97020288 3.28367147 0 0 Z M17 1 C14.18949915 3.23186832 12.1103595 5.56797974 11 9 C11.2406344 14.29395685 13.51217713 18.44091995 16 23 C17.65 22.67 19.3 22.34 21 22 C21 15.4 21 8.8 21 2 C19.68 1.67 18.36 1.34 17 1 Z " fill="#000000" transform="translate(366,130)"/>
<path d="M0 0 C0.66 0 1.32 0 2 0 C2.2673999 0.86278564 2.5347998 1.72557129 2.81030273 2.61450195 C3.80337603 5.81819395 4.7967334 9.02179757 5.7902832 12.2253418 C6.22008457 13.6113742 6.64977297 14.99744164 7.0793457 16.38354492 C7.69713049 18.37688287 8.3153226 20.37009411 8.93359375 22.36328125 C9.4913147 24.16212769 9.4913147 24.16212769 10.06030273 25.99731445 C10.68833234 28.00410483 11.33504671 30.00514012 12 32 C9.03 32 6.06 32 3 32 C3 31.34 3 30.68 3 30 C3.66 30 4.32 30 5 30 C4.67 27.36 4.34 24.72 4 22 C1.36 22 -1.28 22 -4 22 C-4.67673447 25.40320934 -4.67673447 25.40320934 -5 29 C-4.34 29.66 -3.68 30.32 -3 31 C-4 32 -4 32 -7.5625 32.0625 C-8.696875 32.041875 -9.83125 32.02125 -11 32 C-10.70939697 31.46914795 -10.41879395 30.9382959 -10.11938477 30.39135742 C-8.79517599 27.56243159 -7.95545172 24.73997571 -7.08984375 21.73828125 C-6.73986328 20.53751953 -6.38988281 19.33675781 -6.02929688 18.09960938 C-5.66900391 16.84986328 -5.30871094 15.60011719 -4.9375 14.3125 C-4.22037448 11.82858029 -3.50047675 9.34545868 -2.77734375 6.86328125 C-2.46015381 5.76282471 -2.14296387 4.66236816 -1.81616211 3.52856445 C-1 1 -1 1 0 0 Z M-1 10 C-1.66 12.97 -2.32 15.94 -3 19 C-1.02 19 0.96 19 3 19 C2.01 16.03 1.02 13.06 0 10 C-0.33 10 -0.66 10 -1 10 Z " fill="#000000" transform="translate(90,123)"/>
<path d="M0 0 C2.31 0 4.62 0 7 0 C7 1.98 7 3.96 7 6 C8.32 6 9.64 6 11 6 C11 4.02 11 2.04 11 0 C12.98 0 14.96 0 17 0 C17 5.61 17 11.22 17 17 C15.02 17 13.04 17 11 17 C11 15.02 11 13.04 11 11 C9.35 11 7.7 11 6 11 C6 12.98 6 14.96 6 17 C4.02 17 2.04 17 0 17 C0 11.39 0 5.78 0 0 Z " fill="#193B85" transform="translate(225,48)"/>
<path d="M0 0 C1.93559313 -0.13504138 3.873872 -0.23201129 5.8125 -0.3125 C6.89144531 -0.37050781 7.97039062 -0.42851562 9.08203125 -0.48828125 C12 0 12 0 13.89453125 2.359375 C15.21892962 5.52295556 15.14941109 6.7980691 14 10 C13.02409289 11.35106739 12.02688107 12.68725744 11 14 C11.433125 14.62648437 11.86625 15.25296875 12.3125 15.8984375 C12.869375 16.71570313 13.42625 17.53296875 14 18.375 C14.556875 19.18710938 15.11375 19.99921875 15.6875 20.8359375 C17 23 17 23 17 25 C15.35 25 13.7 25 12 25 C10.35 22.03 8.7 19.06 7 16 C6.67 18.31 6.34 20.62 6 23 C6.66 23 7.32 23 8 23 C8 23.66 8 24.32 8 25 C5.36 25 2.72 25 0 25 C0 24.34 0 23.68 0 23 C0.66 23 1.32 23 2 23 C1.86149295 19.54133208 1.71295273 16.08316725 1.5625 12.625 C1.52318359 11.64015625 1.48386719 10.6553125 1.44335938 9.640625 C1.40146484 8.69960937 1.35957031 7.75859375 1.31640625 6.7890625 C1.27974854 5.91975098 1.24309082 5.05043945 1.20532227 4.15478516 C1.12598456 1.9516738 1.12598456 1.9516738 0 0 Z M6 2 C6 4.97 6 7.94 6 11 C7.32 10.67 8.64 10.34 10 10 C10.6878236 7.64632287 10.6878236 7.64632287 11 5 C10.34 4.01 9.68 3.02 9 2 C8.01 2 7.02 2 6 2 Z " fill="#000000" transform="translate(208,130)"/>
<path d="M0 0 C10.89250814 -0.78175896 10.89250814 -0.78175896 15.1875 2.25 C18.22816664 6.86342524 18.38153302 10.4677712 18 16 C16.75588046 19.40495873 15.61690397 21.43917821 12.9375 23.875 C8.6406741 25.5205929 4.54770019 25.23842312 0 25 C0 24.34 0 23.68 0 23 C0.66 23 1.32 23 2 23 C1.86149295 19.54133208 1.71295273 16.08316725 1.5625 12.625 C1.52318359 11.64015625 1.48386719 10.6553125 1.44335938 9.640625 C1.40146484 8.69960937 1.35957031 7.75859375 1.31640625 6.7890625 C1.27974854 5.91975098 1.24309082 5.05043945 1.20532227 4.15478516 C1.12598456 1.9516738 1.12598456 1.9516738 0 0 Z M6 2 C6 8.6 6 15.2 6 22 C10.72979132 21.46492825 10.72979132 21.46492825 12.8125 19.5 C14.62321291 15.68797282 14.53923507 12.14398459 14 8 C13.00804027 4.98018899 13.00804027 4.98018899 11 3 C9.35 2.67 7.7 2.34 6 2 Z " fill="#000000" transform="translate(282,130)"/>
<path d="M0 0 C2.26171875 -0.375 2.26171875 -0.375 5 0 C7.01953125 2.625 7.01953125 2.625 8.8125 6 C9.41707031 7.11375 10.02164063 8.2275 10.64453125 9.375 C11.09183594 10.24125 11.53914062 11.1075 12 12 C12.02698189 10.37509046 12.04638757 8.75005367 12.0625 7.125 C12.07410156 6.22007812 12.08570313 5.31515625 12.09765625 4.3828125 C12.16249257 1.9831415 12.16249257 1.9831415 11 0 C13.31 0 15.62 0 18 0 C17.67 0.66 17.34 1.32 17 2 C16.84733388 3.73868744 16.75067404 5.48247501 16.68359375 7.2265625 C16.64169922 8.2578125 16.59980469 9.2890625 16.55664062 10.3515625 C16.51732422 11.43179688 16.47800781 12.51203125 16.4375 13.625 C16.39431641 14.71296875 16.35113281 15.8009375 16.30664062 16.921875 C16.2003547 19.6144517 16.09831943 22.30712253 16 25 C11.67034494 23.55678165 10.75545989 20.29179837 8.8125 16.4375 C8.44447266 15.72658203 8.07644531 15.01566406 7.69726562 14.28320312 C6.78948968 12.52659773 5.89360293 10.76385756 5 9 C4.94613371 11.12472576 4.90726929 13.24983652 4.875 15.375 C4.84019531 17.15003906 4.84019531 17.15003906 4.8046875 18.9609375 C4.67133771 22.11153817 4.67133771 22.11153817 7 24 C6 25 6 25 2.9375 25.0625 C1.968125 25.041875 0.99875 25.02125 0 25 C0.495 23.515 0.495 23.515 1 22 C1.0918277 20.55432014 1.13066598 19.10484172 1.1328125 17.65625 C1.13410156 16.82222656 1.13539063 15.98820313 1.13671875 15.12890625 C1.13285156 14.26136719 1.12898437 13.39382812 1.125 12.5 C1.12886719 11.63246094 1.13273438 10.76492187 1.13671875 9.87109375 C1.13542969 9.03707031 1.13414062 8.20304688 1.1328125 7.34375 C1.13168457 6.58255859 1.13055664 5.82136719 1.12939453 5.03710938 C1.0741715 2.79675812 1.0741715 2.79675812 0 0 Z " fill="#000000" transform="translate(226,130)"/>
<path d="M0 0 C2.64 0 5.28 0 8 0 C9.98 5.61 11.96 11.22 14 17 C11.69 17 9.38 17 7 17 C7 16.34 7 15.68 7 15 C5.35 15 3.7 15 2 15 C2 15.66 2 16.32 2 17 C-0.31 17 -2.62 17 -5 17 C-3.35 11.39 -1.7 5.78 0 0 Z " fill="#1D3E87" transform="translate(287,48)"/>
<path d="M0 0 C2.31 0 4.62 0 7 0 C9.32330984 5.60526694 11.46745644 11.12524968 13 17 C10.69 17 8.38 17 6 17 C6 16.34 6 15.68 6 15 C4.35 15 2.7 15 1 15 C1 15.66 1 16.32 1 17 C-0.98 17 -2.96 17 -5 17 C-4.46246904 10.81839396 -2.45417612 5.673142 0 0 Z " fill="#1C3E86" transform="translate(211,48)"/>
<path d="M0 0 C3.83815615 4.62547024 4.63485088 8.60279516 4.3984375 14.55859375 C3.7658607 18.43467711 2.29634756 20.8256372 0 24 C-2.88861709 25.44430855 -4.79647701 25.37688506 -8 25 C-11.22327896 22.92277578 -12.68268986 21.2458803 -13.63671875 17.5 C-14.45103802 11.19559277 -13.97014724 6.63303786 -11 1 C-7.66151535 -1.98078986 -4.08402924 -1.23979459 0 0 Z M-9 4 C-11.00357465 9.2092941 -10.66938768 14.95515034 -8.5 20 C-8.005 20.99 -7.51 21.98 -7 23 C-4.54775306 22.89386164 -4.54775306 22.89386164 -2 22 C0.92382399 17.68387888 0.42747779 12.01464326 0 7 C-0.85060013 4.02019799 -0.85060013 4.02019799 -2 2 C-5.95457848 1.65176193 -5.95457848 1.65176193 -9 4 Z " fill="#000000" transform="translate(423,130)"/>
<path d="M0 0 C3.88730514 3.68795616 4.29599498 6.70245024 4.5 12 C4.31834532 17.84928077 3.13792321 20.86207679 -1 25 C-4.25 25.4375 -4.25 25.4375 -8 25 C-11.70998841 21.85457504 -13.21944464 19.41628133 -14 14.625 C-14.33421197 8.9720433 -12.9205256 4.2634766 -9.25 -0.0625 C-5.74874341 -1.52135691 -3.59252017 -1.09058648 0 0 Z M-7 2 C-9.87457132 6.31185698 -10.46761124 10.93454852 -9.68359375 16.07421875 C-8.89802723 19.02473236 -8.17824859 20.82175141 -6 23 C-5.01 23 -4.02 23 -3 23 C-3 22.34 -3 21.68 -3 21 C-2.34 21 -1.68 21 -1 21 C0.06385483 17.80843552 0.16677982 15.41502524 0.1875 12.0625 C0.20876953 10.50208984 0.20876953 10.50208984 0.23046875 8.91015625 C0.00392282 6.04953387 -0.52266381 4.42329849 -2 2 C-4.41619823 1.74969023 -4.41619823 1.74969023 -7 2 Z " fill="#000000" transform="translate(204,130)"/>
<path d="M0 0 C4.23935951 1.11562092 5.32587329 2.23846352 7.5625 5.9375 C9.43442186 10.61730464 9.10882533 15.58469442 7.25 20.1875 C4.47670912 24.706937 4.47670912 24.706937 2.5625 25.9375 C-0.875 26.4375 -0.875 26.4375 -4.4375 25.9375 C-8.42014676 22.05965973 -9.58707382 18.57312024 -9.6875 13.125 C-9.64213544 8.68575378 -8.97165034 5.6917968 -6.4375 1.9375 C-3.4375 -0.0625 -3.4375 -0.0625 0 0 Z M-3.4375 2.9375 C-5.99338921 7.72979228 -6.01998228 12.64450886 -5.4375 17.9375 C-4.10764431 21.4422765 -4.10764431 21.4422765 -2.4375 23.9375 C0.41528483 23.64238433 1.39828823 23.12517059 3.3125 20.9375 C5.01664709 16.84754698 5.16093391 13.31067087 4.5625 8.9375 C3.21503476 5.48403852 3.21503476 5.48403852 1.5625 2.9375 C-0.0875 2.9375 -1.7375 2.9375 -3.4375 2.9375 Z " fill="#000000" transform="translate(140.4375,129.0625)"/>
<path d="M0 0 C-0.33 1.65 -0.66 3.3 -1 5 C-2.65 4.67 -4.3 4.34 -6 4 C-6 4.66 -6 5.32 -6 6 C-5.030625 6.309375 -4.06125 6.61875 -3.0625 6.9375 C0 8 0 8 1 9 C0.75 12.4375 0.75 12.4375 0 16 C-4.05358424 18.70238949 -6.18310104 18.22937614 -11 18 C-11.66 17.67 -12.32 17.34 -13 17 C-12.67 15.02 -12.34 13.04 -12 11 C-10.02 11.66 -8.04 12.32 -6 13 C-6 12.34 -6 11.68 -6 11 C-6.969375 10.855625 -7.93875 10.71125 -8.9375 10.5625 C-12 10 -12 10 -13 9 C-13.375 6.1875 -13.375 6.1875 -13 3 C-8.96742877 -1.91469619 -5.71966575 -1.16332185 0 0 Z " fill="#193B85" transform="translate(281,48)"/>
<path d="M0 0 C3.59039333 3.59039333 4.18298073 7.38395089 4.3125 12.3125 C4.28211978 18.04676664 3.066127 20.933873 -1 25 C-5.36020677 25.58695091 -7.33016109 25.48456432 -10.9375 22.875 C-14.05803493 18.56618191 -13.56085872 13.4491224 -13.56640625 8.33984375 C-12.90819516 4.458668 -11.73110854 2.78215729 -9 0 C-5.8168485 -1.59157575 -3.38676935 -0.77242108 0 0 Z M-7 2 C-10.19450436 7.87788802 -10.45582626 12.46520094 -9 19 C-8.02004511 21.22782713 -8.02004511 21.22782713 -7 23 C-4.55519921 22.81171228 -4.55519921 22.81171228 -2 22 C0.22694458 18.75805346 0.26929751 15.85950249 0.25 12 C0.25773437 10.453125 0.25773437 10.453125 0.265625 8.875 C0.00499165 6.05402722 -0.54703656 4.39854282 -2 2 C-3.65 2 -5.3 2 -7 2 Z " fill="#000000" transform="translate(257,130)"/>
<path d="M0 0 C4.95 0 9.9 0 15 0 C15 1.65 15 3.3 15 5 C14.01 5.495 14.01 5.495 13 6 C12.67 4.68 12.34 3.36 12 2 C10.02 2 8.04 2 6 2 C6 4.97 6 7.94 6 11 C7.65 10.67 9.3 10.34 11 10 C11.33 9.01 11.66 8.02 12 7 C12.33 7 12.66 7 13 7 C13 9.97 13 12.94 13 16 C12.34 15.67 11.68 15.34 11 15 C11 14.34 11 13.68 11 13 C9.35 13 7.7 13 6 13 C6 15.97 6 18.94 6 22 C8.93443402 21.73343428 8.93443402 21.73343428 12 21 C12.66 20.01 13.32 19.02 14 18 C14.66 18 15.32 18 16 18 C15.67 20.31 15.34 22.62 15 25 C10.05 25 5.1 25 0 25 C0 24.34 0 23.68 0 23 C0.66 23 1.32 23 2 23 C1.86149295 19.54133208 1.71295273 16.08316725 1.5625 12.625 C1.52318359 11.64015625 1.48386719 10.6553125 1.44335938 9.640625 C1.40146484 8.69960937 1.35957031 7.75859375 1.31640625 6.7890625 C1.27974854 5.91975098 1.24309082 5.05043945 1.20532227 4.15478516 C1.12598456 1.9516738 1.12598456 1.9516738 0 0 Z " fill="#000000" transform="translate(299,130)"/>
<path d="M0 0 C1 1 1 1 1.09765625 2.84765625 C1.04882812 5.92382812 1.04882812 5.92382812 1 9 C0.34 9 -0.32 9 -1 9 C-1.66 7.35 -2.32 5.7 -3 4 C-3.99 4 -4.98 4 -6 4 C-5.87943404 6.36539052 -5.87943404 6.36539052 -5 9 C-3.37064759 10.37868281 -1.70250393 11.71274093 0 13 C1.94462684 15.65176387 2.02148782 16.73677419 1.75 20.0625 C1 23 1 23 -1 26 C-3.1640625 26.29296875 -3.1640625 26.29296875 -5.625 26.1875 C-6.85089844 26.14689453 -6.85089844 26.14689453 -8.1015625 26.10546875 C-8.72804687 26.07066406 -9.35453125 26.03585938 -10 26 C-10.33 23.36 -10.66 20.72 -11 18 C-10.34 18 -9.68 18 -9 18 C-7.375 20.5 -7.375 20.5 -6 23 C-5.01 22.67 -4.02 22.34 -3 22 C-3.27004154 18.03939073 -3.48571786 16.46285393 -6.5 13.75 C-7.325 13.1725 -8.15 12.595 -9 12 C-10.52491998 8.95016004 -10.23562548 6.3576631 -10 3 C-7.77264293 -1.06165113 -4.20601092 -0.31155636 0 0 Z " fill="#000000" transform="translate(160,129)"/>
<path d="M0 0 C2.01822917 0.06510417 4.03645833 0.13020833 6.0546875 0.1953125 C6.0546875 3.1653125 6.0546875 6.1353125 6.0546875 9.1953125 C5.3946875 8.8653125 4.7346875 8.5353125 4.0546875 8.1953125 C3.4296875 5.6328125 3.4296875 5.6328125 3.0546875 3.1953125 C1.7346875 3.1953125 0.4146875 3.1953125 -0.9453125 3.1953125 C0.03972178 7.23395303 1.37109956 9.72112386 4.1796875 12.6953125 C6.42242778 15.17932557 7.01451899 15.96769096 7.6171875 19.3828125 C6.66619829 24.13775854 6.66619829 24.13775854 4.0546875 26.1953125 C1.02648278 26.52820025 -1.91194716 26.42424573 -4.9453125 26.1953125 C-4.9453125 23.5553125 -4.9453125 20.9153125 -4.9453125 18.1953125 C-4.1615625 19.0203125 -3.3778125 19.8453125 -2.5703125 20.6953125 C-0.30809986 23.42519756 -0.30809986 23.42519756 2.0546875 23.1953125 C2.64599178 20.53597203 2.64599178 20.53597203 2.0546875 17.1953125 C0.4558273 15.19833527 0.4558273 15.19833527 -1.5078125 13.2578125 C-4.93790082 9.65483666 -4.93790082 9.65483666 -5.0078125 5.3203125 C-3.31196531 0.33252664 -3.31196531 0.33252664 0 0 Z " fill="#000000" transform="translate(266.9453125,128.8046875)"/>
<path d="M0 0 C0 2.97 0 5.94 0 9 C-3 6 -3 6 -4 4 C-5.65 4 -7.3 4 -9 4 C-11.37564257 9.31025986 -11.43294755 14.41246628 -10 20 C-8.54979259 21.78582865 -8.54979259 21.78582865 -7 23 C-6.236875 22.67 -5.47375 22.34 -4.6875 22 C-2 21 -2 21 1 21 C-3.08860759 25.81012658 -3.08860759 25.81012658 -7 26.625 C-11.01127801 25.78931708 -12.47781462 24.17074734 -15 21 C-17.44290046 15.3625374 -16.0089448 9.24751613 -14.046875 3.69921875 C-10.95426914 -1.32049598 -5.12843632 -0.15083636 0 0 Z " fill="#000000" transform="translate(408,129)"/>
<path d="M0 0 C2.64 0 5.28 0 8 0 C7.01 0.495 7.01 0.495 6 1 C6 7.93 6 14.86 6 22 C9.465 21.505 9.465 21.505 13 21 C13.33 19.68 13.66 18.36 14 17 C14.33 17 14.66 17 15 17 C15.04241723 19.33294775 15.04092937 21.66702567 15 24 C14 25 14 25 10.83984375 25.09765625 C9.55207031 25.08605469 8.26429687 25.07445312 6.9375 25.0625 C5.64714844 25.05347656 4.35679688 25.04445312 3.02734375 25.03515625 C2.02832031 25.02355469 1.02929688 25.01195312 0 25 C0.495 23.515 0.495 23.515 1 22 C1.09232973 20.46959123 1.13067608 18.93553364 1.1328125 17.40234375 C1.13410156 16.51869141 1.13539062 15.63503906 1.13671875 14.72460938 C1.13285156 13.80486328 1.12898438 12.88511719 1.125 11.9375 C1.13080078 10.55208008 1.13080078 10.55208008 1.13671875 9.13867188 C1.13542969 8.25630859 1.13414063 7.37394531 1.1328125 6.46484375 C1.13168457 5.656521 1.13055664 4.84819824 1.12939453 4.01538086 C1.12664883 1.92914156 1.12664883 1.92914156 0 0 Z " fill="#000000" transform="translate(103,130)"/>
<path d="M0 0 C4.95 0 9.9 0 15 0 C15 2.31 15 4.62 15 7 C13 6 13 6 12 3 C11.01 2.67 10.02 2.34 9 2 C9 8.93 9 15.86 9 23 C9.66 23 10.32 23 11 23 C11 23.66 11 24.32 11 25 C8.36 25 5.72 25 3 25 C3 24.34 3 23.68 3 23 C3.66 23 4.32 23 5 23 C5.33 16.07 5.66 9.14 6 2 C4.68 2 3.36 2 2 2 C1.67 3.65 1.34 5.3 1 7 C0.34 7 -0.32 7 -1 7 C-0.67 4.69 -0.34 2.38 0 0 Z " fill="#000000" transform="translate(116,130)"/>
</svg>
