<?xml version="1.0" encoding="UTF-8"?>
<svg version="1.1" xmlns="http://www.w3.org/2000/svg" width="400" height="150">
<path d="M0 0 C0.495 0.495 0.495 0.495 1 1 C0.9375 4.3125 0.9375 4.3125 0 8 C-7.18690302 14.46821272 -16.72125247 15.49703985 -26 16 C-24.948125 16.09474609 -24.948125 16.09474609 -23.875 16.19140625 C-17.43917401 17.02211749 -13.07344978 18.42655022 -8.42578125 23.07421875 C-7 25 -7 25 -6 28.5 C-7.49803487 33.74312205 -10.40675627 36.20065303 -15 39 C-21.22956462 41.55132676 -27.3082529 42.49568497 -34 42 C-35 41 -35 41 -35.08178711 38.62329102 C-35.0638208 37.59389404 -35.04585449 36.56449707 -35.02734375 35.50390625 C-35.00897461 33.83038086 -35.00897461 33.83038086 -34.99023438 32.12304688 C-34.95513506 29.7531932 -34.91608532 27.38339467 -34.87304688 25.01367188 C-34.85661133 23.33821289 -34.85661133 23.33821289 -34.83984375 21.62890625 C-34.81458618 20.0831189 -34.81458618 20.0831189 -34.78881836 18.50610352 C-34.74318962 15.82665421 -34.74318962 15.82665421 -37 14 C-37.57184935 11.0112779 -37.73964622 8.03746074 -38 5 C-38.99 7.97 -39.98 10.94 -41 14 C-50.38209353 14.58033568 -57.08421225 13.27191685 -65.28125 8.73828125 C-67 7 -67 7 -67.25 3.8125 C-67.1675 2.884375 -67.085 1.95625 -67 1 C-54.51480638 -5.51936219 -54.51480638 -5.51936219 -48 -7 C-48 -7.33 -48 -7.66 -48 -8 C-32.24175166 -10.57862245 -13.46279855 -9.08412135 0 0 Z " fill="#EC2736" transform="translate(76,58)"/>
<path d="M0 0 C1.02738281 -0.01224609 2.05476563 -0.02449219 3.11328125 -0.03710938 C4.59634766 -0.04000977 4.59634766 -0.04000977 6.109375 -0.04296875 C7.00108398 -0.04707764 7.89279297 -0.05118652 8.81152344 -0.05541992 C11.42761505 0.20519393 13.02559217 0.81100082 15.25 2.1875 C17.97572434 5.73094164 17.55531939 9.92150967 17.25 14.1875 C16.92364302 15.85554677 16.59274406 17.52274314 16.25 19.1875 C16.745 20.1775 16.745 20.1775 17.25 21.1875 C17.8311138 28.27708838 17.8311138 28.27708838 15.375 32.125 C12.17190395 35.23388734 10.40891425 35.31514052 6.05078125 35.3203125 C5.00599609 35.32160156 3.96121094 35.32289062 2.88476562 35.32421875 C1.24024414 35.31841797 1.24024414 35.31841797 -0.4375 35.3125 C-1.51451172 35.31636719 -2.59152344 35.32023437 -3.70117188 35.32421875 C-4.75240234 35.32292969 -5.80363281 35.32164063 -6.88671875 35.3203125 C-7.84280029 35.31918457 -8.79888184 35.31805664 -9.78393555 35.31689453 C-13.1240434 35.17118236 -16.44031701 34.66031186 -19.75 34.1875 C-19.75 23.2975 -19.75 12.4075 -19.75 1.1875 C-13.01417879 0.34552235 -6.74493679 0.00429614 0 0 Z M-10.75 7.1875 C-10.75 9.4975 -10.75 11.8075 -10.75 14.1875 C-4.48 14.1875 1.79 14.1875 8.25 14.1875 C8.25 11.8775 8.25 9.5675 8.25 7.1875 C1.98 7.1875 -4.29 7.1875 -10.75 7.1875 Z M-11.75 20.1875 C-11.75 22.8275 -11.75 25.4675 -11.75 28.1875 C-8.43751813 28.21638146 -5.12506833 28.23425799 -1.8125 28.25 C-0.86697266 28.25837891 0.07855469 28.26675781 1.05273438 28.27539062 C1.95185547 28.27861328 2.85097656 28.28183594 3.77734375 28.28515625 C4.60999756 28.29039307 5.44265137 28.29562988 6.30053711 28.30102539 C8.25516798 28.40393292 8.25516798 28.40393292 9.25 27.1875 C9.29080783 25.18791636 9.29254356 23.18704746 9.25 21.1875 C6.90147472 20.01323736 5.51225935 20.07241827 2.8984375 20.08984375 C1.62226562 20.09467773 1.62226562 20.09467773 0.3203125 20.09960938 C-0.56914063 20.10798828 -1.45859375 20.11636719 -2.375 20.125 C-3.72078125 20.13176758 -3.72078125 20.13176758 -5.09375 20.13867188 C-7.31256648 20.15047409 -9.53125018 20.16693845 -11.75 20.1875 Z " fill="#EB2131" transform="translate(112.75,60.8125)"/>
<path d="M0 0 C2.01930038 -0.00969885 4.03757924 -0.04073319 6.05664062 -0.07226562 C7.33539063 -0.07742187 8.61414063 -0.08257812 9.93164062 -0.08789062 C11.68613525 -0.10190918 11.68613525 -0.10190918 13.47607422 -0.11621094 C16.98411191 0.27674096 18.85137724 1.13783413 21.65820312 3.24023438 C23.82967117 7.58317047 22.88787168 13.40746998 22.90820312 18.17773438 C22.92882812 19.38365234 22.94945312 20.58957031 22.97070312 21.83203125 C22.9784375 23.56356445 22.9784375 23.56356445 22.98632812 25.33007812 C22.99567383 26.390896 23.00501953 27.45171387 23.01464844 28.54467773 C22.65820312 31.24023438 22.65820312 31.24023438 21.38769531 33.04711914 C16.13852168 36.6683376 8.88085343 35.4632154 2.75878906 35.48046875 C0.66496472 35.49020294 -1.42788886 35.52126652 -3.52148438 35.55273438 C-4.85741608 35.55926264 -6.19335476 35.56451381 -7.52929688 35.56835938 C-8.73972656 35.57770508 -9.95015625 35.58705078 -11.19726562 35.59667969 C-14.60248841 35.21068394 -15.96289112 34.66314137 -18.34179688 32.24023438 C-19.90987164 27.53601007 -19.60889561 22.79278457 -19.65429688 17.86523438 C-19.68330078 16.82367188 -19.71230469 15.78210938 -19.7421875 14.70898438 C-19.80591724 7.04180685 -19.80591724 7.04180685 -17.50976562 3.07617188 C-12.57982672 -1.09873134 -6.12732987 0.01782928 0 0 Z M-10.34179688 8.24023438 C-10.34179688 14.84023437 -10.34179688 21.44023438 -10.34179688 28.24023438 C-2.42179687 28.24023438 5.49820313 28.24023438 13.65820312 28.24023438 C13.65820312 21.64023438 13.65820312 15.04023437 13.65820312 8.24023438 C5.73820312 8.24023438 -2.18179688 8.24023438 -10.34179688 8.24023438 Z " fill="#ED2735" transform="translate(249.341796875,60.759765625)"/>
<path d="M0 0 C1.12792969 -0.020625 2.25585938 -0.04125 3.41796875 -0.0625 C4.50722656 -0.06765625 5.59648437 -0.0728125 6.71875 -0.078125 C7.70810547 -0.0874707 8.69746094 -0.09681641 9.71679688 -0.10644531 C12.98116369 0.31162272 14.84519507 1.339148 17.5 3.25 C20.38403006 7.47523553 20.26661011 12.33285435 19.5 17.25 C18.12862663 19.97635582 16.85374905 21.16372243 14.5 23.25 C13.18 23.58 11.86 23.91 10.5 24.25 C15.45 28.21 15.45 28.21 20.5 32.25 C20.17 33.24 19.84 34.23 19.5 35.25 C14.27135029 35.90358121 10.6141843 35.81580476 6.3125 32.5625 C5.02171546 31.48172405 3.74976099 30.37796225 2.5 29.25 C-1.26168795 25.8964197 -3.29578554 24.29084289 -8.5 23.25 C-8.83 26.88 -9.16 30.51 -9.5 34.25 C-12.14 34.25 -14.78 34.25 -17.5 34.25 C-17.5 23.36 -17.5 12.47 -17.5 1.25 C-11.58403122 0.06680624 -6.01360111 0.02749075 0 0 Z M-9.5 8.25 C-9.5 10.89 -9.5 13.53 -9.5 16.25 C-6.35418577 16.27888514 -3.20840531 16.29675923 -0.0625 16.3125 C0.83533203 16.32087891 1.73316406 16.32925781 2.65820312 16.33789062 C3.93920898 16.34272461 3.93920898 16.34272461 5.24609375 16.34765625 C6.03685303 16.35289307 6.8276123 16.35812988 7.64233398 16.36352539 C9.51592689 16.45495909 9.51592689 16.45495909 10.5 15.25 C10.5 12.94 10.5 10.63 10.5 8.25 C3.9 8.25 -2.7 8.25 -9.5 8.25 Z " fill="#EB1D2D" transform="translate(298.5,60.75)"/>
<path d="M0 0 C2.97 0 5.94 0 9 0 C8.67 10.89 8.34 21.78 8 33 C0 33 0 33 -2.21484375 31.75 C-2.78332031 31.1725 -3.35179687 30.595 -3.9375 30 C-4.59105469 29.36578125 -5.24460938 28.7315625 -5.91796875 28.078125 C-6.60503906 27.39234375 -7.29210937 26.7065625 -8 26 C-9.57465874 24.57369753 -11.15804196 23.15696783 -12.75 21.75 C-13.46671875 21.10546875 -14.1834375 20.4609375 -14.921875 19.796875 C-16.88674747 18.09792512 -18.90244912 16.53064524 -21 15 C-21.06058594 16.13179687 -21.12117187 17.26359375 -21.18359375 18.4296875 C-21.26799917 19.91147145 -21.35264717 21.3932416 -21.4375 22.875 C-21.49647461 23.99455078 -21.49647461 23.99455078 -21.55664062 25.13671875 C-21.88671875 30.7734375 -21.88671875 30.7734375 -23 33 C-25.31 33 -27.62 33 -30 33 C-30 22.44 -30 11.88 -30 1 C-22.13645224 1 -22.13645224 1 -18.25 4.4375 C-17.41210938 5.15808594 -16.57421875 5.87867187 -15.7109375 6.62109375 C-14.36902344 7.79865234 -14.36902344 7.79865234 -13 9 C-10.96352332 10.67300426 -8.92194345 12.33981836 -6.875 14 C-5.24954718 15.33278126 -3.62437855 16.66590963 -2 18 C-1.90912109 16.30230469 -1.90912109 16.30230469 -1.81640625 14.5703125 C-1.73200083 13.08852855 -1.64735283 11.6067584 -1.5625 10.125 C-1.52318359 9.37863281 -1.48386719 8.63226563 -1.44335938 7.86328125 C-1.11328125 2.2265625 -1.11328125 2.2265625 0 0 Z " fill="#EC2938" transform="translate(214,62)"/>
<path d="M0 0 C2.37600958 1.97756236 3.79738892 4.1483422 5.26953125 6.84375 C5.68090332 7.59076172 6.09227539 8.33777344 6.51611328 9.10742188 C6.9439209 9.89697266 7.37172852 10.68652344 7.8125 11.5 C8.25319824 12.30501953 8.69389648 13.11003906 9.14794922 13.93945312 C10.02821467 15.54838097 10.90650854 17.15838924 11.78271484 18.76953125 C12.84012093 20.7070487 13.90935005 22.63691919 14.98828125 24.5625 C15.52839844 25.531875 16.06851563 26.50125 16.625 27.5 C17.09164062 28.3353125 17.55828125 29.170625 18.0390625 30.03125 C19 32 19 32 19 34 C16.15916359 35.42041821 14.14522722 35.31452272 11 35 C8.625 33.25 8.625 33.25 7 31 C7 29.68 7 28.36 7 27 C0.07 27 -6.86 27 -14 27 C-14.33 28.98 -14.66 30.96 -15 33 C-16 34 -16 34 -18.06640625 34.09765625 C-18.89011719 34.08605469 -19.71382812 34.07445312 -20.5625 34.0625 C-21.38878906 34.05347656 -22.21507812 34.04445312 -23.06640625 34.03515625 C-23.70449219 34.02355469 -24.34257812 34.01195312 -25 34 C-22.93533775 27.37325905 -19.81177434 21.45792057 -16.625 15.3125 C-15.75875 13.60223633 -15.75875 13.60223633 -14.875 11.85742188 C-14.31039062 10.76623047 -13.74578125 9.67503906 -13.1640625 8.55078125 C-12.65311035 7.55731689 -12.1421582 6.56385254 -11.61572266 5.5402832 C-8.54005247 0.70463069 -5.72294966 -0.73058932 0 0 Z M-4 10 C-6.82739031 13.92186398 -8.02745 16.13724999 -9 21 C-5.04 21 -1.08 21 3 21 C1.72278474 16.00724943 -0.17330957 13.42388092 -4 10 Z " fill="#EB1A2A" transform="translate(159,61)"/>
<path d="M0 0 C10.89 0 21.78 0 33 0 C33 2.31 33 4.62 33 7 C24.75 7 16.5 7 8 7 C8 8.98 8 10.96 8 13 C12.95 13 17.9 13 23 13 C23 14.98 23 16.96 23 19 C18.05 19 13.1 19 8 19 C8.33 21.31 8.66 23.62 9 26 C16.92 26.33 24.84 26.66 33 27 C33 28.98 33 30.96 33 33 C22.11 33 11.22 33 0 33 C0 22.11 0 11.22 0 0 Z " fill="#EC1C2A" transform="translate(367,62)"/>
<path d="M0 0 C0.79019531 0.00902344 1.58039062 0.01804687 2.39453125 0.02734375 C3.28205078 0.04474609 3.28205078 0.04474609 4.1875 0.0625 C3.84844867 5.60033836 2.52967638 10.61215482 0.8125 15.875 C0.60343018 16.53314697 0.39436035 17.19129395 0.17895508 17.86938477 C-1.97179987 24.25600275 -1.97179987 24.25600275 -4.8125 26.0625 C-12.48045216 26.87905397 -19.4622107 24.16175392 -25.8125 20.0625 C-28.43092848 17.86278418 -28.77005455 17.2499674 -29.5625 13.75 C-28.71428372 9.57960329 -28.25708594 9.16436213 -24.9375 6.8125 C-17.49476353 2.41025051 -8.66699042 -0.12935807 0 0 Z " fill="#EC2837" transform="translate(28.8125,73.9375)"/>
<path d="M0 0 C12.54 0 25.08 0 38 0 C38 2.31 38 4.62 38 7 C33.05 7 28.1 7 23 7 C23 15.58 23 24.16 23 33 C20.36 33 17.72 33 15 33 C15 24.42 15 15.84 15 7 C10.05 7 5.1 7 0 7 C0 4.69 0 2.38 0 0 Z " fill="#EC2130" transform="translate(322,62)"/>
<path d="M0 0 C1.98 0.99 3.96 1.98 6 3 C6.08692074 7.27070558 6.14036515 11.54118458 6.1875 15.8125 C6.21263672 17.02744141 6.23777344 18.24238281 6.26367188 19.49414062 C6.27333984 20.65751953 6.28300781 21.82089844 6.29296875 23.01953125 C6.3086792 24.09307861 6.32438965 25.16662598 6.34057617 26.27270508 C6 29 6 29 4.95117188 30.85546875 C1.93001536 32.62763864 -1.11272924 32.36747771 -4.51171875 32.29296875 C-5.23994339 32.28872391 -5.96816803 32.28447906 -6.71846008 32.28010559 C-9.04185127 32.26332733 -11.3643715 32.22567855 -13.6875 32.1875 C-15.26365934 32.17245197 -16.83983229 32.15876377 -18.41601562 32.14648438 C-22.27767877 32.11342685 -26.13869178 32.06165194 -30 32 C-30.33 31.01 -30.66 30.02 -31 29 C-29.68 28.67 -28.36 28.34 -27 28 C-27 27.34 -27 26.68 -27 26 C-19.08 26 -11.16 26 -3 26 C-3.07907703 19.50788924 -3.07907703 19.50788924 -3.18017578 13.01611328 C-3.1851709 12.20899902 -3.19016602 11.40188477 -3.1953125 10.5703125 C-3.20578613 9.74289551 -3.21625977 8.91547852 -3.22705078 8.06298828 C-3 6 -3 6 -1 4 C-0.3574765 1.93125966 -0.3574765 1.93125966 0 0 Z " fill="#EE2E3C" transform="translate(266,63)"/>
<path d="M0 0 C3.3 0 6.6 0 10 0 C9.67 4.29 9.34 8.58 9 13 C14.94 13 20.88 13 27 13 C27 13.66 27 14.32 27 15 C20.73 15 14.46 15 8 15 C8.04125 17.041875 8.0825 19.08375 8.125 21.1875 C8.21581971 25.68307578 7.95031692 28.92276266 6 33 C4.02 33 2.04 33 0 33 C0 22.11 0 11.22 0 0 Z " fill="#EB1F2D" transform="translate(93,62)"/>
<path d="M0 0 C2.97 0 5.94 0 9 0 C8.67 10.89 8.34 21.78 8 33 C5.36 33 2.72 33 0 33 C-0.33 29.37 -0.66 25.74 -1 22 C-0.01 22 0.98 22 2 22 C1.34 21.01 0.68 20.02 0 19 C-0.22705078 16.9152832 -0.22705078 16.9152832 -0.1953125 14.55078125 C-0.18886719 13.70322266 -0.18242187 12.85566406 -0.17578125 11.98242188 C-0.15902344 11.10134766 -0.14226562 10.22027344 -0.125 9.3125 C-0.11597656 8.41982422 -0.10695312 7.52714844 -0.09765625 6.60742188 C-0.07409915 4.40483334 -0.03822844 2.20238275 0 0 Z " fill="#EC1F2E" transform="translate(214,62)"/>
<path d="M0 0 C3.37083364 2.5327302 5.15714413 6.4533864 7.1875 10.0625 C7.55552734 10.69994141 7.92355469 11.33738281 8.30273438 11.99414062 C11 16.74312964 11 16.74312964 11 19 C10.34 19 9.68 19 9 19 C8.67 19.66 8.34 20.32 8 21 C7.67 18.69 7.34 16.38 7 14 C6.01 13.67 5.02 13.34 4 13 C4 12.34 4 11.68 4 11 C3.34 11 2.68 11 2 11 C2 10.01 2 9.02 2 8 C1.34 8.66 0.68 9.32 0 10 C0 10.99 0 11.98 0 13 C0.66 13.33 1.32 13.66 2 14 C-1 14 -1 14 -2.6875 12.5 C-3.120625 12.005 -3.55375 11.51 -4 11 C-4.26554688 11.54269531 -4.53109375 12.08539063 -4.8046875 12.64453125 C-5.15789062 13.35996094 -5.51109375 14.07539062 -5.875 14.8125 C-6.22304687 15.52019531 -6.57109375 16.22789063 -6.9296875 16.95703125 C-8 19 -8 19 -10 22 C-10.66 19.69 -11.32 17.38 -12 15 C-13.32 15.33 -14.64 15.66 -16 16 C-14.53291432 10.27836585 -11.58811438 5.63139763 -8 1 C-5.20129973 -0.39935013 -3.09501208 -0.25265405 0 0 Z " fill="#EB1C2D" transform="translate(159,61)"/>
<path d="M0 0 C3.74993479 -0.05811773 7.49975352 -0.09363593 11.25 -0.125 C12.84521484 -0.15013672 12.84521484 -0.15013672 14.47265625 -0.17578125 C16.00986328 -0.18544922 16.00986328 -0.18544922 17.578125 -0.1953125 C18.52075195 -0.20578613 19.46337891 -0.21625977 20.43457031 -0.22705078 C23.13117525 0.01160953 24.71959311 0.57170473 27 2 C29.77635896 5.60926665 29.14475788 9.65726346 29 14 C28.67 13.34 28.34 12.68 28 12 C27.030625 11.87625 26.06125 11.7525 25.0625 11.625 C24.051875 11.41875 23.04125 11.2125 22 11 C21.34 9.68 20.68 8.36 20 7 C14.06 7 8.12 7 2 7 C1 4 1 4 2 1 C1.34 0.67 0.68 0.34 0 0 Z " fill="#ED3442" transform="translate(101,61)"/>
<path d="M0 0 C1.76462683 3.08809695 2 4.23312136 2 8 C2.99 8 3.98 8 5 8 C5 7.01 5 6.02 5 5 C5.66 5 6.32 5 7 5 C7 3.35 7 1.7 7 0 C7.33 0 7.66 0 8 0 C8.49029622 7.23186925 8.49029622 7.23186925 6.125 10.9375 C2.84757991 14.11852538 1.01924036 14.1211539 -3.4453125 14.09765625 C-5.05986328 14.09282227 -5.05986328 14.09282227 -6.70703125 14.08789062 C-7.83496094 14.07951172 -8.96289062 14.07113281 -10.125 14.0625 C-11.26066406 14.05798828 -12.39632812 14.05347656 -13.56640625 14.04882812 C-16.37765638 14.03701615 -19.1888023 14.02054507 -22 14 C-22.33 13.34 -22.66 12.68 -23 12 C-22.34 10.35 -21.68 8.7 -21 7 C-14.4 6.67 -7.8 6.34 -1 6 C-0.67 4.02 -0.34 2.04 0 0 Z " fill="#ED3745" transform="translate(122,82)"/>
<path d="M0 0 C-1.15173355 2.46800047 -2.04783565 4.04783565 -4 6 C-5.32 6.33 -6.64 6.66 -8 7 C-3.05 10.96 -3.05 10.96 2 15 C1.67 15.99 1.34 16.98 1 18 C-4.22864971 18.65358121 -7.8858157 18.56580476 -12.1875 15.3125 C-13.47423104 14.22690126 -14.74565494 13.12286235 -16 12 C-17.16453251 11.03907445 -18.33098693 10.0804697 -19.5 9.125 C-20.325 8.42375 -21.15 7.7225 -22 7 C-19.50935112 6.31292445 -17.62113708 6 -15 6 C-14.34 5.01 -13.68 4.02 -13 3 C-10.36 3.66 -7.72 4.32 -5 5 C-5 3.68 -5 2.36 -5 1 C-2 0 -2 0 0 0 Z " fill="#ED2939" transform="translate(317,78)"/>
<path d="M0 0 C8.58 0 17.16 0 26 0 C25.34 0.66 24.68 1.32 24 2 C24.66 2.33 25.32 2.66 26 3 C26.33 2.34 26.66 1.68 27 1 C27.66 1 28.32 1 29 1 C28.67 2.65 28.34 4.3 28 6 C17.77 6 7.54 6 -3 6 C-3.33 5.01 -3.66 4.02 -4 3 C-2.68 2.67 -1.36 2.34 0 2 C0 1.34 0 0.68 0 0 Z " fill="#EB1C2A" transform="translate(239,89)"/>
<path d="M0 0 C4.06236402 -0.08729047 8.12448589 -0.14048992 12.1875 -0.1875 C13.91323242 -0.22520508 13.91323242 -0.22520508 15.67382812 -0.26367188 C17.34155273 -0.27817383 17.34155273 -0.27817383 19.04296875 -0.29296875 C20.06414795 -0.3086792 21.08532715 -0.32438965 22.13745117 -0.34057617 C25.45922883 0.05463746 27.3069608 1.05216691 30 3 C32.14104088 6.05130378 32.22152302 8.58212528 32.125 12.25 C32.10695313 13.14203125 32.08890625 14.0340625 32.0703125 14.953125 C32.04710937 15.62859375 32.02390625 16.3040625 32 17 C30.68 16.34 29.36 15.68 28 15 C28.33 11.37 28.66 7.74 29 4 C28.071875 3.87625 27.14375 3.7525 26.1875 3.625 C23 3 23 3 20 1 C20.99 2.32 21.98 3.64 23 5 C22.01 5.33 21.02 5.66 20 6 C19.34 6.66 18.68 7.32 18 8 C18 7.34 18 6.68 18 6 C17.00419922 6.05220703 17.00419922 6.05220703 15.98828125 6.10546875 C7.21792619 6.37434095 7.21792619 6.37434095 3 3 C3 3.99 3 4.98 3 6 C2.34 6 1.68 6 1 6 C0.67 4.02 0.34 2.04 0 0 Z " fill="#EC1F30" transform="translate(286,61)"/>
<path d="M0 0 C0.12375 0.639375 0.2475 1.27875 0.375 1.9375 C0.58125 2.618125 0.7875 3.29875 1 4 C1.66 4.33 2.32 4.66 3 5 C2.67 6.65 2.34 8.3 2 10 C3.32 10.33 4.64 10.66 6 11 C5.01 11 4.02 11 3 11 C2.855625 11.969375 2.71125 12.93875 2.5625 13.9375 C2 17 2 17 1 18 C-0.51928038 18.07179964 -2.04167482 18.08392007 -3.5625 18.0625 C-4.38878906 18.05347656 -5.21507812 18.04445313 -6.06640625 18.03515625 C-7.02353516 18.01775391 -7.02353516 18.01775391 -8 18 C-6.65150163 13.64029169 -4.95092154 9.68658562 -2.875 5.625 C-2.33617187 4.56539063 -1.79734375 3.50578125 -1.2421875 2.4140625 C-0.83226562 1.61742188 -0.42234375 0.82078125 0 0 Z " fill="#ED2A3B" transform="translate(142,77)"/>
<path d="M0 0 C0.33 0 0.66 0 1 0 C1.06058594 1.19238281 1.12117187 2.38476562 1.18359375 3.61328125 C1.26801149 5.17969925 1.35265887 6.74610488 1.4375 8.3125 C1.47681641 9.09818359 1.51613281 9.88386719 1.55664062 10.69335938 C1.61948242 11.8293457 1.61948242 11.8293457 1.68359375 12.98828125 C1.72025146 13.68477783 1.75690918 14.38127441 1.79467773 15.09887695 C1.95581153 17.2216572 1.95581153 17.2216572 3 20 C2.01 20 1.02 20 0 20 C0.350625 21.093125 0.70125 22.18625 1.0625 23.3125 C2 27 2 27 1 30 C-2.16115776 28.63016497 -2.9927092 28.0109362 -5 25 C-4.34 24.67 -3.68 24.34 -3 24 C-3.26656572 21.06556598 -3.26656572 21.06556598 -4 18 C-4.99 17.34 -5.98 16.68 -7 16 C-7 15.34 -7 14.68 -7 14 C-7.99 13.67 -8.98 13.34 -10 13 C-10 12.01 -10 11.02 -10 10 C-6.36185181 11.61695475 -4.30701392 13.35438887 -1 16 C-0.67 10.72 -0.34 5.44 0 0 Z " fill="#EF4452" transform="translate(213,64)"/>
<path d="M0 0 C0.33 0 0.66 0 1 0 C1.33 4.95 1.66 9.9 2 15 C2.33 15 2.66 15 3 15 C3.10957031 15.56589844 3.21914062 16.13179687 3.33203125 16.71484375 C3.49058594 17.44832031 3.64914063 18.18179688 3.8125 18.9375 C3.96332031 19.66839844 4.11414063 20.39929688 4.26953125 21.15234375 C4.51058594 21.76207031 4.75164062 22.37179688 5 23 C5.99 23.33 6.98 23.66 8 24 C7.34 24.66 6.68 25.32 6 26 C6 26.66 6 27.32 6 28 C15.57 28 25.14 28 35 28 C35 28.33 35 28.66 35 29 C30.80081815 29.07430494 26.60198726 29.12867413 22.40234375 29.16479492 C20.97454154 29.17985681 19.5467854 29.20031062 18.11914062 29.22631836 C16.06368627 29.26281842 14.00884495 29.27975166 11.953125 29.29296875 C10.71723633 29.3086792 9.48134766 29.32438965 8.20800781 29.34057617 C4.75616586 28.9741135 3.39994927 28.46077582 1 26 C-0.01973129 22.94080612 -0.11533602 20.87581975 -0.09765625 17.67578125 C-0.09443359 16.64775391 -0.09121094 15.61972656 -0.08789062 14.56054688 C-0.07951172 13.48869141 -0.07113281 12.41683594 -0.0625 11.3125 C-0.05798828 10.22904297 -0.05347656 9.14558594 -0.04882812 8.02929688 C-0.03703743 5.35280915 -0.02058063 2.67643223 0 0 Z " fill="#F16A74" transform="translate(230,67)"/>
<path d="M0 0 C3.72901814 -0.08736736 7.45777165 -0.14051482 11.1875 -0.1875 C12.24259766 -0.21263672 13.29769531 -0.23777344 14.38476562 -0.26367188 C15.91713867 -0.27817383 15.91713867 -0.27817383 17.48046875 -0.29296875 C18.41785889 -0.3086792 19.35524902 -0.32438965 20.32104492 -0.34057617 C23.52989552 0.06736574 25.38455977 1.13142056 28 3 C30.14104088 6.05130378 30.22152302 8.58212528 30.125 12.25 C30.10695313 13.14203125 30.08890625 14.0340625 30.0703125 14.953125 C30.04710937 15.62859375 30.02390625 16.3040625 30 17 C28.68 16.34 27.36 15.68 26 15 C26.33 11.37 26.66 7.74 27 4 C24.03 3.505 24.03 3.505 21 3 C21 2.67 21 2.34 21 2 C14.07 1.67 7.14 1.34 0 1 C0 0.67 0 0.34 0 0 Z " fill="#F16B74" transform="translate(288,61)"/>
<path d="M0 0 C3 2 3 2 3.44140625 3.91015625 C3.48136719 4.62042969 3.52132812 5.33070312 3.5625 6.0625 C3.706875 7.361875 3.85125 8.66125 4 10 C4.66 10.33 5.32 10.66 6 11 C3.64561267 12.42944945 2.51967567 13.08661261 -0.25 12.625 C-0.8275 12.41875 -1.405 12.2125 -2 12 C-1.979375 11.278125 -1.95875 10.55625 -1.9375 9.8125 C-1.99820559 7.08074862 -2.39258535 4.65743909 -3 2 C-2.01 1.34 -1.02 0.68 0 0 Z " fill="#EB192A" transform="translate(146,75)"/>
<path d="M0 0 C5.70520231 2.30635838 5.70520231 2.30635838 7.0625 5.5 C7 8 7 8 5.6875 9.8125 C4 11 4 11 2 11 C2 10.34 2 9.68 2 9 C1.01 8.67 0.02 8.34 -1 8 C-0.67 7.01 -0.34 6.02 0 5 C-0.66 4.67 -1.32 4.34 -2 4 C-1.34 2.68 -0.68 1.36 0 0 Z " fill="#EB2130" transform="translate(196,69)"/>
<path d="M0 0 C2 4 2 4 2 8 C2.99 8 3.98 8 5 8 C5 7.01 5 6.02 5 5 C5.66 5 6.32 5 7 5 C7 3.35 7 1.7 7 0 C7.33 0 7.66 0 8 0 C8.60785141 7.17264669 8.60785141 7.17264669 5.75 11.0625 C4.8425 11.701875 3.935 12.34125 3 13 C1.68 12.67 0.36 12.34 -1 12 C-0.67 8.04 -0.34 4.08 0 0 Z " fill="#EF424F" transform="translate(122,82)"/>
<path d="M0 0 C2.97246802 2.54782974 4.41535288 5.45340883 6 9 C6 9.66 6 10.32 6 11 C3.29120665 12.35439668 0.99066732 12.06501451 -2 12 C-1.01 11.67 -0.02 11.34 1 11 C0.67 10.01 0.34 9.02 0 8 C-0.12781786 5.32605036 -0.04391871 2.67904143 0 0 Z " fill="#F0515E" transform="translate(172,84)"/>
<path d="M0 0 C2.49552403 2.27597646 4.06622986 4.60721178 5.6875 7.5625 C6.12449219 8.34753906 6.56148437 9.13257812 7.01171875 9.94140625 C8 12 8 12 8 14 C7.34 14 6.68 14 6 14 C5.67 14.66 5.34 15.32 5 16 C4.67 13.69 4.34 11.38 4 9 C3.01 8.67 2.02 8.34 1 8 C1 7.34 1 6.68 1 6 C0.34 6 -0.32 6 -1 6 C-0.67 4.02 -0.34 2.04 0 0 Z " fill="#EE3F4E" transform="translate(162,66)"/>
<path d="M0 0 C0.66 0 1.32 0 2 0 C2 4.95 2 9.9 2 15 C0.35 15 -1.3 15 -3 15 C-3.33 13.68 -3.66 12.36 -4 11 C-3.01 11 -2.02 11 -1 11 C-1.33 10.34 -1.66 9.68 -2 9 C-1.34 9 -0.68 9 0 9 C0 6.03 0 3.06 0 0 Z " fill="#EE1D2D" transform="translate(189,80)"/>
<path d="M0 0 C2.5 1.125 2.5 1.125 5 3 C5.3125 6.1875 5.3125 6.1875 5 9 C3.68 8.67 2.36 8.34 1 8 C1 7.34 1 6.68 1 6 C0.34 6 -0.32 6 -1 6 C-1.33 6.99 -1.66 7.98 -2 9 C-2 5.20442119 -1.49821059 3.37097383 0 0 Z " fill="#EB1B29" transform="translate(266,63)"/>
<path d="M0 0 C0.639375 0.185625 1.27875 0.37125 1.9375 0.5625 C2.9584375 0.7790625 2.9584375 0.7790625 4 1 C4.33 0.67 4.66 0.34 5 0 C5.66 0 6.32 0 7 0 C7 1.32 7 2.64 7 4 C6.34 4 5.68 4 5 4 C4.67 4.66 4.34 5.32 4 6 C2.02 6 0.04 6 -2 6 C-1.34 4.02 -0.68 2.04 0 0 Z " fill="#EC2A39" transform="translate(136,89)"/>
<path d="M0 0 C1.8871875 0.0309375 1.8871875 0.0309375 3.8125 0.0625 C4.1425 0.7225 4.4725 1.3825 4.8125 2.0625 C4.1525 2.0625 3.4925 2.0625 2.8125 2.0625 C2.8125 3.0525 2.8125 4.0425 2.8125 5.0625 C1.33132199 4.78122579 -0.14743249 4.48716268 -1.625 4.1875 C-2.44871094 4.02507812 -3.27242187 3.86265625 -4.12109375 3.6953125 C-4.80300781 3.48648438 -5.48492188 3.27765625 -6.1875 3.0625 C-6.5175 2.4025 -6.8475 1.7425 -7.1875 1.0625 C-4.43671116 0.14557039 -2.82801087 -0.04636083 0 0 Z " fill="#EC1A2B" transform="translate(27.1875,74.9375)"/>
<path d="M0 0 C0.66 0 1.32 0 2 0 C4.60018816 3.90028225 4.15085514 7.47434569 4 12 C3.67 11.34 3.34 10.68 3 10 C0.47266765 9.34444881 0.47266765 9.34444881 -2 9 C-1.34 6.03 -0.68 3.06 0 0 Z " fill="#EE4D57" transform="translate(126,63)"/>
<path d="M0 0 C-0.33 1.32 -0.66 2.64 -1 4 C-3.97 4 -6.94 4 -10 4 C-10 3.01 -10 2.02 -10 1 C-6.78548731 -0.60725635 -3.56387464 -0.05748185 0 0 Z " fill="#EC1B2C" transform="translate(51,75)"/>
<path d="M0 0 C0.66 0.33 1.32 0.66 2 1 C1.36982402 3.94082123 0.33984264 6.32031473 -1 9 C-1 9.66 -1 10.32 -1 11 C-2.32 11 -3.64 11 -5 11 C-5 7.58678765 -4.33132534 6.60527115 -2.5 3.8125 C-2.0359375 3.09707031 -1.571875 2.38164063 -1.09375 1.64453125 C-0.7328125 1.10183594 -0.371875 0.55914062 0 0 Z " fill="#EE3E4C" transform="translate(151,62)"/>
<path d="M0 0 C0.33 1.32 0.66 2.64 1 4 C-3.61073111 5.29676812 -7.33840089 4.71109139 -12 4 C-10.30820672 1.95780294 -9.36272334 1.08206694 -6.73828125 0.48828125 C-5.93777344 0.43027344 -5.13726562 0.37226562 -4.3125 0.3125 C-3.10013672 0.21388672 -3.10013672 0.21388672 -1.86328125 0.11328125 C-0.94095703 0.05720703 -0.94095703 0.05720703 0 0 Z " fill="#F04C5C" transform="translate(37,49)"/>
<path d="M0 0 C1.32 0 2.64 0 4 0 C4 0.66 4 1.32 4 2 C5.98 1.67 7.96 1.34 10 1 C8.1875 3.5 8.1875 3.5 6 6 C5.01 6 4.02 6 3 6 C3 5.34 3 4.68 3 4 C2.34 4 1.68 4 1 4 C0.67 2.68 0.34 1.36 0 0 Z " fill="#EC1D2D" transform="translate(56,66)"/>
<path d="M0 0 C-1.15173355 2.46800047 -2.04783565 4.04783565 -4 6 C-5.98356483 6.71408334 -7.98315437 7.38617742 -10 8 C-10.33 6.68 -10.66 5.36 -11 4 C-8.03 4.495 -8.03 4.495 -5 5 C-5 3.68 -5 2.36 -5 1 C-2 0 -2 0 0 0 Z " fill="#EF4250" transform="translate(317,78)"/>
<path d="M0 0 C0.12375 0.639375 0.2475 1.27875 0.375 1.9375 C0.684375 2.9584375 0.684375 2.9584375 1 4 C1.66 4.33 2.32 4.66 3 5 C2.01 5 1.02 5 0 5 C-0.268125 5.969375 -0.53625 6.93875 -0.8125 7.9375 C-1.204375 8.948125 -1.59625 9.95875 -2 11 C-2.99 11.33 -3.98 11.66 -5 12 C-3.68938409 7.76570244 -2.05643741 3.92592596 0 0 Z " fill="#EF4B58" transform="translate(142,77)"/>
<path d="M0 0 C1.4606285 2.64738916 2 3.89448334 2 7 C-0.31 7 -2.62 7 -5 7 C-3.35 4.69 -1.7 2.38 0 0 Z " fill="#EB1D2C" transform="translate(32,65)"/>
<path d="M0 0 C1.32 0.66 2.64 1.32 4 2 C4 3.32 4 4.64 4 6 C1.03 6 -1.94 6 -5 6 C-5 5.67 -5 5.34 -5 5 C-3.02 5 -1.04 5 1 5 C0.67 3.35 0.34 1.7 0 0 Z " fill="#F16972" transform="translate(314,90)"/>
<path d="M0 0 C1.32 0 2.64 0 4 0 C4 0.66 4 1.32 4 2 C4.66 2.33 5.32 2.66 6 3 C5.67 3.66 5.34 4.32 5 5 C3.35 5 1.7 5 0 5 C0 3.33333333 0 1.66666667 0 0 Z " fill="#ED273A" transform="translate(168,90)"/>
<path d="M0 0 C5.5 -0.36666667 5.5 -0.36666667 7.875 1.375 C9 3 9 3 9 5 C7.35 5 5.7 5 4 5 C4 4.01 4 3.02 4 2 C2.68 1.34 1.36 0.68 0 0 Z " fill="#F04E5D" transform="translate(153,61)"/>
<path d="M0 0 C2.64 0.33 5.28 0.66 8 1 C8 2.98 8 4.96 8 7 C6.66382648 6.02471263 5.3311249 5.04466681 4 4.0625 C3.2575 3.51722656 2.515 2.97195312 1.75 2.41015625 C1.1725 1.94480469 0.595 1.47945313 0 1 C0 0.67 0 0.34 0 0 Z " fill="#F0515D" transform="translate(295,84)"/>
<path d="M0 0 C2.91517292 1.07401108 4.77810176 1.77810176 7 4 C6.625 7.125 6.625 7.125 6 10 C5.67 10 5.34 10 5 10 C4.34 7.69 3.68 5.38 3 3 C1.68 3.33 0.36 3.66 -1 4 C-0.67 2.68 -0.34 1.36 0 0 Z " fill="#EF4756" transform="translate(144,73)"/>
<path d="M0 0 C2.31 1.65 4.62 3.3 7 5 C6.34 5.66 5.68 6.32 5 7 C4.67 6.34 4.34 5.68 4 5 C3.01 5.99 2.02 6.98 1 8 C0.67 5.36 0.34 2.72 0 0 Z " fill="#EF404F" transform="translate(193,65)"/>
<path d="M0 0 C1.65 0 3.3 0 5 0 C4.01 1.485 4.01 1.485 3 3 C3 3.99 3 4.98 3 6 C3.66 6.33 4.32 6.66 5 7 C2 7 2 7 0.375 5.625 C-1 4 -1 4 -2 2 C-1.34 2 -0.68 2 0 2 C0 1.34 0 0.68 0 0 Z " fill="#EE3D4C" transform="translate(156,68)"/>
<path d="M0 0 C3.16595501 0.56534911 6.0410416 1.76710066 9 3 C9 3.66 9 4.32 9 5 C4.78087253 4.5205537 2.20336822 3.83374881 -1 1 C-0.67 0.67 -0.34 0.34 0 0 Z " fill="#F03E4E" transform="translate(14,66)"/>
<path d="M0 0 C0.66 0.66 1.32 1.32 2 2 C5.08347826 2.16681109 5.08347826 2.16681109 8 2 C8 2.99 8 3.98 8 5 C7.236875 4.979375 6.47375 4.95875 5.6875 4.9375 C2.89814214 4.87057159 2.89814214 4.87057159 0 6 C0 4.02 0 2.04 0 0 Z " fill="#F0394A" transform="translate(287,79)"/>
<path d="M0 0 C0.66 0 1.32 0 2 0 C2 2.31 2 4.62 2 7 C1.34 7 0.68 7 0 7 C-0.33 7.66 -0.66 8.32 -1 9 C-1.66 9 -2.32 9 -3 9 C-2.01 6.03 -1.02 3.06 0 0 Z " fill="#EC3644" transform="translate(127,75)"/>
<path d="M0 0 C1.98 0 3.96 0 6 0 C6.33 0.66 6.66 1.32 7 2 C6.67 2.99 6.34 3.98 6 5 C2.83884224 3.63016497 2.0072908 3.0109362 0 0 Z " fill="#EE4350" transform="translate(208,89)"/>
<path d="M0 0 C0.99 1.32 1.98 2.64 3 4 C2.34 4 1.68 4 1 4 C0.67 4.99 0.34 5.98 0 7 C-1.32 5.68 -2.64 4.36 -4 3 C-2.68 2.67 -1.36 2.34 0 2 C0 1.34 0 0.68 0 0 Z " fill="#EC3A47" transform="translate(202,77)"/>
<path d="M0 0 C2.31 0 4.62 0 7 0 C7 0.99 7 1.98 7 3 C5.02 3.33 3.04 3.66 1 4 C0.67 2.68 0.34 1.36 0 0 Z " fill="#EC1D2C" transform="translate(302,87)"/>
<path d="M0 0 C0.66 0.33 1.32 0.66 2 1 C1.67 2.65 1.34 4.3 1 6 C0.34 6 -0.32 6 -1 6 C-0.67 7.32 -0.34 8.64 0 10 C-0.66 9.67 -1.32 9.34 -2 9 C-2.125 5.625 -2.125 5.625 -2 2 C-1.34 1.34 -0.68 0.68 0 0 Z " fill="#EF505D" transform="translate(2,82)"/>
<path d="M0 0 C2.31 0.66 4.62 1.32 7 2 C5.625 4 5.625 4 4 6 C3.34 6 2.68 6 2 6 C1.34 4.02 0.68 2.04 0 0 Z " fill="#ED2B3C" transform="translate(160,76)"/>
<path d="M0 0 C0.99 0 1.98 0 3 0 C3.33 1.32 3.66 2.64 4 4 C2.02 4 0.04 4 -2 4 C-2 3.34 -2 2.68 -2 2 C-1.34 2 -0.68 2 0 2 C0 1.34 0 0.68 0 0 Z " fill="#ED293A" transform="translate(168,80)"/>
<path d="M0 0 C1.485 0.99 1.485 0.99 3 2 C2.34 3.98 1.68 5.96 1 8 C0.67 8 0.34 8 0 8 C-0.38063221 5.6739143 -0.71269945 3.33944736 -1 1 C-0.67 0.67 -0.34 0.34 0 0 Z " fill="#EB1C2D" transform="translate(35,53)"/>
</svg>
