<?xml version="1.0" encoding="UTF-8"?>
<svg version="1.1" xmlns="http://www.w3.org/2000/svg" width="400" height="150">
<path d="M0 0 C7.11339037 2.78146808 14.56404101 2.54298784 22.1015625 2.52734375 C23.14149353 2.52861771 24.18142456 2.52989166 25.25286865 2.53120422 C28.71157503 2.5330266 32.17020735 2.52658807 35.62890625 2.51953125 C36.82139984 2.51897736 38.01389343 2.51842346 39.24252319 2.51785278 C55.149452 2.50932388 71.05196751 2.37002793 86.95703125 2.1328125 C87.76716108 2.12081566 88.57729092 2.10881882 89.41197014 2.09645844 C97.46110915 1.97650756 105.51006436 1.84928932 113.55879021 1.70411777 C116.56636323 1.65061603 119.57399285 1.60096525 122.58164215 1.5519619 C123.98958024 1.52793512 125.39748669 1.50196812 126.80535126 1.47396278 C128.73578842 1.43558231 130.66635745 1.40401384 132.59692383 1.37280273 C133.6826619 1.35281723 134.76839996 1.33283173 135.88703918 1.3122406 C138.56640625 1.39453125 138.56640625 1.39453125 141.56640625 2.39453125 C141.56640625 3.05453125 141.56640625 3.71453125 141.56640625 4.39453125 C134.13002672 7.58534964 126.9644037 8.37774631 118.96679688 9.2109375 C112.72432226 9.90057681 112.72432226 9.90057681 106.82421875 11.91796875 C103.14156765 13.587084 100.01441895 14.07436839 96.00390625 14.51953125 C95.31498291 14.59953369 94.62605957 14.67953613 93.91625977 14.76196289 C88.20719749 15.39964598 82.49057672 15.73949009 76.75 15.953125 C73.47929425 16.24773546 73.47929425 16.24773546 70.421875 17.859375 C65.35206557 20.19278639 59.93889937 20.18742463 54.44140625 20.51953125 C53.29865234 20.59880859 52.15589844 20.67808594 50.97851562 20.75976562 C42.85829957 21.30592802 34.72889098 21.73242655 26.59326172 21.96533203 C18.80214401 22.24616532 10.83447959 22.68725689 4.50390625 27.64453125 C3.6840625 28.26199219 2.86421875 28.87945312 2.01953125 29.515625 C1.21 30.13566406 0.40046875 30.75570312 -0.43359375 31.39453125 C-2.02733038 32.51369981 -3.63109067 33.61877587 -5.24609375 34.70703125 C-5.93316406 35.17753906 -6.62023437 35.64804688 -7.328125 36.1328125 C-16.41779658 41.57986987 -30.41178665 41.17221703 -40.54882812 38.92578125 C-44.2430596 37.66817053 -47.30305812 35.68352504 -50.43359375 33.39453125 C-51.42746094 32.6984375 -52.42132813 32.00234375 -53.4453125 31.28515625 C-55.337981 29.92936234 -57.21200596 28.54682187 -59.05859375 27.12890625 C-65.95917043 22.08966933 -73.83288897 22.28501927 -82.10546875 21.9296875 C-83.75652132 21.85114033 -85.40756266 21.7723568 -87.05859375 21.69335938 C-89.61642042 21.57431679 -92.17429738 21.45743997 -94.73242188 21.3449707 C-119.94504918 20.22305746 -119.94504918 20.22305746 -125.40478516 17.36132812 C-127.97635092 16.13588885 -130.10149775 16.02712544 -132.94140625 15.8671875 C-134.01132813 15.79693359 -135.08125 15.72667969 -136.18359375 15.65429688 C-138.41000994 15.52416491 -140.63657227 15.39650645 -142.86328125 15.27148438 C-149.79880277 14.81105203 -155.87079253 13.65701462 -162.43359375 11.39453125 C-168.53812929 9.46220839 -174.33082278 8.78258319 -180.67382812 8.27148438 C-186.0527527 7.76161193 -190.44243104 6.47844105 -195.43359375 4.39453125 C-195.43359375 3.73453125 -195.43359375 3.07453125 -195.43359375 2.39453125 C-192.1958556 1.3152852 -189.97350976 1.30896416 -186.57177734 1.37280273 C-184.74292244 1.40293205 -184.74292244 1.40293205 -182.87712097 1.43367004 C-181.52875766 1.460985 -180.18039442 1.48830343 -178.83203125 1.515625 C-177.42154392 1.54013082 -176.01104645 1.56405905 -174.60054016 1.58744812 C-171.58019208 1.63814472 -168.55990796 1.69149794 -165.53964233 1.74688721 C-157.58137743 1.8917638 -149.62274571 2.01347999 -141.6640625 2.1328125 C-140.45586947 2.15104946 -140.45586947 2.15104946 -139.22326851 2.16965485 C-122.85553868 2.4138538 -106.49065284 2.51207044 -90.12109375 2.51953125 C-88.91998962 2.52193817 -87.7188855 2.52434509 -86.48138428 2.52682495 C-83.09433115 2.53269967 -79.70736667 2.5314011 -76.3203125 2.52734375 C-75.34210037 2.52933273 -74.36388824 2.53132172 -73.35603333 2.53337097 C-62.43551142 2.62714528 -62.43551142 2.62714528 -52.01171875 -0.19921875 C-51.29628906 -0.50730469 -50.58085937 -0.81539063 -49.84375 -1.1328125 C-49.13089844 -1.45378906 -48.41804687 -1.77476563 -47.68359375 -2.10546875 C-31.06904572 -9.4276324 -16.15807639 -7.55514152 0 0 Z " fill="#E9ECED" transform="translate(225.43359375,86.60546875)"/>
<path d="M0 0 C7.11339037 2.78146808 14.56404101 2.54298784 22.1015625 2.52734375 C23.14149353 2.52861771 24.18142456 2.52989166 25.25286865 2.53120422 C28.71157503 2.5330266 32.17020735 2.52658807 35.62890625 2.51953125 C36.82139984 2.51897736 38.01389343 2.51842346 39.24252319 2.51785278 C55.149452 2.50932388 71.05196751 2.37002793 86.95703125 2.1328125 C87.76716108 2.12081566 88.57729092 2.10881882 89.41197014 2.09645844 C97.46110915 1.97650756 105.51006436 1.84928932 113.55879021 1.70411777 C116.56636323 1.65061603 119.57399285 1.60096525 122.58164215 1.5519619 C123.98958024 1.52793512 125.39748669 1.50196812 126.80535126 1.47396278 C128.73578842 1.43558231 130.66635745 1.40401384 132.59692383 1.37280273 C133.6826619 1.35281723 134.76839996 1.33283173 135.88703918 1.3122406 C138.56640625 1.39453125 138.56640625 1.39453125 141.56640625 2.39453125 C141.56640625 3.05453125 141.56640625 3.71453125 141.56640625 4.39453125 C134.13002672 7.58534964 126.9644037 8.37774631 118.96679688 9.2109375 C112.72432226 9.90057681 112.72432226 9.90057681 106.82421875 11.91796875 C103.14156765 13.587084 100.01441895 14.07436839 96.00390625 14.51953125 C95.31498291 14.59953369 94.62605957 14.67953613 93.91625977 14.76196289 C88.20719749 15.39964598 82.49057672 15.73949009 76.75 15.953125 C73.47929425 16.24773546 73.47929425 16.24773546 70.421875 17.859375 C65.35206557 20.19278639 59.93889937 20.18742463 54.44140625 20.51953125 C53.29865234 20.59880859 52.15589844 20.67808594 50.97851562 20.75976562 C42.85829957 21.30592802 34.72889098 21.73242655 26.59326172 21.96533203 C18.80214401 22.24616532 10.83447959 22.68725689 4.50390625 27.64453125 C3.6840625 28.26199219 2.86421875 28.87945312 2.01953125 29.515625 C1.21 30.13566406 0.40046875 30.75570312 -0.43359375 31.39453125 C-2.02733038 32.51369981 -3.63109067 33.61877587 -5.24609375 34.70703125 C-5.93316406 35.17753906 -6.62023437 35.64804688 -7.328125 36.1328125 C-16.41779658 41.57986987 -30.41178665 41.17221703 -40.54882812 38.92578125 C-44.2430596 37.66817053 -47.30305812 35.68352504 -50.43359375 33.39453125 C-51.42746094 32.6984375 -52.42132813 32.00234375 -53.4453125 31.28515625 C-55.337981 29.92936234 -57.21200596 28.54682187 -59.05859375 27.12890625 C-65.95917043 22.08966933 -73.83288897 22.28501927 -82.10546875 21.9296875 C-83.75652132 21.85114033 -85.40756266 21.7723568 -87.05859375 21.69335938 C-89.61642042 21.57431679 -92.17429738 21.45743997 -94.73242188 21.3449707 C-121.39848648 20.15838231 -121.39848648 20.15838231 -125.24511719 16.82446289 C-125.63731445 16.35258545 -126.02951172 15.88070801 -126.43359375 15.39453125 C-118.43140761 15.24401991 -110.43607949 15.2723707 -102.43359375 15.39453125 C-101.59781799 15.4072406 -100.76204224 15.41994995 -99.90093994 15.43304443 C-94.212269 15.52798229 -88.52719538 15.67454548 -82.8409729 15.86651611 C-80.91078236 15.92660854 -78.98019051 15.975008 -77.04940796 16.01141357 C-59.47068031 16.3613877 -59.47068031 16.3613877 -54.21484375 20.796875 C-52.15452519 23.06851608 -51.41966706 24.43631133 -50.43359375 27.39453125 C-48.10061259 28.50932754 -48.10061259 28.50932754 -45.43359375 29.39453125 C-44.7478125 29.74773437 -44.06203125 30.1009375 -43.35546875 30.46484375 C-33.87927216 35.06659389 -22.16274586 35.02612929 -12.24609375 31.70703125 C-6.74524341 29.33999868 -3.04542082 26.43301843 0.69140625 21.70703125 C3.18088271 18.63667695 5.19519122 17.60803995 9.09863281 17.00024414 C10.0419043 16.93571045 10.98517578 16.87117676 11.95703125 16.8046875 C13.01728516 16.73137207 14.07753906 16.65805664 15.16992188 16.58251953 C20.88359508 16.26627971 26.5975072 16.02952744 32.31640625 15.83203125 C36.35890625 15.68765625 40.40140625 15.54328125 44.56640625 15.39453125 C25.26140625 14.89953125 25.26140625 14.89953125 5.56640625 14.39453125 C5.23640625 13.40453125 4.90640625 12.41453125 4.56640625 11.39453125 C5.85376427 11.37907005 5.85376427 11.37907005 7.16712952 11.36329651 C15.41327193 11.26369794 23.65936963 11.16101369 31.90543461 11.05519199 C36.14079609 11.00093966 40.37616431 10.94772155 44.61157227 10.8972168 C66.27422581 10.63800899 87.9166635 10.19986651 109.56640625 9.39453125 C109.56640625 8.73453125 109.56640625 8.07453125 109.56640625 7.39453125 C108.53106499 7.50111305 108.53106499 7.50111305 107.47480774 7.60984802 C96.70632669 8.58661218 85.97559538 8.52143857 75.171875 8.4921875 C73.12779271 8.49031867 71.08370997 8.48889697 69.03962708 8.48789978 C63.70175912 8.48411117 58.36391907 8.47431279 53.02606201 8.4631958 C47.56230039 8.45290239 42.09853418 8.44838529 36.63476562 8.44335938 C25.94530035 8.43268667 15.25585563 8.41565503 4.56640625 8.39453125 C4.23640625 7.73453125 3.90640625 7.07453125 3.56640625 6.39453125 C5.03383018 6.37907005 5.03383018 6.37907005 6.53089905 6.36329651 C15.95183496 6.26364521 25.37273199 6.1608096 34.79360294 6.05519199 C39.63183721 6.00104374 44.47007721 5.94785304 49.30834961 5.8972168 C75.40215285 5.62323846 101.4819067 5.14851321 127.56640625 4.39453125 C126.61390834 4.40006201 126.61390834 4.40006201 125.64216805 4.4057045 C110.15834586 4.49421933 94.67461225 4.56032019 79.19059944 4.60177994 C71.70249443 4.62236486 64.21455878 4.650407 56.7265625 4.69628906 C50.19651065 4.73628217 43.66658152 4.76199362 37.13641059 4.77088523 C33.68185148 4.77607904 30.2276433 4.78819991 26.77319717 4.81745148 C22.90749004 4.849917 19.04211954 4.85048269 15.17626953 4.84863281 C13.4769352 4.87020447 13.4769352 4.87020447 11.74327087 4.89221191 C4.48488918 4.85475461 -0.89416645 3.46923146 -7.43359375 0.39453125 C-8.90714921 -0.18250825 -10.3861263 -0.74596606 -11.87109375 -1.29296875 C-13.04671875 -1.72609375 -14.22234375 -2.15921875 -15.43359375 -2.60546875 C-23.12740607 -5.17007286 -33.78896826 -4.76470006 -41.24609375 -1.60546875 C-41.97441406 -1.23421875 -42.70273438 -0.86296875 -43.453125 -0.48046875 C-45.43359375 0.39453125 -45.43359375 0.39453125 -49.43359375 0.39453125 C-49.43359375 1.05453125 -49.43359375 1.71453125 -49.43359375 2.39453125 C-55.33139431 4.9765825 -61.09473015 4.66179206 -67.40576172 4.62158203 C-68.60632706 4.62187408 -69.8068924 4.62216614 -71.0438385 4.62246704 C-74.32237315 4.62131545 -77.60073533 4.6113101 -80.87923574 4.59731913 C-84.31052489 4.58478572 -87.74181771 4.58363921 -91.17312622 4.58126831 C-97.66470568 4.57506119 -104.15621747 4.55866082 -110.64776719 4.53856933 C-118.04074282 4.51618637 -125.43372175 4.50521088 -132.82672286 4.49517846 C-148.0290508 4.47429388 -163.2313155 4.4391329 -178.43359375 4.39453125 C-161.04069459 5.05236278 -143.66329841 5.55728651 -126.2578125 5.7109375 C-124.21417432 5.73162163 -122.1705393 5.75261993 -120.12690735 5.77391052 C-114.86164994 5.82795345 -109.59636204 5.87785903 -104.33105469 5.92675781 C-98.91273427 5.97785849 -93.49445573 6.03307221 -88.07617188 6.08789062 C-77.52868195 6.19402123 -66.98115499 6.2957602 -56.43359375 6.39453125 C-58.43359375 8.39453125 -58.43359375 8.39453125 -60.30389595 8.64062691 C-61.45152822 8.63786153 -61.45152822 8.63786153 -62.62234497 8.63504028 C-63.939077 8.63916428 -63.939077 8.63916428 -65.28240967 8.64337158 C-66.24769592 8.63618103 -67.21298218 8.62899048 -68.20751953 8.62158203 C-69.72951462 8.62202011 -69.72951462 8.62202011 -71.28225708 8.62246704 C-74.64789274 8.62106977 -78.01330909 8.60548985 -81.37890625 8.58984375 C-83.70775227 8.58611503 -86.03659985 8.5832674 -88.365448 8.58126831 C-94.50413318 8.57362074 -100.64272418 8.55396259 -106.78137207 8.53186035 C-113.04173508 8.51142611 -119.30211327 8.50227178 -125.5625 8.4921875 C-137.85290603 8.47071777 -150.14324207 8.43656828 -162.43359375 8.39453125 C-159.86035866 9.68114879 -157.90688669 9.59603435 -155.02490234 9.69116211 C-153.87607574 9.73020157 -152.72724915 9.76924103 -151.54360962 9.8094635 C-150.27753876 9.8465593 -149.0114679 9.88365509 -147.70703125 9.921875 C-147.05206036 9.94229292 -146.39708946 9.96271084 -145.72227097 9.98374748 C-128.66351248 10.51505523 -111.59880417 10.72080982 -94.53363037 10.92675781 C-90.32838054 10.97819437 -86.1231776 11.03322367 -81.91796875 11.08789062 C-73.75655072 11.19348808 -65.5950919 11.29531996 -57.43359375 11.39453125 C-57.43359375 12.05453125 -57.43359375 12.71453125 -57.43359375 13.39453125 C-60.28367192 14.81957034 -62.68511239 14.50611974 -65.87109375 14.4921875 C-66.53141602 14.49072723 -67.19173828 14.48926697 -67.87207031 14.48776245 C-69.30713649 14.4839542 -70.74219795 14.47783525 -72.17724609 14.46969604 C-74.44629861 14.45695994 -76.71529286 14.45042397 -78.984375 14.44555664 C-84.61982218 14.43216736 -90.25521395 14.40795346 -95.890625 14.38415527 C-100.65152673 14.36446055 -105.41240805 14.34880504 -110.17333984 14.33859253 C-112.41247203 14.33209256 -114.65152061 14.31958437 -116.890625 14.30688477 C-118.25911383 14.30325319 -119.62760345 14.29990134 -120.99609375 14.296875 C-122.19363281 14.29163818 -123.39117187 14.28640137 -124.625 14.28100586 C-127.38694535 14.20007171 -127.38694535 14.20007171 -129.43359375 15.39453125 C-139.76253828 16.245383 -152.00771099 15.45627773 -161.40185547 11.11450195 C-165.85795126 9.53543124 -170.69314861 9.35974126 -175.37109375 8.89453125 C-182.54966923 8.17800061 -188.78604606 7.2743353 -195.43359375 4.39453125 C-195.43359375 3.73453125 -195.43359375 3.07453125 -195.43359375 2.39453125 C-192.1958556 1.3152852 -189.97350976 1.30896416 -186.57177734 1.37280273 C-184.74292244 1.40293205 -184.74292244 1.40293205 -182.87712097 1.43367004 C-181.52875766 1.460985 -180.18039442 1.48830343 -178.83203125 1.515625 C-177.42154392 1.54013082 -176.01104645 1.56405905 -174.60054016 1.58744812 C-171.58019208 1.63814472 -168.55990796 1.69149794 -165.53964233 1.74688721 C-157.58137743 1.8917638 -149.62274571 2.01347999 -141.6640625 2.1328125 C-140.45586947 2.15104946 -140.45586947 2.15104946 -139.22326851 2.16965485 C-122.85553868 2.4138538 -106.49065284 2.51207044 -90.12109375 2.51953125 C-88.91998962 2.52193817 -87.7188855 2.52434509 -86.48138428 2.52682495 C-83.09433115 2.53269967 -79.70736667 2.5314011 -76.3203125 2.52734375 C-75.34210037 2.52933273 -74.36388824 2.53132172 -73.35603333 2.53337097 C-62.43551142 2.62714528 -62.43551142 2.62714528 -52.01171875 -0.19921875 C-51.29628906 -0.50730469 -50.58085937 -0.81539063 -49.84375 -1.1328125 C-49.13089844 -1.45378906 -48.41804687 -1.77476563 -47.68359375 -2.10546875 C-31.06904572 -9.4276324 -16.15807639 -7.55514152 0 0 Z " fill="#49585F" transform="translate(225.43359375,86.60546875)"/>
<path d="M0 0 C4.50049309 3.64325631 7.36397796 6.96224593 8.0625 12.75 C7.98834521 17.28168144 6.3220188 19.94194932 3.4609375 23.3671875 C-3.65699381 30.18222812 -13.79812202 31.61308634 -23.27734375 31.4453125 C-31.45198673 30.60001524 -39.75388734 27.22892768 -45.25 21 C-46.94320627 16.6729173 -47.01591095 12.70714493 -46.375 8.125 C-43.44750094 1.66010625 -37.95104987 -1.44557617 -31.5703125 -3.99609375 C-20.94616953 -6.91838246 -9.53465415 -5.29703008 0 0 Z " fill="#CF992F" transform="translate(218.375,88.875)"/>
<path d="M0 0 C7.11339037 2.78146808 14.56404101 2.54298784 22.1015625 2.52734375 C23.14149353 2.52861771 24.18142456 2.52989166 25.25286865 2.53120422 C28.71157503 2.5330266 32.17020735 2.52658807 35.62890625 2.51953125 C36.82139984 2.51897736 38.01389343 2.51842346 39.24252319 2.51785278 C55.149452 2.50932388 71.05196751 2.37002793 86.95703125 2.1328125 C87.76716108 2.12081566 88.57729092 2.10881882 89.41197014 2.09645844 C97.46110915 1.97650756 105.51006436 1.84928932 113.55879021 1.70411777 C116.56636323 1.65061603 119.57399285 1.60096525 122.58164215 1.5519619 C123.98958024 1.52793512 125.39748669 1.50196812 126.80535126 1.47396278 C128.73578842 1.43558231 130.66635745 1.40401384 132.59692383 1.37280273 C133.6826619 1.35281723 134.76839996 1.33283173 135.88703918 1.3122406 C138.56640625 1.39453125 138.56640625 1.39453125 141.56640625 2.39453125 C141.56640625 3.05453125 141.56640625 3.71453125 141.56640625 4.39453125 C140.32219978 4.92905685 139.07069689 5.44661736 137.81640625 5.95703125 C137.1203125 6.24707031 136.42421875 6.53710938 135.70703125 6.8359375 C133.21522125 7.48617259 131.95373049 7.31234708 129.56640625 6.39453125 C128.90640625 5.73453125 128.24640625 5.07453125 127.56640625 4.39453125 C125.30448176 4.10748997 125.30448176 4.10748997 122.64770508 4.18093872 C121.0876046 4.18548569 121.0876046 4.18548569 119.49598694 4.19012451 C118.35004562 4.20359924 117.20410431 4.21707397 116.0234375 4.23095703 C114.21829933 4.24015671 114.21829933 4.24015671 112.37669373 4.24954224 C109.75470497 4.26388377 107.13300527 4.28179305 104.5111084 4.30533218 C100.35802166 4.34191064 96.20496802 4.36111662 92.05175781 4.37716675 C80.23992402 4.42546546 68.42829016 4.49688633 56.61669922 4.58642578 C50.09618247 4.63570159 43.57574598 4.67032087 37.05506992 4.68954456 C32.93464838 4.70256187 28.81488952 4.73353662 24.69469547 4.77817941 C21.51136143 4.80737736 18.32797977 4.81002142 15.14453125 4.81689453 C13.44991005 4.84317932 13.44991005 4.84317932 11.72105408 4.86999512 C4.46462534 4.85218337 -0.89719346 3.46958187 -7.43359375 0.39453125 C-8.90713263 -0.18255058 -10.38610884 -0.74601345 -11.87109375 -1.29296875 C-13.04671875 -1.72609375 -14.22234375 -2.15921875 -15.43359375 -2.60546875 C-23.12740607 -5.17007286 -33.78896826 -4.76470006 -41.24609375 -1.60546875 C-41.97441406 -1.23421875 -42.70273438 -0.86296875 -43.453125 -0.48046875 C-45.43359375 0.39453125 -45.43359375 0.39453125 -49.43359375 0.39453125 C-49.43359375 1.05453125 -49.43359375 1.71453125 -49.43359375 2.39453125 C-55.33139431 4.9765825 -61.09473015 4.66179206 -67.40576172 4.62158203 C-68.60632706 4.62187408 -69.8068924 4.62216614 -71.0438385 4.62246704 C-74.32237315 4.62131545 -77.60073533 4.6113101 -80.87923574 4.59731913 C-84.31052489 4.58478572 -87.74181771 4.58363921 -91.17312622 4.58126831 C-97.66470568 4.57506119 -104.15621747 4.55866082 -110.64776719 4.53856933 C-118.04074282 4.51618637 -125.43372175 4.50521088 -132.82672286 4.49517846 C-148.0290508 4.47429388 -163.2313155 4.4391329 -178.43359375 4.39453125 C-161.04069459 5.05236278 -143.66329841 5.55728651 -126.2578125 5.7109375 C-124.21417432 5.73162163 -122.1705393 5.75261993 -120.12690735 5.77391052 C-114.86164994 5.82795345 -109.59636204 5.87785903 -104.33105469 5.92675781 C-98.91273427 5.97785849 -93.49445573 6.03307221 -88.07617188 6.08789062 C-77.52868195 6.19402123 -66.98115499 6.2957602 -56.43359375 6.39453125 C-58.43359375 8.39453125 -58.43359375 8.39453125 -60.30389595 8.64062691 C-61.45152822 8.63786153 -61.45152822 8.63786153 -62.62234497 8.63504028 C-63.939077 8.63916428 -63.939077 8.63916428 -65.28240967 8.64337158 C-66.24769592 8.63618103 -67.21298218 8.62899048 -68.20751953 8.62158203 C-69.72951462 8.62202011 -69.72951462 8.62202011 -71.28225708 8.62246704 C-74.64789274 8.62106977 -78.01330909 8.60548985 -81.37890625 8.58984375 C-83.70775227 8.58611503 -86.03659985 8.5832674 -88.365448 8.58126831 C-94.50413318 8.57362074 -100.64272418 8.55396259 -106.78137207 8.53186035 C-113.04173508 8.51142611 -119.30211327 8.50227178 -125.5625 8.4921875 C-137.85290603 8.47071777 -150.14324207 8.43656828 -162.43359375 8.39453125 C-159.86035866 9.68114879 -157.90688669 9.59603435 -155.02490234 9.69116211 C-153.87607574 9.73020157 -152.72724915 9.76924103 -151.54360962 9.8094635 C-150.27753876 9.8465593 -149.0114679 9.88365509 -147.70703125 9.921875 C-147.05206036 9.94229292 -146.39708946 9.96271084 -145.72227097 9.98374748 C-128.66351248 10.51505523 -111.59880417 10.72080982 -94.53363037 10.92675781 C-90.32838054 10.97819437 -86.1231776 11.03322367 -81.91796875 11.08789062 C-73.75655072 11.19348808 -65.5950919 11.29531996 -57.43359375 11.39453125 C-57.43359375 12.05453125 -57.43359375 12.71453125 -57.43359375 13.39453125 C-60.28367192 14.81957034 -62.68511239 14.50611974 -65.87109375 14.4921875 C-66.53141602 14.49072723 -67.19173828 14.48926697 -67.87207031 14.48776245 C-69.30713649 14.4839542 -70.74219795 14.47783525 -72.17724609 14.46969604 C-74.44629861 14.45695994 -76.71529286 14.45042397 -78.984375 14.44555664 C-84.61982218 14.43216736 -90.25521395 14.40795346 -95.890625 14.38415527 C-100.65152673 14.36446055 -105.41240805 14.34880504 -110.17333984 14.33859253 C-112.41247203 14.33209256 -114.65152061 14.31958437 -116.890625 14.30688477 C-118.25911383 14.30325319 -119.62760345 14.29990134 -120.99609375 14.296875 C-122.19363281 14.29163818 -123.39117187 14.28640137 -124.625 14.28100586 C-127.38694535 14.20007171 -127.38694535 14.20007171 -129.43359375 15.39453125 C-139.76253828 16.245383 -152.00771099 15.45627773 -161.40185547 11.11450195 C-165.85795126 9.53543124 -170.69314861 9.35974126 -175.37109375 8.89453125 C-182.54966923 8.17800061 -188.78604606 7.2743353 -195.43359375 4.39453125 C-195.43359375 3.73453125 -195.43359375 3.07453125 -195.43359375 2.39453125 C-192.1958556 1.3152852 -189.97350976 1.30896416 -186.57177734 1.37280273 C-184.74292244 1.40293205 -184.74292244 1.40293205 -182.87712097 1.43367004 C-181.52875766 1.460985 -180.18039442 1.48830343 -178.83203125 1.515625 C-177.42154392 1.54013082 -176.01104645 1.56405905 -174.60054016 1.58744812 C-171.58019208 1.63814472 -168.55990796 1.69149794 -165.53964233 1.74688721 C-157.58137743 1.8917638 -149.62274571 2.01347999 -141.6640625 2.1328125 C-140.45586947 2.15104946 -140.45586947 2.15104946 -139.22326851 2.16965485 C-122.85553868 2.4138538 -106.49065284 2.51207044 -90.12109375 2.51953125 C-88.91998962 2.52193817 -87.7188855 2.52434509 -86.48138428 2.52682495 C-83.09433115 2.53269967 -79.70736667 2.5314011 -76.3203125 2.52734375 C-75.34210037 2.52933273 -74.36388824 2.53132172 -73.35603333 2.53337097 C-62.43551142 2.62714528 -62.43551142 2.62714528 -52.01171875 -0.19921875 C-51.29628906 -0.50730469 -50.58085937 -0.81539063 -49.84375 -1.1328125 C-49.13089844 -1.45378906 -48.41804687 -1.77476563 -47.68359375 -2.10546875 C-31.06904572 -9.4276324 -16.15807639 -7.55514152 0 0 Z " fill="#808E98" transform="translate(225.43359375,86.60546875)"/>
<path d="M0 0 C-1.07389924 2.23040612 -2.11467539 4.14996013 -3.625 6.125 C-6.07146503 11.24033597 -5.70663718 16.79175881 -4 22.125 C-3.67 22.74375 -3.34 23.3625 -3 24 C-3.72316406 23.36771484 -3.72316406 23.36771484 -4.4609375 22.72265625 C-5.09257812 22.17480469 -5.72421875 21.62695312 -6.375 21.0625 C-7.00148437 20.51722656 -7.62796875 19.97195312 -8.2734375 19.41015625 C-12.04982886 16.32581851 -16.04556617 16.67690792 -20.72265625 16.46484375 C-22.05031006 16.40037804 -22.05031006 16.40037804 -23.40478516 16.33460999 C-26.29046817 16.19692285 -29.17643387 16.06688822 -32.0625 15.9375 C-33.03597382 15.89197998 -34.00944763 15.84645996 -35.01242065 15.79956055 C-47.72243641 15.20779203 -60.38964815 14.76562382 -73.11547852 15.07397461 C-74.01709717 15.09081299 -74.91871582 15.10765137 -75.84765625 15.125 C-76.61086182 15.14820312 -77.37406738 15.17140625 -78.16040039 15.1953125 C-80 15 -80 15 -82 13 C-79.10085089 11.55042544 -76.585717 11.88067076 -73.34716797 11.88647461 C-72.32260498 11.88625557 -72.32260498 11.88625557 -71.27734375 11.8860321 C-69.0155929 11.88672977 -66.753924 11.89451535 -64.4921875 11.90234375 C-62.92562912 11.90420845 -61.35907016 11.90563211 -59.79251099 11.90663147 C-55.66610102 11.91045257 -51.53972616 11.9202794 -47.41333008 11.93133545 C-43.20394363 11.9415583 -38.99455153 11.94613097 -34.78515625 11.95117188 C-26.52342138 11.96190202 -18.26171505 11.97897358 -10 12 C-10 11.34 -10 10.68 -10 10 C-11.27189682 10.00333092 -11.27189682 10.00333092 -12.56948853 10.00672913 C-20.71288506 10.02708983 -28.85627259 10.04215122 -36.9996891 10.05181217 C-41.18242131 10.05694646 -45.36513183 10.06386279 -49.54785156 10.07543945 C-65.77632666 10.11888611 -82.00935028 10.14841249 -98.23374557 9.73226738 C-100.16300864 9.68477364 -102.0925791 9.65033336 -104.02212524 9.6162262 C-105.16772919 9.58101364 -106.31333313 9.54580109 -107.49365234 9.50952148 C-108.4905307 9.4837352 -109.48740906 9.45794891 -110.51449585 9.43138123 C-113 9 -113 9 -116 6 C-81.35 6 -46.7 6 -11 6 C-39.64192959 5.71205005 -39.64192959 5.71205005 -68.28393555 5.43188477 C-102.21850211 5.08692295 -102.21850211 5.08692295 -118.70703125 4.52734375 C-119.80786545 4.49024796 -120.90869965 4.45315216 -122.04289246 4.41493225 C-129.04904702 4.14797964 -136.01814116 3.63746161 -143 3 C-143 2.67 -143 2.34 -143 2 C-142.3097769 2.00184359 -141.61955379 2.00368717 -140.90841484 2.00558662 C-124.10742868 2.04977104 -107.30646094 2.08285919 -90.50543022 2.10362434 C-82.38055204 2.11393333 -74.25571265 2.12798646 -66.13085938 2.15087891 C-59.04856596 2.17082433 -51.96630064 2.18371918 -44.88397992 2.18817699 C-41.13456119 2.19078242 -37.38522286 2.19689845 -33.63582993 2.21146011 C-29.44842728 2.22759072 -25.26116409 2.22797894 -21.07373047 2.22705078 C-19.83295242 2.23424133 -18.59217438 2.24143188 -17.313797 2.24884033 C-16.16963821 2.246091 -15.02547943 2.24334167 -13.84664917 2.24050903 C-12.85664351 2.24235262 -11.86663784 2.24419621 -10.846632 2.24609566 C-7.06511051 1.91917738 -3.7361914 0 0 0 Z " fill="#E8EBED" transform="translate(178,88)"/>
<path d="M0 0 C4.50049309 3.64325631 7.36397796 6.96224593 8.0625 12.75 C7.98834521 17.28168144 6.3220188 19.94194932 3.4609375 23.3671875 C-3.65699381 30.18222812 -13.79812202 31.61308634 -23.27734375 31.4453125 C-31.45198673 30.60001524 -39.75388734 27.22892768 -45.25 21 C-46.94320627 16.6729173 -47.01591095 12.70714493 -46.375 8.125 C-43.44750094 1.66010625 -37.95104987 -1.44557617 -31.5703125 -3.99609375 C-20.94616953 -6.91838246 -9.53465415 -5.29703008 0 0 Z M-37.375 1.125 C-38.035 2.115 -38.695 3.105 -39.375 4.125 C-38.323125 3.815625 -37.27125 3.50625 -36.1875 3.1875 C-33.99717402 2.57708129 -31.7921384 2.00842768 -29.5625 1.5625 C-27.34211032 1.21818741 -27.34211032 1.21818741 -25.375 0.125 C-19.48764993 -0.42561547 -14.30628529 -0.48325753 -9.375 3.125 C-6.40632742 7.47905311 -5.90164669 10.91811364 -6.375 16.125 C-7.49058883 19.98665366 -7.94745724 20.83997149 -11.375 23.125 C-11.375 23.785 -11.375 24.445 -11.375 25.125 C-12.365 24.135 -13.355 23.145 -14.375 22.125 C-13.715 22.125 -13.055 22.125 -12.375 22.125 C-12.375 21.465 -12.375 20.805 -12.375 20.125 C-11.715 20.125 -11.055 20.125 -10.375 20.125 C-10.375 19.135 -10.375 18.145 -10.375 17.125 C-9.715 17.125 -9.055 17.125 -8.375 17.125 C-8.19931587 12.64505462 -8.07954289 9.06006934 -10.375 5.125 C-13.97307117 1.96305867 -17.50942401 1.51716367 -22.1484375 1.734375 C-25.00907889 2.23624191 -27.23349295 3.18874102 -29.33203125 5.234375 C-31.71930666 9.56187051 -31.33253304 14.41550078 -30.375 19.125 C-28.69814117 22.10817583 -27.61943704 22.47432151 -24.375 24.125 C-21.36735773 24.76076178 -18.44560393 25.04994079 -15.375 25.125 C-15.375 25.455 -15.375 25.785 -15.375 26.125 C-21.69263975 26.63041118 -25.24460734 26.25434044 -30.375 22.125 C-31.035 21.795 -31.695 21.465 -32.375 21.125 C-32.024375 21.74375 -31.67375 22.3625 -31.3125 23 C-31.003125 23.70125 -30.69375 24.4025 -30.375 25.125 C-30.705 25.785 -31.035 26.445 -31.375 27.125 C-25.55021955 30.65644902 -17.98554347 29.7998219 -11.51171875 28.58984375 C-5.66449483 26.96610782 -0.97484006 24.63519041 3.4375 20.375 C5.19338893 17.04805255 5.84096836 13.84685473 5.625 10.125 C2.62020472 3.46219307 -3.06272613 0.48887748 -9.5625 -2.1875 C-19.22870171 -3.93058556 -28.58903624 -3.66006951 -37.375 1.125 Z " fill="#D29D2F" transform="translate(218.375,88.875)"/>
<path d="M0 0 C-5.02074538 3.34716359 -9.5625079 3.55431553 -15.43945312 4.07421875 C-20.48411209 4.59592756 -24.32105211 5.94895435 -29 8 C-32.69140625 8.6953125 -32.69140625 8.6953125 -36.5625 9.125 C-37.25142334 9.20500244 -37.94034668 9.28500488 -38.65014648 9.36743164 C-43.28185598 9.88477804 -47.90838639 10.18391048 -52.5625 10.4375 C-57.78322512 10.75264628 -61.34580596 11.72461625 -66 14 C-68 13.33333333 -70 12.66666667 -72 12 C-74.73289293 11.77202438 -77.45042204 11.58331813 -80.1875 11.4375 C-80.93708984 11.39431641 -81.68667969 11.35113281 -82.45898438 11.30664062 C-84.30578375 11.20077315 -86.15286834 11.0999024 -88 11 C-88 10.67 -88 10.34 -88 10 C-107.305 9.505 -107.305 9.505 -127 9 C-127.33 8.01 -127.66 7.02 -128 6 C-126.71264198 5.9845388 -126.71264198 5.9845388 -125.39927673 5.96876526 C-117.15313432 5.86916669 -108.90703662 5.76648244 -100.66097164 5.66066074 C-96.42561016 5.60640841 -92.19024194 5.5531903 -87.95483398 5.50268555 C-66.29218044 5.24347774 -44.64974275 4.80533526 -23 4 C-23 3.34 -23 2.68 -23 2 C-24.03534126 2.1065818 -24.03534126 2.1065818 -25.09159851 2.21531677 C-35.86007956 3.19208093 -46.59081087 3.12690732 -57.39453125 3.09765625 C-59.43861354 3.09578742 -61.48269628 3.09436572 -63.52677917 3.09336853 C-68.86464713 3.08957992 -74.20248718 3.07978154 -79.54034424 3.06866455 C-85.00410586 3.05837114 -90.46787207 3.05385404 -95.93164062 3.04882812 C-106.6211059 3.03815542 -117.31055062 3.02112378 -128 3 C-128.33 2.34 -128.66 1.68 -129 1 C-115.75006112 0.82837081 -102.50006161 0.66188186 -89.25 0.5 C-88.27809849 0.48812275 -87.30619698 0.4762455 -86.3048439 0.46400833 C-57.53567996 0.11394781 -28.77169736 -0.16972142 0 0 Z " fill="#506169" transform="translate(358,92)"/>
<path d="M0 0 C1.07314453 -0.01224609 2.14628906 -0.02449219 3.25195312 -0.03710938 C17.06252863 -0.06248092 17.06252863 -0.06248092 22.5 3.5625 C23.4375 5.1875 23.4375 5.1875 23.5 7.125 C21.90310912 10.224847 19.37468429 11.43768808 16.4375 13.1875 C17.015 13.59742188 17.5925 14.00734375 18.1875 14.4296875 C19.30125 15.23792969 19.30125 15.23792969 20.4375 16.0625 C21.18 16.59617187 21.9225 17.12984375 22.6875 17.6796875 C23.265 18.17726563 23.8425 18.67484375 24.4375 19.1875 C24.4375 19.8475 24.4375 20.5075 24.4375 21.1875 C18.42051177 21.96234268 13.45186597 22.40609639 8.125 19.18359375 C5.43971587 16.94935344 2.89463469 14.66925528 0.4375 12.1875 C0.1075 15.1575 -0.2225 18.1275 -0.5625 21.1875 C-4.5225 21.1875 -8.4825 21.1875 -12.5625 21.1875 C-12.58933436 17.87494674 -12.6092578 14.56260817 -12.625 11.25 C-12.63337891 10.30447266 -12.64175781 9.35894531 -12.65039062 8.38476562 C-12.65361328 7.48564453 -12.65683594 6.58652344 -12.66015625 5.66015625 C-12.66539307 4.82750244 -12.67062988 3.99484863 -12.67602539 3.13696289 C-12.37185231 -2.08631031 -3.89232272 0.00228021 0 0 Z M-1.5625 5.1875 C-1.2325 6.5075 -0.9025 7.8275 -0.5625 9.1875 C1.22908489 9.21446365 3.02078473 9.23387917 4.8125 9.25 C6.30910156 9.26740234 6.30910156 9.26740234 7.8359375 9.28515625 C10.42182453 9.36756602 10.42182453 9.36756602 12.4375 8.1875 C12.4375 7.5275 12.4375 6.8675 12.4375 6.1875 C9.28819107 5.13773036 7.04935544 5.08618405 3.75 5.125 C2.75613281 5.13402344 1.76226562 5.14304687 0.73828125 5.15234375 C-0.02097656 5.16394531 -0.78023438 5.17554688 -1.5625 5.1875 Z " fill="#1A1A1A" transform="translate(363.5625,39.8125)"/>
<path d="M0 0 C11.22 0 22.44 0 34 0 C34 1.65 34 3.3 34 5 C26.41 5 18.82 5 11 5 C11 5.99 11 6.98 11 8 C18.26 8 25.52 8 33 8 C33 9.65 33 11.3 33 13 C25.74 13 18.48 13 11 13 C11 13.99 11 14.98 11 16 C18.59 16 26.18 16 34 16 C34 17.65 34 19.3 34 21 C22.78 21 11.56 21 0 21 C0 14.07 0 7.14 0 0 Z " fill="#191919" transform="translate(303,40)"/>
<path d="M0 0 C3.83352591 -0.05424801 7.66627395 -0.09379525 11.5 -0.125 C12.57765625 -0.14175781 13.6553125 -0.15851562 14.765625 -0.17578125 C22.11917552 -0.22061997 28.69806653 -0.20128898 35 4 C34.875 6.25 34.875 6.25 34 9 C30.9375 11.3125 30.9375 11.3125 28 13 C28.6496875 13.40992188 29.299375 13.81984375 29.96875 14.2421875 C30.8040625 14.78101563 31.639375 15.31984375 32.5 15.875 C33.3353125 16.40867187 34.170625 16.94234375 35.03125 17.4921875 C36.00578125 18.23855469 36.00578125 18.23855469 37 19 C37 19.66 37 20.32 37 21 C30.68766899 21.74642162 25.23527616 22.32566089 19.62109375 18.99609375 C16.94595502 16.76739278 14.42643539 14.49576211 12 12 C11.67 14.97 11.34 17.94 11 21 C7.37 21 3.74 21 0 21 C0 14.07 0 7.14 0 0 Z M11 5 C11 6.32 11 7.64 11 9 C12.79158489 9.02696365 14.58328473 9.04637917 16.375 9.0625 C17.87160156 9.07990234 17.87160156 9.07990234 19.3984375 9.09765625 C21.98432453 9.18006602 21.98432453 9.18006602 24 8 C24 7.34 24 6.68 24 6 C20.98509443 4.99503148 18.95818308 4.89664697 15.8125 4.9375 C14.91144531 4.94652344 14.01039062 4.95554687 13.08203125 4.96484375 C12.05142578 4.98224609 12.05142578 4.98224609 11 5 Z " fill="#171717" transform="translate(112,40)"/>
<path d="M0 0 C3.63 0 7.26 0 11 0 C11 2.64 11 5.28 11 8 C18.92 7.505 18.92 7.505 27 7 C27 4.69 27 2.38 27 0 C28.81242052 -0.02687279 30.62495233 -0.04633715 32.4375 -0.0625 C33.44683594 -0.07410156 34.45617187 -0.08570313 35.49609375 -0.09765625 C38 0 38 0 39 1 C39.09860131 2.40348735 39.13078937 3.81180477 39.1328125 5.21875 C39.13474609 6.49298828 39.13474609 6.49298828 39.13671875 7.79296875 C39.13285156 8.68628906 39.12898438 9.57960938 39.125 10.5 C39.13080078 11.83998047 39.13080078 11.83998047 39.13671875 13.20703125 C39.13542969 14.05652344 39.13414063 14.90601563 39.1328125 15.78125 C39.13168457 16.56564453 39.13055664 17.35003906 39.12939453 18.15820312 C39 20 39 20 38 21 C36.14712498 21.07226502 34.29166122 21.0838122 32.4375 21.0625 C31.42558594 21.05347656 30.41367188 21.04445313 29.37109375 21.03515625 C28.19740234 21.01775391 28.19740234 21.01775391 27 21 C27 18.69 27 16.38 27 14 C21.72 13.67 16.44 13.34 11 13 C11 15.64 11 18.28 11 21 C7.37 21 3.74 21 0 21 C0 14.07 0 7.14 0 0 Z " fill="#121212" transform="translate(58,40)"/>
<path d="M0 0 C0.91974609 -0.00128906 1.83949219 -0.00257812 2.78710938 -0.00390625 C4.22473633 0.00189453 4.22473633 0.00189453 5.69140625 0.0078125 C6.64595703 0.00394531 7.60050781 0.00007813 8.58398438 -0.00390625 C9.50501953 -0.00261719 10.42605469 -0.00132813 11.375 0 C12.21474365 0.00112793 13.0544873 0.00225586 13.91967773 0.00341797 C16.16149112 0.1276896 18.10286079 0.50884511 20.25390625 1.1328125 C20.25390625 2.7828125 20.25390625 4.4328125 20.25390625 6.1328125 C13.98390625 6.1328125 7.71390625 6.1328125 1.25390625 6.1328125 C6.99567634 6.99782708 6.99567634 6.99782708 12.74121094 7.8371582 C20.36103975 9.04553293 20.36103975 9.04553293 23.25390625 12.1328125 C23.75390625 14.6328125 23.75390625 14.6328125 23.25390625 17.1328125 C17.28105864 22.54445296 8.6862131 22.41178181 1.015625 22.26953125 C-3.25804973 22.05796319 -7.4991494 21.6487103 -11.74609375 21.1328125 C-11.41609375 19.1528125 -11.08609375 17.1728125 -10.74609375 15.1328125 C-9.52921875 15.2978125 -8.31234375 15.4628125 -7.05859375 15.6328125 C-0.96072115 16.32442425 5.12577862 16.21805693 11.25390625 16.1328125 C11.25390625 15.4728125 11.25390625 14.8128125 11.25390625 14.1328125 C10.25230469 14.09542969 9.25070313 14.05804688 8.21875 14.01953125 C-6.05935031 13.36889725 -6.05935031 13.36889725 -10.74609375 10.1328125 C-11.68359375 6.9453125 -11.68359375 6.9453125 -11.74609375 4.1328125 C-7.82696139 1.02453511 -4.98341204 0.00670264 0 0 Z " fill="#181818" transform="translate(216.74609375,39.8671875)"/>
<path d="M0 0 C0.84949219 -0.00773437 1.69898437 -0.01546875 2.57421875 -0.0234375 C3.39019531 -0.02085938 4.20617187 -0.01828125 5.046875 -0.015625 C5.78260742 -0.01336914 6.51833984 -0.01111328 7.27636719 -0.00878906 C9.25 0.25 9.25 0.25 12.25 2.25 C12.25 3.57 12.25 4.89 12.25 6.25 C11.09242187 6.21519531 9.93484375 6.18039063 8.7421875 6.14453125 C7.2031396 6.11637793 5.66407589 6.08907944 4.125 6.0625 C3.36445312 6.03736328 2.60390625 6.01222656 1.8203125 5.98632812 C-3.1524261 5.92202547 -6.38616482 6.59405558 -10.75 9.25 C-10.75 10.9 -10.75 12.55 -10.75 14.25 C-7.8251367 15.09191782 -5.24258344 15.36819313 -2.203125 15.34765625 C-1.35878906 15.34443359 -0.51445312 15.34121094 0.35546875 15.33789062 C1.22816406 15.32951172 2.10085937 15.32113281 3 15.3125 C3.88816406 15.30798828 4.77632812 15.30347656 5.69140625 15.29882812 C7.87767329 15.287074 10.06380179 15.27064249 12.25 15.25 C11.92 17.23 11.59 19.21 11.25 21.25 C1.60923782 22.8909808 -11.01804492 24.02259 -19.4375 18.125 C-22.05534229 14.87038527 -22.604364 13.2599527 -22.265625 9.1796875 C-21.34795832 5.74538948 -19.57268585 4.29194296 -16.75 2.25 C-11.1044367 0.19837217 -5.97200007 -0.05538176 0 0 Z " fill="#181818" transform="translate(30.75,39.75)"/>
<path d="M0 0 C8.49609375 -0.09765625 8.49609375 -0.09765625 11 0 C12 1 12 1 12.09765625 4.16015625 C12.04882812 9.58007812 12.04882812 9.58007812 12 15 C19.26 15.33 26.52 15.66 34 16 C34 17.65 34 19.3 34 21 C22.78 21 11.56 21 0 21 C0 14.07 0 7.14 0 0 Z " fill="#050505" transform="translate(255,40)"/>
<path d="M0 0 C12.58272291 -1.03577292 12.58272291 -1.03577292 17.5 3.125 C18.42232422 3.94484375 18.42232422 3.94484375 19.36328125 4.78125 C21.02589489 6.31710674 21.02589489 6.31710674 23.6875 5.625 C26.08141312 4.0177862 26.08141312 4.0177862 28.3125 1.875 C32.07905823 -0.75283132 34.47958059 -0.30646911 39 0 C39 0.66 39 1.32 39 2 C37.171875 3.5859375 37.171875 3.5859375 34.75 5.375 C28.82394102 9.2761025 28.82394102 9.2761025 25.609375 15.140625 C25.65578125 15.83671875 25.7021875 16.5328125 25.75 17.25 C25.87375 19.10625 25.87375 19.10625 26 21 C22.04 21 18.08 21 14 21 C13.875 14.25 13.875 14.25 15 12 C14.45859375 11.7525 13.9171875 11.505 13.359375 11.25 C10.4717151 9.72011396 7.90223982 7.90849003 5.25 6 C4.26515625 5.29875 3.2803125 4.5975 2.265625 3.875 C1.51796875 3.25625 0.7703125 2.6375 0 2 C0 1.34 0 0.68 0 0 Z " fill="#111111" transform="translate(157,40)"/>
<path d="M0 0 C4.50049309 3.64325631 7.36397796 6.96224593 8.0625 12.75 C7.98834521 17.28168144 6.3220188 19.94194932 3.4609375 23.3671875 C-3.65699381 30.18222812 -13.79812202 31.61308634 -23.27734375 31.4453125 C-31.45198673 30.60001524 -39.75388734 27.22892768 -45.25 21 C-46.94320627 16.6729173 -47.01591095 12.70714493 -46.375 8.125 C-43.44750094 1.66010625 -37.95104987 -1.44557617 -31.5703125 -3.99609375 C-20.94616953 -6.91838246 -9.53465415 -5.29703008 0 0 Z M-40.4375 3.75 C-41.076875 4.53375 -41.71625 5.3175 -42.375 6.125 C-43.035 6.785 -43.695 7.445 -44.375 8.125 C-45.31629145 12.14006618 -45.14446249 15.71225697 -43.16015625 19.35546875 C-38.88824161 24.71295229 -34.04777097 27.64732509 -27.375 29.125 C-16.8781677 30.24689731 -6.77851548 28.88880514 1.625 22.125 C4.60122241 19.25140595 5.39060265 16.26418855 5.7421875 12.14453125 C5.53180107 8.51887178 4.02669827 6.7610103 1.625 4.125 C-9.73964461 -4.75516602 -29.34046402 -7.15291873 -40.4375 3.75 Z " fill="#191411" transform="translate(218.375,88.875)"/>
<path d="M0 0 C0 0.66 0 1.32 0 2 C-4.81928545 3.60642848 -9.77615277 3.41253597 -14.828125 3.58984375 C-16.67183685 3.65461159 -16.67183685 3.65461159 -18.55279541 3.72068787 C-34.47000108 4.19945497 -50.38062171 3.88795833 -66.29907227 3.60510254 C-70.45710939 3.53282667 -74.6152766 3.46898246 -78.7734375 3.40429688 C-86.84910275 3.27749251 -94.9245844 3.14181411 -103 3 C-103 2.34 -103 1.68 -103 1 C-91.48998627 0.86875059 -79.97996377 0.73830157 -68.4699297 0.60884857 C-63.12423577 0.54870112 -57.77854513 0.48828745 -52.43286133 0.42724609 C-47.26517627 0.36824739 -42.09748348 0.30997317 -36.92978477 0.25218201 C-34.9672282 0.23011082 -33.00467445 0.20778723 -31.04212379 0.18519592 C-20.6942574 0.06624768 -10.3487118 -0.03777258 0 0 Z " fill="#C6D0D6" transform="translate(335,94)"/>
<path d="M0 0 C4.02687158 1.3347917 6.50412945 3.28018792 8.9375 6.8125 C10.47447958 11.42343873 10.49967615 15.12621443 9.25 19.8125 C7.80558649 22.34022364 6.69600373 23.0114653 4 24 C4 24.66 4 25.32 4 26 C3.01 25.67 2.02 25.34 1 25 C1 24.34 1 23.68 1 23 C1.66 23 2.32 23 3 23 C3 22.34 3 21.68 3 21 C3.66 21 4.32 21 5 21 C5 20.01 5 19.02 5 18 C5.66 18 6.32 18 7 18 C6.40959324 10.80688376 6.40959324 10.80688376 2.9375 4.8125 C-2.3964577 3.33715 -6.89360379 3.14024645 -12.0625 5.25 C-15.26626481 9.79727908 -14.90691928 14.64093151 -14 20 C-11.78742608 23.06905415 -10.33392683 23.7479369 -6.6640625 24.44140625 C-4.43802564 24.71878308 -2.24040327 24.90237894 0 25 C0 25.99 0 26.98 0 28 C-4.67879749 28.3743038 -8.07780011 28.44402217 -12.375 26.375 C-15.88292265 23.20116523 -17.67541643 20.55158753 -18.28125 15.7890625 C-18.53058959 9.53479447 -17.1061477 6.36143833 -12.9375 1.6875 C-8.62295056 -0.79107096 -4.86110938 -0.74319613 0 0 Z " fill="#393E36" transform="translate(203,88)"/>
<path d="M0 0 C32.34 0 64.68 0 98 0 C98 0.66 98 1.32 98 2 C95.16485161 3.4175742 92.79597928 3.11165969 89.62597656 3.09765625 C88.64513092 3.09546585 88.64513092 3.09546585 87.64447021 3.0932312 C86.22250873 3.08942215 84.80055201 3.08330238 83.3786087 3.07516479 C81.12525994 3.06241305 78.87197001 3.05588795 76.61859131 3.05102539 C71.01823914 3.03764349 65.4179424 3.01351376 59.81762695 2.98962402 C55.09167543 2.96985515 50.36574512 2.9542256 45.63976288 2.94406128 C43.42518826 2.93760083 41.21070089 2.92508898 38.99615479 2.91235352 C37.62797114 2.90871811 36.2597867 2.90536674 34.89160156 2.90234375 C33.70294495 2.89710693 32.51428833 2.89187012 31.28961182 2.88647461 C28.10485689 2.99638136 25.13601355 3.46775711 22 4 C19.125 3.5625 19.125 3.5625 17 3 C17 2.67 17 2.34 17 2 C15.91332031 2.01740234 15.91332031 2.01740234 14.8046875 2.03515625 C9.75216677 2.08231311 4.96621233 2.07377564 0 1 C0 0.67 0 0.34 0 0 Z " fill="#495A62" transform="translate(70,98)"/>
<path d="M0 0 C27.55387276 -0.08338628 55.09999681 0.14355428 82.65185547 0.46356201 C88.01723546 0.52541764 93.3826423 0.58485317 98.74804688 0.64453125 C109.16539119 0.76073804 119.58270466 0.87948764 130 1 C128 3 128 3 126.09795475 3.24888897 C125.3176562 3.2483442 124.53735765 3.24779943 123.7334137 3.24723816 C122.83783249 3.25143265 121.94225128 3.25562714 121.01953125 3.25994873 C120.03412354 3.25432922 119.04871582 3.24870972 118.03344727 3.24291992 C116.99743881 3.24481827 115.96143036 3.24671661 114.89402771 3.24867249 C111.45141143 3.25239196 108.00900397 3.24165308 104.56640625 3.23046875 C102.17423019 3.22927669 99.78205366 3.22882384 97.38987732 3.2290802 C92.36348561 3.22751292 87.33716486 3.21920942 82.31079102 3.20581055 C75.88856605 3.18890276 69.46641976 3.18499382 63.04417515 3.18575573 C58.09658567 3.18548268 53.14901317 3.17997855 48.20142937 3.17275429 C45.83530747 3.16958477 43.46918367 3.16760425 41.10305977 3.16686058 C37.77904169 3.16467403 34.45510407 3.15587809 31.13110352 3.14526367 C30.16391388 3.14571686 29.19672424 3.14617004 28.20022583 3.14663696 C18.72996367 3.10277997 9.39920408 2.07859719 0 1 C0 0.67 0 0.34 0 0 Z " fill="#394C55" transform="translate(39,92)"/>
<path d="M0 0 C16.69425389 -0.14795835 33.3230859 0.23679166 50 1 C50 1.33 50 1.66 50 2 C53.3 2.33 56.6 2.66 60 3 C60 3.33 60 3.66 60 4 C52.08 4.495 52.08 4.495 44 5 C44 5.33 44 5.66 44 6 C35.50342958 6.11263299 27.0982803 5.81096848 18.625 5.1875 C17.48933594 5.11724609 16.35367188 5.04699219 15.18359375 4.97460938 C9.43905415 4.55370231 4.88915093 4.15289769 0 1 C0 0.67 0 0.34 0 0 Z " fill="#526169" transform="translate(99,102)"/>
<path d="M0 0 C0.81026642 -0.00131927 1.62053284 -0.00263855 2.45535278 -0.0039978 C5.10829425 -0.00592235 7.76113166 0.00043862 10.4140625 0.0078125 C11.3110083 0.00869873 12.2079541 0.00958496 13.13208008 0.01049805 C28.78595924 0.02870186 44.40145485 0.39117016 60.0390625 1.1328125 C60.0390625 1.7928125 60.0390625 2.4528125 60.0390625 3.1328125 C50.99844992 5.88028996 40.1233927 4.06471464 30.7890625 3.6328125 C20.44487381 3.17729833 10.1369645 3.05901915 -0.21582031 3.2578125 C-1.20420898 3.26941406 -2.19259766 3.28101562 -3.2109375 3.29296875 C-4.08234375 3.30980713 -4.95375 3.32664551 -5.8515625 3.34399414 C-7.9609375 3.1328125 -7.9609375 3.1328125 -9.9609375 1.1328125 C-6.81586572 -0.43972339 -3.4522973 -0.0088278 0 0 Z " fill="#D1D9DD" transform="translate(105.9609375,99.8671875)"/>
<path d="M0 0 C3.5625 1.6875 3.5625 1.6875 6 4 C6.375 6.75 6.375 6.75 6 9 C4.02 9.99 4.02 9.99 2 11 C2.66 10.01 3.32 9.02 4 8 C4 7.01 4 6.02 4 5 C-0.53556162 4.55214383 -2.5947959 5.73617785 -6.1875 8.4375 C-10.9628483 11.98142415 -10.9628483 11.98142415 -13 13 C-12.67 14.32 -12.34 15.64 -12 17 C-10.35 16.67 -8.7 16.34 -7 16 C-7.66 16.99 -8.32 17.98 -9 19 C-7.68 19.99 -6.36 20.98 -5 22 C-9.45001157 21.49142725 -12.13849946 20.5155578 -15 17 C-15.88731276 12.32505366 -16.31431635 7.39640387 -13.9609375 3.10546875 C-9.98744048 -0.74593758 -5.1442877 -0.99034416 0 0 Z " fill="#D8AD40" transform="translate(203,91)"/>
<path d="M0 0 C28.68016731 -0.16692433 57.32858752 0.3079695 86 1 C86 1.66 86 2.32 86 3 C57.25613725 3.23326688 28.68177928 3.01069246 0 1 C0 0.67 0 0.34 0 0 Z " fill="#A8B5BD" transform="translate(80,94)"/>
<path d="M0 0 C1.02158203 0.00966797 2.04316406 0.01933594 3.09570312 0.02929688 C4.67834961 0.06700195 4.67834961 0.06700195 6.29296875 0.10546875 C7.90461914 0.12577148 7.90461914 0.12577148 9.54882812 0.14648438 C12.1932233 0.18174298 14.83658623 0.23102509 17.48046875 0.29296875 C15.48046875 3.29296875 15.48046875 3.29296875 12.25 4.20703125 C10.93335321 4.45680884 9.6141329 4.69330702 8.29296875 4.91796875 C7.00003906 5.15773438 5.70710938 5.3975 4.375 5.64453125 C1.79631698 6.07388068 -0.78879176 6.46640009 -3.37890625 6.8203125 C-6.31958973 7.26287805 -7.9621521 7.89053502 -10.51953125 9.29296875 C-12.51173682 9.98257837 -14.51058731 10.65375932 -16.51953125 11.29296875 C-15.6354476 10.01393364 -14.73662696 8.74507988 -13.83203125 7.48046875 C-13.33316406 6.77277344 -12.83429688 6.06507812 -12.3203125 5.3359375 C-8.73542904 1.26892221 -5.36424847 -0.08990361 0 0 Z " fill="#425159" transform="translate(237.51953125,103.70703125)"/>
<path d="M0 0 C1.33584137 -0.01365601 1.33584137 -0.01365601 2.69866943 -0.02758789 C3.87443039 -0.04202942 3.87443039 -0.04202942 5.07394409 -0.0567627 C7.12786865 0.04858398 7.12786865 0.04858398 10.12786865 1.04858398 C10.12786865 1.70858398 10.12786865 2.36858398 10.12786865 3.04858398 C8.88366218 3.58310958 7.6321593 4.10067009 6.37786865 4.61108398 C5.6817749 4.90112305 4.98568115 5.19116211 4.26849365 5.48999023 C1.77668365 6.14022533 0.5151929 5.96639982 -1.87213135 5.04858398 C-2.53213135 4.38858398 -3.19213135 3.72858398 -3.87213135 3.04858398 C-6.09571609 2.75638999 -6.09571609 2.75638999 -8.68902588 2.8215332 C-9.68991241 2.82168427 -10.69079895 2.82183533 -11.72201538 2.82199097 C-12.80538177 2.83231354 -13.88874817 2.84263611 -15.00494385 2.85327148 C-16.66540237 2.85751633 -16.66540237 2.85751633 -18.35940552 2.86184692 C-21.90542272 2.87306879 -25.4511901 2.89817708 -28.99713135 2.92358398 C-31.39686729 2.93361119 -33.79660718 2.94273749 -36.1963501 2.95092773 C-42.08836285 2.97301466 -47.98022926 3.00651192 -53.87213135 3.04858398 C-53.87213135 2.38858398 -53.87213135 1.72858398 -53.87213135 1.04858398 C-46.79208113 0.90476089 -39.7120004 0.76251738 -32.63189697 0.62133789 C-30.22661634 0.5731935 -27.82134274 0.52469627 -25.41607666 0.47583008 C-21.94571727 0.40538782 -18.475334 0.33624217 -15.00494385 0.26733398 C-13.94099396 0.24546021 -12.87704407 0.22358643 -11.78085327 0.2010498 C-7.85403755 0.12399642 -3.92699813 0.06642775 0 0 Z " fill="#8B99A1" transform="translate(356.87213134765625,87.951416015625)"/>
<path d="M0 0 C4.29 0 8.58 0 13 0 C13.33 0.66 13.66 1.32 14 2 C16.38488361 2.39454736 16.38488361 2.39454736 19.1875 2.5 C22.30501761 2.6705892 24.79376205 2.92500772 27.73803711 3.99560547 C31.33421972 5.10290996 34.39105098 5.31771926 38.1484375 5.4140625 C38.80582916 5.43342865 39.46322083 5.4527948 40.14053345 5.4727478 C42.21856135 5.53202461 44.29664624 5.57871794 46.375 5.625 C47.7929915 5.66322778 49.21096097 5.70228223 50.62890625 5.7421875 C54.08573461 5.83768171 57.54272983 5.92190189 61 6 C61 6.33 61 6.66 61 7 C56.38 7.33 51.76 7.66 47 8 C50.3 8 53.6 8 57 8 C57.495 9.485 57.495 9.485 58 11 C38.20367502 10.4105817 38.20367502 10.4105817 29 7 C22.81012003 4.9922666 16.84520077 4.35380315 10.40820312 3.7890625 C3.23079733 3.09000367 3.23079733 3.09000367 0 1 C0 0.67 0 0.34 0 0 Z " fill="#6D7C85" transform="translate(34,91)"/>
<path d="M0 0 C12.58261207 -0.13621231 25.06557469 0.25680923 37.625 1 C39.32549447 1.09681837 41.02601533 1.19317434 42.7265625 1.2890625 C46.81803031 1.52074625 50.90909649 1.75856542 55 2 C55 2.33 55 2.66 55 3 C48.27606088 3.80406418 41.70911201 4.12344098 34.94140625 3.984375 C33.57495216 3.95963104 33.57495216 3.95963104 32.18089294 3.93438721 C30.27588306 3.8972111 28.37093531 3.85671141 26.46606445 3.81298828 C23.54580592 3.74963785 20.62573095 3.70855714 17.70507812 3.66796875 C15.84632511 3.62896491 13.98759909 3.5886478 12.12890625 3.546875 C11.25706192 3.53734802 10.38521759 3.52782104 9.48695374 3.51800537 C8.67858566 3.49498352 7.87021759 3.47196167 7.03735352 3.44824219 C5.97340111 3.42706329 5.97340111 3.42706329 4.88795471 3.40545654 C2.48813296 2.8900716 1.56172224 1.8425064 0 0 Z " fill="#D7DEE2" transform="translate(62,94)"/>
<path d="M0 0 C8.83153988 -0.04628239 17.6630382 -0.08184825 26.49467278 -0.10362434 C30.59528757 -0.11407426 34.69581958 -0.12825537 38.79638672 -0.15087891 C42.75155581 -0.1725644 46.70664511 -0.18455952 50.66186905 -0.18975449 C52.17299786 -0.19345799 53.68412217 -0.20068975 55.19521713 -0.21146011 C57.30716232 -0.22591823 59.41877524 -0.22798037 61.53076172 -0.22705078 C62.73433319 -0.231492 63.93790466 -0.23593323 65.177948 -0.24050903 C68 0 68 0 70 2 C68.5682384 2.69937202 67.12932968 3.38412718 65.6875 4.0625 C64.48673828 4.63677734 64.48673828 4.63677734 63.26171875 5.22265625 C60.06134237 6.3226129 58.14583067 5.04861022 55 4 C52.26710707 3.77202438 49.54957796 3.58331813 46.8125 3.4375 C46.06291016 3.39431641 45.31332031 3.35113281 44.54101562 3.30664062 C42.69421625 3.20077315 40.84713166 3.0999024 39 3 C39 2.67 39 2.34 39 2 C19.695 1.505 19.695 1.505 0 1 C0 0.67 0 0.34 0 0 Z " fill="#6D7D87" transform="translate(231,100)"/>
<path d="M0 0 C-3.4666819 2.31112126 -4.68712439 2.19139834 -8.75 2.0625 C-11.92237952 1.96895548 -14.78781523 1.96298257 -17.91918945 2.50927734 C-23.4194406 3.32347378 -28.95426531 3.00975034 -34.49609375 2.87890625 C-36.27911644 2.84348976 -36.27911644 2.84348976 -38.09815979 2.80735779 C-41.87807165 2.73105886 -45.65776097 2.64688957 -49.4375 2.5625 C-52.00715073 2.50924551 -54.57681218 2.45650536 -57.14648438 2.40429688 C-63.43112593 2.27548958 -69.71560346 2.14022776 -76 2 C-76 1.67 -76 1.34 -76 1 C-50.6628432 -0.03867978 -25.35544418 -0.11394523 0 0 Z " fill="#364852" transform="translate(358,92)"/>
<path d="M0 0 C1.75539345 0.00333092 1.75539345 0.00333092 3.54624939 0.00672913 C4.51207191 0.00651009 4.51207191 0.00651009 5.49740601 0.00628662 C7.63473327 0.00698567 9.77197438 0.01477761 11.9092865 0.02259827 C13.3875931 0.02446248 14.86590032 0.02588637 16.34420776 0.02688599 C20.24211827 0.03071093 24.13999174 0.040541 28.03788757 0.05158997 C32.01259358 0.0618046 35.98730554 0.06638372 39.96202087 0.07142639 C47.76607425 0.0821633 55.57009707 0.09923942 63.37413025 0.12025452 C63.37413025 0.45025452 63.37413025 0.78025452 63.37413025 1.12025452 C55.84858437 1.4074631 48.32294114 1.69200947 40.79722595 1.9747467 C38.23958584 2.07114546 35.68196821 2.16814299 33.12437439 2.26576233 C29.43815334 2.40635375 25.7518555 2.54475802 22.0655365 2.68275452 C20.93080399 2.72650208 19.79607147 2.77024963 18.62695312 2.81532288 C15.5429222 2.92961811 12.45891619 3.02888922 9.37413025 3.12025452 C8.06338028 3.16835266 8.06338028 3.16835266 6.72615051 3.21742249 C2.64969206 3.3113264 -0.08351201 3.12209603 -3.62586975 1.12025452 C-2.62586975 0.12025452 -2.62586975 0.12025452 0 0 Z " fill="#D6DDE1" transform="translate(234.62586975097656,100.87974548339844)"/>
<path d="M0 0 C1.2065625 0.0309375 1.2065625 0.0309375 2.4375 0.0625 C3.1875 1.8125 3.1875 1.8125 3.4375 4.0625 C0.56765207 8.00854091 -3.12726966 9.30370176 -7.5625 11.0625 C-9.5697458 12.04787521 -11.57230253 13.04313057 -13.5625 14.0625 C-14.2225 13.4025 -14.8825 12.7425 -15.5625 12.0625 C-15.53125 10.16796875 -15.53125 10.16796875 -14.5625 8.0625 C-12.09375 6.17578125 -12.09375 6.17578125 -9.0625 4.375 C-1.86841693 0.04557114 -1.86841693 0.04557114 0 0 Z " fill="#6F815C" transform="translate(204.5625,94.9375)"/>
<path d="M0 0 C1.22103928 0.02009628 2.44207855 0.04019257 3.70011902 0.06089783 C5.67834404 0.10145042 5.67834404 0.10145042 7.6965332 0.14282227 C9.05987249 0.16712927 10.42322013 0.19097254 11.78657532 0.21437073 C15.37217724 0.27715401 18.95763122 0.34623683 22.54309082 0.41662598 C26.20289379 0.48736149 29.86280153 0.55214721 33.52270508 0.61743164 C40.70185742 0.74636976 47.88086389 0.88196218 55.05981445 1.02172852 C55.05981445 1.68172852 55.05981445 2.34172852 55.05981445 3.02172852 C54.32731979 3.0195079 53.59482513 3.01728729 52.84013367 3.01499939 C45.93920043 2.9949676 39.03827153 2.97973961 32.1373167 2.96991634 C28.58941597 2.96469635 25.04153925 2.95761471 21.49365234 2.94628906 C17.41544361 2.93335189 13.33726012 2.928493 9.2590332 2.92407227 C7.98396408 2.91891098 6.70889496 2.91374969 5.39518738 2.90843201 C3.62369072 2.90831871 3.62369072 2.90831871 1.81640625 2.90820312 C0.77493942 2.90598251 -0.2665274 2.9037619 -1.33955383 2.901474 C-4.05503391 2.9088616 -4.05503391 2.9088616 -6.94018555 4.02172852 C-7.60018555 3.69172852 -8.26018555 3.36172852 -8.94018555 3.02172852 C-8.94018555 2.36172852 -8.94018555 1.70172852 -8.94018555 1.02172852 C-5.68366442 -0.06377853 -3.42267669 -0.06351359 0 0 Z " fill="#909DA5" transform="translate(38.940185546875,87.978271484375)"/>
<path d="M0 0 C1.36063887 0.96251734 2.70227561 1.95420405 4 3 C0.30287938 4.23237354 -0.40173048 3.59300601 -3.875 2.0625 C-13.33709128 -1.5201124 -22.35145674 -1.02044682 -31.67578125 2.77734375 C-34.83501982 4.43926253 -36.76949035 6.23109146 -39 9 C-39.99 8.67 -40.98 8.34 -42 8 C-33.72433394 -5.16583237 -12.94134069 -5.98999198 0 0 Z " fill="#091F20" transform="translate(215,87)"/>
<path d="M0 0 C-4.91563067 3.46864962 -9.84167568 6.9233016 -14.8125 10.3125 C-15.49957031 10.78300781 -16.18664062 11.25351563 -16.89453125 11.73828125 C-19.22314615 13.13372209 -21.41028824 14.17846503 -24 15 C-24.99 14.67 -25.98 14.34 -27 14 C-27.33 13.34 -27.66 12.68 -28 12 C-27.43410156 11.87882812 -26.86820313 11.75765625 -26.28515625 11.6328125 C-25.55167969 11.46523437 -24.81820312 11.29765625 -24.0625 11.125 C-23.33160156 10.96257812 -22.60070312 10.80015625 -21.84765625 10.6328125 C-19.79299706 10.17038477 -19.79299706 10.17038477 -19 8 C-19.66 7.67 -20.32 7.34 -21 7 C-17.74224355 4.95226737 -14.59105489 3.36802091 -11 2 C-9.2365625 1.1646875 -9.2365625 1.1646875 -7.4375 0.3125 C-3.94070449 -1.0226401 -3.31952274 -1.08229516 0 0 Z " fill="#3E4F58" transform="translate(235,111)"/>
<path d="M0 0 C4.41110531 1.34783774 6.61650722 3.02751203 9 7 C9.62502678 11.29705912 9.28872614 13.43324127 7.3125 17.3125 C4.93417008 20.07650505 3.46628726 21.03714243 0 22 C0.32484375 21.29875 0.6496875 20.5975 0.984375 19.875 C2.09460076 16.73220707 2.26695458 14.3230985 2.25 11 C2.25515625 9.989375 2.2603125 8.97875 2.265625 7.9375 C1.99363426 4.9296024 1.26321118 2.72693207 0 0 Z " fill="#1E1A0E" transform="translate(213,91)"/>
<path d="M0 0 C1.35963376 0.96393662 2.70236155 1.95409741 4 3 C3.67 3.66 3.34 4.32 3 5 C2.0925 4.319375 1.185 3.63875 0.25 2.9375 C-2.67703606 0.69051478 -2.67703606 0.69051478 -5 1.4375 C-5.66 1.623125 -6.32 1.80875 -7 2 C-7.86625 1.525625 -8.7325 1.05125 -9.625 0.5625 C-14.07593789 -1.49811939 -18.1549893 -1.64210985 -23 -1 C-23.99 -0.34 -24.98 0.32 -26 1 C-28 1 -30 1 -32 1 C-34.78566059 1.91257306 -34.78566059 1.91257306 -37 3 C-28.40920733 -7.83186902 -10.95901058 -5.47035754 0 0 Z " fill="#E6DA99" transform="translate(216,90)"/>
<path d="M0 0 C1.6875 1.046875 1.6875 1.046875 2.4375 3.15625 C2.52 3.78015625 2.6025 4.4040625 2.6875 5.046875 C1.92308594 4.758125 1.15867188 4.469375 0.37109375 4.171875 C-9.62837431 0.70635538 -20.5171499 -1.46754152 -30.5625 2.984375 C-31.81739716 3.66289498 -33.06822282 4.34907091 -34.3125 5.046875 C-35.3025 5.376875 -36.2925 5.706875 -37.3125 6.046875 C-37.3125 5.386875 -37.3125 4.726875 -37.3125 4.046875 C-37.9725 3.716875 -38.6325 3.386875 -39.3125 3.046875 C-26.36316728 -2.69926313 -13.79126762 -4.19329083 0 0 Z " fill="#E8EBEE" transform="translate(215.3125,83.953125)"/>
<path d="M0 0 C6.27 0 12.54 0 19 0 C19.33 1.32 19.66 2.64 20 4 C21.32 4.33 22.64 4.66 24 5 C24 5.66 24 6.32 24 7 C23.12214844 6.86722656 22.24429688 6.73445313 21.33984375 6.59765625 C15.42972221 5.75335317 9.4936655 5.11377583 3.5625 4.4375 C2.35400391 4.29892578 1.14550781 4.16035156 -0.09960938 4.01757812 C-3.06630848 3.67752171 -6.03310646 3.33835509 -9 3 C-9 2.67 -9 2.34 -9 2 C-4.545 1.505 -4.545 1.505 0 1 C0 0.67 0 0.34 0 0 Z " fill="#3B4D57" transform="translate(143,104)"/>
<path d="M0 0 C0.66 0.33 1.32 0.66 2 1 C1.505 1.61875 1.01 2.2375 0.5 2.875 C-1.61349432 7.27811318 -1.59808796 11.19229291 -1 16 C0.32985569 19.5047765 0.32985569 19.5047765 2 22 C-2.41832494 20.64995627 -4.64842388 19.00638894 -7 15 C-7.91825498 8.57221516 -7.91825498 8.57221516 -5.94140625 5.1875 C-4.17443159 3.00630873 -2.52695685 1.26347843 0 0 Z " fill="#0B090D" transform="translate(183,91)"/>
<path d="M0 0 C4.22915217 -0.02908633 8.45827852 -0.04682792 12.6875 -0.0625 C13.88568359 -0.07087891 15.08386719 -0.07925781 16.31835938 -0.08789062 C18.05375977 -0.09272461 18.05375977 -0.09272461 19.82421875 -0.09765625 C20.88729248 -0.10289307 21.95036621 -0.10812988 23.0456543 -0.11352539 C25.8134509 -0.00716844 28.30792897 0.37105212 31 1 C26.83312807 5.16687193 20.06079181 4.14568643 14.48828125 4.23046875 C12 4 12 4 9 2 C6.72087062 1.54605448 6.72087062 1.54605448 4.3125 1.375 C3.50425781 1.30023438 2.69601562 1.22546875 1.86328125 1.1484375 C1.24839844 1.09945312 0.63351562 1.05046875 0 1 C0 0.67 0 0.34 0 0 Z " fill="#3A4A53" transform="translate(260,103)"/>
<path d="M0 0 C0.33 0 0.66 0 1 0 C1.08636719 0.67546875 1.17273438 1.3509375 1.26171875 2.046875 C2.14627936 7.72389875 2.14627936 7.72389875 5.0625 12.5625 C8.99447494 14.48665795 12.66479854 14.81110233 17 15 C17 15.99 17 16.98 17 18 C12.32120251 18.3743038 8.92219989 18.44402217 4.625 16.375 C0.52041882 12.66133131 -0.88778239 9.71131856 -1.25 4.1875 C-1 1 -1 1 0 0 Z " fill="#110D0F" transform="translate(186,98)"/>
<path d="M0 0 C4.95 0 9.9 0 15 0 C15 0.33 15 0.66 15 1 C18.3 1.33 21.6 1.66 25 2 C25 2.33 25 2.66 25 3 C17.08 3.495 17.08 3.495 9 4 C9 4.33 9 4.66 9 5 C5.04 5 1.08 5 -3 5 C-3.33 4.34 -3.66 3.68 -4 3 C-2.68 2.67 -1.36 2.34 0 2 C0 1.34 0 0.68 0 0 Z " fill="#4F5B62" transform="translate(134,103)"/>
<path d="M0 0 C0 0.33 0 0.66 0 1 C-1.14597656 1.10957031 -2.29195313 1.21914062 -3.47265625 1.33203125 C-5.00266527 1.49160274 -6.53260995 1.65179195 -8.0625 1.8125 C-8.81466797 1.88275391 -9.56683594 1.95300781 -10.34179688 2.02539062 C-14.14573556 2.4370723 -17.32947809 3.00446075 -20.80859375 4.63671875 C-24.32752724 6.13991066 -24.59039163 5.9766512 -28 5 C-29.6586512 4.85701869 -31.3210869 4.75458775 -32.984375 4.68359375 C-33.91894531 4.64169922 -34.85351562 4.59980469 -35.81640625 4.55664062 C-36.78449219 4.51732422 -37.75257813 4.47800781 -38.75 4.4375 C-39.73355469 4.39431641 -40.71710938 4.35113281 -41.73046875 4.30664062 C-44.15351275 4.20077948 -46.5766554 4.09869829 -49 4 C-49 3.67 -49 3.34 -49 3 C-33.655 2.505 -33.655 2.505 -18 2 C-17.67 1.34 -17.34 0.68 -17 0 C-11.20447483 -1.35639951 -5.85868765 -0.76622676 0 0 Z " fill="#6E7D85" transform="translate(353,94)"/>
<path d="M0 0 C3.77081636 -0.0294985 7.54160231 -0.04696364 11.3125 -0.0625 C12.36501953 -0.07087891 13.41753906 -0.07925781 14.50195312 -0.08789062 C21.39311686 -0.10909421 28.15030513 0.24328318 35 1 C35 1.33 35 1.66 35 2 C30.47990456 2.2270593 25.95901094 2.42831539 21.4375 2.625 C20.16068359 2.68945312 18.88386719 2.75390625 17.56835938 2.8203125 C5.85573358 3.30707097 5.85573358 3.30707097 0 1 C0 0.67 0 0.34 0 0 Z " fill="#3D4D55" transform="translate(99,102)"/>
<path d="M0 0 C-6 4 -6 4 -11 4 C-11 4.66 -11 5.32 -11 6 C-16.55139349 8.48351814 -21.16524985 7.85330338 -27 7 C-27 6.67 -27 6.34 -27 6 C-25.80375 5.95875 -24.6075 5.9175 -23.375 5.875 C-17.44714603 5.27184793 -12.44288811 2.71310609 -7.13671875 0.1796875 C-4.0517886 -0.98052284 -2.9630578 -1.27301743 0 0 Z " fill="#8B9BA4" transform="translate(187,83)"/>
<path d="M0 0 C1.34384766 0.07250977 1.34384766 0.07250977 2.71484375 0.14648438 C3.65199219 0.20255859 4.58914062 0.25863281 5.5546875 0.31640625 C6.97201172 0.3947168 6.97201172 0.3947168 8.41796875 0.47460938 C10.7555294 0.60447386 13.09268295 0.73944495 15.4296875 0.87890625 C11.21464674 3.13322749 7.62293588 3.28141304 2.890625 3.53515625 C0.25565556 3.65128014 0.25565556 3.65128014 -1.5703125 5.87890625 C-5.1953125 5.50390625 -5.1953125 5.50390625 -8.5703125 4.87890625 C-6.46289714 0.21248651 -5.01980535 -0.28593828 0 0 Z " fill="#415159" transform="translate(192.5703125,120.12109375)"/>
<path d="M0 0 C1.65 0.99 3.3 1.98 5 3 C4.125 7.875 4.125 7.875 3 9 C0.5625 9.1875 0.5625 9.1875 -2 9 C-2.66 8.34 -3.32 7.68 -4 7 C-3.8125 4.5 -3.8125 4.5 -3 2 C-2.01 1.34 -1.02 0.68 0 0 Z M-2 3 C-1 6 -1 6 -1 6 Z M2 3 C3 6 3 6 3 6 Z " fill="#7B7B7B" transform="translate(238,116)"/>
<path d="M0 0 C1.81242052 -0.02687279 3.62495233 -0.04633715 5.4375 -0.0625 C6.44683594 -0.07410156 7.45617187 -0.08570313 8.49609375 -0.09765625 C11 0 11 0 12 1 C12.07319621 3.69654854 12.09242537 6.36691458 12.0625 9.0625 C12.05798828 9.82111328 12.05347656 10.57972656 12.04882812 11.36132812 C12.0370068 13.24091871 12.01907078 15.12046899 12 17 C11.34 17 10.68 17 10 17 C10 12.05 10 7.1 10 2 C6.7 2 3.4 2 0 2 C0 1.34 0 0.68 0 0 Z " fill="#292929" transform="translate(255,40)"/>
<path d="M0 0 C-2.92359755 1.91861089 -5.6996913 3.28114768 -9 4.375 C-13.06232473 5.81374001 -15.19959548 7.76203228 -18 11 C-18.99 10.67 -19.98 10.34 -21 10 C-17.05337666 3.72128105 -7.48461761 -2.32281236 0 0 Z " fill="#25241C" transform="translate(194,85)"/>
<path d="M0 0 C3.07388417 4.00941413 4.1276781 6.04110792 4.0625 11.125 C4.05347656 12.03507812 4.04445312 12.94515625 4.03515625 13.8828125 C4.02355469 14.58148438 4.01195312 15.28015625 4 16 C3.01 16 2.02 16 1 16 C0.86722656 15.32453125 0.73445312 14.6490625 0.59765625 13.953125 C0.42105469 13.06109375 0.24445313 12.1690625 0.0625 11.25 C-0.11152344 10.36828125 -0.28554687 9.4865625 -0.46484375 8.578125 C-0.92368488 6.36764947 -1.43336074 4.18487932 -2 2 C-1.34 2 -0.68 2 0 2 C0 1.34 0 0.68 0 0 Z " fill="#ECC632" transform="translate(212,90)"/>
<path d="M0 0 C9.24 0 18.48 0 28 0 C24.68964643 3.31035357 23.53211719 3.71674268 19 4 C18.01 3.34 17.02 2.68 16 2 C13.24582682 1.69933846 10.57354853 1.49074701 7.8125 1.375 C6.68811523 1.31699219 6.68811523 1.31699219 5.54101562 1.2578125 C3.69440801 1.16371784 1.8472381 1.08077681 0 1 C0 0.67 0 0.34 0 0 Z " fill="#5B6A72" transform="translate(270,102)"/>
<path d="M0 0 C2.97 0.33 5.94 0.66 9 1 C5.1811165 4.35598853 1.75390306 6.3273304 -3 8 C-3.99 7.67 -4.98 7.34 -6 7 C-6.33 6.34 -6.66 5.68 -7 5 C-6.43410156 4.87882812 -5.86820313 4.75765625 -5.28515625 4.6328125 C-4.55167969 4.46523437 -3.81820312 4.29765625 -3.0625 4.125 C-2.33160156 3.96257812 -1.60070312 3.80015625 -0.84765625 3.6328125 C1.20700294 3.17038477 1.20700294 3.17038477 2 1 C1.34 0.67 0.68 0.34 0 0 Z " fill="#4E5E67" transform="translate(214,118)"/>
<path d="M0 0 C6.6 0 13.2 0 20 0 C18 3 18 3 15.2734375 3.77734375 C11.69316489 4.02087065 9.07274047 3.52020569 5.625 2.5625 C4.56539062 2.27503906 3.50578125 1.98757812 2.4140625 1.69140625 C1.61742187 1.46324219 0.82078125 1.23507813 0 1 C0 0.67 0 0.34 0 0 Z " fill="#37464D" transform="translate(235,104)"/>
<path d="M0 0 C1.32751785 0.00212242 1.32751785 0.00212242 2.68185425 0.00428772 C5.51449941 0.00989485 8.34706614 0.02244854 11.1796875 0.03515625 C13.09765511 0.04017033 15.01562396 0.0447334 16.93359375 0.04882812 C21.64065532 0.05986659 26.3476581 0.077136 31.0546875 0.09765625 C31.0546875 0.42765625 31.0546875 0.75765625 31.0546875 1.09765625 C29.91402832 1.1227124 28.77336914 1.14776855 27.59814453 1.17358398 C23.37504409 1.26759918 19.15211041 1.36783412 14.92919922 1.4699707 C13.09981175 1.5133419 11.27038323 1.55501536 9.44091797 1.5949707 C6.81465264 1.65262043 4.1885944 1.7163299 1.5625 1.78125 C0.33117844 1.80631874 0.33117844 1.80631874 -0.92501831 1.83189392 C-5.0686821 1.84079495 -5.0686821 1.84079495 -8.9453125 3.09765625 C-9.6053125 2.43765625 -10.2653125 1.77765625 -10.9453125 1.09765625 C-7.56138242 -0.59430879 -3.72053459 -0.02220924 0 0 Z " fill="#76848D" transform="translate(106.9453125,99.90234375)"/>
<path d="M0 0 C-0.33 0.99 -0.66 1.98 -1 3 C-1.845625 2.54625 -2.69125 2.0925 -3.5625 1.625 C-9.60465381 -1.02000924 -16.49999161 -1.28893087 -23 -2 C-23 -2.33 -23 -2.66 -23 -3 C-14.41777004 -4.35508894 -8.02562315 -3.23840934 0 0 Z " fill="#D9DDE0" transform="translate(218,86)"/>
<path d="M0 0 C6.27 0 12.54 0 19 0 C19.33 1.32 19.66 2.64 20 4 C21.32 4.33 22.64 4.66 24 5 C24 5.66 24 6.32 24 7 C21.69 6.67 19.38 6.34 17 6 C17 5.01 17 4.02 17 3 C13.43928688 1.95117609 9.94472103 1.69613047 6.25 1.4375 C5.07953125 1.35371094 3.9090625 1.26992187 2.703125 1.18359375 C1.81109375 1.12300781 0.9190625 1.06242187 0 1 C0 0.67 0 0.34 0 0 Z " fill="#36464F" transform="translate(143,104)"/>
<path d="M0 0 C1.81242052 -0.02687279 3.62495233 -0.04633715 5.4375 -0.0625 C6.44683594 -0.07410156 7.45617187 -0.08570313 8.49609375 -0.09765625 C11 0 11 0 12 1 C12.08651611 2.41570123 12.10704904 3.835595 12.09765625 5.25390625 C12.09443359 6.10791016 12.09121094 6.96191406 12.08789062 7.84179688 C12.07951172 8.73962891 12.07113281 9.63746094 12.0625 10.5625 C12.05798828 11.46419922 12.05347656 12.36589844 12.04882812 13.29492188 C12.03700225 15.53001314 12.0205222 17.76497437 12 20 C11.67 20 11.34 20 11 20 C10.67 14.39 10.34 8.78 10 3 C6.7 3 3.4 3 0 3 C0 2.01 0 1.02 0 0 Z " fill="#3A3A3A" transform="translate(85,40)"/>
<path d="M0 0 C0.33 0.66 0.66 1.32 1 2 C0.67 2.99 0.34 3.98 0 5 C-1.32 4.67 -2.64 4.34 -4 4 C-4 4.99 -4 5.98 -4 7 C-7.08809695 8.76462683 -8.23312136 9 -12 9 C-11.8125 7.13671875 -11.8125 7.13671875 -11 5 C-8.75 3.76953125 -8.75 3.76953125 -6 2.8125 C-2.7389803 1.8395483 -2.7389803 1.8395483 0 0 Z " fill="#BD6C28" transform="translate(209,99)"/>
<path d="M0 0 C0.66 0.33 1.32 0.66 2 1 C1.2884375 2.051875 1.2884375 2.051875 0.5625 3.125 C-1.08739857 6.16081337 -1.60368464 8.59168786 -2 12 C-2.33 11.34 -2.66 10.68 -3 10 C-5.02463255 9.34786708 -5.02463255 9.34786708 -7 9 C-5.64978174 4.58110387 -3.73884332 2.65654657 0 0 Z " fill="#0D2232" transform="translate(183,91)"/>
<path d="M0 0 C3.27481575 0.97359387 4.76205109 1.69066641 6.875 4.4375 C8 7 8 7 7 10 C6.34 10 5.68 10 5 10 C4.67 11.65 4.34 13.3 4 15 C3.67 15 3.34 15 3 15 C2.92652344 14.00419922 2.92652344 14.00419922 2.8515625 12.98828125 C2.28874188 6.2887764 2.28874188 6.2887764 0 0 Z " fill="#2A362D" transform="translate(213,91)"/>
<path d="M0 0 C2.98047995 0.41588092 5.64509232 0.85439685 8.4375 2 C11.59272521 3.2313074 14.64735955 3.60557171 18 4 C16 6 16 6 13.5 6.375 C8.60581303 5.85062282 4.47418726 3.98066788 0 2 C0 1.34 0 0.68 0 0 Z " fill="#82939D" transform="translate(218,85)"/>
<path d="M0 0 C1.65 0.33 3.3 0.66 5 1 C4.58427734 1.77923828 4.58427734 1.77923828 4.16015625 2.57421875 C2.19266733 6.36216005 0.53662611 9.70699113 0 14 C-1.91729577 11.18044739 -1.99331618 9.92380446 -1.6875 6.4375 C-1 3 -1 3 0 0 Z " fill="#EECF3D" transform="translate(184,90)"/>
<path d="M0 0 C0.33 0 0.66 0 1 0 C2.34721372 7.47091243 2.34721372 7.47091243 0.6875 10 C-1 11 -1 11 -3 11 C-3 11.66 -3 12.32 -3 13 C-3.99 12.67 -4.98 12.34 -6 12 C-6 11.34 -6 10.68 -6 10 C-5.34 10 -4.68 10 -4 10 C-4 9.34 -4 8.68 -4 8 C-3.34 8 -2.68 8 -2 8 C-2 7.01 -2 6.02 -2 5 C-1.34 5 -0.68 5 0 5 C0 3.35 0 1.7 0 0 Z " fill="#626541" transform="translate(210,101)"/>
<path d="M0 0 C0.33 0 0.66 0 1 0 C1 1.65 1 3.3 1 5 C0.34 5 -0.32 5 -1 5 C-1 5.99 -1 6.98 -1 8 C-1.66 7.67 -2.32 7.34 -3 7 C-3.99 7.66 -4.98 8.32 -6 9 C-8.6875 9.125 -8.6875 9.125 -11 9 C-6.25 5 -6.25 5 -4 5 C-4 4.01 -4 3.02 -4 2 C-2.68 2.33 -1.36 2.66 0 3 C0 2.01 0 1.02 0 0 Z " fill="#DAAF2A" transform="translate(209,101)"/>
<path d="M0 0 C0.78375 0.04125 1.5675 0.0825 2.375 0.125 C3.125 1.875 3.125 1.875 3.375 4.125 C1.4375 6.375 1.4375 6.375 -0.625 8.125 C-1.285 7.795 -1.945 7.465 -2.625 7.125 C-2.625 5.805 -2.625 4.485 -2.625 3.125 C-3.285 2.795 -3.945 2.465 -4.625 2.125 C-2.625 0.125 -2.625 0.125 0 0 Z " fill="#8A9564" transform="translate(204.625,94.875)"/>
<path d="M0 0 C-4.21525886 3.96730245 -4.21525886 3.96730245 -8 4.125 C-8.99 4.08375 -9.98 4.0425 -11 4 C-13.78566059 4.91257306 -13.78566059 4.91257306 -16 6 C-11.44844672 0.74820776 -6.80442346 -0.32402016 0 0 Z " fill="#F5EC9B" transform="translate(195,87)"/>
<path d="M0 0 C3.465 1.485 3.465 1.485 7 3 C6.67 4.32 6.34 5.64 6 7 C2.22454612 5.90931332 -0.47043472 5.0916909 -3 2 C-2.01 2 -1.02 2 0 2 C0 1.34 0 0.68 0 0 Z " fill="#4F5C62" transform="translate(178,117)"/>
<path d="M0 0 C0 0.66 0 1.32 0 2 C-0.66 2 -1.32 2 -2 2 C-2.103125 2.639375 -2.20625 3.27875 -2.3125 3.9375 C-2.539375 4.618125 -2.76625 5.29875 -3 6 C-3.99 6.33 -4.98 6.66 -6 7 C-6.66 6.34 -7.32 5.68 -8 5 C-7.75 2.9375 -7.75 2.9375 -7 1 C-4.53721199 -0.231394 -2.7204945 -0.07159196 0 0 Z " fill="#6D784F" transform="translate(197,102)"/>
<path d="M0 0 C5.62541841 0.45003347 8.61487125 1.68441485 13 5 C12.67 5.66 12.34 6.32 12 7 C11.0925 6.319375 10.185 5.63875 9.25 4.9375 C6.28527385 2.73017191 6.28527385 2.73017191 3.625 3.25 C2.820625 3.62125 2.820625 3.62125 2 4 C1.34 2.68 0.68 1.36 0 0 Z " fill="#F4EB89" transform="translate(207,88)"/>
<path d="M0 0 C6.20970773 -0.33266291 10.28264895 0.54970669 16 3 C15.34 3.66 14.68 4.32 14 5 C9.38 3.68 4.76 2.36 0 1 C0 0.67 0 0.34 0 0 Z " fill="#7D8E98" transform="translate(203,81)"/>
<path d="M0 0 C0.94875 0.350625 1.8975 0.70125 2.875 1.0625 C1.885 2.3825 0.895 3.7025 -0.125 5.0625 C-2.435 4.7325 -4.745 4.4025 -7.125 4.0625 C-4.65909091 -1.39772727 -4.65909091 -1.39772727 0 0 Z " fill="#58656A" transform="translate(191.125,120.9375)"/>
<path d="M0 0 C1.17369141 0.42539063 1.17369141 0.42539063 2.37109375 0.859375 C3.15613281 1.13265625 3.94117188 1.4059375 4.75 1.6875 C6.80859375 2.609375 6.80859375 2.609375 8.80859375 4.609375 C5.02993682 5.86892731 3.77447589 5.09024689 0.12109375 3.671875 C-0.87277344 3.29160156 -1.86664063 2.91132812 -2.890625 2.51953125 C-3.64988281 2.21917969 -4.40914062 1.91882813 -5.19140625 1.609375 C-2.19140625 -0.390625 -2.19140625 -0.390625 0 0 Z " fill="#323725" transform="translate(210.19140625,85.390625)"/>
<path d="M0 0 C0.33 0.99 0.66 1.98 1 3 C1.66 3 2.32 3 3 3 C3.33 2.01 3.66 1.02 4 0 C4 1.98 4 3.96 4 6 C3.01 6.33 2.02 6.66 1 7 C0.67 7.99 0.34 8.98 0 10 C-1.6415049 6.7169902 -0.51888624 3.57454967 0 0 Z " fill="#000315" transform="translate(217,98)"/>
<path d="M0 0 C2.97 0 5.94 0 9 0 C9 0.99 9 1.98 9 3 C6.03 3 3.06 3 0 3 C0 2.01 0 1.02 0 0 Z " fill="#1C150A" transform="translate(194,113)"/>
<path d="M0 0 C2.0625 -0.4375 2.0625 -0.4375 5 0 C7.57260172 2.12080183 9.79254499 4.50627561 12 7 C11.67 7.66 11.34 8.32 11 9 C10.29875 8.236875 9.5975 7.47375 8.875 6.6875 C6.03647396 4.03409522 3.53050949 2.55999257 0 1 C0 0.67 0 0.34 0 0 Z " fill="#253843" transform="translate(163,105)"/>
<path d="M0 0 C1.52299523 2.93720508 2.80100302 5.9168649 4 9 C2.125 9.625 2.125 9.625 0 10 C-0.66 9.34 -1.32 8.68 -2 8 C-1.6875 6.125 -1.6875 6.125 -1 4 C-0.814375 3.2575 -0.62875 2.515 -0.4375 1.75 C-0.293125 1.1725 -0.14875 0.595 0 0 Z " fill="#C88C2C" transform="translate(185,106)"/>
<path d="M0 0 C0.66 0 1.32 0 2 0 C3.50662097 3.01324195 3.17770373 5.68286377 3 9 C2.34 9.66 1.68 10.32 1 11 C0.67 7.37 0.34 3.74 0 0 Z " fill="#1C1C1F" transform="translate(210,96)"/>
<path d="M0 0 C0 0.33 0 0.66 0 1 C-0.90492188 1.25523438 -0.90492188 1.25523438 -1.828125 1.515625 C-6.51063372 2.93548248 -9.85311149 4.03218406 -13 8 C-12.875 5.6875 -12.875 5.6875 -12 3 C-7.9511138 0.26935582 -4.83180659 -0.34512904 0 0 Z " fill="#4F4F4F" transform="translate(218,40)"/>
<path d="M0 0 C4.29 0 8.58 0 13 0 C13 0.33 13 0.66 13 1 C10.36 1.33 7.72 1.66 5 2 C4.67 2.99 4.34 3.98 4 5 C2 3.625 2 3.625 0 2 C0 1.34 0 0.68 0 0 Z " fill="#505050" transform="translate(157,40)"/>
<path d="M0 0 C3.7952131 1.49097658 5.61042731 3.75700849 8 7 C5 7 5 7 2.3125 4.625 C0 2 0 2 0 0 Z " fill="#221B15" transform="translate(173,107)"/>
<path d="M0 0 C0 0.66 0 1.32 0 2 C-4.01804691 2.84098656 -7.01803543 3.05404945 -11 2 C-7.36576791 -0.32590854 -4.22911669 -0.16265833 0 0 Z " fill="#435762" transform="translate(98,99)"/>
<path d="M0 0 C0.66 0.66 1.32 1.32 2 2 C1.38125 2.9075 0.7625 3.815 0.125 4.75 C-1.44389611 7.14948817 -2.80443821 9.40961612 -4 12 C-4.33292585 7.75519536 -4.43885872 5.64457375 -2 2.0625 C-1.34 1.381875 -0.68 0.70125 0 0 Z " fill="#E0C534" transform="translate(178,92)"/>
<path d="M0 0 C0 0.99 0 1.98 0 3 C-1.98 3.33 -3.96 3.66 -6 4 C-6.33 3.01 -6.66 2.02 -7 1 C-4.53721199 -0.231394 -2.7204945 -0.07159196 0 0 Z " fill="#56646B" transform="translate(214,122)"/>
<path d="M0 0 C1.28132813 0.00902344 2.56265625 0.01804687 3.8828125 0.02734375 C4.87023437 0.03894531 5.85765625 0.05054687 6.875 0.0625 C6.875 0.3925 6.875 0.7225 6.875 1.0625 C5.61042969 1.15337891 5.61042969 1.15337891 4.3203125 1.24609375 C3.22460938 1.32988281 2.12890625 1.41367188 1 1.5 C-0.09054688 1.58121094 -1.18109375 1.66242188 -2.3046875 1.74609375 C-5.07228971 1.89251703 -5.07228971 1.89251703 -7.125 3.0625 C-7.785 2.4025 -8.445 1.7425 -9.125 1.0625 C-6.12186252 -0.43906874 -3.33432478 -0.03031204 0 0 Z " fill="#9CA8AF" transform="translate(105.125,99.9375)"/>
<path d="M0 0 C-4.30769231 3.07692308 -4.30769231 3.07692308 -7.8125 2.6875 C-8.534375 2.460625 -9.25625 2.23375 -10 2 C-6.19832777 -0.53444815 -4.31588991 -1.33941411 0 0 Z " fill="#404C46" transform="translate(194,85)"/>
<path d="M0 0 C1.32 0 2.64 0 4 0 C4 0.66 4 1.32 4 2 C-0.38461538 5 -0.38461538 5 -3 5 C-1.125 1.125 -1.125 1.125 0 0 Z " fill="#BF5222" transform="translate(196,96)"/>
<path d="M0 0 C-0.928125 0.45375 -1.85625 0.9075 -2.8125 1.375 C-6.03921389 2.9421633 -6.03921389 2.9421633 -9 5 C-9 3.68 -9 2.36 -9 1 C-5.57367167 -0.61798838 -3.61944899 -1.34053666 0 0 Z " fill="#E0B925" transform="translate(201,95)"/>
<path d="M0 0 C-0.3125 1.9375 -0.3125 1.9375 -1 4 C-1.99 4.33 -2.98 4.66 -4 5 C-4.66 4.34 -5.32 3.68 -6 3 C-3.375 0 -3.375 0 0 0 Z " fill="#1C2E34" transform="translate(193,90)"/>
<path d="M0 0 C2.64 0 5.28 0 8 0 C8 0.66 8 1.32 8 2 C5.5 3.625 5.5 3.625 3 5 C3 4.01 3 3.02 3 2 C2.01 1.34 1.02 0.68 0 0 Z " fill="#494949" transform="translate(188,40)"/>
<path d="M0 0 C-1.13474948 3.40424844 -1.96811304 4.21653709 -5 6 C-5.99 5.67 -6.98 5.34 -8 5 C-2.25 0 -2.25 0 0 0 Z " fill="#596467" transform="translate(227,112)"/>
<path d="M0 0 C0.66 0.33 1.32 0.66 2 1 C3.53668865 1.22467831 5.07968054 1.40796805 6.625 1.5625 C7.44226563 1.64628906 8.25953125 1.73007813 9.1015625 1.81640625 C9.72804687 1.87699219 10.35453125 1.93757813 11 2 C11 2.33 11 2.66 11 3 C7.04 3 3.08 3 -1 3 C-1.33 2.34 -1.66 1.68 -2 1 C-1.34 0.67 -0.68 0.34 0 0 Z " fill="#6F7C86" transform="translate(132,105)"/>
<path d="M0 0 C3.65316671 1.24976756 4.78065836 1.67098753 7 5 C5.33333333 5 3.66666667 5 2 5 C1.34 3.35 0.68 1.7 0 0 Z " fill="#22333A" transform="translate(213,91)"/>
<path d="M0 0 C1.32 0.33 2.64 0.66 4 1 C4.625 2.8125 4.625 2.8125 5 5 C4.01 6.485 4.01 6.485 3 8 C2.01 5.36 1.02 2.72 0 0 Z " fill="#232C2E" transform="translate(206,91)"/>
<path d="M0 0 C2.97 0.33 5.94 0.66 9 1 C7 3 7 3 3.875 3.125 C2.451875 3.063125 2.451875 3.063125 1 3 C0.67 2.01 0.34 1.02 0 0 Z " fill="#91A0A9" transform="translate(227,88)"/>
</svg>
