<?xml version="1.0" encoding="UTF-8"?>
<svg version="1.1" xmlns="http://www.w3.org/2000/svg" width="400" height="150">
<path d="M0 0 C2 2 2 2 2.1171875 3.953125 C1.56008504 9.23661283 0.67546238 12.91615291 -3 17 C-5.75 17.875 -5.75 17.875 -8 18 C-7.731875 17.34 -7.46375 16.68 -7.1875 16 C-5.74294953 12.35060933 -4.37128822 8.67754567 -3 5 C-14.57773839 11.22195168 -23.08508933 20.66422837 -31 31 C-31.70382812 31.88816406 -32.40765625 32.77632812 -33.1328125 33.69140625 C-42.18741686 45.35853983 -49.95640286 58.033378 -57 71 C-49.80729507 65.8821138 -43.40850569 60.04458778 -37 54 C-36.33742188 53.37996094 -35.67484375 52.75992188 -34.9921875 52.12109375 C-29.03214003 46.36895491 -23.59317541 39.88976312 -19 33 C-15.875 32.3125 -15.875 32.3125 -13 32 C-14.45566703 36.45746627 -16.89592479 39.64281565 -19.9375 43.125 C-20.71009155 44.01493652 -20.71009155 44.01493652 -21.49829102 44.92285156 C-32.09257099 56.92122963 -43.28445477 68.6598608 -56.3359375 77.9921875 C-62.09104942 82.32961789 -64.91524818 86.14088393 -67.25 92.8125 C-67.63285156 93.82280273 -67.63285156 93.82280273 -68.0234375 94.85351562 C-69.7387395 99.57059613 -70.53011112 104.00463367 -71 109 C-62.01077835 106.82079475 -56.96606995 96.13957384 -52.12084961 89.00097656 C-32.91109047 60.77358601 -32.91109047 60.77358601 -18.9375 58 C-14.06345557 58 -12.66681469 58.97487788 -9 62 C-9 61.34 -9 60.68 -9 60 C-4.38 60 0.24 60 5 60 C3.45782782 63.85543044 1.90199218 67.08953498 -0.16015625 70.6484375 C-1.09782837 72.27072266 -1.09782837 72.27072266 -2.05444336 73.92578125 C-3.0484314 75.63314453 -3.0484314 75.63314453 -4.0625 77.375 C-4.74182902 78.54805481 -5.42094611 79.72123238 -6.09985352 80.89453125 C-10.16993711 87.91654562 -14.28084821 94.91340656 -18.56079102 101.81005859 C-20.44135994 104.69105263 -20.44135994 104.69105263 -21 108 C-14.20111038 104.09063847 -8.80655781 98.28193723 -4.875 91.5 C-3 89 -3 89 0.25 88.125 C1.1575 88.08375 2.065 88.0425 3 88 C3 88.99 3 89.98 3 91 C2.34 91 1.68 91 1 91 C0.66355469 92.04220703 0.66355469 92.04220703 0.3203125 93.10546875 C-1.30366858 96.66573497 -3.57615466 99.39116755 -6.125 102.3125 C-6.6192749 102.88355469 -7.1135498 103.45460938 -7.62280273 104.04296875 C-9.07201946 105.70431754 -10.53383579 107.3536079 -12 109 C-12.71027344 109.80824219 -13.42054688 110.61648437 -14.15234375 111.44921875 C-18.62207115 116.24800583 -23.63350962 120.0994001 -30 122 C-32.82630461 121.68824507 -34.47231712 121.39576216 -36.75 119.6875 C-38.1510239 117.79611774 -38.49353359 116.27440936 -39 114 C-39.49628906 114.40992188 -39.99257813 114.81984375 -40.50390625 115.2421875 C-44.80274132 118.6518897 -48.41217006 121.27565167 -54 122 C-57.3125 121.125 -57.3125 121.125 -60 119 C-61.10813656 116.30123679 -61.52243413 113.91315183 -62 111 C-62.44730469 111.47050781 -62.89460938 111.94101563 -63.35546875 112.42578125 C-71.74372766 121.06443595 -71.74372766 121.06443595 -78.0625 121.4375 C-82 121 -82 121 -84.4375 119.1875 C-87.29708702 115.18407818 -87.23199926 111.79794224 -87 107 C-86.42575454 104.36114178 -85.81090523 101.8344582 -85.0625 99.25 C-84.88009766 98.59128906 -84.69769531 97.93257813 -84.50976562 97.25390625 C-83.73563454 94.47829444 -82.91130704 91.73392111 -82 89 C-84.39746959 89.12036915 -84.39746959 89.12036915 -87 90 C-88.81050308 92.16882932 -88.81050308 92.16882932 -90.25 94.9375 C-96.95514114 106.16132321 -107.15408455 118.04622537 -120.125 121.9375 C-123.75749483 122.01646728 -125.1917169 121.2769863 -128 119 C-130.20670041 116.26064777 -130.93959999 114.42280008 -131.4375 110.9375 C-129.78879203 96.09912828 -121.66951412 83.91444274 -112 73 C-111.13568359 72.01 -111.13568359 72.01 -110.25390625 71 C-104.64985825 64.97934411 -97.41009592 59.17954083 -89.125 57.8125 C-86.03515379 57.71282754 -84.89396747 58.05080725 -82 59.4375 C-79.29890116 62.89828289 -78.62128133 65.71703612 -79 70 C-80.24778457 74.81029992 -81.77363081 79.54726162 -84 84 C-81.03 83.505 -81.03 83.505 -78 83 C-77.77054687 82.20207031 -77.54109375 81.40414062 -77.3046875 80.58203125 C-67.05364073 52.43769027 -40.3238461 16.8289341 -14 2 C-13.36964844 1.63648438 -12.73929687 1.27296875 -12.08984375 0.8984375 C-7.81300838 -1.26347928 -4.58117285 -1.16774994 0 0 Z M-94.71875 68.4453125 C-97.03761904 71.25906213 -97.18757514 73.4360724 -97 77 C-95.56270648 79.39199214 -93.9991374 81.0008626 -92 83 C-90.07690578 82.96044102 -90.07690578 82.96044102 -88 82 C-85.00704463 77.45514185 -84.26205494 73.32845035 -84 68 C-84.66 67.01 -85.32 66.02 -86 65 C-90.24399189 65 -91.61966156 65.6466459 -94.71875 68.4453125 Z M-25 73 C-25.65355469 73.64066406 -26.30710937 74.28132813 -26.98046875 74.94140625 C-35.37654771 83.77320987 -42.53527326 94.95966825 -45 107 C-42.71842533 107.86510266 -42.71842533 107.86510266 -40 108 C-32.60621529 102.52718262 -27.74535517 93.3246366 -23.11279297 85.50244141 C-21.98478525 83.59933054 -20.83946788 81.70747431 -19.69140625 79.81640625 C-15.46496225 73.28133298 -15.46496225 73.28133298 -13 66 C-18.82732442 66 -20.98161127 69.05507359 -25 73 Z M-103 80 C-104.59586246 82.20026559 -106.06166598 84.38754416 -107.5 86.6875 C-108.10521484 87.62625977 -108.10521484 87.62625977 -108.72265625 88.58398438 C-111.72892474 93.3215857 -114.32090839 97.53320264 -114.125 103.3125 C-114.08375 104.529375 -114.0425 105.74625 -114 107 C-111.90504697 108.06043651 -111.90504697 108.06043651 -109 108 C-101.0060511 104.38534485 -96.54339478 96.08853722 -92 89 C-93.16982422 87.83404297 -93.16982422 87.83404297 -94.36328125 86.64453125 C-95.9912263 85.01176266 -97.6030403 83.36250025 -99.1875 81.6875 C-100.83122273 79.77286049 -100.83122273 79.77286049 -103 80 Z " fill="#E61C2A" transform="translate(371,14)"/>
<path d="M0 0 C3.28931514 1.72689045 3.8140267 2.4420801 5 6 C5.42134358 12.21481787 4.4498235 16.28374518 2 22 C8.27120537 19.46739783 12.64098789 15.75926069 17.48510742 11.15356445 C24.40636731 4.62774237 30.93384435 -0.49638916 40.76953125 -0.3359375 C43 0 43 0 46.0625 2 C48.06299464 5.09754009 48.73052241 7.1737991 48.4921875 10.875 C47.35721677 15.77519107 44.38905089 19.52413342 41 23.125 C39 24 39 24 36.25 23.1875 C35.5075 22.795625 34.765 22.40375 34 22 C33.6875 19.3125 33.6875 19.3125 34 16 C36.24592708 13.19259115 37.89467213 11.38835844 41.3125 10.1875 C41.869375 10.125625 42.42625 10.06375 43 10 C42.505 9.01 42.505 9.01 42 8 C36.35031305 8 33.29456623 10.6752859 29.37109375 14.3671875 C21.77800428 22.79839393 12.82560211 35.54478731 12.625 47.125 C12.56389726 50.77579967 12.56389726 50.77579967 14 52 C22.87622455 51.81885256 28.23409019 45.96555168 34.18457031 39.95800781 C37.17777652 36.72972463 39.76274177 33.22556622 42.375 29.6875 C62.06353001 3.53673185 62.06353001 3.53673185 74 0 C77.91947356 -0.39859053 80.06089734 -0.57790933 83.4375 1.5 C83.953125 1.995 84.46875 2.49 85 3 C85 2.34 85 1.68 85 1 C89.62 1 94.24 1 99 1 C97.34800016 5.12999961 95.63929904 8.43308001 93.33203125 12.19140625 C92.79517952 13.07033791 92.79517952 13.07033791 92.2474823 13.96702576 C91.10607451 15.834408 89.95957463 17.69859442 88.8125 19.5625 C85.86444414 24.36860099 82.92577263 29.18030082 80 34 C79.64742126 34.57868835 79.29484253 35.15737671 78.93157959 35.75360107 C77.93020004 37.40296311 76.93946826 39.05877551 75.94921875 40.71484375 C75.37905029 41.66351318 74.80888184 42.61218262 74.22143555 43.58959961 C72.77399316 45.99563729 72.77399316 45.99563729 73 49 C78.92666873 45.34311929 82.78804381 40.88749677 87.08203125 35.42578125 C89 33 89 33 91 31 C93.625 30.875 93.625 30.875 96 31 C90.31940264 43.82014596 77.66646485 57.26017095 65 63 C61.625 63.6875 61.625 63.6875 59 63 C56.83392475 60.77538218 55.38311239 58.76622478 54 56 C53.29037109 56.63228516 53.29037109 56.63228516 52.56640625 57.27734375 C47.62034142 61.37496081 43.53732173 63.51474974 37 63 C34.5 62.0625 34.5 62.0625 33 60 C32.425183 57.31931135 32.22143476 54.74579098 32 52 C31.67 51.67 31.34 51.34 31 51 C30.38253906 51.53109375 29.76507813 52.0621875 29.12890625 52.609375 C22.70842947 57.96465852 16.44462476 62.97584821 7.8125 63.5 C3.35403996 62.91528393 1.32578448 62.01640918 -2 59 C-4.80795316 54.38046416 -5.44837859 50.76772252 -4.65625 45.546875 C-3.17102379 39.7827828 -0.65667998 34.31335996 2 29 C0.13698892 28.98410161 0.13698892 28.98410161 -2 30 C-3.63729805 32.24535258 -5.07320678 34.4403042 -6.5 36.8125 C-12.99766823 47.06099447 -22.18811921 59.05475277 -34.27734375 62.68359375 C-37.51640969 63.29260282 -39.88176693 63.57549234 -42.8671875 62.0390625 C-45.55694422 59.91557035 -46.91331008 58.26006976 -48 55 C-49.15872843 40.80557675 -40.66904969 28.44271733 -32 18 C-31.55269531 17.40703125 -31.10539062 16.8140625 -30.64453125 16.203125 C-23.23056098 6.72367914 -12.46282691 -1.53747024 0 0 Z M-12 11 C-13.43735246 13.87470493 -13.38172649 15.81894588 -13 19 C-10.9315113 21.5714939 -10.9315113 21.5714939 -8 23 C-5.29558468 23.25941717 -5.29558468 23.25941717 -3 22 C-0.29892091 17.88406995 -0.57636248 12.76838516 -1 8 C-2.03424909 6.76471482 -2.03424909 6.76471482 -4.25 6.6875 C-7.86060163 7.09779564 -9.39435601 8.53911401 -12 11 Z M71.2734375 11.6328125 C62.11313619 21.17085819 53.26563412 33.40098789 49 46 C49.28739925 48.24240782 49.28739925 48.24240782 50 50 C53.26023775 49.69800729 54.73203198 49.25005297 57.15820312 46.98608398 C62.51226741 40.23378143 67.14108754 33.30174609 71.45996094 25.85424805 C72.51687217 24.03343314 73.58935304 22.22246572 74.6640625 20.41210938 C78.6498285 14.04885996 78.6498285 14.04885996 81 7 C75.92366569 7 74.85932273 8.31353584 71.2734375 11.6328125 Z M-19 21 C-20.58618722 23.11591957 -22.02667125 25.20818602 -23.4375 27.4375 C-24.04537354 28.39450806 -24.04537354 28.39450806 -24.66552734 29.37084961 C-28.11146128 34.93449468 -31.37381592 40.33660402 -30.6875 47.0625 C-30.460625 47.701875 -30.23375 48.34125 -30 49 C-26.93505955 50.39171843 -26.93505955 50.39171843 -23.8125 48.625 C-15.99383011 43.81478237 -10.97250161 36.07869318 -7 28 C-7.63808594 27.66226563 -8.27617188 27.32453125 -8.93359375 26.9765625 C-9.75988281 26.53054687 -10.58617188 26.08453125 -11.4375 25.625 C-12.26121094 25.18414062 -13.08492187 24.74328125 -13.93359375 24.2890625 C-16 23 -16 23 -17 21 C-17.66 21 -18.32 21 -19 21 Z " fill="#E61C2A" transform="translate(89,42)"/>
<path d="M0 0 C0.71414063 -0.00515625 1.42828125 -0.0103125 2.1640625 -0.015625 C4.375 0.25 4.375 0.25 6.80078125 1.3203125 C9.96868302 2.46441056 11.67170871 2.09480706 14.9375 1.375 C19.12789062 0.59443704 23.17373558 0.00824264 27.4375 -0.125 C28.31535156 -0.15335938 29.19320312 -0.18171875 30.09765625 -0.2109375 C39.53475201 1.11632984 47.86944586 5.88761396 56.0625 10.5 C57.06216797 11.05429687 58.06183594 11.60859375 59.09179688 12.1796875 C61.5235891 13.52939036 63.95110672 14.88617914 66.375 16.25 C64.90896092 19.29820399 63.40115079 21.59939772 61.0625 24.0625 C60.48886719 24.68769531 59.91523438 25.31289063 59.32421875 25.95703125 C57.375 27.25 57.375 27.25 55.15625 27.27734375 C51.09435043 25.77695107 47.75423245 23.42668638 44.1875 21 C30.39701932 11.78844009 30.39701932 11.78844009 14.375 9.25 C14.31183594 9.95382813 14.24867188 10.65765625 14.18359375 11.3828125 C12.35689855 26.11174432 5.17588065 37.47777465 -5.625 47.25 C-9.49086085 50.1308422 -12.52429217 51.25 -17.4375 51.25 C-20.625 50.25 -20.625 50.25 -22.625 48.75 C-24.52944535 43.98888663 -23.45385045 39.54413965 -21.75 34.828125 C-16.21675091 22.76256795 -7.35324226 14.60184114 3.375 7.25 C-10.57954633 9.66520994 -20.54825333 19.15196988 -30.22265625 28.85546875 C-31.58915187 30.21752048 -32.97309349 31.56374216 -34.40625 32.85546875 C-51.55930039 48.64407195 -67.39304663 74.52471869 -69.92578125 98.04296875 C-69.9494527 102.87983448 -69.96407504 106.43391423 -66.625 110.25 C-63.8840074 112.48340138 -62.35894155 112.24141747 -58.75 112.125 C-54.60172523 111.46434883 -51.95155132 109.85338799 -48.625 107.25 C-47.67625 106.569375 -46.7275 105.88875 -45.75 105.1875 C-37.70966677 98.33205798 -31.19062149 87.51248595 -28.625 77.25 C-28.4781588 74.55791127 -28.53189604 71.95001477 -28.625 69.25 C-30.91336222 68.83013054 -30.91336222 68.83013054 -33.625 69.25 C-38.82937988 73.31195503 -41.96423286 78.9461643 -43.25 85.375 C-45.18862163 89.42848159 -48.07671709 90.60537654 -51.9375 92.7265625 C-55.76505393 94.8962515 -59.17473177 97.53219095 -62.625 100.25 C-60.8404588 86.71944879 -56.24531256 73.97905162 -45.16796875 65.33203125 C-40.04405048 62.01840668 -35.7601638 60.14601417 -29.625 60.25 C-26.00409244 61.82430764 -24.83244716 62.93882926 -22.625 66.25 C-20.73882179 77.4677967 -25.42764207 88.23401634 -31.375 97.5 C-39.34168372 108.6831392 -49.45032863 120.38436247 -63.625 123.25 C-69.05555492 123.83236514 -74.54471336 124.21506986 -79.5625 121.75 C-84.10218218 118.04413699 -86.77813211 113.79060368 -88.625 108.25 C-90.64635763 82.49212851 -77.21706376 59.64366699 -61.06347656 40.38867188 C-57.70828288 36.55115593 -54.18869624 32.89344329 -50.625 29.25 C-49.87863281 28.44175781 -49.13226563 27.63351563 -48.36328125 26.80078125 C-37.09320595 14.86408413 -17.27494608 -0.12563597 0 0 Z M-4.625 19.25 C-11.55595218 26.5788014 -17.78489676 33.95873537 -18.625 44.25 C-17.0493434 45.66744763 -17.0493434 45.66744763 -14.625 46.25 C-5.18656998 42.15407754 0.92368838 34.32797794 5.375 25.25 C7.19481795 20.48152965 8.375 16.37246746 8.375 11.25 C3.5776809 11.25 -1.12221095 16.31098439 -4.625 19.25 Z " fill="#E61C2B" transform="translate(271.625,11.75)"/>
<path d="M0 0 C1.18722656 -0.02835938 2.37445313 -0.05671875 3.59765625 -0.0859375 C7.53664109 0.45768848 9.13831433 1.61176717 11.9375 4.375 C13.5705422 7.6410844 13.47155276 10.84665142 12.9375 14.375 C11.18882936 18.87365476 9.1027095 22.40872871 5.375 25.5 C2.67698738 26.46851735 1.54751142 26.49357632 -1.0625 25.375 C-2.0625 24.375 -2.0625 24.375 -2.4375 21.6875 C-1.93153042 17.21810206 -0.27693608 15.44657226 2.9375 12.375 C5.75 11.5 5.75 11.5 7.9375 11.375 C7.4425 9.89 7.4425 9.89 6.9375 8.375 C2.67059643 6.50288418 -0.82057535 8.22988323 -4.9296875 9.82421875 C-29.97387831 22.22140547 -48.03690582 50.52360345 -57.38671875 75.98046875 C-60.34994682 85.34842837 -62.13499184 95.04519385 -58.375 104.4375 C-55.9814957 109.02295034 -53.22364667 111.50800997 -48.39453125 113.4453125 C-34.87116642 117.21853739 -20.4722592 113.3492501 -7.24267578 110.14111328 C50.83221511 96.15070889 50.83221511 96.15070889 73.9140625 108.49609375 C79.59052863 112.02371676 84.75911539 116.1627838 89.9375 120.375 C91.36255859 121.45394531 91.36255859 121.45394531 92.81640625 122.5546875 C93.51636719 123.15539062 94.21632812 123.75609375 94.9375 124.375 C94.9375 125.035 94.9375 125.695 94.9375 126.375 C93.89916016 125.95927734 93.89916016 125.95927734 92.83984375 125.53515625 C91.88207031 125.15230469 90.92429688 124.76945312 89.9375 124.375 C88.39255859 123.75431641 88.39255859 123.75431641 86.81640625 123.12109375 C85.72199219 122.68925781 84.62757813 122.25742188 83.5 121.8125 C82.40816406 121.37808594 81.31632813 120.94367188 80.19140625 120.49609375 C72.24608083 117.75862869 62.15595208 116.41927552 54.375 120.1875 C51.83635531 121.6124167 49.93238078 123.25884988 47.9375 125.375 C44.9375 124.375 44.9375 124.375 43.375 122.125 C38.04583134 116.11260459 30.4318437 113.64706737 22.58203125 113.171875 C5.24790882 112.95983681 -10.88551717 116.90842711 -27.640625 121.0703125 C-38.70511853 123.77019396 -54.65016516 126.5907284 -65.0625 120.375 C-72.13553383 115.37109249 -77.54214224 110.10099702 -79.0625 101.375 C-80.87286559 82.65245166 -76.02162329 67.58633008 -67.0625 51.375 C-66.51722656 50.385 -65.97195312 49.395 -65.41015625 48.375 C-61.03420983 41.01399477 -55.42609137 34.96870635 -49.4921875 28.85595703 C-48.23682944 27.555581 -47.00686358 26.23079135 -45.78125 24.90234375 C-34.29906489 12.75607703 -17.20151479 0.18717644 0 0 Z " fill="#E61C2A" transform="translate(79.0625,11.625)"/>
<path d="M0 0 C0.495 1.485 0.495 1.485 1 3 C-1.23400969 6.6562621 -4.17298192 9.79058334 -7 13 C-8.12341797 14.28583984 -8.12341797 14.28583984 -9.26953125 15.59765625 C-19.03828763 26.07922405 -31.35845721 33.17413339 -45.86328125 34.203125 C-49.57554748 34.26759272 -52.45833242 34.18055586 -56 33 C-53.74595947 28.24621783 -51.2968534 24.15687189 -47 21 C-43.80268989 20.37102096 -40.79116439 20.30964385 -37.53515625 20.24609375 C-22.75102335 19.21692207 -10.35507262 9.84371101 0 0 Z " fill="#E61C2A" transform="translate(399,12)"/>
<path d="M0 0 C0.86882812 0.10441406 1.73765625 0.20882812 2.6328125 0.31640625 C-1.08804977 9.82345523 -1.08804977 9.82345523 -4.3671875 12.31640625 C-8.70971893 13.21758692 -12.94091976 13.36177063 -17.3671875 13.31640625 C-15.14399406 2.78040256 -10.69913293 -0.75396574 0 0 Z " fill="#E61C2A" transform="translate(206.3671875,42.68359375)"/>
</svg>
