<?xml version="1.0" encoding="UTF-8"?>
<svg version="1.1" xmlns="http://www.w3.org/2000/svg" width="400" height="150">
<path d="M0 0 C4.99941675 0.04433395 9.99759221 0.11435432 14.99633789 0.20751953 C16.69447922 0.23563071 18.39274901 0.25689402 20.09106445 0.27099609 C22.54184257 0.29256352 24.99109236 0.33928006 27.44140625 0.390625 C28.56839684 0.39246796 28.56839684 0.39246796 29.71815491 0.39434814 C35.7018679 0.55817431 40.31566346 2.17508723 44.56640625 6.6484375 C47.72816339 12.12881654 50.09050472 17.86416037 52.5078125 23.70703125 C54.2713082 27.59872464 56.39918958 30.63424534 59 34 C59 34.66 59 35.32 59 36 C61.64 36.33 64.28 36.66 67 37 C73.56939928 25.7997127 75.47491711 13.62541445 78 1 C88.23 1 98.46 1 109 1 C108.99887207 3.4327832 108.99774414 5.86556641 108.99658203 8.37207031 C108.99720936 16.40689892 109.03065171 24.44134902 109.0802784 32.476017 C109.10936034 37.34791088 109.12736125 42.21932255 109.12011719 47.09130859 C109.11353345 51.79250557 109.13595389 56.49274886 109.17855453 61.19374847 C109.18970291 62.98786779 109.19037029 64.78208364 109.18042374 66.57621002 C109.16827926 69.0886505 109.1932751 71.59816731 109.22705078 74.11035156 C109.20871941 75.22489464 109.20871941 75.22489464 109.1900177 76.36195374 C109.18270692 78.71033981 109.18270692 78.71033981 110 82 C112.92919913 84.40168291 112.92919913 84.40168291 116 86 C116 86.66 116 87.32 116 88 C96.695 87.505 96.695 87.505 77 87 C76.67 70.83 76.34 54.66 76 38 C73.855 43.40375 71.71 48.8075 69.5 54.375 C64.58773254 66.70240873 59.59335685 78.9621233 54 91 C53.01 91 52.02 91 51 91 C49.39541885 88.73656332 48.03813637 86.53763309 46.6875 84.125 C46.26307617 83.38556152 45.83865234 82.64612305 45.40136719 81.88427734 C39.62093663 71.72230507 34.15003823 61.3847536 28.64648438 51.07128906 C26.12421584 46.36634568 23.56509298 41.6817024 21 37 C20.90111911 43.19298642 20.82852514 49.38551332 20.78027344 55.57910156 C20.76015874 57.68595382 20.73286333 59.79275025 20.69824219 61.89941406 C20.64971832 64.92787447 20.62702984 67.95559678 20.609375 70.984375 C20.58872986 71.92617615 20.56808472 72.86797729 20.54681396 73.83831787 C20.47862008 79.06970162 20.47862008 79.06970162 22.89941406 83.56347656 C24.928265 85.02069451 24.928265 85.02069451 27 86 C27 86.66 27 87.32 27 88 C21.06 88 15.12 88 9 88 C8.9906543 85.63303955 8.98130859 83.2660791 8.97167969 80.82739258 C8.937902 73.00413622 8.88234873 65.18114343 8.81609726 57.35809803 C8.77659966 52.61526423 8.74442241 47.87261673 8.72900391 43.12963867 C8.7138523 38.55176736 8.67943357 33.97440813 8.63169098 29.39676476 C8.6168617 27.65093119 8.6089581 25.90502453 8.60811615 24.15912819 C8.60574933 21.71205777 8.57869467 19.26640584 8.54589844 16.81958008 C8.5509288 16.09884811 8.55595917 15.37811615 8.56114197 14.63554382 C8.46154036 9.8276302 7.40227569 7.38095786 4 4 C1.88339573 2.68834743 1.88339573 2.68834743 0 2 C0 1.34 0 0.68 0 0 Z " fill="#9B2B38" transform="translate(150,30)"/>
<path d="M0 0 C1.2845105 0.61391602 1.2845105 0.61391602 2.5949707 1.24023438 C5 3 5 3 5.65942383 5.4519043 C5.67513428 6.39976807 5.69084473 7.34763184 5.70703125 8.32421875 C5.73603516 9.35224609 5.76503906 10.38027344 5.79492188 11.43945312 C5.80072266 12.51130859 5.80652344 13.58316406 5.8125 14.6875 C5.83763672 15.77095703 5.86277344 16.85441406 5.88867188 17.97070312 C5.94763215 20.64749983 5.98384663 23.32265815 6 26 C2.43333402 24.32397223 0.04079275 22.29896502 -2.8125 19.5625 C-9.14880802 13.80053569 -13.60808041 11.59060048 -22.27734375 11.89453125 C-22.84582031 11.92933594 -23.41429687 11.96414062 -24 12 C-24.8250525 15.30021001 -25.42348518 17.82453305 -24 21 C-22.69093738 21.71314605 -21.3485783 22.36473723 -20 23 C4.41087946 35.66786095 4.41087946 35.66786095 8.41015625 46.3203125 C10.85746342 57.43854243 9.18432628 67.18109791 3.3125 76.75 C-4.42057646 84.2740744 -13.11732053 88.00270461 -23.875 88.4375 C-30.33908223 88.24664776 -36.16017791 86.76817929 -42 84 C-42.7741626 83.65275879 -43.5483252 83.30551758 -44.34594727 82.94775391 C-47.03224147 81.51622622 -48.95094467 80.26040751 -51 78 C-52.09889944 73.82425666 -51.85747796 69.90596219 -51.5625 65.625 C-51.52189453 64.50738281 -51.48128906 63.38976562 -51.43945312 62.23828125 C-51.33366198 59.48771143 -51.18606401 56.74611389 -51 54 C-50.34 54 -49.68 54 -49 54 C-47.84375 55.50390625 -47.84375 55.50390625 -46.5 57.5625 C-42.08608322 63.62758858 -36.44929479 68.03872112 -29.1875 70.0625 C-25.83326748 69.99673073 -23.82566502 69.82837148 -21 68 C-19.82221688 65.69628579 -19.82221688 65.69628579 -20 63 C-22.28194766 57.31920203 -27.1596504 55.14331819 -32.1875 52.1875 C-41.05086593 46.7815107 -48.8486542 41.90029406 -53 32 C-54.2376171 22.58965019 -53.30204412 13.65255924 -47.45703125 5.97265625 C-35.83863692 -6.60285981 -14.68914664 -7.70535938 0 0 Z " fill="#9B2B38" transform="translate(316,33)"/>
<path d="M0 0 C23.43 0.33 46.86 0.66 71 1 C72.65 7.27 74.3 13.54 76 20 C72.76976882 18.38488441 71.31137641 17.48791782 68.875 15.125 C60.38678399 7.78287223 51.21515658 7.49535421 40 6 C40 17.55 40 29.1 40 41 C43.403125 40.855625 46.80625 40.71125 50.3125 40.5625 C51.38153564 40.51939697 52.45057129 40.47629395 53.55200195 40.43188477 C54.39722412 40.39377686 55.24244629 40.35566895 56.11328125 40.31640625 C56.97735596 40.27974854 57.84143066 40.24309082 58.73168945 40.20532227 C61.1647826 40.07252646 61.1647826 40.07252646 64 39 C65.18391223 36.62374655 65.18391223 36.62374655 66 34 C66.33 33.01 66.66 32.02 67 31 C67.66 31 68.32 31 69 31 C70.00342042 35.4575707 71.00215865 39.91617738 72 44.375 C72.28617187 45.64601562 72.57234375 46.91703125 72.8671875 48.2265625 C73.13789063 49.43828125 73.40859375 50.65 73.6875 51.8984375 C73.93886719 53.01911621 74.19023437 54.13979492 74.44921875 55.29443359 C75 58 75 58 75 60 C74.34 60 73.68 60 73 60 C72.12366724 58.97267747 71.29862789 57.90132698 70.5 56.8125 C66.44272681 52.03866782 62.94718411 50.22202483 57 48 C51.39 47.67 45.78 47.34 40 47 C40 58.88 40 70.76 40 83 C59.10471783 80.23667976 59.10471783 80.23667976 73 69 C73.99 68.67 74.98 68.34 76 68 C75.3808361 70.584859 74.75492318 73.16776172 74.125 75.75 C73.86396484 76.84441406 73.86396484 76.84441406 73.59765625 77.9609375 C73.42363281 78.66992188 73.24960938 79.37890625 73.0703125 80.109375 C72.83465576 81.08342285 72.83465576 81.08342285 72.59423828 82.07714844 C72 84 72 84 70 88 C49.54 88 29.08 88 8 88 C7.96261719 82.18761719 7.92523438 76.37523438 7.88671875 70.38671875 C7.85645003 66.70895445 7.82530943 63.0312392 7.79101562 59.35351562 C7.73664201 53.51345246 7.68553431 47.67348633 7.65356445 41.83325195 C7.62759376 37.12578424 7.58723598 32.41864139 7.53681374 27.71137428 C7.52010271 25.91364387 7.50861488 24.11585721 7.50238609 22.31805992 C7.49279082 19.80373283 7.4647877 17.29024486 7.43237305 14.77612305 C7.43380814 14.02949905 7.43524323 13.28287506 7.4367218 12.5136261 C7.38149271 8.54162324 7.38149271 8.54162324 5.60969543 5.08821106 C3.80642767 3.86913826 1.98562354 2.8901071 0 2 C0 1.34 0 0.68 0 0 Z " fill="#9B2B38" transform="translate(74,30)"/>
<path d="M0 0 C23.1 0.33 46.2 0.66 70 1 C75 18 75 18 75 20 C72 19 72 19 70.4375 16.75 C62.79670742 8.12961863 50.76654835 6.97877712 40 6 C40 17.55 40 29.1 40 41 C43.196875 40.938125 46.39375 40.87625 49.6875 40.8125 C50.68612061 40.80581299 51.68474121 40.79912598 52.71362305 40.79223633 C57.25022534 40.63271248 59.3946842 40.47560527 63.0625 37.59375 C64.67944508 35.42912998 65.98327072 33.49560824 67 31 C67.66 31 68.32 31 69 31 C70.98 40.57 72.96 50.14 75 60 C72 59 72 59 69.8125 56.75 C63.17371945 50.25874791 57.00057561 47.92699573 47.8125 47.4375 C46.68811523 47.37272461 46.68811523 47.37272461 45.54101562 47.30664062 C43.69421625 47.20077315 41.84713166 47.0999024 40 47 C40.04417668 51.76955757 40.11403164 56.53779423 40.20751953 61.30664062 C40.23571347 62.92827837 40.25693594 64.55005313 40.27099609 66.171875 C40.29244872 68.50592105 40.33910575 70.83832261 40.390625 73.171875 C40.39185364 73.89493835 40.39308228 74.61800171 40.39434814 75.36297607 C40.49329675 78.77725886 40.7544097 80.67794622 42.85058594 83.42675781 C45.00413391 85.17090347 45.00413391 85.17090347 48 86 C48 86.66 48 87.32 48 88 C34.8 88 21.6 88 8 88 C7.97421875 82.27140625 7.9484375 76.5428125 7.921875 70.640625 C7.89671053 67.01297594 7.87038085 63.38541058 7.83984375 59.7578125 C7.79147756 53.9990201 7.74744494 48.24042142 7.72900391 42.48144531 C7.71386755 37.83874281 7.67947611 33.19654679 7.63169098 28.55406952 C7.61684591 26.78228913 7.6089572 25.01043644 7.60811615 23.23859406 C7.60575406 20.75779631 7.57873769 18.27840696 7.54589844 15.79785156 C7.5509288 15.06417358 7.55595917 14.33049561 7.56114197 13.57458496 C7.49169922 10.18734696 7.26744229 8.34213696 5.15338135 5.63763428 C3.47974029 4.36483976 1.74949932 3.16633288 0 2 C0 1.34 0 0.68 0 0 Z " fill="#9B2B38" transform="translate(0,30)"/>
<path d="M0 0 C3.83701099 1.23056739 5.14741807 3.52080611 6.99237061 6.97438049 C7.34035706 7.65443649 7.68834351 8.33449249 8.046875 9.03515625 C8.42177063 9.74667343 8.79666626 10.45819061 9.18292236 11.19126892 C9.97824309 12.70583397 10.76804278 14.22330905 11.55273438 15.7434082 C12.72167434 18.00763348 13.90587194 20.26324181 15.09375 22.51757812 C19.68387591 31.27432654 24.01901912 40.12845304 28.17236328 49.10009766 C30.70191584 54.54495111 33.40156194 59.90407448 36.1328125 65.25 C37.3579062 67.66784991 38.4681428 70.07272924 39.5546875 72.5625 C41.88698955 78.24064253 41.88698955 78.24064253 46.1484375 82.40234375 C48.56275069 83.3890596 48.56275069 83.3890596 52 84 C52 85.32 52 86.64 52 88 C46.67979978 88.07429915 41.35990331 88.12867247 36.03930664 88.16479492 C34.23033383 88.17985755 32.4213974 88.20031177 30.61254883 88.22631836 C28.00853485 88.2628132 25.4050048 88.27975157 22.80078125 88.29296875 C21.99538406 88.30845261 21.18998688 88.32393646 20.36018372 88.33988953 C14.74495843 88.34156279 11.63178125 87.25802598 7.29980469 83.54125977 C5.89040124 81.87004189 5.07305651 80.34257294 4.203125 78.33984375 C3.88754639 77.63287354 3.57196777 76.92590332 3.24682617 76.19750977 C2.91787354 75.45170654 2.5889209 74.70590332 2.25 73.9375 C-3.01491556 62.03401662 -3.01491556 62.03401662 -12 53 C-15.57104439 54.87949705 -17.54744301 56.17053157 -19 60 C-19.99 60 -20.98 60 -22 60 C-21.42316067 54.93938003 -20.31423471 50.58120593 -18.55859375 45.765625 C-18.31503143 45.09356018 -18.07146912 44.42149536 -17.82052612 43.72906494 C-17.03374775 41.56652292 -16.23631529 39.40812182 -15.4375 37.25 C-14.89280878 35.76497891 -14.3481311 34.27995284 -13.8034668 32.79492188 C-2.71846638 2.71846638 -2.71846638 2.71846638 0 0 Z " fill="#9B2B38" transform="translate(348,31)"/>
</svg>
