<?xml version="1.0" encoding="UTF-8"?>
<svg version="1.1" xmlns="http://www.w3.org/2000/svg" width="400" height="150">
<path d="M0 0 C2.53798696 0.09095676 5.03326771 0.23715174 7.5625 0.4375 C11.2440625 0.7159375 11.2440625 0.7159375 15 1 C15 10.9 15 20.8 15 31 C16.65 31 18.3 31 20 31 C20 21.1 20 11.2 20 1 C22.74505463 -0.37252731 25.00327412 -0.13229255 28.0625 -0.125 C29.14660156 -0.12757812 30.23070312 -0.13015625 31.34765625 -0.1328125 C34 0 34 0 35 1 C35.09502416 3.49492388 35.12557566 5.96206014 35.11352539 8.45727539 C35.11367142 9.23770706 35.11381744 10.01813873 35.1139679 10.82221985 C35.11326858 13.4140598 35.10547536 16.00582878 35.09765625 18.59765625 C35.09579213 20.3898464 35.0943682 22.18203706 35.09336853 23.97422791 C35.08954284 28.70070797 35.07971212 33.42715752 35.06866455 38.15362549 C35.05845153 42.9728555 35.05387115 47.79209042 35.04882812 52.61132812 C35.03808989 62.07423435 35.02049268 71.53710987 35 81 C30.05 81 25.1 81 20 81 C20 68.46 20 55.92 20 43 C18.35 43 16.7 43 15 43 C15 55.54 15 68.08 15 81 C9.72 81 4.44 81 -1 81 C-1.02255116 70.58656689 -1.04091517 60.17314987 -1.05181217 49.75969791 C-1.05704097 44.92483173 -1.06413854 40.08998306 -1.07543945 35.25512695 C-1.08626847 30.5932288 -1.09227686 25.93134754 -1.09487724 21.26943779 C-1.09673147 19.48675712 -1.10035203 17.70407741 -1.10573006 15.92140388 C-1.11294069 13.4333404 -1.11399093 10.94534757 -1.11352539 8.45727539 C-1.11712067 7.71281158 -1.12071594 6.96834778 -1.12442017 6.20132446 C-1.11405216 1.11405216 -1.11405216 1.11405216 0 0 Z " fill="#370611" transform="translate(195,24)"/>
<path d="M0 0 C0 9.57 0 19.14 0 29 C1.65 29.33 3.3 29.66 5 30 C5 20.1 5 10.2 5 0 C7.74505463 -1.37252731 10.00327412 -1.13229255 13.0625 -1.125 C14.14660156 -1.12757812 15.23070313 -1.13015625 16.34765625 -1.1328125 C19 -1 19 -1 20 0 C20.09502416 2.49492388 20.12557566 4.96206014 20.11352539 7.45727539 C20.11367142 8.23770706 20.11381744 9.01813873 20.1139679 9.82221985 C20.11326858 12.4140598 20.10547536 15.00582878 20.09765625 17.59765625 C20.09579213 19.3898464 20.0943682 21.18203706 20.09336853 22.97422791 C20.08954284 27.70070797 20.07971212 32.42715752 20.06866455 37.15362549 C20.05845153 41.9728555 20.05387115 46.79209042 20.04882812 51.61132812 C20.03808989 61.07423435 20.02049268 70.53710987 20 80 C15.05 80 10.1 80 5 80 C5 67.46 5 54.92 5 42 C2.525 42.495 2.525 42.495 0 43 C0 55.21 0 67.42 0 80 C-5.28 80 -10.56 80 -16 80 C-16 53.6 -16 27.2 -16 0 C-3 -1 -3 -1 0 0 Z " fill="#36000E" transform="translate(57,25)"/>
<path d="M0 0 C3.44371652 0.09176212 6.8862847 0.19821338 10.32910156 0.31933594 C12.11960938 0.35994141 12.11960938 0.35994141 13.94628906 0.40136719 C15.67492187 0.46130859 15.67492187 0.46130859 17.43847656 0.52246094 C19.02354004 0.57128418 19.02354004 0.57128418 20.640625 0.62109375 C23.96235542 1.12779839 25.87714387 2.09942991 28.57910156 4.06933594 C32.23042994 9.25806573 32.09615342 14.45624326 32.07910156 20.56933594 C32.10746094 21.49359375 32.13582031 22.41785156 32.16503906 23.37011719 C32.17821604 27.97547131 32.06259971 31.09766867 29.04785156 34.72558594 C28.23316406 35.49902344 27.41847656 36.27246094 26.57910156 37.06933594 C27.21847656 37.85308594 27.85785156 38.63683594 28.51660156 39.44433594 C31.56608434 43.32549583 31.72156474 45.31671211 31.82519531 50.21386719 C31.85806641 51.44814453 31.8909375 52.68242188 31.92480469 53.95410156 C31.9857268 56.56079008 32.04305159 59.16756529 32.09667969 61.77441406 C32.13083984 63.01255859 32.165 64.25070313 32.20019531 65.52636719 C32.22525146 66.66050049 32.25030762 67.79463379 32.27612305 68.96313477 C32.71825705 73.49598805 34.50552367 77.07029286 36.57910156 81.06933594 C33.62022698 81.15003252 30.66353566 81.20968259 27.70410156 81.25683594 C26.86234375 81.28197266 26.02058594 81.30710937 25.15332031 81.33300781 C24.34765625 81.34267578 23.54199219 81.35234375 22.71191406 81.36230469 C21.96828613 81.37801514 21.2246582 81.39372559 20.45849609 81.40991211 C19.8382959 81.29752197 19.2180957 81.18513184 18.57910156 81.06933594 C16.17483045 77.46292927 16.23331281 74.73252387 16.16503906 70.55761719 C16.14567291 69.82939255 16.12630676 69.10116791 16.10635376 68.35087585 C16.0466378 66.02798119 16.00020539 63.70503675 15.95410156 61.38183594 C15.91591435 59.80564261 15.87686218 58.22946999 15.83691406 56.65332031 C15.74094309 52.79216059 15.65688307 48.93090318 15.57910156 45.06933594 C14.25910156 44.73933594 12.93910156 44.40933594 11.57910156 44.06933594 C11.57910156 56.27933594 11.57910156 68.48933594 11.57910156 81.06933594 C6.62910156 81.06933594 1.67910156 81.06933594 -3.42089844 81.06933594 C-3.4434496 70.65590283 -3.4618136 60.24248581 -3.47271061 49.82903385 C-3.4779394 44.99416767 -3.48503698 40.15931899 -3.49633789 35.32446289 C-3.50716691 30.66256474 -3.5131753 26.00068348 -3.51577568 21.33877373 C-3.5176299 19.55609305 -3.52125047 17.77341335 -3.52662849 15.99073982 C-3.53383912 13.50267633 -3.53488937 11.01468351 -3.53442383 8.52661133 C-3.5380191 7.78214752 -3.54161438 7.03768372 -3.5453186 6.2706604 C-3.53274503 0.10117987 -3.53274503 0.10117987 0 0 Z M12.57910156 14.06933594 C12.57910156 20.00933594 12.57910156 25.94933594 12.57910156 32.06933594 C13.89910156 32.06933594 15.21910156 32.06933594 16.57910156 32.06933594 C16.57910156 26.12933594 16.57910156 20.18933594 16.57910156 14.06933594 C15.25910156 14.06933594 13.93910156 14.06933594 12.57910156 14.06933594 Z " fill="#390713" transform="translate(118.4208984375,23.9306640625)"/>
<path d="M0 0 C1.2684375 -0.01933594 2.536875 -0.03867187 3.84375 -0.05859375 C9.04367539 0.64695168 11.9737892 2.66172014 15.36328125 6.60546875 C16.99969901 10.68245458 16.82126027 14.40450597 16.6875 18.75 C16.66719727 20.00393555 16.66719727 20.00393555 16.64648438 21.28320312 C16.61131217 23.33491498 16.55751048 25.38629275 16.5 27.4375 C11.55 27.4375 6.6 27.4375 1.5 27.4375 C1.17 22.8175 0.84 18.1975 0.5 13.4375 C-0.16 13.4375 -0.82 13.4375 -1.5 13.4375 C-1.97485386 20.73178292 -1.91090635 25.47681574 2.5 31.4375 C4.1222454 33.14743434 5.79413425 34.81097684 7.5 36.4375 C8.72772129 37.68961311 9.9348448 38.96212679 11.125 40.25 C11.69476563 40.85457031 12.26453125 41.45914063 12.8515625 42.08203125 C17.11004651 48.16702144 17.98560689 54.27473482 17.875 61.5625 C17.88660156 62.33464844 17.89820313 63.10679688 17.91015625 63.90234375 C17.87958022 69.88505406 16.52824774 74.00360272 12.625 78.6875 C7.70066682 82.7428332 2.66926491 82.86390974 -3.484375 82.7578125 C-8.82816288 82.19020809 -12.76882294 80.2803659 -16.4375 76.375 C-18.18716448 73.18443536 -18.62760645 70.59553417 -18.6328125 67.0234375 C-18.63410156 66.18039063 -18.63539063 65.33734375 -18.63671875 64.46875 C-18.63285156 63.5921875 -18.62898437 62.715625 -18.625 61.8125 C-18.62886719 60.92820313 -18.63273438 60.04390625 -18.63671875 59.1328125 C-18.63542969 58.29234375 -18.63414062 57.451875 -18.6328125 56.5859375 C-18.63168457 55.81427246 -18.63055664 55.04260742 -18.62939453 54.24755859 C-18.5 52.4375 -18.5 52.4375 -17.5 51.4375 C-12.83154772 51.29323386 -8.17134047 51.39541585 -3.5 51.4375 C-3.17 57.0475 -2.84 62.6575 -2.5 68.4375 C-1.18 68.7675 0.14 69.0975 1.5 69.4375 C2.08061129 57.95997318 2.08061129 57.95997318 -2.5 48 C-3.81447718 46.79166073 -5.14966322 45.60562868 -6.5 44.4375 C-8.12621162 42.72904929 -9.72982979 40.99886336 -11.3125 39.25 C-12.43591797 38.05310547 -12.43591797 38.05310547 -13.58203125 36.83203125 C-17.94050454 31.39059719 -17.86521672 26.21622292 -17.875 19.5 C-17.89949219 18.61892578 -17.92398438 17.73785156 -17.94921875 16.83007812 C-17.97439487 11.22839049 -17.44948619 7.73469843 -13.5 3.4375 C-9.0171679 0.45943879 -5.32685084 0.00541347 0 0 Z " fill="#3A0914" transform="translate(172.5,23.5625)"/>
<path d="M0 0 C1.26714844 -0.01417969 2.53429687 -0.02835938 3.83984375 -0.04296875 C7.0625 0.1875 7.0625 0.1875 9.0625 2.1875 C9.56494141 4.15869141 9.56494141 4.15869141 9.9140625 6.5390625 C10.04296875 7.38984375 10.171875 8.240625 10.3046875 9.1171875 C10.43101562 10.00664063 10.55734375 10.89609375 10.6875 11.8125 C10.8215625 12.7096875 10.955625 13.606875 11.09375 14.53125 C11.4240559 16.74901817 11.7466425 18.96763575 12.0625 21.1875 C14.46155547 11.2615529 14.46155547 11.2615529 16.0625 1.1875 C22.4975 0.6925 22.4975 0.6925 29.0625 0.1875 C28.45212753 6.37599864 27.5144206 12.36817727 26.25 18.453125 C22.01082607 39.53783179 18.78359558 59.62470236 19.0625 81.1875 C13.7825 81.1875 8.5025 81.1875 3.0625 81.1875 C3.10632813 79.76953125 3.15015625 78.3515625 3.1953125 76.890625 C3.32145505 56.87115475 -0.52465812 37.89731774 -4.51904297 18.35058594 C-4.74799255 17.22647812 -4.97694214 16.1023703 -5.21282959 14.94419861 C-5.65251786 12.79924126 -6.09863831 10.65559032 -6.55181885 8.51344299 C-6.74886414 7.5619487 -6.94590942 6.61045441 -7.14892578 5.63012695 C-7.32577911 4.79302689 -7.50263245 3.95592682 -7.68484497 3.09346008 C-7.76822113 2.46449326 -7.85159729 1.83552643 -7.9375 1.1875 C-6.00408053 -0.74591947 -2.56270879 0.01300867 0 0 Z " fill="#3B0915" transform="translate(272.9375,23.8125)"/>
<path d="M0 0 C8.58 0 17.16 0 26 0 C27 1 27 1 27.09765625 3.72265625 C27.08605469 4.82480469 27.07445312 5.92695313 27.0625 7.0625 C27.05347656 8.16722656 27.04445313 9.27195312 27.03515625 10.41015625 C27.02355469 11.26480469 27.01195312 12.11945312 27 13 C23.37 13 19.74 13 16 13 C16 18.94 16 24.88 16 31 C19.63 31 23.26 31 27 31 C27 35.29 27 39.58 27 44 C23.37 44 19.74 44 16 44 C16 51.92 16 59.84 16 68 C19.96 68 23.92 68 28 68 C28 72.29 28 76.58 28 81 C18.76 81 9.52 81 0 81 C0 54.27 0 27.54 0 0 Z " fill="#3C0A16" transform="translate(236,24)"/>
<path d="M0 0 C1.12019531 -0.00128906 2.24039063 -0.00257812 3.39453125 -0.00390625 C4.57402344 -0.00003906 5.75351563 0.00382812 6.96875 0.0078125 C8.73798828 0.00201172 8.73798828 0.00201172 10.54296875 -0.00390625 C12.22326172 -0.00197266 12.22326172 -0.00197266 13.9375 0 C14.97326172 0.00112793 16.00902344 0.00225586 17.07617188 0.00341797 C19.46875 0.1328125 19.46875 0.1328125 20.46875 1.1328125 C20.54119053 3.15245449 20.55252188 5.17448374 20.53125 7.1953125 C20.52222656 8.30003906 20.51320313 9.40476562 20.50390625 10.54296875 C20.49230469 11.39761719 20.48070313 12.25226562 20.46875 13.1328125 C16.83875 13.1328125 13.20875 13.1328125 9.46875 13.1328125 C9.46875 19.0728125 9.46875 25.0128125 9.46875 31.1328125 C12.76875 31.1328125 16.06875 31.1328125 19.46875 31.1328125 C19.46875 35.4228125 19.46875 39.7128125 19.46875 44.1328125 C16.16875 44.1328125 12.86875 44.1328125 9.46875 44.1328125 C9.46875 52.0528125 9.46875 59.9728125 9.46875 68.1328125 C13.42875 68.1328125 17.38875 68.1328125 21.46875 68.1328125 C21.46875 72.4228125 21.46875 76.7128125 21.46875 81.1328125 C12.22875 81.1328125 2.98875 81.1328125 -6.53125 81.1328125 C-6.55380116 70.71937939 -6.57216517 60.30596237 -6.58306217 49.89251041 C-6.58829097 45.05764423 -6.59538854 40.22279556 -6.60668945 35.38793945 C-6.61751847 30.7260413 -6.62352686 26.06416004 -6.62612724 21.40225029 C-6.62798147 19.61956962 -6.63160203 17.83688991 -6.63698006 16.05421638 C-6.64419069 13.5661529 -6.64524093 11.07816007 -6.64477539 8.59008789 C-6.64837067 7.84562408 -6.65196594 7.10116028 -6.65567017 6.33413696 C-6.64289257 0.06454963 -6.14411433 0.00669085 0 0 Z " fill="#3A0915" transform="translate(89.53125,23.8671875)"/>
<path d="M0 0 C2 1 2 1 3.1875 4.0625 C5.15123606 8.88347202 8.49000564 12.23385221 12 16 C13.46264517 17.62112005 14.92100953 19.24611301 16.375 20.875 C17.04273438 21.61492187 17.71046875 22.35484375 18.3984375 23.1171875 C20.61077944 25.71803827 20.98180777 26.83930197 21.375 30.3125 C21 34 21 34 18.91992188 36.68896484 C15.31447409 39.54257427 13.46121257 39.64335812 8.90625 39.6640625 C8.23710571 39.66884613 7.56796143 39.67362976 6.87854004 39.67855835 C5.46994666 39.68194656 4.06127348 39.67281922 2.65283203 39.65185547 C0.50504114 39.62506289 -1.63752653 39.65162766 -3.78515625 39.68359375 C-5.15886562 39.68028945 -6.53257176 39.67388276 -7.90625 39.6640625 C-9.14697266 39.65842285 -10.38769531 39.6527832 -11.66601562 39.64697266 C-15.88692504 38.82788874 -17.38024451 37.34807687 -20 34 C-20.68443439 29.81734538 -20.45165433 27.77114253 -18.3046875 24.10546875 C-15.95362757 20.93751511 -13.4529309 18.42795817 -10.5625 15.75 C-5.65928576 11.06799563 -2.47845054 6.31251766 0 0 Z " fill="#3B0915" transform="translate(317,66)"/>
<path d="M0 0 C0.10815225 1.76949095 0.18566083 3.54087487 0.25 5.3125 C0.29640625 6.29863281 0.3428125 7.28476562 0.390625 8.30078125 C0 11 0 11 -1.47265625 12.7265625 C-5.08307327 14.54572162 -8.73979725 15.27425697 -12.6875 16.0625 C-13.45255859 16.22298828 -14.21761719 16.38347656 -15.00585938 16.54882812 C-18.14275392 17.20686245 -21.27779692 17.86434637 -24.42797852 18.45605469 C-28.82536068 19.32800803 -32.04448005 20.18265604 -35.5625 23.125 C-36.22378906 23.66382812 -36.88507813 24.20265625 -37.56640625 24.7578125 C-38.03949219 25.16773437 -38.51257813 25.57765625 -39 26 C-38.65783133 17.18915663 -38.65783133 17.18915663 -36.375 13.0625 C-30.09216031 7.60634975 -21.45512744 6.59363855 -13.5625 4.89453125 C-9.54484615 3.99084693 -3.49237126 0 0 0 Z " fill="#A7A5A9" transform="translate(355,39)"/>
<path d="M0 0 C0 9.57 0 19.14 0 29 C-0.66 29.33 -1.32 29.66 -2 30 C-2 20.43 -2 10.86 -2 1 C-5.96 1 -9.92 1 -14 1 C-14 26.08 -14 51.16 -14 77 C-10.04 77 -6.08 77 -2 77 C-2 65.45 -2 53.9 -2 42 C-1.34 42.33 -0.68 42.66 0 43 C0 55.21 0 67.42 0 80 C-5.28 80 -10.56 80 -16 80 C-16 53.6 -16 27.2 -16 0 C-3 -1 -3 -1 0 0 Z " fill="#360F14" transform="translate(57,25)"/>
<path d="M0 0 C1.1859375 0.00257812 2.371875 0.00515625 3.59375 0.0078125 C4.7796875 0.00523438 5.965625 0.00265625 7.1875 0 C10.09375 0.1328125 10.09375 0.1328125 11.09375 1.1328125 C11.18877416 3.62773638 11.21932566 6.09487264 11.20727539 8.59008789 C11.20742142 9.37051956 11.20756744 10.15095123 11.2077179 10.95503235 C11.20701858 13.5468723 11.19922536 16.13864128 11.19140625 18.73046875 C11.18954213 20.5226589 11.1881182 22.31484956 11.18711853 24.10704041 C11.18329284 28.83352047 11.17346212 33.55997002 11.16241455 38.28643799 C11.15220153 43.105668 11.14762115 47.92490292 11.14257812 52.74414062 C11.13183989 62.20704685 11.11424268 71.66992237 11.09375 81.1328125 C6.14375 81.1328125 1.19375 81.1328125 -3.90625 81.1328125 C-3.90625 68.5928125 -3.90625 56.0528125 -3.90625 43.1328125 C-3.57625 43.1328125 -3.24625 43.1328125 -2.90625 43.1328125 C-2.90625 54.6828125 -2.90625 66.2328125 -2.90625 78.1328125 C1.05375 78.1328125 5.01375 78.1328125 9.09375 78.1328125 C9.09375 53.0528125 9.09375 27.9728125 9.09375 2.1328125 C5.13375 2.1328125 1.17375 2.1328125 -2.90625 2.1328125 C-2.90625 11.7028125 -2.90625 21.2728125 -2.90625 31.1328125 C-3.23625 31.1328125 -3.56625 31.1328125 -3.90625 31.1328125 C-3.93090622 26.87866627 -3.94908899 22.62455752 -3.96118164 18.37036133 C-3.96622101 16.92211177 -3.97305253 15.47386733 -3.98168945 14.02563477 C-3.99377247 11.94806662 -3.99948211 9.87056553 -4.00390625 7.79296875 C-4.00914307 6.54136963 -4.01437988 5.28977051 -4.01977539 4.00024414 C-3.86839948 0.1767817 -3.86839948 0.1767817 0 0 Z " fill="#3E161A" transform="translate(65.90625,23.8671875)"/>
<path d="M0 0 C8.25 0 16.5 0 25 0 C26 1 26 1 26.09765625 3.50390625 C26.06510417 6.3359375 26.03255208 9.16796875 26 12 C22.37 12 18.74 12 15 12 C15 11.67 15 11.34 15 11 C17.97 11 20.94 11 24 11 C24 8.03 24 5.06 24 2 C16.41 2 8.82 2 1 2 C1 27.08 1 52.16 1 78 C8.92 78 16.84 78 25 78 C25 78.66 25 79.32 25 80 C16.75 80 8.5 80 0 80 C0 53.6 0 27.2 0 0 Z " fill="#2A0104" transform="translate(237,24)"/>
<path d="M0 0 C0.66 0 1.32 0 2 0 C3.32 2.97 4.64 5.94 6 9 C7.65 6.03 9.3 3.06 11 0 C11.66 0 12.32 0 13 0 C13.50404808 2.10320063 14.00310508 4.20759791 14.5 6.3125 C14.7784375 7.48425781 15.056875 8.65601562 15.34375 9.86328125 C16 13 16 13 16 16 C14.68 16 13.36 16 12 16 C11.67 14.02 11.34 12.04 11 10 C10.01 11.98 9.02 13.96 8 16 C6.125 15.8125 6.125 15.8125 4 15 C2.75 12.4375 2.75 12.4375 2 10 C1.34 11.98 0.68 13.96 0 16 C-0.99 16 -1.98 16 -3 16 C-2.52013969 10.43109483 -1.70084819 5.32932432 0 0 Z " fill="#421F24" transform="translate(253,112)"/>
<path d="M0 0 C1.32 0 2.64 0 4 0 C4 2.31 4 4.62 4 7 C6.31 7 8.62 7 11 7 C11 4.69 11 2.38 11 0 C12.32 0 13.64 0 15 0 C15 5.28 15 10.56 15 16 C13.68 16 12.36 16 11 16 C11 14.02 11 12.04 11 10 C8.69 10 6.38 10 4 10 C4 11.98 4 13.96 4 16 C2.68 16 1.36 16 0 16 C0 10.72 0 5.44 0 0 Z " fill="#411A20" transform="translate(95,112)"/>
<path d="M0 0 C1.32 0 2.64 0 4 0 C4 2.31 4 4.62 4 7 C6.31 7 8.62 7 11 7 C11 5.02 11 3.04 11 1 C12.32 0.67 13.64 0.34 15 0 C15 5.28 15 10.56 15 16 C13.68 16 12.36 16 11 16 C11 14.02 11 12.04 11 10 C8.69 10 6.38 10 4 10 C4 11.98 4 13.96 4 16 C2.68 16 1.36 16 0 16 C0 10.72 0 5.44 0 0 Z " fill="#4A2229" transform="translate(159,112)"/>
<path d="M0 0 C3.41639845 1.9739191 4.72268412 3.18538459 6 6.9375 C6 10.57241294 5.19961414 12.14864833 3 15 C-0.45612632 16.72806316 -4.22082631 16.4841646 -8 16 C-10.84932365 14.07670654 -11.71560395 12.73942974 -12.9375 9.5625 C-13.02066111 6.1528946 -12.08657139 4.66217729 -10 2 C-6.79062591 -0.32402951 -3.88493979 -0.47570691 0 0 Z M-7.1875 4.1875 C-9.2433504 5.88250211 -9.2433504 5.88250211 -9.375 8.5625 C-9.21896136 11.17528109 -9.21896136 11.17528109 -7 13 C-3.5 13.33333333 -3.5 13.33333333 0 13 C2.21896136 11.17528109 2.21896136 11.17528109 2.375 8.5625 C2.2433504 5.88250211 2.2433504 5.88250211 0.1875 4.1875 C-2.75331549 2.5910573 -4.24668451 2.5910573 -7.1875 4.1875 Z " fill="#432428" transform="translate(242,112)"/>
<path d="M0 0 C1.32 0 2.64 0 4 0 C4 2.31 4 4.62 4 7 C6.31 7 8.62 7 11 7 C11 4.69 11 2.38 11 0 C12.32 0.33 13.64 0.66 15 1 C15 5.95 15 10.9 15 16 C13.68 16 12.36 16 11 16 C11 14.35 11 12.7 11 11 C8.69 10.67 6.38 10.34 4 10 C4 11.98 4 13.96 4 16 C2.68 16 1.36 16 0 16 C0 10.72 0 5.44 0 0 Z " fill="#451D23" transform="translate(55,112)"/>
<path d="M0 0 C8.21766784 -0.36254417 8.21766784 -0.36254417 11.5625 1.1875 C13 3 13 3 13.375 5.4375 C13 8 13 8 11.875 10.0625 C11.58625 10.701875 11.2975 11.34125 11 12 C11.78309467 14.23470405 11.78309467 14.23470405 13 16 C11.68 16 10.36 16 9 16 C8.34 14.35 7.68 12.7 7 11 C6.01 11.33 5.02 11.66 4 12 C4 13.32 4 14.64 4 16 C2.68 16 1.36 16 0 16 C0 10.72 0 5.44 0 0 Z M3 4 C3.33 5.32 3.66 6.64 4 8 C5.65 7.67 7.3 7.34 9 7 C9 6.01 9 5.02 9 4 C7.02 4 5.04 4 3 4 Z " fill="#4E2E32" transform="translate(129,112)"/>
<path d="M0 0 C4.81429916 2.40714958 6.6345082 4.86962371 10 9 C10.33 6.03 10.66 3.06 11 0 C12.32 0 13.64 0 15 0 C15 5.28 15 10.56 15 16 C10.87407007 14.96851752 10.02929503 14.37713898 7.25 11.4375 C6.63640625 10.79683594 6.0228125 10.15617187 5.390625 9.49609375 C4.93171875 9.00238281 4.4728125 8.50867188 4 8 C3.67 10.64 3.34 13.28 3 16 C2.01 16 1.02 16 0 16 C0 10.72 0 5.44 0 0 Z " fill="#442428" transform="translate(303,112)"/>
<path d="M0 0 C3.63 0 7.26 0 11 0 C11.33 0.99 11.66 1.98 12 3 C9.36 3 6.72 3 4 3 C4 4.32 4 5.64 4 7 C6.31 7 8.62 7 11 7 C11 7.99 11 8.98 11 10 C8.69 10 6.38 10 4 10 C4 10.99 4 11.98 4 13 C6.31 13 8.62 13 11 13 C11.33 13.99 11.66 14.98 12 16 C8.04 16 4.08 16 0 16 C0 10.72 0 5.44 0 0 Z " fill="#390E15" transform="translate(74,112)"/>
<path d="M0 0 C3.96 0 7.92 0 12 0 C12 0.99 12 1.98 12 3 C9.36 3 6.72 3 4 3 C4 4.32 4 5.64 4 7 C5.98 7 7.96 7 10 7 C10 7.99 10 8.98 10 10 C8.02 10 6.04 10 4 10 C4 10.99 4 11.98 4 13 C6.31 13 8.62 13 11 13 C11.33 13.99 11.66 14.98 12 16 C8.04 16 4.08 16 0 16 C0 10.72 0 5.44 0 0 Z " fill="#360B12" transform="translate(114,112)"/>
<path d="M0 0 C3.63 0 7.26 0 11 0 C11.33 0.99 11.66 1.98 12 3 C9.36 3 6.72 3 4 3 C4 3.99 4 4.98 4 6 C6.31 6.33 8.62 6.66 11 7 C10.67 7.99 10.34 8.98 10 10 C8.02 10.33 6.04 10.66 4 11 C4 11.33 4 11.66 4 12 C6.31 12.33 8.62 12.66 11 13 C11.33 13.99 11.66 14.98 12 16 C8.04 16 4.08 16 0 16 C0 10.72 0 5.44 0 0 Z " fill="#563338" transform="translate(178,112)"/>
<path d="M0 0 C8 0 8 0 10.5 1.1875 C12 3 12 3 12.4375 5.5 C12 8 12 8 10.8125 9.8125 C8.44017475 11.36678206 6.77958655 11.22537188 4 11 C4 12.65 4 14.3 4 16 C2.68 16 1.36 16 0 16 C0 10.72 0 5.44 0 0 Z M4 4 C4 5.32 4 6.64 4 8 C5.65 7.67 7.3 7.34 9 7 C8.67 6.01 8.34 5.02 8 4 C6.68 4 5.36 4 4 4 Z " fill="#614244" transform="translate(272,112)"/>
<path d="M0 0 C2.375 1 2.375 1 4 2 C3.67 2.99 3.34 3.98 3 5 C1.906875 4.79375 0.81375 4.5875 -0.3125 4.375 C-4.0838401 3.59653475 -4.0838401 3.59653475 -7 6 C-7.33343551 8.54207971 -7.33343551 8.54207971 -7 11 C-5.99163938 12.23267348 -5.99163938 12.23267348 -3.93359375 12.09765625 C-3.10988281 12.08605469 -2.28617188 12.07445313 -1.4375 12.0625 C-0.61121094 12.05347656 0.21507812 12.04445313 1.06640625 12.03515625 C1.70449219 12.02355469 2.34257812 12.01195313 3 12 C3.33 12.99 3.66 13.98 4 15 C0.51289957 16.74355021 -3.19545983 16.56969879 -7 16 C-10.125 13.9375 -10.125 13.9375 -12 11 C-12.15129568 6.68807302 -11.70478473 4.78533156 -8.8125 1.5625 C-5.50745856 -0.27363413 -3.7271242 -0.47580309 0 0 Z " fill="#3D1A1E" transform="translate(224,112)"/>
<path d="M0 0 C3 1 3 1 4.82421875 4.37890625 C5.45592589 5.76866196 6.07661796 7.16346534 6.6875 8.5625 C7.00783203 9.27341797 7.32816406 9.98433594 7.65820312 10.71679688 C8.44820496 12.47366662 9.22533623 14.23631345 10 16 C8.35 15.67 6.7 15.34 5 15 C5 14.34 5 13.68 5 13 C2.6568787 13.25561323 0.32156597 13.59270772 -2 14 C-2.33 14.66 -2.66 15.32 -3 16 C-4.32 16 -5.64 16 -7 16 C-5.35433477 10.31497465 -2.70967216 5.23318364 0 0 Z M1 6 C0.67 7.32 0.34 8.64 0 10 C0.99 10 1.98 10 3 10 C2.34 8.68 1.68 7.36 1 6 Z " fill="#39181C" transform="translate(291,112)"/>
<path d="M0 0 C0 0.99 0 1.98 0 3 C-1.98 3 -3.96 3 -6 3 C-6.33 3.66 -6.66 4.32 -7 5 C-6.05125 5.28875 -5.1025 5.5775 -4.125 5.875 C-1 7 -1 7 1 9 C0.44444444 13.55555556 0.44444444 13.55555556 -1 15 C-3.67058851 15.14115161 -6.32432238 15.04247107 -9 15 C-9.33 13.68 -9.66 12.36 -10 11 C-7.03 11.495 -7.03 11.495 -4 12 C-4 11.34 -4 10.68 -4 10 C-5.98 9.01 -7.96 8.02 -10 7 C-10.1875 4.125 -10.1875 4.125 -10 1 C-6.1496895 -1.56687367 -4.41430237 -0.83288724 0 0 Z " fill="#411F23" transform="translate(155,113)"/>
<path d="M0 0 C0.33 0 0.66 0 1 0 C1.33 8.25 1.66 16.5 2 25 C-2.95 25 -7.9 25 -13 25 C-13 17.08 -13 9.16 -13 1 C-12.01 1.495 -12.01 1.495 -11 2 C-11 8.93 -11 15.86 -11 23 C-7.37 23 -3.74 23 0 23 C0 15.41 0 7.82 0 0 Z " fill="#2C0007" transform="translate(289,79)"/>
<path d="M0 0 C1.875 0.3125 1.875 0.3125 4 1 C4.66 1.99 5.32 2.98 6 4 C9.27773504 3.24849977 9.27773504 3.24849977 11 0 C11.99 0 12.98 0 14 0 C13.56109595 2.45786266 13.14539053 3.83037772 11.5 5.75 C9.29065625 9.06401563 9.32885089 12.05378934 9 16 C7.68 16 6.36 16 5 16 C4.89042969 15.31292969 4.78085937 14.62585938 4.66796875 13.91796875 C4.50941406 13.01691406 4.35085938 12.11585937 4.1875 11.1875 C4.03667969 10.29417969 3.88585937 9.40085937 3.73046875 8.48046875 C2.93131435 5.76676264 1.9943119 4.90689001 0 3 C0 2.01 0 1.02 0 0 Z " fill="#58393E" transform="translate(320,112)"/>
<path d="M0 0 C1.875 0.3125 1.875 0.3125 4 1 C4.66 1.99 5.32 2.98 6 4 C9.27773504 3.24849977 9.27773504 3.24849977 11 0 C11.99 0 12.98 0 14 0 C13.56109595 2.45786266 13.14539053 3.83037772 11.5 5.75 C9.29065625 9.06401563 9.32885089 12.05378934 9 16 C7.68 16 6.36 16 5 16 C4.89042969 15.31292969 4.78085938 14.62585938 4.66796875 13.91796875 C4.50941406 13.01691406 4.35085937 12.11585937 4.1875 11.1875 C4.03667969 10.29417969 3.88585937 9.40085937 3.73046875 8.48046875 C2.93131435 5.76676264 1.9943119 4.90689001 0 3 C0 2.01 0 1.02 0 0 Z " fill="#381317" transform="translate(191,112)"/>
<path d="M0 0 C3.96 0 7.92 0 12 0 C12 0.99 12 1.98 12 3 C10.68 3 9.36 3 8 3 C8 7.29 8 11.58 8 16 C6.68 16 5.36 16 4 16 C4 11.71 4 7.42 4 3 C2.68 3 1.36 3 0 3 C0 2.01 0 1.02 0 0 Z " fill="#32080F" transform="translate(41,112)"/>
<path d="M0 0 C2.64 0 5.28 0 8 0 C8 0.66 8 1.32 8 2 C6.35 2 4.7 2 3 2 C3.185625 2.598125 3.37125 3.19625 3.5625 3.8125 C4 6 4 6 3 9 C4.65 9 6.3 9 8 9 C8 9.33 8 9.66 8 10 C6.35 10 4.7 10 3 10 C3.33 11.98 3.66 13.96 4 16 C2.68 16 1.36 16 0 16 C0 10.72 0 5.44 0 0 Z " fill="#380F15" transform="translate(129,112)"/>
<path d="M0 0 C3.96 0 7.92 0 12 0 C12 0.99 12 1.98 12 3 C9.36 3 6.72 3 4 3 C3.26010787 5.90624297 2.58349094 8.82150775 1.9375 11.75 C1.76089844 12.54921875 1.58429688 13.3484375 1.40234375 14.171875 C1.26957031 14.77515625 1.13679688 15.3784375 1 16 C0.67 16 0.34 16 0 16 C0 10.72 0 5.44 0 0 Z " fill="#3E191F" transform="translate(114,112)"/>
<path d="M0 0 C3.3 0 6.6 0 10 0 C10.33 0.99 10.66 1.98 11 3 C8.36 3 5.72 3 3 3 C3 3.99 3 4.98 3 6 C4.65 6.33 6.3 6.66 8 7 C7.67 7.66 7.34 8.32 7 9 C5.02 9 3.04 9 1 9 C1 10.98 1 12.96 1 15 C0.67 15 0.34 15 0 15 C0 10.05 0 5.1 0 0 Z " fill="#391418" transform="translate(179,112)"/>
<path d="M0 0 C1.9375 0.8125 1.9375 0.8125 4 2 C4.33 2.99 4.66 3.98 5 5 C-0.94 5 -6.88 5 -13 5 C-13 4.01 -13 3.02 -13 2 C-8.71 2 -4.42 2 0 2 C0 1.34 0 0.68 0 0 Z " fill="#5D3B3F" transform="translate(150,100)"/>
<path d="M0 0 C1.32 0 2.64 0 4 0 C3.67 5.28 3.34 10.56 3 16 C2.01 16 1.02 16 0 16 C0 10.72 0 5.44 0 0 Z " fill="#58353A" transform="translate(55,112)"/>
<path d="M0 0 C0.99 0.33 1.98 0.66 3 1 C4.1875 4.0625 4.1875 4.0625 5 7 C4.360625 7.12375 3.72125 7.2475 3.0625 7.375 C2.0415625 7.684375 2.0415625 7.684375 1 8 C0.67 8.66 0.34 9.32 0 10 C1.32 9.67 2.64 9.34 4 9 C4 9.66 4 10.32 4 11 C-1.75 11.125 -1.75 11.125 -4 10 C-2.66666667 6.66666667 -1.33333333 3.33333333 0 0 Z " fill="#4C2B30" transform="translate(291,112)"/>
<path d="M0 0 C0.99 0 1.98 0 3 0 C3 5.28 3 10.56 3 16 C2.01 16 1.02 16 0 16 C0.33 14.68 0.66 13.36 1 12 C0.34 11.67 -0.32 11.34 -1 11 C-0.67 7.37 -0.34 3.74 0 0 Z " fill="#3E151B" transform="translate(315,112)"/>
<path d="M0 0 C1.875 0.3125 1.875 0.3125 4 1 C6.28062828 4.42094242 6.21925007 5.68187222 6.125 9.6875 C6.10695312 10.68136719 6.08890625 11.67523438 6.0703125 12.69921875 C6.03550781 13.83810547 6.03550781 13.83810547 6 15 C6.66 15 7.32 15 8 15 C8 12.69 8 10.38 8 8 C8.33 8 8.66 8 9 8 C9 10.64 9 13.28 9 16 C7.68 16 6.36 16 5 16 C4.89042969 15.31292969 4.78085938 14.62585938 4.66796875 13.91796875 C4.50941406 13.01691406 4.35085937 12.11585937 4.1875 11.1875 C4.03667969 10.29417969 3.88585937 9.40085937 3.73046875 8.48046875 C2.93131435 5.76676264 1.9943119 4.90689001 0 3 C0 2.01 0 1.02 0 0 Z " fill="#412225" transform="translate(191,112)"/>
<path d="M0 0 C1.65 0 3.3 0 5 0 C3.68 0.33 2.36 0.66 1 1 C1 2.32 1 3.64 1 5 C2.98 5 4.96 5 7 5 C6.67 3.35 6.34 1.7 6 0 C6.99 0 7.98 0 9 0 C9.36075949 4.44936709 9.36075949 4.44936709 7.8125 6.8125 C5.44017475 8.36678206 3.77958655 8.22537188 1 8 C1 9.65 1 11.3 1 13 C0.67 13 0.34 13 0 13 C0 8.71 0 4.42 0 0 Z " fill="#604246" transform="translate(275,115)"/>
<path d="M0 0 C1.32 0.33 2.64 0.66 4 1 C3.125 5.875 3.125 5.875 2 7 C-0.67058851 7.14115161 -3.32432238 7.04247107 -6 7 C-6.33 5.68 -6.66 4.36 -7 3 C-4.36 3.66 -1.72 4.32 1 5 C0.67 3.35 0.34 1.7 0 0 Z " fill="#371317" transform="translate(152,121)"/>
<path d="M0 0 C1.32 0 2.64 0 4 0 C4.34615998 5.65394631 3.43425238 9.03006806 1 14 C0.67 14 0.34 14 0 14 C0 9.38 0 4.76 0 0 Z " fill="#451A22" transform="translate(95,112)"/>
<path d="M0 0 C1.875 0.3125 1.875 0.3125 4 1 C6 4 6 4 6 7 C6.66 7 7.32 7 8 7 C7.67 9.64 7.34 12.28 7 15 C6.67 15 6.34 15 6 15 C5.62875 13.4221875 5.62875 13.4221875 5.25 11.8125 C4.23328447 8.1655856 2.4236424 5.90837088 0 3 C0 2.01 0 1.02 0 0 Z " fill="#351215" transform="translate(320,112)"/>
<path d="M0 0 C3.19384754 -0.21776233 5.40422845 -0.28983481 8.3125 1.125 C10.61773643 3.68637382 10.85815007 5.5956017 11 9 C10.01 10.485 10.01 10.485 9 12 C9 10.02 9 8.04 9 6 C8.236875 5.71125 7.47375 5.4225 6.6875 5.125 C1.47058824 2.94117647 1.47058824 2.94117647 0 0 Z " fill="#3E1D21" transform="translate(236,112)"/>
<path d="M0 0 C0.33 0 0.66 0 1 0 C1.66 4.29 2.32 8.58 3 13 C1.68 13 0.36 13 -1 13 C-1.66 9.7 -2.32 6.4 -3 3 C-2.34 3 -1.68 3 -1 3 C-0.67 2.01 -0.34 1.02 0 0 Z " fill="#4B282D" transform="translate(266,115)"/>
<path d="M0 0 C2 3 2 3 1.8125 6.0625 C1 9 1 9 -2 11 C-5.11257569 11 -7.10765685 10.82638376 -10 10 C-10 9.67 -10 9.34 -10 9 C-7.69 8.34 -5.38 7.68 -3 7 C-2.67 5.35 -2.34 3.7 -2 2 C-1.34 2.66 -0.68 3.32 0 4 C0 2.68 0 1.36 0 0 Z " fill="#5A3A3E" transform="translate(246,116)"/>
<path d="M0 0 C0 0.66 0 1.32 0 2 C-2.40545638 3.20272819 -3.94996953 3.10071472 -6.625 3.0625 C-7.85089844 3.04896484 -7.85089844 3.04896484 -9.1015625 3.03515625 C-10.04128906 3.01775391 -10.04128906 3.01775391 -11 3 C-11.33 2.01 -11.66 1.02 -12 0 C-10.56359829 -0.19573608 -9.12580496 -0.38127816 -7.6875 -0.5625 C-6.88699219 -0.66691406 -6.08648437 -0.77132812 -5.26171875 -0.87890625 C-3 -1 -3 -1 0 0 Z " fill="#3C181C" transform="translate(228,125)"/>
<path d="M0 0 C2.05078125 0.03255208 4.1015625 0.06510417 6.15234375 0.09765625 C6.15234375 0.75765625 6.15234375 1.41765625 6.15234375 2.09765625 C3.51234375 2.09765625 0.87234375 2.09765625 -1.84765625 2.09765625 C-1.84765625 4.40765625 -1.84765625 6.71765625 -1.84765625 9.09765625 C-2.83765625 9.09765625 -3.82765625 9.09765625 -4.84765625 9.09765625 C-4.53947269 7.78413602 -4.2259796 6.47186053 -3.91015625 5.16015625 C-3.73613281 4.42925781 -3.56210938 3.69835937 -3.3828125 2.9453125 C-2.68509143 0.53639231 -2.53456453 0.13396218 0 0 Z " fill="#35040E" transform="translate(99.84765625,118.90234375)"/>
<path d="M0 0 C3.94727588 -0.17942163 6.5980513 -0.09350689 10 2 C9.67 2.99 9.34 3.98 9 5 C5.7 4.34 2.4 3.68 -1 3 C-0.67 2.01 -0.34 1.02 0 0 Z " fill="#3D191D" transform="translate(218,112)"/>
<path d="M0 0 C0.66 0 1.32 0 2 0 C2 4.95 2 9.9 2 15 C1.34 15 0.68 15 0 15 C-1.0024305 9.65370398 -0.84888195 5.37625234 0 0 Z " fill="#2A0105" transform="translate(172,112)"/>
<path d="M0 0 C0 0.99 0 1.98 0 3 C-2.31 3 -4.62 3 -7 3 C-7 3.99 -7 4.98 -7 6 C-4.69 6 -2.38 6 0 6 C0 6.33 0 6.66 0 7 C-2.64 7 -5.28 7 -8 7 C-8 5.35 -8 3.7 -8 2 C-2.25 0 -2.25 0 0 0 Z " fill="#492229" transform="translate(85,119)"/>
<path d="M0 0 C0.33 0 0.66 0 1 0 C1.0825 0.78375 1.165 1.5675 1.25 2.375 C1.72806339 5.14749104 1.72806339 5.14749104 4.0625 6.3125 C4.701875 6.539375 5.34125 6.76625 6 7 C4.68 7 3.36 7 2 7 C2 8.98 2 10.96 2 13 C1.34 13 0.68 13 0 13 C0 8.71 0 4.42 0 0 Z " fill="#240205" transform="translate(273,115)"/>
<path d="M0 0 C2.01696732 0.50424183 4.01492038 1.00466262 6 1.625 C8.30538062 2.05725887 9.78734805 1.71120955 12 1 C11.67 1.99 11.34 2.98 11 4 C8.03 4 5.06 4 2 4 C1.34 2.68 0.68 1.36 0 0 Z " fill="#310F12" transform="translate(232,124)"/>
<path d="M0 0 C0.33 0.66 0.66 1.32 1 2 C3.97 2 6.94 2 10 2 C10 2.33 10 2.66 10 3 C8.865625 3.12375 7.73125 3.2475 6.5625 3.375 C4.7990625 3.684375 4.7990625 3.684375 3 4 C2.67 4.66 2.34 5.32 2 6 C0.68 6 -0.64 6 -2 6 C-1.34 4.02 -0.68 2.04 0 0 Z " fill="#4F2E33" transform="translate(286,122)"/>
<path d="M0 0 C0.66 1.32 1.32 2.64 2 4 C2.66 3.01 3.32 2.02 4 1 C4.73080266 2.97746603 5.39421747 4.98072489 6 7 C5.67 7.66 5.34 8.32 5 9 C3.0625 8.4375 3.0625 8.4375 1 7 C0.25 3.375 0.25 3.375 0 0 Z " fill="#543438" transform="translate(212,118)"/>
<path d="M0 0 C0.33 0 0.66 0 1 0 C1 2.97 1 5.94 1 9 C0.01 9 -0.98 9 -2 9 C-1.125 1.125 -1.125 1.125 0 0 Z " fill="#31040B" transform="translate(68,119)"/>
<path d="M0 0 C0.66 0.33 1.32 0.66 2 1 C2.625 4.0625 2.625 4.0625 3 7 C1.35 7 -0.3 7 -2 7 C-1.125 1.125 -1.125 1.125 0 0 Z " fill="#421E23" transform="translate(317,66)"/>
<path d="M0 0 C1.485 0.99 1.485 0.99 3 2 C3.1875 5.125 3.1875 5.125 3 8 C2.01 8 1.02 8 0 8 C0 5.36 0 2.72 0 0 Z " fill="#2C0308" transform="translate(160,120)"/>
<path d="M0 0 C1.93166016 0.01740234 1.93166016 0.01740234 3.90234375 0.03515625 C5.19269531 0.04417969 6.48304688 0.05320312 7.8125 0.0625 C8.81152344 0.07410156 9.81054688 0.08570312 10.83984375 0.09765625 C10.83984375 0.75765625 10.83984375 1.41765625 10.83984375 2.09765625 C6.87984375 2.09765625 2.91984375 2.09765625 -1.16015625 2.09765625 C-1.49015625 3.08765625 -1.82015625 4.07765625 -2.16015625 5.09765625 C-2.16015625 4.10765625 -2.16015625 3.11765625 -2.16015625 2.09765625 C-2.82015625 1.76765625 -3.48015625 1.43765625 -4.16015625 1.09765625 C-3.16015625 0.09765625 -3.16015625 0.09765625 0 0 Z " fill="#2C0308" transform="translate(269.16015625,23.90234375)"/>
<path d="M0 0 C1.32 0.66 2.64 1.32 4 2 C3.67 3.98 3.34 5.96 3 8 C2.34 7.67 1.68 7.34 1 7 C1 5.68 1 4.36 1 3 C-0.65 3 -2.3 3 -4 3 C-2.68 2.67 -1.36 2.34 0 2 C0 1.34 0 0.68 0 0 Z " fill="#472429" transform="translate(279,112)"/>
<path d="M0 0 C2.31 0.33 4.62 0.66 7 1 C7 1.99 7 2.98 7 4 C4.03 3.505 4.03 3.505 1 3 C0.67 2.01 0.34 1.02 0 0 Z " fill="#49272C" transform="translate(148,112)"/>
</svg>
