<?xml version="1.0" encoding="UTF-8"?>
<svg version="1.1" xmlns="http://www.w3.org/2000/svg" width="400" height="150">
<path d="M0 0 C1.37412025 -0.00067612 2.74824038 -0.00164869 4.12236023 -0.00289917 C6.99768212 -0.0043671 9.87297279 -0.00225448 12.74829102 0.00244141 C16.37098271 0.00807968 19.99360011 0.00478463 23.61628914 -0.00098038 C49.0067818 -0.035702 49.0067818 -0.035702 61.3046875 0.515625 C62.43418571 0.5611702 62.43418571 0.5611702 63.58650208 0.6076355 C72.03953803 1.06539968 80.27062996 2.12386483 86.23046875 8.6796875 C90.73519257 14.80820711 91.24686729 21.74824532 91.82421875 29.1328125 C91.90881348 30.1846875 91.90881348 30.1846875 91.99511719 31.2578125 C93.65140302 53.52456645 93.73646408 76.42336304 92.07421875 98.6953125 C92.01258545 99.62061768 91.95095215 100.54592285 91.88745117 101.49926758 C91.23894734 108.77422799 89.63540269 117.01571642 84.01171875 122.1328125 C72.88370763 129.11509399 57.52875214 127.30906864 44.859375 127.3359375 C43.50362271 127.34017857 43.50362271 127.34017857 42.12048149 127.34450531 C37.34211823 127.35941932 32.56378459 127.36869933 27.78540039 127.37304688 C22.87889981 127.37853638 17.97267601 127.40259703 13.06626225 127.43101883 C9.26475753 127.44972909 5.46331862 127.45485514 1.66177177 127.45638275 C-0.14614953 127.4593882 -1.95407028 127.46734448 -3.76194572 127.48056793 C-26.86190935 127.63754962 -26.86190935 127.63754962 -34.67578125 121.8828125 C-43.83267248 111.81023215 -42.48229863 95.83821987 -42.44140625 83.04296875 C-42.44275867 81.52566974 -42.44470395 80.00837116 -42.44720459 78.49107361 C-42.4501297 75.33197855 -42.44594405 72.17299765 -42.43652344 69.01391602 C-42.42514035 65.00574917 -42.43169789 60.99785065 -42.44366837 56.98969364 C-42.45096671 53.8623205 -42.44856272 50.7350088 -42.44341278 47.60763359 C-42.44209769 46.13155522 -42.44364696 44.65547089 -42.44837189 43.17939949 C-42.51741107 15.55972673 -42.51741107 15.55972673 -35.17578125 7.1328125 C-26.39057276 -1.65239599 -11.5044812 -0.0180423 0 0 Z " fill="#168172" transform="translate(70.17578125,14.8671875)"/>
<path d="M0 0 C-0.47939368 4.71403788 -0.96834048 8.66579301 -3 13 C-7.86115742 12.58332936 -9.76394421 10.49843869 -13 7 C-15.7459726 5.6270137 -17.9589047 5.87587366 -21 6 C-21.99 6.33 -22.98 6.66 -24 7 C-24.41501291 10.06072019 -24.67906987 12.05184299 -24 15 C-21.7525759 17.37338592 -18.91380583 18.58212127 -16 20 C-13.76595582 21.15729933 -11.53703893 22.32453341 -9.3125 23.5 C-7.69794922 24.31984375 -7.69794922 24.31984375 -6.05078125 25.15625 C-1.16066046 28.11161109 2.53439622 31.83397303 5 37 C5.31458833 38.47446182 5.60421065 39.95436933 5.875 41.4375 C6.81501971 46.20929497 8.57931739 48.57931739 12 52 C14.59458106 53.29729053 16.60447598 53.2042812 19.5 53.25 C20.4796875 53.27578125 21.459375 53.3015625 22.46875 53.328125 C23.3040625 53.21984375 24.139375 53.1115625 25 53 C27.33458635 49.49812047 27.67260727 48.11971953 27 44 C24.24115903 41.54769692 21.52486553 40.24101709 18.17578125 38.703125 C10.09155908 34.92981177 3.44395066 30.5858491 0 22 C-0.71465433 15.85582901 -0.73363375 10.13374641 3 5 C8.10759108 -0.67101839 13.39249999 -3.93089867 21 -5 C28.44546037 -5.2418723 34.46381259 -3.46982789 41 0 C40.52060632 4.71403788 40.03165952 8.66579301 38 13 C34.38367327 12.69002914 33.20784761 12.22470012 30.6875 9.5 C26.97167491 6.04341852 25.04085613 5.91998641 20 6 C17.28892287 7.37716666 17.28892287 7.37716666 16 10 C15.56373485 12.94345823 15.56373485 12.94345823 17 16 C20.14826302 18.2476297 23.61348951 19.77457967 27.125 21.375 C35.68210048 25.30092247 42.04150656 29.32955425 46.5 37.875 C47.43078503 43.69240642 47.06977205 49.49264828 44.375 54.8125 C40.35788541 60.20389064 35.94725776 63.39288332 29.21484375 64.7109375 C18.46794692 66.11353074 9.13183842 64.08789228 0 58 C-1.2684375 59.175625 -1.2684375 59.175625 -2.5625 60.375 C-8.04401186 64.87493881 -14.10909972 65.43164445 -21 65.3359375 C-26.26289568 64.74660283 -31.09038306 62.91929179 -36 61 C-36 61.66 -36 62.32 -36 63 C-38.97922593 63.02683987 -41.95821295 63.04676037 -44.9375 63.0625 C-45.78763672 63.07087891 -46.63777344 63.07925781 -47.51367188 63.08789062 C-48.32255859 63.09111328 -49.13144531 63.09433594 -49.96484375 63.09765625 C-50.7137085 63.10289307 -51.46257324 63.10812988 -52.23413086 63.11352539 C-54 63 -54 63 -55 62 C-55.28867799 59.77143615 -55.51638203 57.53492751 -55.71875 55.296875 C-55.78155151 54.62207092 -55.84435303 53.94726685 -55.90905762 53.25201416 C-56.11026719 51.0850408 -56.30556493 48.91759094 -56.5 46.75 C-56.69504873 44.59675837 -56.89142579 42.44366494 -57.09094238 40.29083252 C-57.27270986 38.32665948 -57.44994344 36.36206845 -57.62695312 34.39746094 C-57.94058922 31.54107357 -58.377262 28.80232099 -59 26 C-59.36762451 26.80107178 -59.73524902 27.60214355 -60.11401367 28.42749023 C-61.4997012 31.44247633 -62.88858103 34.45595065 -64.27954102 37.46850586 C-64.87715019 38.76447736 -65.47353769 40.06101302 -66.06860352 41.3581543 C-69.44942581 48.72544661 -72.89493141 55.99944433 -77 63 C-78.98 63 -80.96 63 -83 63 C-83.26103516 62.50298584 -83.52207031 62.00597168 -83.79101562 61.49389648 C-88.36853061 52.7807851 -92.9491247 44.06918978 -97.5625 35.375 C-98.06330078 34.42645142 -98.06330078 34.42645142 -98.57421875 33.45874023 C-100.0204722 30.54358319 -100.0204722 30.54358319 -102 28 C-102.99 39.55 -103.98 51.1 -105 63 C-109.29 63 -113.58 63 -118 63 C-117.70996094 61.27007812 -117.41992188 59.54015625 -117.12109375 57.7578125 C-114.31723867 40.9149539 -111.75559037 24.08397845 -109.95141602 7.10107422 C-109.83983154 6.06740723 -109.72824707 5.03374023 -109.61328125 3.96875 C-109.51829346 3.05544922 -109.42330566 2.14214844 -109.32543945 1.20117188 C-109 -1 -109 -1 -108 -3 C-106.44377142 -3.21756982 -104.87863893 -3.37196528 -103.3125 -3.5 C-102.44238281 -3.5928125 -101.57226562 -3.685625 -100.67578125 -3.78125 C-97.13575424 -2.74766547 -96.16772399 -0.84820746 -94.40844727 2.27685547 C-91.31408708 8.25960699 -88.28528017 14.26863628 -85.3125 20.3125 C-84.29832122 22.36856736 -83.28293183 24.42401487 -82.2651825 26.47831726 C-81.6363187 27.74821358 -81.00959636 29.0191733 -80.3853302 30.29133606 C-79.0494861 32.99374121 -77.67619457 35.48570815 -76 38 C-69.12556796 24.43310617 -62.55348999 10.72424257 -56 -3 C-54.18757948 -3.02687279 -52.37504767 -3.04633715 -50.5625 -3.0625 C-49.55316406 -3.07410156 -48.54382813 -3.08570313 -47.50390625 -3.09765625 C-45 -3 -45 -3 -44 -2 C-43.73585624 -0.23960845 -43.53130583 1.52978078 -43.3515625 3.30078125 C-43.23466064 4.41477295 -43.11775879 5.52876465 -42.99731445 6.67651367 C-42.87445068 7.87638916 -42.75158691 9.07626465 -42.625 10.3125 C-41.39160567 21.93204768 -39.85461601 33.46455149 -38 45 C-37.20722656 45.11472656 -36.41445313 45.22945312 -35.59765625 45.34765625 C-33 46 -33 46 -31.4375 48.4375 C-30.963125 49.283125 -30.48875 50.12875 -30 51 C-26.94395819 52.97664514 -24.47628266 53.27150019 -20.875 53.25 C-19.57175781 53.25773437 -19.57175781 53.25773437 -18.2421875 53.265625 C-15.79796113 53.2106341 -15.79796113 53.2106341 -14 51 C-13.75746187 48.78927023 -13.75746187 48.78927023 -13.875 46.375 C-13.89304687 45.55773437 -13.91109375 44.74046875 -13.9296875 43.8984375 C-13.95289063 43.27195313 -13.97609375 42.64546875 -14 42 C-15.28390625 41.60361328 -15.28390625 41.60361328 -16.59375 41.19921875 C-25.18136963 38.17582514 -34.15715965 34.04023688 -39 26 C-41.4204172 20.82910871 -42.06607473 15.39611831 -40.34765625 9.921875 C-37.63208952 3.81476356 -33.35677913 -0.2806741 -27.4375 -3.3125 C-17.52052959 -6.10959422 -8.87513088 -5.19111429 0 0 Z M-39 46 C-38 48 -38 48 -38 48 Z " fill="#178172" transform="translate(328,42)"/>
<path d="M0 0 C4.14700452 3.68622624 6.37260431 7.59781705 7.2121582 13.13671875 C7.3907139 16.1860213 7.4170806 19.19568845 7.375 22.25 C7.36073975 23.94116943 7.36073975 23.94116943 7.34619141 25.66650391 C6.7913275 48.94833698 2.1265945 86.9948226 -14.98828125 104.87890625 C-20.0547221 108.61349409 -26.85118418 111.5 -33.1875 111.5 C-32.43990642 107.93389267 -31.05145502 104.78215095 -29.625 101.4375 C-26.01305916 92.04015391 -26.07109278 84.47357146 -29.86328125 75.1328125 C-36.16663223 62.60048636 -47.2926004 54.42424401 -60.1875 49.5 C-64.81844901 48.14724943 -69.42035277 47.22317161 -74.1875 46.5 C-75.0021875 46.36980469 -75.816875 46.23960938 -76.65625 46.10546875 C-85.08880522 45.02252073 -93.70370363 45.42310759 -102.1875 45.5 C-103.1775 45.5 -104.1675 45.5 -105.1875 45.5 C-105.5175 43.85 -105.8475 42.2 -106.1875 40.5 C-104.5 38.9375 -104.5 38.9375 -102.1875 37.5 C-99.625 37.8125 -99.625 37.8125 -97.1875 38.5 C-94.00259993 38.7773501 -94.00259993 38.7773501 -91.1875 36.5 C-93.4975 36.17 -95.8075 35.84 -98.1875 35.5 C-95.15086717 32.3253384 -93.3529633 31.39263863 -88.96875 31.21875 C-88.12280273 31.18193115 -87.27685547 31.1451123 -86.40527344 31.10717773 C-85.5084082 31.07180908 -84.61154297 31.03644043 -83.6875 31 C-76.82195937 30.69732431 -70.01676322 30.29674738 -63.1875 29.5 C-65.0730148 33.78359673 -67.54715701 35.65103592 -71.1875 38.5 C-56.41350904 32.43338536 -43.84689763 22.98069792 -31.6953125 12.75 C-30.95224854 12.12544922 -30.20918457 11.50089844 -29.44360352 10.85742188 C-28.02396242 9.65534848 -26.61237458 8.44367125 -25.21069336 7.22070312 C-18.01444587 1.10526255 -9.40730282 -4.42696603 0 0 Z " fill="#F8FBFB" transform="translate(144.1875,24.5)"/>
<path d="M0 0 C1.12550766 -0.00423477 2.25101532 -0.00846954 3.41062927 -0.01283264 C7.04202024 -0.02268557 10.67328558 -0.02276164 14.3046875 -0.01953125 C15.53645721 -0.018927 16.76822693 -0.01832275 18.037323 -0.0177002 C32.61711171 0.00179134 47.18387838 0.07210361 61.7421875 0.91796875 C62.95600098 0.97960205 64.16981445 1.04123535 65.42041016 1.10473633 C72.63349228 1.61466131 76.66650314 2.56951293 81.7890625 7.81640625 C85.95092475 14.11621144 86.60198984 20.77897354 87.1796875 28.16796875 C87.26428223 29.21984375 87.26428223 29.21984375 87.35058594 30.29296875 C89.00687177 52.5597227 89.09193283 75.45851929 87.4296875 97.73046875 C87.33723755 99.11842651 87.33723755 99.11842651 87.24291992 100.53442383 C86.59441609 107.80938424 84.99087144 116.05087267 79.3671875 121.16796875 C68.16387836 128.19749605 52.74494931 126.31712644 40.00390625 126.30078125 C38.14687589 126.3014559 36.28984561 126.30242726 34.43281555 126.30368042 C30.5589615 126.30514799 26.68513064 126.30303199 22.8112793 126.29833984 C17.85048182 126.29262311 12.88973822 126.29593978 7.92894268 126.30191231 C4.10195001 126.30552636 0.27497012 126.30437578 -3.55202293 126.30178452 C-5.38163446 126.30111862 -7.21124715 126.30193186 -9.04085732 126.30426407 C-11.59408268 126.30680662 -14.14722059 126.30292825 -16.70043945 126.29736328 C-17.45221466 126.29938751 -18.20398987 126.30141174 -18.97854614 126.30349731 C-22.71793978 126.28841683 -26.18441831 126.06560284 -29.8203125 125.16796875 C-29.8203125 124.83796875 -29.8203125 124.50796875 -29.8203125 124.16796875 C-5.0703125 124.49796875 19.6796875 124.82796875 45.1796875 125.16796875 C45.1796875 124.50796875 45.1796875 123.84796875 45.1796875 123.16796875 C44.1896875 123.16796875 43.1996875 123.16796875 42.1796875 123.16796875 C40.4921875 121.16796875 40.4921875 121.16796875 39.1796875 119.16796875 C40.04851562 118.88824219 40.91734375 118.60851562 41.8125 118.3203125 C51.1989642 115.05499889 55.41280896 112.56431876 59.91015625 103.79296875 C70.54385826 81.52758894 75.58744254 55.31272334 75.6796875 30.79296875 C75.68589111 29.71208984 75.69209473 28.63121094 75.69848633 27.51757812 C75.60721506 21.93622859 75.16568571 18.0440403 72.1796875 13.16796875 C72.1796875 12.50796875 72.1796875 11.84796875 72.1796875 11.16796875 C71.5609375 10.85859375 70.9421875 10.54921875 70.3046875 10.23046875 C68.9296875 9.54296875 67.5546875 8.85546875 66.1796875 8.16796875 C59.46746531 7.32894098 54.78379558 9.54733712 49.1796875 13.16796875 C46.53722681 15.26802961 43.97714421 17.42246526 41.43920898 19.64550781 C36.97827452 23.54613482 32.359134 27.17752023 27.6171875 30.73046875 C26.93833496 31.24295166 26.25948242 31.75543457 25.56005859 32.28344727 C19.65416031 36.68509682 19.65416031 36.68509682 16.1796875 38.16796875 C14.0390625 37.70703125 14.0390625 37.70703125 11.9296875 36.79296875 C11.22328125 36.49648438 10.516875 36.2 9.7890625 35.89453125 C9.25796875 35.65476563 8.726875 35.415 8.1796875 35.16796875 C8.1796875 34.83796875 8.1796875 34.50796875 8.1796875 34.16796875 C10.1596875 34.16796875 12.1396875 34.16796875 14.1796875 34.16796875 C14.1796875 33.50796875 14.1796875 32.84796875 14.1796875 32.16796875 C13.58027344 31.89984375 12.98085937 31.63171875 12.36328125 31.35546875 C10.14833538 30.15091858 8.92290375 29.0225522 7.2421875 27.16796875 C2.0833907 21.85351859 -3.8673431 17.53840964 -9.8203125 13.16796875 C-10.57957031 12.60207031 -11.33882812 12.03617188 -12.12109375 11.453125 C-16.3695228 8.51583437 -19.69412066 7.70689678 -24.83203125 7.4140625 C-27.46865641 7.08772186 -28.96230949 6.02597176 -30.8203125 4.16796875 C-27.1761351 1.73851715 -25.10789978 2.006173 -20.8203125 2.16796875 C-20.8203125 1.83796875 -20.8203125 1.50796875 -20.8203125 1.16796875 C-13.84838786 0.26061389 -7.02664757 0.00805689 0 0 Z " fill="#198274" transform="translate(74.8203125,15.83203125)"/>
<path d="M0 0 C3.49983803 -0.08803772 6.99938638 -0.14073608 10.5 -0.1875 C11.97339844 -0.22520508 11.97339844 -0.22520508 13.4765625 -0.26367188 C19.72935421 -0.32619979 24.31044969 0.36127165 30 3 C31.96822886 4.96822886 31.66248381 8.34808709 32 11 C32.56589844 10.6803125 33.13179687 10.360625 33.71484375 10.03125 C38.69365739 7.78440077 43.79940385 8.18005184 48.8515625 10.0625 C56.94618449 14.16555908 62.93211768 19.51066973 66.40234375 28.02612305 C67.49398051 31.63146749 67.53024822 35.19379157 67.5 38.9375 C67.49572998 39.73365723 67.49145996 40.52981445 67.48706055 41.35009766 C67.31249578 47.34451612 66.38191964 51.65429457 62 56 C61.21625 56.78375 60.4325 57.5675 59.625 58.375 C51.25321875 63.55753125 39.33855059 63.34161971 29.91796875 61.34765625 C21.75848823 58.42728918 16.96560325 53.21287118 12.9375 45.6875 C6.68696019 32.28634265 0 14.96006885 0 0 Z " fill="#F8FBFB" transform="translate(44,75)"/>
<path d="M0 0 C1.13398224 -0.0040535 2.26796448 -0.00810699 3.43630981 -0.01228333 C7.08647522 -0.02168767 10.73654294 -0.02168756 14.38671875 -0.01953125 C15.62132843 -0.02025635 16.85593811 -0.02098145 18.12796021 -0.02172852 C35.85379302 -0.02057305 53.43791001 0.26051813 71.07421875 2.16796875 C71.07421875 5.16796875 71.07421875 5.16796875 69.828125 6.86328125 C67.61682964 8.5082092 66.70924178 8.34650129 64.01171875 8.04296875 C54.61582556 7.81601481 48.06139744 13.75393337 41.33325195 19.64550781 C36.87297094 23.54670431 32.25355198 27.17760509 27.51171875 30.73046875 C26.83286621 31.24295166 26.15401367 31.75543457 25.45458984 32.28344727 C19.54869156 36.68509682 19.54869156 36.68509682 16.07421875 38.16796875 C13.93359375 37.70703125 13.93359375 37.70703125 11.82421875 36.79296875 C11.1178125 36.49648438 10.41140625 36.2 9.68359375 35.89453125 C9.1525 35.65476563 8.62140625 35.415 8.07421875 35.16796875 C8.07421875 34.83796875 8.07421875 34.50796875 8.07421875 34.16796875 C10.05421875 34.16796875 12.03421875 34.16796875 14.07421875 34.16796875 C14.07421875 33.50796875 14.07421875 32.84796875 14.07421875 32.16796875 C13.47480469 31.89984375 12.87539062 31.63171875 12.2578125 31.35546875 C10.04286663 30.15091858 8.817435 29.0225522 7.13671875 27.16796875 C1.97792195 21.85351859 -3.97281185 17.53840964 -9.92578125 13.16796875 C-10.68503906 12.60207031 -11.44429687 12.03617188 -12.2265625 11.453125 C-16.47499155 8.51583437 -19.79958941 7.70689678 -24.9375 7.4140625 C-27.57412516 7.08772186 -29.06777824 6.02597176 -30.92578125 4.16796875 C-27.28160385 1.73851715 -25.21336853 2.006173 -20.92578125 2.16796875 C-20.92578125 1.83796875 -20.92578125 1.50796875 -20.92578125 1.16796875 C-13.91921073 0.25450403 -7.06174344 0.00789144 0 0 Z " fill="#087969" transform="translate(74.92578125,15.83203125)"/>
<path d="M0 0 C5.94 0 11.88 0 18 0 C18 21.78 18 43.56 18 66 C12.39 66 6.78 66 1 66 C0 65 0 65 -0.12025452 62.41209412 C-0.11803391 61.25959671 -0.11581329 60.1070993 -0.11352539 58.91967773 C-0.11344986 57.61840439 -0.11337433 56.31713104 -0.11329651 54.97642517 C-0.10818909 53.54548098 -0.10297308 52.11453718 -0.09765625 50.68359375 C-0.09579203 49.2277074 -0.09436815 47.77182043 -0.09336853 46.31593323 C-0.08954365 42.47720621 -0.07971364 38.63851681 -0.06866455 34.79980469 C-0.05844978 30.88542184 -0.05387077 26.97103294 -0.04882812 23.05664062 C-0.03809133 15.37107459 -0.02049479 7.68554735 0 0 Z " fill="#208577" transform="translate(187,39)"/>
<path d="M0 0 C6.18303642 1.89276625 10.25389461 6.92082107 14 12 C17.38154234 18.64270615 17.18349468 26.9475874 15.125 33.99609375 C12.52080486 39.76130206 9.93323777 42.74946153 4 45 C0.0625 45.25 0.0625 45.25 -3 45 C-3 44.34 -3 43.68 -3 43 C-2.01 42.505 -2.01 42.505 -1 42 C-2.65 41.67 -4.3 41.34 -6 41 C-5.67 40.01 -5.34 39.02 -5 38 C-5.8353125 38.495 -5.8353125 38.495 -6.6875 39 C-9.35263324 40.15249005 -11.12393149 40.30274405 -14 40 C-14.66 39.34 -15.32 38.68 -16 38 C-15.67 37.01 -15.34 36.02 -15 35 C-14.0925 35.020625 -13.185 35.04125 -12.25 35.0625 C-9.57327412 35.0110245 -7.53011948 34.7784983 -5 34 C-5.19471111 32.05000871 -5.19471111 32.05000871 -6 30 C-8.9439948 27.89714657 -11.44686299 27.71948918 -15 28 C-15.66 28.33 -16.32 28.66 -17 29 C-16.02546942 25.85151657 -15.13390734 23.20334078 -13.3125 20.4375 C-11.52029869 15.74363942 -12.32889032 11.92877599 -13.06640625 7.0234375 C-13 4 -13 4 -11.30078125 1.62890625 C-7.58927046 -0.99876777 -4.37456557 -0.59757638 0 0 Z " fill="#F4F9F8" transform="translate(88,87)"/>
<path d="M0 0 C3.33001856 1.56895105 6.10034133 3.74855116 9 6 C10.13389939 6.85575397 11.26802979 7.71120189 12.40234375 8.56640625 C18.99282391 13.59248844 25.56801717 18.69080256 31 25 C31 25.33 31 25.66 31 26 C21.48410982 28.09378648 12.21295493 28.36861689 2.5 28.47851562 C1.34757812 28.50494141 0.19515625 28.53136719 -0.9921875 28.55859375 C-2.02714355 28.57204834 -3.06209961 28.58550293 -4.12841797 28.59936523 C-7.39361342 29.0549158 -9.26792463 30.21172709 -12 32 C-12.66 32 -13.32 32 -14 32 C-14 32.66 -14 33.32 -14 34 C-14.66 34 -15.32 34 -16 34 C-16.14648406 30.16707559 -16.23446464 26.33488047 -16.3125 22.5 C-16.35439453 21.42234375 -16.39628906 20.3446875 -16.43945312 19.234375 C-16.54584926 12.25478873 -15.82229015 7.27841803 -11 2 C-7.23988428 -0.50674381 -4.34759594 -0.83430978 0 0 Z " fill="#F6FAF9" transform="translate(57,23)"/>
<path d="M0 0 C14.36811397 0.35677032 26.50230853 6.70379236 36.8125 16.4375 C44.40352561 24.4571953 48.71242981 33.88262587 48.4296875 45.01953125 C47.41170566 52.08062345 44.24924004 58.69890367 41 65 C42.65 65 44.3 65 46 65 C46.33 65.99 46.66 66.98 47 68 C47.99 68 48.98 68 50 68 C50 68.66 50 69.32 50 70 C41.33338574 70.04634609 32.66681416 70.08188074 24.000103 70.10362434 C19.97577282 70.11406032 15.95152746 70.1282161 11.92724609 70.15087891 C8.04339006 70.17261396 4.15961559 70.18457003 0.27570343 70.18975449 C-1.20586175 70.19344905 -2.68742249 70.20066362 -4.16895294 70.21146011 C-6.24456927 70.225984 -8.31984882 70.22797759 -10.39550781 70.22705078 C-11.57687317 70.231492 -12.75823853 70.23593323 -13.97540283 70.24050903 C-16.88988565 70.00875604 -18.54383012 69.5255077 -21 68 C-11.60394198 67.89268462 -2.35912329 68.00736571 7 69 C7 68.34 7 67.68 7 67 C7.95519531 66.97421875 8.91039063 66.9484375 9.89453125 66.921875 C23.15081862 66.45803939 23.15081862 66.45803939 34.71484375 60.54296875 C36.26880678 58.83853052 36.26880678 58.83853052 38 56 C38.3609375 55.45601562 38.721875 54.91203125 39.09375 54.3515625 C41.6941321 47.60401929 41.01937633 37.72254394 39.125 30.8046875 C36.56288899 25.29277763 33.03721191 21.35814128 28 18 C27.38125 17.5875 26.7625 17.175 26.125 16.75 C20.86558355 13.69614529 15.99265885 13.28046978 10 14 C7.02019799 14.85060013 7.02019799 14.85060013 5 16 C4.67 13.36 4.34 10.72 4 8 C1.36 7.01 -1.28 6.02 -4 5 C-4 4.67 -4 4.34 -4 4 C-0.535 3.505 -0.535 3.505 3 3 C2.01 2.67 1.02 2.34 0 2 C0 1.34 0 0.68 0 0 Z " fill="#0F7A6B" transform="translate(70,71)"/>
<path d="M0 0 C6.18303642 1.89276625 10.25389461 6.92082107 14 12 C17.38154234 18.64270615 17.18349468 26.9475874 15.125 33.99609375 C12.52080486 39.76130206 9.93323777 42.74946153 4 45 C0.0625 45.25 0.0625 45.25 -3 45 C-3 44.34 -3 43.68 -3 43 C-2.01 42.505 -2.01 42.505 -1 42 C-2.65 41.67 -4.3 41.34 -6 41 C-5.67 40.01 -5.34 39.02 -5 38 C-5.8353125 38.495 -5.8353125 38.495 -6.6875 39 C-9.35263324 40.15249005 -11.12393149 40.30274405 -14 40 C-14.66 39.34 -15.32 38.68 -16 38 C-15.67 37.01 -15.34 36.02 -15 35 C-14.05125 35.020625 -13.1025 35.04125 -12.125 35.0625 C-9.09333717 35.22551826 -9.09333717 35.22551826 -7 34 C-3.97629563 34.04848506 -0.96510458 34.19594656 2.0546875 34.35546875 C5.09967795 34.24665352 5.09967795 34.24665352 7.3203125 32.17578125 C11.30077261 27.01969687 10.76782969 20.1938262 10 14 C7.95707467 9.42639209 5.12547243 6.75031496 1 4 C-2.24020355 2.91993215 -4.60970087 2.61473874 -8 3 C-8.66 3.66 -9.32 4.32 -10 5 C-9.90928194 8.44728644 -9.18683924 9.79117967 -6.875 12.375 C-3.15381172 14.47828033 -1.07651571 13.95918017 3 13 C3 13.66 3 14.32 3 15 C0.10923157 16.22638661 -2.54628367 17.12244289 -5.625 17.8125 C-9.15882527 18.70070937 -9.15882527 18.70070937 -10.9375 21.625 C-11.288125 22.40875 -11.63875 23.1925 -12 24 C-10.35 24 -8.7 24 -7 24 C-6.34 26.31 -5.68 28.62 -5 31 C-5.721875 30.505 -6.44375 30.01 -7.1875 29.5 C-10.17666594 27.90577817 -11.68031525 27.64111516 -15 28 C-15.66 28.33 -16.32 28.66 -17 29 C-16.02546942 25.85151657 -15.13390734 23.20334078 -13.3125 20.4375 C-11.52029869 15.74363942 -12.32889032 11.92877599 -13.06640625 7.0234375 C-13 4 -13 4 -11.30078125 1.62890625 C-7.58927046 -0.99876777 -4.37456557 -0.59757638 0 0 Z " fill="#11796A" transform="translate(88,87)"/>
<path d="M0 0 C0.33 0 0.66 0 1 0 C0.96447021 0.71655762 0.92894043 1.43311523 0.89233398 2.17138672 C0.73510774 5.40568015 0.58620056 8.64030386 0.4375 11.875 C0.38142578 13.00292969 0.32535156 14.13085938 0.26757812 15.29296875 C0.21923828 16.36933594 0.17089844 17.44570313 0.12109375 18.5546875 C0.0739624 19.54968262 0.02683105 20.54467773 -0.02172852 21.56982422 C-0.17780982 24.0103794 -0.17780982 24.0103794 1 26 C2.32 25.34 3.64 24.68 5 24 C5.99 24.99 6.98 25.98 8 27 C7.67 27.66 7.34 28.32 7 29 C6.70383652 31.61955022 6.45636403 34.22489143 6.24609375 36.8515625 C6.18092056 37.62559418 6.11574738 38.39962585 6.04859924 39.19711304 C5.84104303 41.67277144 5.63920812 44.14885892 5.4375 46.625 C5.2979022 48.30211469 5.15793292 49.9791985 5.01757812 51.65625 C4.67407164 55.77048726 4.33569602 59.88511839 4 64 C-0.29 64 -4.58 64 -9 64 C-8.70996094 62.27007812 -8.41992188 60.54015625 -8.12109375 58.7578125 C-4.86929689 39.22415152 -2.11375919 19.69107925 0 0 Z " fill="#1D8375" transform="translate(219,41)"/>
<path d="M0 0 C7.35755421 4.42285791 12.78499872 10.15243143 15.3125 18.5 C15.75888753 21.49141641 15.83691295 24.41600107 15.8125 27.4375 C15.80822998 28.23365723 15.80395996 29.02981445 15.79956055 29.85009766 C15.57273317 37.63917339 13.31393154 41.57360425 7.8125 46.9375 C5.23727193 48.54701754 3.31137538 49.15727139 0.3125 49.5 C0.9175302 45.32605745 2.39893838 42.26703159 4.375 38.5625 C8.0171652 30.82180191 8.86548566 23.42435272 6.6796875 15.0859375 C4.36596404 9.68724943 0.04269096 5.85095663 -4.6875 2.5 C-8.72016611 1.15577796 -12.46755323 1.04296605 -16.6875 1.5 C-19.2064267 2.81763329 -19.2064267 2.81763329 -20.6875 4.5 C-21.0175 2.85 -21.3475 1.2 -21.6875 -0.5 C-14.08103438 -3.70272236 -7.36263052 -3.72176927 0 0 Z " fill="#F0F7F6" transform="translate(95.6875,86.5)"/>
<path d="M0 0 C0 3 0 3 -2.5 5.9375 C-5.47253775 10.04936778 -5.88519091 13.55691578 -5.69140625 18.5703125 C-4.69981331 23.48906165 -2.5133907 27.4717496 -0.14575195 31.85839844 C5.6706801 42.73917113 7.74940937 53.65556234 7 66 C6.34 66 5.68 66 5 66 C4.87625 65.19820313 4.7525 64.39640625 4.625 63.5703125 C1.89993137 48.54837166 -4.40581181 35.43520291 -13.3125 23.11328125 C-15.38205043 19.29515234 -15.75673979 17.28015883 -15 13 C-13.07876804 10.69750031 -11.46253089 9.04793472 -9.1875 7.1875 C-8.64029297 6.71119141 -8.09308594 6.23488281 -7.52929688 5.74414062 C-5.10675945 3.65635383 -2.66254986 1.77503324 0 0 Z " fill="#10796B" transform="translate(116,44)"/>
<path d="M0 0 C-0.47939368 4.71403788 -0.96834048 8.66579301 -3 13 C-7.86115742 12.58332936 -9.76394421 10.49843869 -13 7 C-15.7459726 5.6270137 -17.9589047 5.87587366 -21 6 C-21.99 6.33 -22.98 6.66 -24 7 C-24.04125 8.258125 -24.0825 9.51625 -24.125 10.8125 C-24.14820313 11.52019531 -24.17140625 12.22789063 -24.1953125 12.95703125 C-24.13254462 15.31359719 -24.13254462 15.31359719 -22 18 C-24.4375 17.1875 -24.4375 17.1875 -27 16 C-28 13 -28 13 -26.875 9.6875 C-25.64212972 6.00869289 -25.64212972 6.00869289 -27.25 2.625 C-28.73642619 -0.07493765 -28.73642619 -0.07493765 -31 -1 C-20.54501485 -6.72534901 -10.14870112 -5.93603273 0 0 Z " fill="#167E70" transform="translate(328,42)"/>
<path d="M0 0 C6.10926456 1.87018303 10.42147708 6.85854225 14 12 C14.73046875 14.7890625 14.73046875 14.7890625 15 17 C14.01 17 13.02 17 12 17 C12 19.97 12 22.94 12 26 C11.67 26 11.34 26 11 26 C10.99613281 24.83984375 10.99613281 24.83984375 10.9921875 23.65625 C10.71296626 16.13589121 9.61218932 11.21972852 4 6 C-0.05687914 3.29541391 -3.13840202 2.44754568 -8 3 C-8.66 3.66 -9.32 4.32 -10 5 C-9.90928194 8.44728644 -9.18683924 9.79117967 -6.875 12.375 C-3.15381172 14.47828033 -1.07651571 13.95918017 3 13 C3 13.66 3 14.32 3 15 C0.10923157 16.22638661 -2.54628367 17.12244289 -5.625 17.8125 C-9.15882527 18.70070937 -9.15882527 18.70070937 -10.9375 21.625 C-11.288125 22.40875 -11.63875 23.1925 -12 24 C-10.35 24 -8.7 24 -7 24 C-6.34 26.31 -5.68 28.62 -5 31 C-5.721875 30.505 -6.44375 30.01 -7.1875 29.5 C-10.17666594 27.90577817 -11.68031525 27.64111516 -15 28 C-15.66 28.33 -16.32 28.66 -17 29 C-16.02546942 25.85151657 -15.13390734 23.20334078 -13.3125 20.4375 C-11.52029869 15.74363942 -12.32889032 11.92877599 -13.06640625 7.0234375 C-13 4 -13 4 -11.30078125 1.62890625 C-7.58927046 -0.99876777 -4.37456557 -0.59757638 0 0 Z " fill="#1F7B6C" transform="translate(88,87)"/>
<path d="M0 0 C-0.47939368 4.71403788 -0.96834048 8.66579301 -3 13 C-6.61632673 12.69002914 -7.79215239 12.22470012 -10.3125 9.5 C-13.95010626 6.11618022 -16.12184138 6.31987925 -21 6 C-21.66 5.67 -22.32 5.34 -23 5 C-21.33657163 3.33657163 -19.2174291 3.63951903 -16.9375 3.4375 C-16.01839844 3.35371094 -15.09929687 3.26992188 -14.15234375 3.18359375 C-13.44207031 3.12300781 -12.73179687 3.06242187 -12 3 C-12 1.35 -12 -0.3 -12 -2 C-16.29 -2.33 -20.58 -2.66 -25 -3 C-25 -3.33 -25 -3.66 -25 -4 C-16.00520568 -6.11927708 -8.04072232 -4.2685316 0 0 Z " fill="#44978B" transform="translate(369,42)"/>
<path d="M0 0 C-3.76624671 1.25541557 -5.37188934 0.37061958 -9 -1 C-9 -0.34 -9 0.32 -9 1 C-9.99 1 -10.98 1 -12 1 C-11.67 2.32 -11.34 3.64 -11 5 C-13.64 5.33 -16.28 5.66 -19 6 C-19 6.99 -19 7.98 -19 9 C-19.66 9 -20.32 9 -21 9 C-21.04125 10.258125 -21.0825 11.51625 -21.125 12.8125 C-21.14820313 13.52019531 -21.17140625 14.22789063 -21.1953125 14.95703125 C-21.13254462 17.31359719 -21.13254462 17.31359719 -19 20 C-21.4375 19.1875 -21.4375 19.1875 -24 18 C-25 15 -25 15 -23.875 11.6875 C-22.64212972 8.00869289 -22.64212972 8.00869289 -24.25 4.625 C-25.73642619 1.92506235 -25.73642619 1.92506235 -28 1 C-19.01283803 -3.92154108 -9.40782597 -4.16802417 0 0 Z " fill="#359084" transform="translate(325,40)"/>
<path d="M0 0 C0 0.66 0 1.32 0 2 C0.99 2 1.98 2 3 2 C3 2.66 3 3.32 3 4 C-5.66661426 4.04634609 -14.33318584 4.08188074 -22.999897 4.10362434 C-27.02422718 4.11406032 -31.04847254 4.1282161 -35.07275391 4.15087891 C-38.95660994 4.17261396 -42.84038441 4.18457003 -46.72429657 4.18975449 C-48.20586175 4.19344905 -49.68742249 4.20066362 -51.16895294 4.21146011 C-53.24456927 4.225984 -55.31984882 4.22797759 -57.39550781 4.22705078 C-58.57687317 4.231492 -59.75823853 4.23593323 -60.97540283 4.24050903 C-63.88988565 4.00875604 -65.54383012 3.5255077 -68 2 C-58.60394198 1.89268462 -49.35912329 2.00736571 -40 3 C-40 2.34 -40 1.68 -40 1 C-32.74 0.67 -25.48 0.34 -18 0 C-18.33 0.66 -18.66 1.32 -19 2 C-14.71 2 -10.42 2 -6 2 C-6.495 1.01 -6.495 1.01 -7 0 C-3.86650268 -1.04449911 -3.01031744 -0.93423645 0 0 Z " fill="#017262" transform="translate(117,137)"/>
<path d="M0 0 C0.66 0.66 1.32 1.32 2 2 C1.67 2.66 1.34 3.32 1 4 C0.70383652 6.61955022 0.45636403 9.22489143 0.24609375 11.8515625 C0.18092056 12.62559418 0.11574738 13.39962585 0.04859924 14.19711304 C-0.15895697 16.67277144 -0.36079188 19.14885892 -0.5625 21.625 C-0.7020978 23.30211469 -0.84206708 24.9791985 -0.98242188 26.65625 C-1.32592836 30.77048726 -1.66430398 34.88511839 -2 39 C-6.29 39 -10.58 39 -15 39 C-14.34 35.04 -13.68 31.08 -13 27 C-12.67 27 -12.34 27 -12 27 C-11.875 34.625 -11.875 34.625 -13 38 C-9.7 38 -6.4 38 -3 38 C-3.08378906 36.3603125 -3.16757813 34.720625 -3.25390625 33.03125 C-3.35712922 30.85418363 -3.45997381 28.6770993 -3.5625 26.5 C-3.61857422 25.42234375 -3.67464844 24.3446875 -3.73242188 23.234375 C-4.44732175 7.60189784 -4.44732175 7.60189784 -1 2 C-0.67 1.34 -0.34 0.68 0 0 Z " fill="#7BB6AE" transform="translate(225,66)"/>
<path d="M0 0 C1.40185547 0.00966797 1.40185547 0.00966797 2.83203125 0.01953125 C4.28416016 0.04466797 4.28416016 0.04466797 5.765625 0.0703125 C6.74917969 0.07933594 7.73273437 0.08835938 8.74609375 0.09765625 C11.16951907 0.12118465 13.59244722 0.15405882 16.015625 0.1953125 C16.015625 0.5253125 16.015625 0.8553125 16.015625 1.1953125 C10.075625 1.5253125 4.135625 1.8553125 -1.984375 2.1953125 C0.13488104 4.31456854 4.6352343 3.61362267 7.578125 3.7578125 C8.38443359 3.80099609 9.19074219 3.84417969 10.02148438 3.88867188 C12.01931305 3.99506512 14.0174457 4.09572138 16.015625 4.1953125 C16.015625 4.5253125 16.015625 4.8553125 16.015625 5.1953125 C15.43071289 5.21513184 14.84580078 5.23495117 14.24316406 5.25537109 C11.58354475 5.35084731 8.92468662 5.46043392 6.265625 5.5703125 C5.34523438 5.60125 4.42484375 5.6321875 3.4765625 5.6640625 C2.58710937 5.70273437 1.69765625 5.74140625 0.78125 5.78125 C-0.03569336 5.8126709 -0.85263672 5.8440918 -1.69433594 5.87646484 C-4.15270458 6.21874943 -5.84197499 6.9692402 -7.984375 8.1953125 C-5.674375 8.5253125 -3.364375 8.8553125 -0.984375 9.1953125 C-1.644375 9.8553125 -2.304375 10.5153125 -2.984375 11.1953125 C-6.609375 10.8203125 -6.609375 10.8203125 -9.984375 10.1953125 C-10.314375 9.2053125 -10.644375 8.2153125 -10.984375 7.1953125 C-11.644375 6.8653125 -12.304375 6.5353125 -12.984375 6.1953125 C-8.90530076 1.82487582 -6.04298863 -0.07369498 0 0 Z " fill="#278375" transform="translate(54.984375,50.8046875)"/>
<path d="M0 0 C-0.99 0.495 -0.99 0.495 -2 1 C-2.33 1.99 -2.66 2.98 -3 4 C-7.10403363 4.08694042 -11.20783129 4.14037149 -15.3125 4.1875 C-17.06336914 4.22520508 -17.06336914 4.22520508 -18.84960938 4.26367188 C-19.96787109 4.27333984 -21.08613281 4.28300781 -22.23828125 4.29296875 C-23.26993408 4.3086792 -24.30158691 4.32438965 -25.36450195 4.34057617 C-28 4 -28 4 -29.86010742 2.48168945 C-30.42435425 1.74825317 -30.42435425 1.74825317 -31 1 C-9.27659574 -0.19148936 -9.27659574 -0.19148936 0 0 Z " fill="#037261" transform="translate(82,51)"/>
<path d="M0 0 C0.66 0 1.32 0 2 0 C4.95199884 9.52810341 6.61246715 17.91130505 6 28 C5.34 28 4.68 28 4 28 C3.80664062 27.04738281 3.61328125 26.09476563 3.4140625 25.11328125 C3.15367188 23.85902344 2.89328125 22.60476562 2.625 21.3125 C2.36976562 20.07113281 2.11453125 18.82976562 1.8515625 17.55078125 C1.12471637 14.52003292 0.15868658 11.87656539 -1 9 C-1 8.01 -1 7.02 -1 6 C-0.34 6 0.32 6 1 6 C0.67 4.02 0.34 2.04 0 0 Z " fill="#1E7D6E" transform="translate(117,82)"/>
<path d="M0 0 C1.65 0.33 3.3 0.66 5 1 C4.67 3.64 4.34 6.28 4 9 C3.01 9.33 2.02 9.66 1 10 C0.67 10.99 0.34 11.98 0 13 C-2.5625 14.1875 -2.5625 14.1875 -5 15 C-3.25740319 4.44191344 -3.25740319 4.44191344 0 0 Z " fill="#077868" transform="translate(260,68)"/>
<path d="M0 0 C3 3 3 3 3.36328125 5.55859375 C3.34652344 6.50863281 3.32976562 7.45867187 3.3125 8.4375 C3.30863281 9.38496094 3.30476563 10.33242187 3.30078125 11.30859375 C2.99934156 14.00589177 2.37375963 15.68485928 1 18 C0.34 16.68 -0.32 15.36 -1 14 C-1.99 16.64 -2.98 19.28 -4 22 C-5.0359636 17.85614558 -4.90660941 14.43468682 -4.5625 10.25 C-4.51029297 9.55261719 -4.45808594 8.85523437 -4.40429688 8.13671875 C-4.27525928 6.42403797 -4.13840386 4.71194934 -4 3 C-3.67 3 -3.34 3 -3 3 C-3 5.97 -3 8.94 -3 12 C-2.34 12 -1.68 12 -1 12 C-0.67 8.04 -0.34 4.08 0 0 Z " fill="#288477" transform="translate(115,105)"/>
<path d="M0 0 C18.82004556 -0.18451025 18.82004556 -0.18451025 28 1 C28 1.33 28 1.66 28 2 C19.92046224 3.81344335 12.26747851 4.23658921 4 4 C4 3.34 4 2.68 4 2 C2.68 2 1.36 2 0 2 C0 1.34 0 0.68 0 0 Z " fill="#1A7F70" transform="translate(42,69)"/>
<path d="M0 0 C3 2 3 2 3.51171875 3.9453125 C3.67447917 5.96354167 3.83723958 7.98177083 4 10 C2 10 0 10 -2 10 C-1.67 10.99 -1.34 11.98 -1 13 C-0.91856145 14.62719482 -0.8924698 16.25751719 -0.90234375 17.88671875 C-0.90717773 19.2934082 -0.90717773 19.2934082 -0.91210938 20.72851562 C-0.92048828 21.70498047 -0.92886719 22.68144531 -0.9375 23.6875 C-0.94201172 24.67556641 -0.94652344 25.66363281 -0.95117188 26.68164062 C-0.96295697 29.12115474 -0.97940989 31.56054689 -1 34 C-1.33 34 -1.66 34 -2 34 C-2.39482553 30.10591007 -2.76236482 26.20970889 -3.125 22.3125 C-3.23714844 21.20970703 -3.34929687 20.10691406 -3.46484375 18.97070312 C-3.56152344 17.90400391 -3.65820312 16.83730469 -3.7578125 15.73828125 C-3.8520752 14.75899658 -3.94633789 13.77971191 -4.04345703 12.77075195 C-3.99584651 9.7351797 -3.29179717 7.72495263 -2 5 C-1.67 5 -1.34 5 -1 5 C-0.67 3.35 -0.34 1.7 0 0 Z " fill="#047464" transform="translate(154,24)"/>
<path d="M0 0 C0.33 1.32 0.66 2.64 1 4 C1.33 3.67 1.66 3.34 2 3 C2.66 3.33 3.32 3.66 4 4 C5.2799919 8.57139965 5.34030776 12.15662859 3.5625 16.5625 C3.046875 17.366875 2.53125 18.17125 2 19 C1.67 19 1.34 19 1 19 C1.33 16.36 1.66 13.72 2 11 C1.401875 11.165 0.80375 11.33 0.1875 11.5 C-2 12 -2 12 -5 12 C-3.68938409 7.76570244 -2.05643741 3.92592596 0 0 Z " fill="#318C80" transform="translate(263,58)"/>
<path d="M0 0 C3.96 0 7.92 0 12 0 C11.67 1.98 11.34 3.96 11 6 C9.37681021 6.36237263 7.7513642 6.71465157 6.125 7.0625 C5.22007812 7.25972656 4.31515625 7.45695312 3.3828125 7.66015625 C1 8 1 8 -1 7 C0.32 6.01 1.64 5.02 3 4 C2.01 2.68 1.02 1.36 0 0 Z " fill="#047465" transform="translate(346,39)"/>
<path d="M0 0 C0 0.66 0 1.32 0 2 C1.32 2.33 2.64 2.66 4 3 C2.14494527 4.85505473 -0.46615983 4.13234482 -2.93212891 4.13867188 C-3.73827637 4.13416016 -4.54442383 4.12964844 -5.375 4.125 C-6.59388916 4.12209961 -6.59388916 4.12209961 -7.83740234 4.11914062 C-13.93079316 4.07559048 -19.94871539 3.74641396 -26 3 C-26 2.67 -26 2.34 -26 2 C-22.60454455 1.66274171 -19.2085816 1.33088879 -15.8125 1 C-14.85279297 0.90460938 -13.89308594 0.80921875 -12.90429688 0.7109375 C-11.97294922 0.62070313 -11.04160156 0.53046875 -10.08203125 0.4375 C-9.22843018 0.35371094 -8.3748291 0.26992187 -7.49536133 0.18359375 C-4.98711079 -0.00094831 -2.51404403 -0.03149938 0 0 Z " fill="#057363" transform="translate(70,71)"/>
<path d="M0 0 C0.66 0.66 1.32 1.32 2 2 C1.88583488 8.62157694 -0.17000069 12.68605262 -4 18 C-6 17 -6 17 -7 14 C-6.06846465 12.56942785 -5.1274295 11.14353997 -4.125 9.76171875 C-2.1826329 6.72002582 -1.17277883 3.4010586 0 0 Z " fill="#087769" transform="translate(114,118)"/>
<path d="M0 0 C1.18771723 3.42943519 0.80226223 5.37784675 -0.4375 8.75 C-0.72496094 9.54921875 -1.01242187 10.3484375 -1.30859375 11.171875 C-1.53675781 11.77515625 -1.76492188 12.3784375 -2 13 C-4.3125 12.8125 -4.3125 12.8125 -7 12 C-8.8125 9.4375 -8.8125 9.4375 -10 7 C-7.525 7.495 -7.525 7.495 -5 8 C-5 8.66 -5 9.32 -5 10 C-4.34 10 -3.68 10 -3 10 C-2.67 7.69 -2.34 5.38 -2 3 C-1.34 3 -0.68 3 0 3 C0 2.01 0 1.02 0 0 Z " fill="#5BA096" transform="translate(327,42)"/>
<path d="M0 0 C-0.99 0.495 -0.99 0.495 -2 1 C-2 1.66 -2 2.32 -2 3 C-2.60328125 3.03738281 -3.2065625 3.07476562 -3.828125 3.11328125 C-9.99367772 3.56253341 -9.99367772 3.56253341 -15 7 C-15.33 5.35 -15.66 3.7 -16 2 C-10.60539047 -0.27141454 -5.73842251 -0.20413361 0 0 Z " fill="#D0E6E3" transform="translate(90,84)"/>
<path d="M0 0 C0.9075 0.350625 1.815 0.70125 2.75 1.0625 C5.87758436 1.96468779 7.05208081 2.13381507 10 1 C10.33 1.99 10.66 2.98 11 4 C10.01 5.485 10.01 5.485 9 7 C6.0625 7.5 6.0625 7.5 3 7 C1.11400657 4.61107499 0 3.08148442 0 0 Z " fill="#49998E" transform="translate(242,98)"/>
<path d="M0 0 C0.66 0.33 1.32 0.66 2 1 C2 1.66 2 2.32 2 3 C3.65 3 5.3 3 7 3 C7.66 5.31 8.32 7.62 9 10 C8.278125 9.505 7.55625 9.01 6.8125 8.5 C3.82333406 6.90577817 2.31968475 6.64111516 -1 7 C-1.99 7.495 -1.99 7.495 -3 8 C-1.125 2.25 -1.125 2.25 0 0 Z " fill="#408B7F" transform="translate(74,108)"/>
<path d="M0 0 C0.33 0 0.66 0 1 0 C1.22859603 3.33226144 1.42912468 6.6656679 1.625 10 C1.68945312 10.93457031 1.75390625 11.86914062 1.8203125 12.83203125 C2.14780262 18.68591716 1.73282543 23.39146578 0 29 C-0.66 29 -1.32 29 -2 29 C-2.1257485 22.58682635 -2.1257485 22.58682635 -1.53125 19.8125 C-0.80192322 15.95135823 -0.63790796 12.10695413 -0.4375 8.1875 C-0.39431641 7.39923828 -0.35113281 6.61097656 -0.30664062 5.79882812 C-0.20121679 3.86605785 -0.10016906 1.93304974 0 0 Z " fill="#217E70" transform="translate(151,44)"/>
<path d="M0 0 C1.98 0.495 1.98 0.495 4 1 C3.34 5.29 2.68 9.58 2 14 C1.34 14 0.68 14 0 14 C-0.19393875 11.85473901 -0.37998676 9.70876323 -0.5625 7.5625 C-0.71912109 5.77005859 -0.71912109 5.77005859 -0.87890625 3.94140625 C-0.91886719 2.97074219 -0.95882812 2.00007813 -1 1 C-0.67 0.67 -0.34 0.34 0 0 Z " fill="#02715F" transform="translate(112,103)"/>
<path d="M0 0 C0.66 0 1.32 0 2 0 C2 0.66 2 1.32 2 2 C2.66 2 3.32 2 4 2 C4 5.3 4 8.6 4 12 C1.23100861 9.49897552 -0.64323185 7.80552696 -1 4 C-0.5625 1.75 -0.5625 1.75 0 0 Z " fill="#0A7666" transform="translate(108,67)"/>
<path d="M0 0 C1.45742463 -0.08096803 2.91612807 -0.13917774 4.375 -0.1875 C5.18710938 -0.22230469 5.99921875 -0.25710937 6.8359375 -0.29296875 C7.55007812 -0.19628906 8.26421875 -0.09960938 9 0 C9.66 0.99 10.32 1.98 11 3 C7.88401212 4.84651134 5.61754103 5.38079379 2 5 C1.34 4.34 0.68 3.68 0 3 C0 2.01 0 1.02 0 0 Z " fill="#0F7466" transform="translate(72,122)"/>
<path d="M0 0 C0.33 0.66 0.66 1.32 1 2 C0.37915039 3.78759766 0.37915039 3.78759766 -0.65234375 5.9140625 C-1.01650391 6.67460938 -1.38066406 7.43515625 -1.75585938 8.21875 C-2.14580078 9.0128125 -2.53574219 9.806875 -2.9375 10.625 C-3.32357422 11.42679688 -3.70964844 12.22859375 -4.10742188 13.0546875 C-5.06461573 15.03997846 -6.02903475 17.02141737 -7 19 C-8.09658936 15.71023192 -7.79953138 14.28696233 -7 11 C-6.34 11 -5.68 11 -5 11 C-5 9.68 -5 8.36 -5 7 C-4.34 7 -3.68 7 -3 7 C-2.814375 5.5459375 -2.814375 5.5459375 -2.625 4.0625 C-2.41875 3.051875 -2.2125 2.04125 -2 1 C-1.34 0.67 -0.68 0.34 0 0 Z " fill="#6BAAA0" transform="translate(263,77)"/>
<path d="M0 0 C2.25998595 3.59462331 2.20868087 6.56595675 2.125 10.75 C2.10695313 11.92046875 2.08890625 13.0909375 2.0703125 14.296875 C2.03550781 15.63492188 2.03550781 15.63492188 2 17 C1.34 17 0.68 17 0 17 C-0.77313045 11.0885256 -1.14819277 5.8685408 0 0 Z " fill="#4D958A" transform="translate(121,93)"/>
<path d="M0 0 C2 3 2 3 2 6 C2.66 6 3.32 6 4 6 C5.66666667 9.33333333 7.33333333 12.66666667 9 16 C4.74814503 14.48148037 3.09571311 11.90236234 1 8 C0.41203384 5.29827122 0.19118252 2.77214651 0 0 Z " fill="#75B0A7" transform="translate(30,122)"/>
<path d="M0 0 C1.21236328 0.04060547 1.21236328 0.04060547 2.44921875 0.08203125 C3.06410156 0.11683594 3.67898437 0.15164062 4.3125 0.1875 C4.3125 0.8475 4.3125 1.5075 4.3125 2.1875 C3.03375 2.31125 1.755 2.435 0.4375 2.5625 C-3.03540936 2.87792399 -3.03540936 2.87792399 -5.6875 5.1875 C-6.33517793 7.75811311 -6.33517793 7.75811311 -6.6875 10.1875 C-7.0175 10.1875 -7.3475 10.1875 -7.6875 10.1875 C-8.05443548 3.70497312 -8.05443548 3.70497312 -6.46875 1.46875 C-4.16661524 -0.1871715 -2.80531917 -0.1219704 0 0 Z " fill="#0F6E5D" transform="translate(83.6875,86.8125)"/>
<path d="M0 0 C-0.99 0.495 -0.99 0.495 -2 1 C-1.34 1.33 -0.68 1.66 0 2 C-0.3125 3.875 -0.3125 3.875 -1 6 C-1.99 6.66 -2.98 7.32 -4 8 C-4.33 7.34 -4.66 6.68 -5 6 C-4.01 5.34 -3.02 4.68 -2 4 C-4.31 3.67 -6.62 3.34 -9 3 C-5.83583464 -0.30799106 -4.50236011 -1.35070803 0 0 Z " fill="#CBE5E1" transform="translate(55,57)"/>
<path d="M0 0 C7.92 3.96 7.92 3.96 16 8 C15.01 8.495 15.01 8.495 14 9 C11.99074195 8.01873444 9.99242489 7.0150089 8 6 C5.68328955 5.22931075 3.36526447 4.61496876 1 4 C0.67 2.68 0.34 1.36 0 0 Z " fill="#74B1A8" transform="translate(344,58)"/>
<path d="M0 0 C3.63 0 7.26 0 11 0 C9 2 9 2 5.375 2.125 C4.26125 2.08375 3.1475 2.0425 2 2 C2 2.66 2 3.32 2 4 C1.34 4 0.68 4 0 4 C-0.33 4.99 -0.66 5.98 -1 7 C-1.33 6.34 -1.66 5.68 -2 5 C-1.34 3.35 -0.68 1.7 0 0 Z " fill="#6CAAA0" transform="translate(272,39)"/>
<path d="M0 0 C1.65 0 3.3 0 5 0 C5.99 1.98 6.98 3.96 8 6 C5.03 5.505 5.03 5.505 2 5 C3 2 3 2 4 1 C3.01 1 2.02 1 1 1 C0.67 2.65 0.34 4.3 0 6 C-1.125 2.25 -1.125 2.25 0 0 Z " fill="#66AAA1" transform="translate(290,88)"/>
<path d="M0 0 C1.37432457 3.81756824 0.67975039 7.07255329 0 11 C-1.65 11.33 -3.3 11.66 -5 12 C-3.68938409 7.76570244 -2.05643741 3.92592596 0 0 Z " fill="#6AABA4" transform="translate(263,58)"/>
<path d="M0 0 C0.66 0 1.32 0 2 0 C2.33 1.65 2.66 3.3 3 5 C2.01 5 1.02 5 0 5 C0 7.97 0 10.94 0 14 C-0.33 14 -0.66 14 -1 14 C-1.02685938 11.85423363 -1.04633088 9.70837355 -1.0625 7.5625 C-1.07410156 6.36753906 -1.08570312 5.17257813 -1.09765625 3.94140625 C-1 1 -1 1 0 0 Z " fill="#409085" transform="translate(100,99)"/>
<path d="M0 0 C0 0.66 0 1.32 0 2 C1.65 2.33 3.3 2.66 5 3 C4.67 3.66 4.34 4.32 4 5 C3.34 5 2.68 5 2 5 C2 5.66 2 6.32 2 7 C1.01 7 0.02 7 -1 7 C-1.12375 6.195625 -1.2475 5.39125 -1.375 4.5625 C-1.684375 3.2940625 -1.684375 3.2940625 -2 2 C-2.66 1.67 -3.32 1.34 -4 1 C-2 0 -2 0 0 0 Z " fill="#C4DFDD" transform="translate(83,125)"/>
<path d="M0 0 C0.33 0 0.66 0 1 0 C0.67 4.29 0.34 8.58 0 13 C-0.99 13.33 -1.98 13.66 -3 14 C-2.80083984 13.11248047 -2.80083984 13.11248047 -2.59765625 12.20703125 C-1.68994822 8.14553475 -0.7908887 4.08625829 0 0 Z " fill="#298476" transform="translate(144,92)"/>
<path d="M0 0 C1.96446905 1.6344795 2.92317791 2.46429394 3.29296875 5.04296875 C3.1953125 7.02864583 3.09765625 9.01432292 3 11 C1.35 11.33 -0.3 11.66 -2 12 C-1.34 11.01 -0.68 10.02 0 9 C0.24107326 6.71351152 0.24107326 6.71351152 0.125 4.3125 C0.10695313 3.50425781 0.08890625 2.69601563 0.0703125 1.86328125 C0.04710937 1.24839844 0.02390625 0.63351563 0 0 Z " fill="#7AB4AD" transform="translate(314,84)"/>
<path d="M0 0 C3.75915495 2.5061033 3.72563254 3.81949803 4.6875 8.125 C4.93886719 9.22070312 5.19023437 10.31640625 5.44921875 11.4453125 C5.63097656 12.28835937 5.81273437 13.13140625 6 14 C5.01 14.495 5.01 14.495 4 15 C3.67 12.03 3.34 9.06 3 6 C2.34 6 1.68 6 1 6 C0.67 4.02 0.34 2.04 0 0 Z " fill="#7CB5AE" transform="translate(329,74)"/>
<path d="M0 0 C3.08669204 3.08669204 3.44855089 3.91927658 4 8 C2.02 8.33 0.04 8.66 -2 9 C-1.34 6.03 -0.68 3.06 0 0 Z " fill="#228374" transform="translate(112,96)"/>
<path d="M0 0 C0.66 0.33 1.32 0.66 2 1 C-0.51407619 5.28324091 -2.12314139 7.64531705 -7 9 C-5.44499019 5.18315774 -2.96404505 2.80804268 0 0 Z " fill="#59A498" transform="translate(337,41)"/>
<path d="M0 0 C0.598125 0.474375 1.19625 0.94875 1.8125 1.4375 C6.40006225 3.68630502 10.95027297 3.743534 16 4 C16 4.33 16 4.66 16 5 C11.38 5 6.76 5 2 5 C1.34 3.35 0.68 1.7 0 0 Z " fill="#87BDB6" transform="translate(337,92)"/>
<path d="M0 0 C1 2 1 2 0.9375 4.9375 C0.72907405 8.17601934 0.72907405 8.17601934 3 11 C0.5625 10.1875 0.5625 10.1875 -2 9 C-3 6 -3 6 -1.5625 2.8125 C-1.046875 1.884375 -0.53125 0.95625 0 0 Z " fill="#81BCB3" transform="translate(303,49)"/>
<path d="M0 0 C0.66 0.33 1.32 0.66 2 1 C2 1.99 2 2.98 2 4 C-1 6.1875 -1 6.1875 -4 8 C-4 4 -4 4 -2 1.75 C-1.01 0.88375 -1.01 0.88375 0 0 Z " fill="#4F9B91" transform="translate(295,42)"/>
<path d="M0 0 C1 2 1 2 0.58203125 3.91015625 C0.32808594 4.62042969 0.07414062 5.33070312 -0.1875 6.0625 C-0.54908203 7.13177734 -0.54908203 7.13177734 -0.91796875 8.22265625 C-2 10 -2 10 -6 11 C-4.02 7.37 -2.04 3.74 0 0 Z " fill="#77B3AB" transform="translate(257,71)"/>
<path d="M0 0 C4.35535069 1.16142685 6.64619703 2.07699505 9 6 C5.33118845 5.29445932 2.29549466 3.72264494 -1 2 C-0.67 1.34 -0.34 0.68 0 0 Z " fill="#64A69D" transform="translate(340,75)"/>
<path d="M0 0 C0.33 0 0.66 0 1 0 C1.2493357 1.60115576 1.47378648 3.20620159 1.6875 4.8125 C1.87892578 6.15248047 1.87892578 6.15248047 2.07421875 7.51953125 C2 10 2 10 0.51953125 11.82421875 C-0.23263672 12.40623047 -0.23263672 12.40623047 -1 13 C-1.07654536 8.48382401 -1.10228696 4.40914783 0 0 Z " fill="#7AB5AE" transform="translate(216,67)"/>
<path d="M0 0 C0.66 0.33 1.32 0.66 2 1 C2 3.31 2 5.62 2 8 C0.68 7.67 -0.64 7.34 -2 7 C-1.01 7 -0.02 7 1 7 C1 6.34 1 5.68 1 5 C0.01 5 -0.98 5 -2 5 C-1.34 3.35 -0.68 1.7 0 0 Z " fill="#2C8C7F" transform="translate(364,47)"/>
<path d="M0 0 C1.32 0.33 2.64 0.66 4 1 C3.67 3.64 3.34 6.28 3 9 C0.23776722 6.23776722 0.42143709 3.79293383 0 0 Z " fill="#05786B" transform="translate(112,103)"/>
<path d="M0 0 C2.64465038 3.1254959 3.84414715 6.08788267 5 10 C2 9 2 9 0.8125 7.25 C-0.10819096 4.70039426 -0.14948718 2.69076919 0 0 Z " fill="#529C8F" transform="translate(244,67)"/>
<path d="M0 0 C0.7734375 0.61875 0.7734375 0.61875 1.5625 1.25 C0.29642393 1.78229326 -0.97560412 2.30044544 -2.25 2.8125 C-2.95769531 3.10253906 -3.66539063 3.39257812 -4.39453125 3.69140625 C-6.4375 4.25 -6.4375 4.25 -9.4375 3.25 C-3.0375 -0.93461538 -3.0375 -0.93461538 0 0 Z " fill="#498B81" transform="translate(79.4375,59.75)"/>
<path d="M0 0 C0.8125 1.6875 0.8125 1.6875 1 4 C-1.4375 6.75 -1.4375 6.75 -4 9 C-4.66 8.67 -5.32 8.34 -6 8 C-4.73046875 6.50260417 -3.4609375 5.00520833 -2.19140625 3.5078125 C-0.9121848 1.99405921 -0.9121848 1.99405921 0 0 Z " fill="#1F7B6B" transform="translate(109,125)"/>
<path d="M0 0 C2.38672669 2.96283313 4.7353371 5.94270509 7 9 C6.01 9.495 6.01 9.495 5 10 C0 4.5 0 4.5 0 0 Z " fill="#1A756A" transform="translate(57,121)"/>
<path d="M0 0 C0.66 0 1.32 0 2 0 C2 2.64 2 5.28 2 8 C1.34 7.67 0.68 7.34 0 7 C-0.6875 4 -0.6875 4 -1 1 C-0.67 0.67 -0.34 0.34 0 0 Z " fill="#066F5E" transform="translate(119,92)"/>
<path d="M0 0 C0.33 1.32 0.66 2.64 1 4 C2.65 4 4.3 4 6 4 C3.61426621 5.89213369 1.92824652 7.02391783 -1 8 C-0.67 5.36 -0.34 2.72 0 0 Z " fill="#117263" transform="translate(76,79)"/>
<path d="M0 0 C0.66 0.99 1.32 1.98 2 3 C-1 5 -1 5 -4 5 C-4.99 5.495 -4.99 5.495 -6 6 C-4.95125002 3.37812506 -4.35068687 2.20628639 -1.875 0.75 C-1.25625 0.5025 -0.6375 0.255 0 0 Z " fill="#338A7D" transform="translate(39,20)"/>
<path d="M0 0 C2.97 0.495 2.97 0.495 6 1 C5.01 1.33 4.02 1.66 3 2 C3 2.66 3 3.32 3 4 C4.32 4.33 5.64 4.66 7 5 C4.625 5.125 4.625 5.125 2 5 C1.34 4.34 0.68 3.68 0 3 C0 2.01 0 1.02 0 0 Z " fill="#428E80" transform="translate(72,122)"/>
<path d="M0 0 C2.31 0 4.62 0 7 0 C7 0.66 7 1.32 7 2 C5.02 2.99 5.02 2.99 3 4 C2.01 2.68 1.02 1.36 0 0 Z " fill="#0C6F61" transform="translate(45,61)"/>
<path d="M0 0 C0 3 0 3 -2.5 5.6875 C-3.325 6.450625 -4.15 7.21375 -5 8 C-4.64950425 4.75791433 -4.43778819 3.38472296 -1.9375 1.1875 C-1.298125 0.795625 -0.65875 0.40375 0 0 Z " fill="#297D6D" transform="translate(116,44)"/>
<path d="M0 0 C0 1.65 0 3.3 0 5 C-0.99 5 -1.98 5 -3 5 C-3.66 4.34 -4.32 3.68 -5 3 C-1.125 0 -1.125 0 0 0 Z " fill="#077367" transform="translate(300,41)"/>
</svg>
