<?xml version="1.0" encoding="UTF-8"?>
<svg version="1.1" xmlns="http://www.w3.org/2000/svg" width="400" height="150">
<path d="M0 0 C3.15146118 2.16788413 6.06404922 4.55337435 9 7 C9.99 7.66 10.98 8.32 12 9 C12.24363281 8.40445313 12.48726563 7.80890625 12.73828125 7.1953125 C15.54068594 2.31930186 21.31993747 -0.31553008 26.375 -2.375 C35.41109269 -3.93294702 43.8648229 -3.63756911 52 1 C58.63731707 7.23907804 60.30606911 14.70286048 60.6875 23.5625 C60.74828735 24.85837036 60.74828735 24.85837036 60.81030273 26.18041992 C61.36847867 41.7686321 60.53781674 57.41986288 60 73 C51.42 73 42.84 73 34 73 C33.38605094 65.99698754 32.92618095 59.04078404 32.82421875 52.01171875 C32.81230499 51.33174835 32.80039124 50.65177795 32.78811646 49.95120239 C32.73944988 47.15453735 32.69173654 44.35833676 32.67407227 41.5612793 C32.61381739 33.5195703 32.48841542 26.92523976 28 20 C26.1128125 19.9690625 26.1128125 19.9690625 24.1875 19.9375 C23.12595703 19.92009766 23.12595703 19.92009766 22.04296875 19.90234375 C19.79694539 19.91736783 19.79694539 19.91736783 17 21 C13.26652085 26.31302803 12.87316191 30.63671749 12.71875 37.0390625 C12.70034058 37.71995941 12.68193115 38.40085632 12.66296387 39.10238647 C12.60443979 41.27650627 12.55161958 43.45070606 12.5 45.625 C12.44812971 47.77785937 12.3948204 49.93063427 12.33703613 52.08334351 C12.28424441 54.05237673 12.2366912 56.02154837 12.18945312 57.99072266 C11.96824271 62.67205964 11.46633021 67.33669793 11 72 C2.75 72 -5.5 72 -14 72 C-14.57170409 64.75997694 -15.05352933 57.57662669 -15.2109375 50.31640625 C-15.23929688 49.03958984 -15.26765625 47.76277344 -15.296875 46.44726562 C-15.34950512 43.83023288 -15.3936044 41.21301631 -15.4296875 38.59570312 C-15.55639234 29.35992118 -15.55639234 29.35992118 -19 21 C-21.67113464 20.10962179 -23.65825292 19.71716299 -26.4375 19.5625 C-27.58025391 19.47162109 -27.58025391 19.47162109 -28.74609375 19.37890625 C-31.27171392 19.84685114 -31.27171392 19.84685114 -33.10498047 22.48657227 C-35.45468147 26.84299421 -35.58585357 29.97688067 -35.57421875 34.8359375 C-35.59546562 36.09321152 -35.59546562 36.09321152 -35.61714172 37.37588501 C-35.6588664 40.04238789 -35.67423363 42.70821764 -35.6875 45.375 C-35.71672069 48.03432459 -35.751474 50.69348608 -35.78999329 53.35269165 C-35.81216921 55.00217297 -35.82817481 56.65175345 -35.83683777 58.30136108 C-35.84738945 59.44261948 -35.84738945 59.44261948 -35.8581543 60.60693359 C-35.86337349 61.59238663 -35.86337349 61.59238663 -35.86869812 62.5977478 C-36.059053 66.08041249 -36.56738384 69.53907071 -37 73 C-45.58 73 -54.16 73 -63 73 C-63 48.91 -63 24.82 -63 0 C-54.42 0 -45.84 0 -37 0 C-36.34 1.65 -35.68 3.3 -35 5 C-34.41992188 4.59007813 -33.83984375 4.18015625 -33.2421875 3.7578125 C-22.91265606 -3.36717783 -11.7268109 -5.98815876 0 0 Z " fill="#2897BF" transform="translate(63,60)"/>
<path d="M0 0 C8.25 0 16.5 0 25 0 C26.125 10.125 26.125 10.125 26.11352539 13.78540039 C26.11344986 14.60557144 26.11337433 15.42574249 26.11329651 16.27076721 C26.10813522 17.12114059 26.10297394 17.97151398 26.09765625 18.84765625 C26.0962413 19.74495956 26.09482635 20.64226288 26.09336853 21.5667572 C26.0878251 24.39870714 26.07528358 27.23057445 26.0625 30.0625 C26.05747767 31.99674364 26.05291606 33.93098853 26.04882812 35.86523438 C26.03787429 40.57685417 26.02064953 45.28841313 26 50 C26.60473145 49.58282715 27.20946289 49.1656543 27.83251953 48.73583984 C28.63286621 48.19137207 29.43321289 47.6469043 30.2578125 47.0859375 C31.44334717 46.27455322 31.44334717 46.27455322 32.65283203 45.44677734 C39.73719445 41.08002764 48.72036323 40.95926585 56.71484375 42.53515625 C66.56085097 45.24465899 74.25181009 51.219854 79.80859375 59.7890625 C85.71199195 70.29343052 87.01698456 82.68278129 83.875 94.4375 C80.37309088 104.11638771 73.59674616 112.35969032 64.55078125 117.3515625 C55.50620941 121.29880107 46.4289977 122.04353723 37 119 C33.78952206 117.62684377 30.70326808 116.22911855 28 114 C27.25390625 111.8359375 27.25390625 111.8359375 27 110 C26.34 110 25.68 110 25 110 C25 112.31 25 114.62 25 117 C16.75 117 8.5 117 0 117 C0 78.39 0 39.78 0 0 Z M27.6875 70.5625 C24.08232117 75.76998053 24.55417604 80.80709989 25 87 C26.62162191 91.77951721 28.83605147 94.18933474 33 97 C38.62400073 98.87466691 43.97523456 98.79517595 49.375 96.25 C53.54983117 93.88094898 55.32008622 91.61032212 57.1875 87.1875 C58.41068193 82.38886319 58.57118944 78.64636957 56.9375 73.9375 C54.40819997 70.10275479 52.14969134 67.11852663 48 65 C40.08546143 63.69505597 33.23692924 64.41313247 27.6875 70.5625 Z " fill="#2796BD" transform="translate(228,15)"/>
<path d="M0 0 C0.94875 0.598125 1.8975 1.19625 2.875 1.8125 C3.535 0.4925 4.195 -0.8275 4.875 -2.1875 C13.455 -2.1875 22.035 -2.1875 30.875 -2.1875 C30.875 21.9025 30.875 45.9925 30.875 70.8125 C22.295 70.8125 13.715 70.8125 4.875 70.8125 C4.215 69.1625 3.555 67.5125 2.875 65.8125 C1.823125 66.59625 0.77125 67.38 -0.3125 68.1875 C-7.85745942 73.55078441 -16.36229815 74.93774157 -25.47265625 73.421875 C-34.40609058 71.21329219 -42.24910424 65.98600179 -47.5625 58.4375 C-51.58115374 51.70102841 -54.54154385 44.68915801 -55.125 36.8125 C-55.228125 35.61625 -55.33125 34.42 -55.4375 33.1875 C-55.19907713 20.88487987 -49.00899396 10.28841219 -40.375 1.9375 C-28.44541127 -7.7854596 -12.98811642 -7.32863597 0 0 Z M-23.125 21.8125 C-26.77071688 26.60949589 -27.77773631 30.29499936 -27.51171875 36.3125 C-26.70285193 41.541538 -24.82380107 45.49592917 -20.625 48.75 C-15.59427751 50.88805706 -10.54871362 51.73719872 -5.125 50.8125 C-0.55005939 48.59626579 2.25877938 45.8331154 4.875 41.5 C6.45757917 35.66423931 7.00392759 31.07035517 4.25 25.5625 C3.46625 24.655 2.6825 23.7475 1.875 22.8125 C1.070625 21.86375 0.26625 20.915 -0.5625 19.9375 C-4.54860061 16.78735911 -9.1921675 17.1880573 -14.05859375 17.3984375 C-18.10757018 17.94517827 -20.22881336 18.91631336 -23.125 21.8125 Z " fill="#2897BE" transform="translate(185.125,62.1875)"/>
<path d="M0 0 C7.22410927 6.08105401 11.99896623 13.27894383 14.625 22.3125 C14.625 27.2625 14.625 32.2125 14.625 37.3125 C-3.195 37.3125 -21.015 37.3125 -39.375 37.3125 C-38.54078396 44.45198571 -38.54078396 44.45198571 -34.375 49.3125 C-29.77809672 52.34227716 -25.74503632 53.11800545 -20.375 52.3125 C-17.33463692 51.08466106 -15.02252839 49.87739292 -12.55566406 47.7253418 C-9.76935138 45.92010316 -8.03412841 45.96687561 -4.734375 46.01953125 C-3.12949219 46.0340332 -3.12949219 46.0340332 -1.4921875 46.04882812 C-0.38101563 46.07396484 0.73015625 46.09910156 1.875 46.125 C3.56496094 46.14530273 3.56496094 46.14530273 5.2890625 46.16601562 C8.06819264 46.20134355 10.84635363 46.2506748 13.625 46.3125 C13.18936834 47.7369644 12.74328577 49.15823474 12.29296875 50.578125 C12.04571045 51.36993164 11.79845215 52.16173828 11.54370117 52.97753906 C8.878005 59.75264355 3.04228999 64.2497025 -3.375 67.3125 C-6.687522 68.4908114 -9.96950073 69.41382658 -13.375 70.3125 C-6.445 70.8075 -6.445 70.8075 0.625 71.3125 C0.625 71.6425 0.625 71.9725 0.625 72.3125 C-3.7674818 72.36238404 -8.15980824 72.39844581 -12.55249023 72.42236328 C-14.0430794 72.4323467 -15.53364936 72.44593822 -17.02416992 72.46337891 C-32.33198297 72.63785616 -45.09337173 70.71729705 -56.87890625 59.94921875 C-64.61087276 51.49048777 -66.7675818 41.80823119 -66.65625 30.60546875 C-65.77199235 20.25228541 -61.85672816 10.25414167 -54.1875 3.125 C-39.10208273 -8.91053943 -16.28045317 -11.21820094 0 0 Z M-35.375 14.3125 C-37.83725016 17.40495003 -37.83725016 17.40495003 -37.375 22.3125 C-28.135 22.3125 -18.895 22.3125 -9.375 22.3125 C-10.75328262 16.79936954 -13.72829299 14.41030467 -18.375 11.3125 C-24.54289582 10.56693018 -30.13515947 10.68491809 -35.375 14.3125 Z " fill="#2C99BE" transform="translate(385.375,63.6875)"/>
<path d="M0 0 C2 2 2 2 2.22705078 5.62353516 C2.22673357 7.17874689 2.21540299 8.73398051 2.1953125 10.2890625 C2.1924826 11.10748627 2.18965271 11.92591003 2.18673706 12.76913452 C2.17552532 15.38790393 2.15041929 18.00633364 2.125 20.625 C2.11497147 22.39843257 2.1058454 24.17187049 2.09765625 25.9453125 C2.07558278 30.29700626 2.04104644 34.6484455 2 39 C1.67 39 1.34 39 1 39 C0.67 35.7 0.34 32.4 0 29 C-0.33 29 -0.66 29 -1 29 C-1.02465881 25.03069011 -1.04284023 21.06140966 -1.05493164 17.09204102 C-1.05997057 15.74079614 -1.06680177 14.38955674 -1.07543945 13.03833008 C-1.08752419 11.09979566 -1.09269828 9.161222 -1.09765625 7.22265625 C-1.10289307 6.05484619 -1.10812988 4.88703613 -1.11352539 3.68383789 C-1 1 -1 1 0 0 Z " fill="#62B3D0" transform="translate(25,86)"/>
<path d="M0 0 C0.33 0 0.66 0 1 0 C1 6.93 1 13.86 1 21 C-7.58 21 -16.16 21 -25 21 C-25 20.34 -25 19.68 -25 19 C-17.08 19 -9.16 19 -1 19 C-1.03945685 13.86945301 -1.03945685 13.86945301 -1.09008789 8.73901367 C-1.10246624 5.55618187 -1.01314559 3.03943678 0 0 Z " fill="#42A4C7" transform="translate(25,112)"/>
<path d="M0 0 C0.88429687 -0.01417969 1.76859375 -0.02835938 2.6796875 -0.04296875 C5.125 0.1875 5.125 0.1875 8.125 2.1875 C2.53883495 5.91161003 -4.66422621 6.01384639 -11.1640625 4.73828125 C-13.07814565 4.26145135 -14.97831485 3.72941004 -16.875 3.1875 C-14.28421479 2.50119928 -11.86276574 2.0502479 -9.1875 1.6875 C-5.57740814 1.14258047 -3.80368223 0.02756291 0 0 Z " fill="#319BC2" transform="translate(170.875,130.8125)"/>
<path d="M0 0 C7.31110994 -0.3689719 13.21256822 0.18447274 20 3 C19.01 3.495 19.01 3.495 18 4 C18 4.66 18 5.32 18 6 C17.01 5.67 16.02 5.34 15 5 C15 4.01 15 3.02 15 2 C14.01 2.495 14.01 2.495 13 3 C13.33 3.66 13.66 4.32 14 5 C11.36 5 8.72 5 6 5 C6.33 3.68 6.66 2.36 7 1 C4.69 1 2.38 1 0 1 C0 0.67 0 0.34 0 0 Z " fill="#4AA7CA" transform="translate(43,57)"/>
<path d="M0 0 C0.33 0.99 0.66 1.98 1 3 C3.01508358 3.73323796 3.01508358 3.73323796 5 4 C1.25 6 1.25 6 -1 6 C-1 7.65 -1 9.3 -1 11 C-1.99 11 -2.98 11 -4 11 C-4.99 11.33 -5.98 11.66 -7 12 C-5.44298069 7.32894208 -2.91552627 3.91294315 0 0 Z " fill="#48A6C8" transform="translate(141,68)"/>
<path d="M0 0 C1.32 0 2.64 0 4 0 C4 0.66 4 1.32 4 2 C6.31 2 8.62 2 11 2 C11 2.33 11 2.66 11 3 C9.9275 3.226875 8.855 3.45375 7.75 3.6875 C3.62781299 5.13026545 2.35585477 6.41910075 0 10 C-2.21538462 4.58461538 -2.21538462 4.58461538 -1.125 1.625 C-0.75375 1.08875 -0.3825 0.5525 0 0 Z " fill="#399EC5" transform="translate(27,76)"/>
<path d="M0 0 C0 0.33 0 0.66 0 1 C-3.3 1 -6.6 1 -10 1 C-10 2.32 -10 3.64 -10 5 C-12.25 5.75 -12.25 5.75 -15 6 C-17.3125 4.0625 -17.3125 4.0625 -19 2 C-12.53991163 0.04978464 -6.7281627 -0.22262303 0 0 Z " fill="#59B0CD" transform="translate(282,57)"/>
<path d="M0 0 C7.92 0 15.84 0 24 0 C23.34 1.98 22.68 3.96 22 6 C21.34 5.34 20.68 4.68 20 4 C20 3.01 20 2.02 20 1 C13.4 1 6.8 1 0 1 C0 0.67 0 0.34 0 0 Z " fill="#56AECB" transform="translate(375,110)"/>
<path d="M0 0 C-0.598125 0.28875 -1.19625 0.5775 -1.8125 0.875 C-4.19327792 2.04742026 -4.19327792 2.04742026 -7 4 C-7.66 4 -8.32 4 -9 4 C-9.33 4.99 -9.66 5.98 -10 7 C-10.33 6.34 -10.66 5.68 -11 5 C-12.32 5.33 -13.64 5.66 -15 6 C-11.29673879 1.70421699 -5.8141716 -2.5582355 0 0 Z " fill="#4FA9CA" transform="translate(160,59)"/>
<path d="M0 0 C3.63 0.33 7.26 0.66 11 1 C9.515 2.485 9.515 2.485 8 4 C8 4.33 8 4.66 8 5 C5.36 5 2.72 5 0 5 C0 3.33333333 0 1.66666667 0 0 Z " fill="#3FA1C5" transform="translate(168,112)"/>
<path d="M0 0 C0.68835938 0.59748047 0.68835938 0.59748047 1.390625 1.20703125 C4.52271585 3.91142062 7.63877459 6.57991771 11 9 C9.68 9.33 8.36 9.66 7 10 C7 9.34 7 8.68 7 8 C6.01 8.33 5.02 8.66 4 9 C0 2.25 0 2.25 0 0 Z " fill="#52ACC6" transform="translate(346,108)"/>
<path d="M0 0 C-1.32 0.33 -2.64 0.66 -4 1 C-4 1.66 -4 2.32 -4 3 C-6.97411124 4.23921302 -9.85262818 5.30058404 -13 6 C-5.46629213 -1.95224719 -5.46629213 -1.95224719 0 0 Z " fill="#4CA9CA" transform="translate(43,59)"/>
<path d="M0 0 C1.9375 0.75 1.9375 0.75 4 2 C4.75 4.125 4.75 4.125 5 6 C4.01 6.495 4.01 6.495 3 7 C1.02 5.68 -0.96 4.36 -3 3 C-2.01 2.67 -1.02 2.34 0 2 C0 1.34 0 0.68 0 0 Z " fill="#3C9FC4" transform="translate(146,124)"/>
<path d="M0 0 C5.5952381 0.5952381 5.5952381 0.5952381 8 3 C7.34 3 6.68 3 6 3 C6 3.66 6 4.32 6 5 C3.03 4.505 3.03 4.505 0 4 C-0.33 3.01 -0.66 2.02 -1 1 C-0.67 0.67 -0.34 0.34 0 0 Z " fill="#41A2C5" transform="translate(173,58)"/>
<path d="M0 0 C2 2 2 2 2.375 4.9375 C2 8 2 8 0 9.875 C-0.99 10.431875 -0.99 10.431875 -2 11 C-1.125 3.375 -1.125 3.375 0 0 Z " fill="#40A3C5" transform="translate(322,80)"/>
<path d="M0 0 C-0.33 0.66 -0.66 1.32 -1 2 C1.31 2 3.62 2 6 2 C6 2.33 6 2.66 6 3 C0.21101581 3.20674944 -4.42932723 2.59162079 -10 1 C-9.401875 0.855625 -8.80375 0.71125 -8.1875 0.5625 C-2.61290323 -0.87096774 -2.61290323 -0.87096774 0 0 Z " fill="#71BAD4" transform="translate(164,133)"/>
<path d="M0 0 C1.98 0.66 3.96 1.32 6 2 C4.35 3.65 2.7 5.3 1 7 C0.34 6.34 -0.32 5.68 -1 5 C-0.625 2.375 -0.625 2.375 0 0 Z " fill="#43A4C6" transform="translate(386,121)"/>
<path d="M0 0 C1.125 1.6875 1.125 1.6875 2 4 C1.125 6.75 1.125 6.75 0 9 C-1.5 7.6875 -1.5 7.6875 -3 6 C-3 5.01 -3 4.02 -3 3 C-2.01 3 -1.02 3 0 3 C0 2.01 0 1.02 0 0 Z " fill="#40A3C6" transform="translate(325,108)"/>
<path d="M0 0 C1.32 0.99 2.64 1.98 4 3 C3.67 3.66 3.34 4.32 3 5 C3.99 5 4.98 5 6 5 C6 5.66 6 6.32 6 7 C5.34 7 4.68 7 4 7 C3.67 7.99 3.34 8.98 3 10 C1.11608215 6.73454239 0.50712033 3.71888239 0 0 Z " fill="#359DC5" transform="translate(184,62)"/>
<path d="M0 0 C4.67692308 1.47692308 4.67692308 1.47692308 6.3125 4.125 C6.539375 4.74375 6.76625 5.3625 7 6 C5.35 5.67 3.7 5.34 2 5 C2 4.34 2 3.68 2 3 C1.34 3 0.68 3 0 3 C0 2.01 0 1.02 0 0 Z " fill="#4CA9CB" transform="translate(111,60)"/>
<path d="M0 0 C1.65 0.33 3.3 0.66 5 1 C4.814375 1.61875 4.62875 2.2375 4.4375 2.875 C3.76313824 5.04160178 3.76313824 5.04160178 5 7 C4.34 7.66 3.68 8.32 3 9 C0 3.375 0 3.375 0 0 Z " fill="#50ABCA" transform="translate(282,83)"/>
<path d="M0 0 C0.99 0.33 1.98 0.66 3 1 C2.67 2.98 2.34 4.96 2 7 C0.62437146 5.71034824 -0.70766393 4.37310707 -2 3 C-2 2.34 -2 1.68 -2 1 C-1.34 0.67 -0.68 0.34 0 0 Z " fill="#3CA1C4" transform="translate(138,115)"/>
<path d="M0 0 C0.66 1.32 1.32 2.64 2 4 C1.01 3.67 0.02 3.34 -1 3 C-1.33 4.65 -1.66 6.3 -2 8 C-2.66 7.67 -3.32 7.34 -4 7 C-3.43628586 3.73045798 -2.50037734 2.17424117 0 0 Z " fill="#399FC5" transform="translate(309,79)"/>
<path d="M0 0 C0.33 0.66 0.66 1.32 1 2 C3.31 2 5.62 2 8 2 C8 2.33 8 2.66 8 3 C6.88625 3.309375 5.7725 3.61875 4.625 3.9375 C1.2054845 4.82326483 1.2054845 4.82326483 -1 6 C-1.33 4.35 -1.66 2.7 -2 1 C-1.34 0.67 -0.68 0.34 0 0 Z " fill="#43A5C7" transform="translate(30,76)"/>
<path d="M0 0 C2.475 0.495 2.475 0.495 5 1 C5 2.98 5 4.96 5 7 C4.34 5.68 3.68 4.36 3 3 C2.01 3.66 1.02 4.32 0 5 C0 3.35 0 1.7 0 0 Z " fill="#5EB2CF" transform="translate(185,125)"/>
<path d="M0 0 C0.33 0.66 0.66 1.32 1 2 C1.66 2 2.32 2 3 2 C3 2.99 3 3.98 3 5 C1.68 4.67 0.36 4.34 -1 4 C-1 4.66 -1 5.32 -1 6 C-2.32 5.67 -3.64 5.34 -5 5 C-3.35 3.35 -1.7 1.7 0 0 Z " fill="#3EA4C5" transform="translate(283,105)"/>
<path d="M0 0 C0.99 0.33 1.98 0.66 3 1 C3 1.66 3 2.32 3 3 C4.45833358 4.62514468 4.45833358 4.62514468 6 6 C5.34 6.66 4.68 7.32 4 8 C2.35 5.69 0.7 3.38 -1 1 C-0.67 0.67 -0.34 0.34 0 0 Z " fill="#5EB0CE" transform="translate(185,81)"/>
<path d="M0 0 C1.3921875 0.3403125 1.3921875 0.3403125 2.8125 0.6875 C0.8125 2.6875 0.8125 2.6875 -2.8125 2.8125 C-3.92625 2.77125 -5.04 2.73 -6.1875 2.6875 C-4.14987265 -0.14253799 -3.59070275 -0.35202968 0 0 Z " fill="#42A2C5" transform="translate(375.1875,59.3125)"/>
<path d="M0 0 C0.33 0 0.66 0 1 0 C1.33 3.96 1.66 7.92 2 12 C1.34 12 0.68 12 0 12 C-1.03159626 8.90521121 -0.97482862 7.47368607 -0.5625 4.3125 C-0.46066406 3.50425781 -0.35882813 2.69601563 -0.25390625 1.86328125 C-0.17011719 1.24839844 -0.08632812 0.63351563 0 0 Z " fill="#53ACCB" transform="translate(157,92)"/>
<path d="M0 0 C-0.33 0.66 -0.66 1.32 -1 2 C-1.66 2 -2.32 2 -3 2 C-3.33 2.66 -3.66 3.32 -4 4 C-4.99 3.01 -5.98 2.02 -7 1 C-3.375 -1.125 -3.375 -1.125 0 0 Z " fill="#46A4C6" transform="translate(89,60)"/>
</svg>
