<?xml version="1.0" encoding="UTF-8"?>
<svg version="1.1" xmlns="http://www.w3.org/2000/svg" width="400" height="150">
<path d="M0 0 C10.78312818 0.21916927 21.89068943 8.92853689 29.0625 16.25 C30.13177734 17.40822266 30.13177734 17.40822266 31.22265625 18.58984375 C32.82682659 20.5444911 32.82682659 20.5444911 35 20.3125 C36.04755745 19.16673404 37.03809717 17.9685644 38 16.75 C44.52838197 9.08152638 53.45857956 3.49297348 63 0.3125 C66.5625 0.0625 66.5625 0.0625 70 0.3125 C72.3365553 3.81733294 72.25279678 5.22854935 72.25878906 9.37280273 C72.26509338 10.62097275 72.27139771 11.86914276 72.27789307 13.15513611 C72.27431288 14.51879009 72.27021082 15.88244278 72.265625 17.24609375 C72.26697242 18.64469978 72.2689136 20.04330536 72.27142334 21.44190979 C72.27437195 24.37318379 72.27008614 27.30433588 72.26074219 30.2355957 C72.24935824 33.98945309 72.2559019 37.74302415 72.26788712 41.49687099 C72.27512187 44.38538257 72.2728102 47.27382653 72.26763153 50.16234016 C72.26629895 51.54620459 72.26792903 52.9300752 72.27259064 54.31393242 C72.27768093 56.2502213 72.26854424 58.18653174 72.25878906 60.12280273 C72.25719788 61.22405991 72.25560669 62.32531708 72.25396729 63.45994568 C72.00368652 66.27109305 71.45565974 67.92570658 70 70.3125 C60.49925675 70.33562484 50.99852312 70.3534158 41.49775791 70.36431217 C37.08662996 70.36954069 32.6755212 70.37663777 28.2644043 70.38793945 C24.01098885 70.39876944 19.75759191 70.40477707 15.50416374 70.40737724 C13.87778367 70.40923129 12.25140466 70.41285152 10.62503242 70.41823006 C8.35489807 70.42544198 6.08484115 70.42649088 3.81469727 70.42602539 C1.87277245 70.42935631 1.87277245 70.42935631 -0.10838318 70.43275452 C-3 70.3125 -3 70.3125 -4 69.3125 C-4.09948193 67.20112099 -4.12799638 65.08637714 -4.12939453 62.97265625 C-4.13202301 61.97998245 -4.13202301 61.97998245 -4.13470459 60.96725464 C-4.13912217 58.7698101 -4.13618547 56.57244542 -4.1328125 54.375 C-4.13348557 52.85424789 -4.13445561 51.33349588 -4.13571167 49.81274414 C-4.13718851 46.62157164 -4.13503452 43.43042708 -4.13037109 40.23925781 C-4.1246738 36.1398547 -4.12795288 32.04051704 -4.13394356 27.94111633 C-4.13754954 24.79967756 -4.13641042 21.65825442 -4.13381577 18.51681519 C-4.1331466 17.00487256 -4.13397457 15.49292854 -4.13629532 13.98098755 C-4.13882245 11.87140113 -4.13498044 9.76192213 -4.12939453 7.65234375 C-4.12859894 6.44956787 -4.12780334 5.24679199 -4.12698364 4.00756836 C-3.94810898 0.21117823 -3.81938606 0.39785271 0 0 Z " fill="#0091D4" transform="translate(39,46.6875)"/>
<path d="M0 0 C2.3365553 3.50483294 2.25279678 4.91604935 2.25878906 9.06030273 C2.26509338 10.30847275 2.27139771 11.55664276 2.27789307 12.84263611 C2.27431288 14.20629009 2.27021082 15.56994278 2.265625 16.93359375 C2.26697242 18.33219978 2.2689136 19.73080536 2.27142334 21.12940979 C2.27437195 24.06068379 2.27008614 26.99183588 2.26074219 29.9230957 C2.24935824 33.67695309 2.2559019 37.43052415 2.26788712 41.18437099 C2.27512187 44.07288257 2.2728102 46.96132653 2.26763153 49.84984016 C2.26629895 51.23370459 2.26792903 52.6175752 2.27259064 54.00143242 C2.27768093 55.9377213 2.26854424 57.87403174 2.25878906 59.81030273 C2.25719788 60.91155991 2.25560669 62.01281708 2.25396729 63.14744568 C2 66 2 66 0 70 C-7.92 70 -15.84 70 -24 70 C-24.061875 66.844375 -24.12375 63.68875 -24.1875 60.4375 C-24.68365425 47.31889708 -27.85806974 36.50631138 -35.05859375 25.3671875 C-36 23 -36 23 -35.46875 20.50390625 C-29.07504582 9.60400099 -12.9559544 -1.22225985 0 0 Z " fill="#A4CE4D" transform="translate(109,47)"/>
<path d="M0 0 C3.78161258 -0.50365818 7.23542478 -0.70212576 11 0 C13.72580126 2.34772756 15.0507339 5.14920751 16.5625 8.375 C17.37481969 9.94607985 18.18855877 11.51642685 19.00390625 13.0859375 C19.51159546 14.1385376 19.51159546 14.1385376 20.02954102 15.21240234 C20.98519875 17.17457748 20.98519875 17.17457748 23 19 C26.3 12.73 29.6 6.46 33 0 C36.96 0 40.92 0 45 0 C45.87200808 15.68057395 46.11758051 31.29646978 46 47 C42.37 47 38.74 47 35 47 C34.01 34.13 34.01 34.13 33 21 C30.36 25.62 27.72 30.24 25 35 C23.02 35 21.04 35 19 35 C15.04 28.07 15.04 28.07 11 21 C10.34 29.58 9.68 38.16 9 47 C5.37 47 1.74 47 -2 47 C-2.13022192 36.87524575 -1.61459902 26.84963558 -1 16.75 C-0.90332384 15.11850863 -0.80696747 13.48699828 -0.7109375 11.85546875 C-0.47763785 7.90341771 -0.24003545 3.95164741 0 0 Z " fill="#000000" transform="translate(135,59)"/>
<path d="M0 0 C3.02556858 3.5352756 5.13095291 6.95869957 7.0625 11.1875 C7.79146484 12.75564453 7.79146484 12.75564453 8.53515625 14.35546875 C11.93685417 22.81889317 13.43569557 29.98935308 13.1875 39.125 C13.125625 42.38375 13.06375 45.6425 13 49 C5.08 49 -2.84 49 -11 49 C-11.73191804 22.79733399 -11.73191804 22.79733399 -6 12 C-5.44957031 10.86433594 -4.89914063 9.72867188 -4.33203125 8.55859375 C-2.92876569 5.682066 -1.48611586 2.83434467 0 0 Z " fill="#0266A4" transform="translate(72,68)"/>
<path d="M0 0 C5.63969077 6.15238993 5.0625 9.31078417 5.0625 18.25 C-2.1975 18.58 -9.4575 18.91 -16.9375 19.25 C-12.42369678 22.63535242 -11.35246508 22.70889535 -5.9375 22.25 C-3.54129529 21.70456041 -1.27854356 21.01442239 1.0625 20.25 C4.0625 24.875 4.0625 24.875 4.0625 28.25 C-2.08379604 31.5375537 -6.94508706 32.73223538 -13.9375 32.25 C-19.9442512 30.28227116 -23.97042815 27.52845308 -27.25 22.0625 C-28.59433561 16.56294524 -28.63715976 11.31010929 -26.8125 5.9375 C-23.9167207 1.786883 -20.65963228 -0.84979449 -16.1875 -3.1875 C-10.36975382 -4.19441761 -5.05325941 -3.01045241 0 0 Z M-15.8125 7.6875 C-16.51375 8.533125 -17.215 9.37875 -17.9375 10.25 C-13.6475 10.25 -9.3575 10.25 -4.9375 10.25 C-6.4643318 6.06522617 -6.4643318 6.06522617 -9.75 5.1875 C-13.16029034 4.91869777 -13.16029034 4.91869777 -15.8125 7.6875 Z " fill="#000000" transform="translate(212.9375,74.75)"/>
<path d="M0 0 C5.38918543 5.86470179 5.125 10.25816113 5.125 18.3125 C-2.135 18.3125 -9.395 18.3125 -16.875 18.3125 C-13.35461842 22.68049125 -13.35461842 22.68049125 -9 22.6875 C-5.37694266 22.51109646 -2.25316255 21.66376502 1.125 20.3125 C4.125 24.9375 4.125 24.9375 4.125 28.3125 C-1.45158946 31.87532105 -7.31177775 32.58848306 -13.875 32.3125 C-19.84586262 30.74380046 -23.40159171 27.25947544 -26.875 22.3125 C-28.67473286 16.91330143 -28.57612627 11.37692735 -26.75 6 C-23.69028289 1.61440547 -20.46645718 -0.99686764 -15.5625 -3.125 C-9.72242067 -4.01585956 -5.08421875 -2.98421535 0 0 Z M-13.875 5.3125 C-15.195 6.9625 -16.515 8.6125 -17.875 10.3125 C-13.585 10.3125 -9.295 10.3125 -4.875 10.3125 C-5.535 8.9925 -6.195 7.6725 -6.875 6.3125 C-10.23674137 5.05838432 -10.23674137 5.05838432 -13.875 5.3125 Z " fill="#000000" transform="translate(352.875,74.6875)"/>
<path d="M0 0 C0 0.99 0 1.98 0 3 C-0.66 3 -1.32 3 -2 3 C-2.433125 3.9590625 -2.433125 3.9590625 -2.875 4.9375 C-4 7 -4 7 -6 8 C-7.99960012 8.039992 -10.00047242 8.04346799 -12 8 C-12.66 9.32 -13.32 10.64 -14 12 C-11.36 12 -8.72 12 -6 12 C-6 14.97 -6 17.94 -6 21 C-9 22 -9 22 -14 21 C-14 29.25 -14 37.5 -14 46 C-17.3 46 -20.6 46 -24 46 C-25.27861615 43.44276771 -25.11336609 41.63262898 -25.09765625 38.7734375 C-25.09443359 37.7421875 -25.09121094 36.7109375 -25.08789062 35.6484375 C-25.07951172 34.56820312 -25.07113281 33.48796875 -25.0625 32.375 C-25.05798828 31.28703125 -25.05347656 30.1990625 -25.04882812 29.078125 C-25.03701776 26.38536211 -25.02054778 23.69270812 -25 21 C-25.99 21.33 -26.98 21.66 -28 22 C-28.66 21.67 -29.32 21.34 -30 21 C-30 18.03 -30 15.06 -30 12 C-28.35 12 -26.7 12 -25 12 C-24.773125 10.783125 -24.54625 9.56625 -24.3125 8.3125 C-23.22088709 3.99948394 -21.57786611 1.76471472 -18 -1 C-11.79685902 -4.24255096 -6.25854232 -2.08618077 0 0 Z " fill="#000000" transform="translate(330,60)"/>
<path d="M0 0 C3.63 0 7.26 0 11 0 C11 12.21 11 24.42 11 37 C17.6 37 24.2 37 31 37 C31 40.3 31 43.6 31 47 C20.77 47 10.54 47 0 47 C0 31.49 0 15.98 0 0 Z " fill="#000000" transform="translate(251,59)"/>
<path d="M0 0 C3.63 0 7.26 0 11 0 C11 2.64 11 5.28 11 8 C13.64 8 16.28 8 19 8 C19 10.97 19 13.94 19 17 C17 18 17 18 11 17 C11 22.28 11 27.56 11 33 C13.64 32.67 16.28 32.34 19 32 C23 37.75 23 37.75 23 40 C17.11232095 42.67621775 12.3362556 44.00346368 6 42 C2.75955542 39.43464804 1.30439833 37.913195 0 34 C-0.07973476 32.66474283 -0.10771338 31.32587917 -0.09765625 29.98828125 C-0.09443359 29.23095703 -0.09121094 28.47363281 -0.08789062 27.69335938 C-0.07951172 26.90767578 -0.07113281 26.12199219 -0.0625 25.3125 C-0.05798828 24.51521484 -0.05347656 23.71792969 -0.04882812 22.89648438 C-0.0370585 20.93095743 -0.01912348 18.96546915 0 17 C-1.65 17 -3.3 17 -5 17 C-5 14.03 -5 11.06 -5 8 C-3.35 8 -1.7 8 0 8 C0 5.36 0 2.72 0 0 Z " fill="#000000" transform="translate(225,64)"/>
<path d="M0 0 C3.3 0 6.6 0 10 0 C10 11.22 10 22.44 10 34 C6.7 34 3.4 34 0 34 C-1.67673649 32.32326351 -1.12787817 30.27144924 -1.13894653 28.03344727 C-1.1369223 27.34178467 -1.13489807 26.65012207 -1.1328125 25.9375 C-1.13376923 25.23101318 -1.13472595 24.52452637 -1.13571167 23.79663086 C-1.13639333 22.30029207 -1.13454005 20.80395033 -1.13037109 19.30761719 C-1.12502257 17.00969843 -1.13031651 14.71197514 -1.13671875 12.4140625 C-1.13605797 10.96354123 -1.1347768 9.51302009 -1.1328125 8.0625 C-1.13483673 7.3708374 -1.13686096 6.6791748 -1.13894653 5.96655273 C-1.11495224 1.11495224 -1.11495224 1.11495224 0 0 Z " fill="#000000" transform="translate(286,72)"/>
<path d="M0 0 C3.65316671 1.24976756 4.78065836 1.67098753 7 5 C6.84410928 8.1178144 6.3706549 9.57443326 4.3125 11.9375 C2 13 2 13 -1.1875 12.25 C-4 11 -4 11 -5 10 C-5.375 7.1875 -5.375 7.1875 -5 4 C-2.5 1.625 -2.5 1.625 0 0 Z " fill="#000000" transform="translate(290,57)"/>
</svg>
