<?xml version="1.0" encoding="UTF-8"?>
<svg version="1.1" xmlns="http://www.w3.org/2000/svg" width="400" height="150">
<path d="M0 0 C0.66 0 1.32 0 2 0 C3.41357422 1.74975586 3.41357422 1.74975586 5.0546875 4.21484375 C5.6636084 5.12041016 6.2725293 6.02597656 6.89990234 6.95898438 C7.55168457 7.94189453 8.2034668 8.92480469 8.875 9.9375 C10.23834561 11.9682794 11.60294308 13.99821889 12.96875 16.02734375 C13.649375 17.04038574 14.33 18.05342773 15.03125 19.09716797 C17.75194555 23.1087094 20.55690366 27.05660768 23.375 31 C43.81244188 59.79960586 43.81244188 59.79960586 41.59765625 77.15234375 C39.40532849 87.23186249 34.36308263 96.72002953 26 103 C17.86628834 107.66896176 11.47948749 110.18007235 2.1875 110.1875 C1.39279297 110.19974609 0.59808594 110.21199219 -0.22070312 110.22460938 C-1.38956055 110.22750977 -1.38956055 110.22750977 -2.58203125 110.23046875 C-3.28561768 110.23457764 -3.9892041 110.23868652 -4.71411133 110.24291992 C-7 110 -7 110 -9.75032043 108.99900818 C-13.12710322 107.96092625 -15.75967991 107.75833892 -19.28076172 107.77294922 C-20.5015744 107.77310028 -21.72238708 107.77325134 -22.98019409 107.77340698 C-24.28352692 107.78372955 -25.58685974 107.79405212 -26.9296875 107.8046875 C-28.28874503 107.80842198 -29.64780526 107.8112669 -31.00686646 107.81326294 C-34.56774449 107.82086517 -38.12845697 107.8404839 -41.68927002 107.8626709 C-45.32928224 107.88320321 -48.96932145 107.89228038 -52.609375 107.90234375 C-59.73965068 107.92373338 -66.86981448 107.95782766 -74 108 C-73.34 106.35 -72.68 104.7 -72 103 C-62.13656338 102.84668233 -52.29542443 103.10539451 -42.4375 103.4375 C-41.23198486 103.47673584 -40.02646973 103.51597168 -38.78442383 103.55639648 C-30.50367515 103.8489092 -22.26057307 104.35667778 -14 105 C-14 103.68 -14 102.36 -14 101 C-32.48 101.33 -50.96 101.66 -70 102 C-68 97 -68 97 -66 95 C-63.48828125 94.84887695 -63.48828125 94.84887695 -60.3125 94.98828125 C-59.14678467 95.0346875 -57.98106934 95.08109375 -56.7800293 95.12890625 C-55.53261963 95.18949219 -54.28520996 95.25007813 -53 95.3125 C-51.10278198 95.39371094 -51.10278198 95.39371094 -49.16723633 95.4765625 C-45.44419081 95.63961905 -41.722143 95.81761756 -38 96 C-37.01950684 96.04560059 -36.03901367 96.09120117 -35.02880859 96.13818359 C-32.58134185 96.25261883 -30.13436835 96.37346529 -27.6875 96.5 C-26.99720703 96.53520752 -26.30691406 96.57041504 -25.59570312 96.60668945 C-21.34549045 96.84981603 -17.20198426 97.34768679 -13 98 C-12.67 96.35 -12.34 94.7 -12 93 C-12.71728271 93.03029297 -13.43456543 93.06058594 -14.17358398 93.09179688 C-31.12518605 93.79222064 -48.03424397 94.14548472 -65 94 C-65 93.34 -65 92.68 -65 92 C-64.34 92 -63.68 92 -63 92 C-62.731875 91.360625 -62.46375 90.72125 -62.1875 90.0625 C-61 88 -61 88 -58 87 C-56.41681168 86.99538545 -54.83297157 87.05820397 -53.25317383 87.16186523 C-52.29240433 87.22200302 -51.33163483 87.28214081 -50.3417511 87.34410095 C-49.30729355 87.41488358 -48.272836 87.4856662 -47.20703125 87.55859375 C-46.14586594 87.62659683 -45.08470062 87.69459991 -43.99137878 87.7646637 C-40.59803281 87.98340145 -37.20529253 88.2103544 -33.8125 88.4375 C-31.51370702 88.58712941 -29.2148792 88.73622468 -26.91601562 88.88476562 C-21.27692472 89.25031057 -15.6383095 89.62260407 -10 90 C-9.505 88.02 -9.505 88.02 -9 86 C-25.5 86 -42 86 -59 86 C-58 84 -57 82 -56 80 C-48.22283857 79.90802306 -40.5103186 79.8938585 -32.75 80.5 C-26.55872144 80.95689649 -20.39550668 81.14320455 -14.1875 81.1875 C-13.30868164 81.20039062 -12.42986328 81.21328125 -11.52441406 81.2265625 C-10.70553711 81.22785156 -9.88666016 81.22914062 -9.04296875 81.23046875 C-8.31102295 81.23457764 -7.57907715 81.23868652 -6.82495117 81.24291992 C-4.74968661 81.15476935 -4.74968661 81.15476935 -3 79 C-19.83 79 -36.66 79 -54 79 C-54 77.02 -54 75.04 -54 73 C-44.64691135 72.97686048 -35.29383251 72.95907667 -25.94072151 72.94818783 C-21.5980033 72.94296254 -17.25530462 72.93587127 -12.91259766 72.92456055 C-8.72401613 72.91371915 -4.53545344 72.90772049 -0.34685898 72.90512276 C1.25357485 72.90327078 2.8540076 72.89965448 4.45443344 72.89426994 C6.69083661 72.8870429 8.92716131 72.88600977 11.16357422 72.88647461 C12.43820526 72.884254 13.7128363 72.88203339 15.02609253 72.87974548 C18 73 18 73 20 74 C21.87056791 74.2275015 23.74685958 74.40962811 25.625 74.5625 C26.62789063 74.64628906 27.63078125 74.73007813 28.6640625 74.81640625 C29.43492188 74.87699219 30.20578125 74.93757813 31 75 C31 73.35 31 71.7 31 70 C2.62 70.66 -25.76 71.32 -55 72 C-58.375 65.25 -58.375 65.25 -58 60 C-53.66905042 60 -51.72965139 60.96564469 -48 63 C-48.33 61.02 -48.66 59.04 -49 57 C-28.705 57.495 -28.705 57.495 -8 58 C-8.66 57.67 -9.32 57.34 -10 57 C-10 56.34 -10 55.68 -10 55 C-10.57218262 55.03029297 -11.14436523 55.06058594 -11.73388672 55.09179688 C-24.50174185 55.75453242 -37.21517587 56.1420536 -50 56 C-50.33 54.02 -50.66 52.04 -51 50 C-49.515 49.505 -49.515 49.505 -48 49 C-46.64664105 49.97272675 -45.31337396 50.9739266 -44 52 C-43.01 52 -42.02 52 -41 52 C-41 51.34 -41 50.68 -41 50 C-23.96235278 49.88310671 -7.01418752 50.01874923 10 51 C10 50.01 10 49.02 10 48 C-0.8401788 44.69981872 -14.6561452 47.28791933 -25.875 48 C-27.44919486 48.09674367 -29.02341358 48.19309996 -30.59765625 48.2890625 C-34.39872624 48.52159446 -38.1994386 48.75930418 -42 49 C-43.20272819 46.59454362 -43.10071472 45.05003047 -43.0625 42.375 C-43.05347656 41.55773438 -43.04445313 40.74046875 -43.03515625 39.8984375 C-43.02355469 39.27195313 -43.01195313 38.64546875 -43 38 C-42.34 38 -41.68 38 -41 38 C-41 38.66 -41 39.32 -41 40 C-37.33992527 41.61473885 -33.94465818 42.39354978 -30 43 C-29.65855957 42.49774902 -29.31711914 41.99549805 -28.96533203 41.47802734 C-22.86240463 32.50866637 -16.75485102 23.5473296 -10.40673828 14.74902344 C-7.3089299 10.45541232 -4.31827325 6.09607203 -1.375 1.6953125 C-0.92125 1.13585937 -0.4675 0.57640625 0 0 Z M-9 54 C-9 54.33 -9 54.66 -9 55 C-7.02 55 -5.04 55 -3 55 C-3 54.67 -3 54.34 -3 54 C-4.98 54 -6.96 54 -9 54 Z M5 54 C5.66 55.65 6.32 57.3 7 59 C13.93 59.33 20.86 59.66 28 60 C24.72171131 55.18624808 24.72171131 55.18624808 22 54 C19.11629667 53.92805131 16.25760336 53.90708292 13.375 53.9375 C12.17230469 53.94426758 12.17230469 53.94426758 10.9453125 53.95117188 C8.96350994 53.96296832 6.98174567 53.98090395 5 54 Z M-13 62.4375 C-14.25105026 62.4669722 -14.25105026 62.4669722 -15.52737427 62.49703979 C-25.7133976 62.74019221 -35.84303134 63.1560023 -46 64 C-46 64.33 -46 64.66 -46 65 C-7.51531546 66.78496212 -7.51531546 66.78496212 31 67 C30.01 64.525 30.01 64.525 29 62 C14.99299867 61.85690918 1.00197707 62.08983529 -13 62.4375 Z M24 77 C24.99 78.65 25.98 80.3 27 82 C27.66 81.67 28.32 81.34 29 81 C29.65213292 78.97536745 29.65213292 78.97536745 30 77 C28.02 77 26.04 77 24 77 Z " fill="#E90D2C" transform="translate(74,20)"/>
<path d="M0 0 C0.81559387 0.00565979 1.63118774 0.01131958 2.47149658 0.01715088 C5.07014272 0.03949773 7.66739742 0.08968878 10.265625 0.140625 C12.02992797 0.16069229 13.7942526 0.17894266 15.55859375 0.1953125 C19.87813828 0.2393567 24.19664593 0.30837078 28.515625 0.390625 C28.515625 4.020625 28.515625 7.650625 28.515625 11.390625 C19.935625 11.720625 11.355625 12.050625 2.515625 12.390625 C2.185625 14.370625 1.855625 16.350625 1.515625 18.390625 C9.765625 18.390625 18.015625 18.390625 26.515625 18.390625 C26.515625 21.690625 26.515625 24.990625 26.515625 28.390625 C18.265625 28.390625 10.015625 28.390625 1.515625 28.390625 C1.515625 30.700625 1.515625 33.010625 1.515625 35.390625 C12.735625 35.390625 23.955625 35.390625 35.515625 35.390625 C35.515625 23.840625 35.515625 12.290625 35.515625 0.390625 C48.515625 0.390625 48.515625 0.390625 53.515625 4.390625 C55.16894531 6.84838867 55.16894531 6.84838867 56.59375 9.55859375 C57.37492187 11.02135742 57.37492187 11.02135742 58.171875 12.51367188 C58.96078125 14.03057617 58.96078125 14.03057617 59.765625 15.578125 C60.83214143 17.59307925 61.8997877 19.60743601 62.96875 21.62109375 C63.43442383 22.51207764 63.90009766 23.40306152 64.37988281 24.32104492 C65.35080525 26.31904217 65.35080525 26.31904217 66.515625 27.390625 C66.85295654 26.71483398 67.19028809 26.03904297 67.5378418 25.34277344 C69.08075111 22.26909747 70.64168586 19.20492642 72.203125 16.140625 C72.73357422 15.07714844 73.26402344 14.01367188 73.81054688 12.91796875 C74.33583984 11.89316406 74.86113281 10.86835937 75.40234375 9.8125 C76.11716919 8.39855957 76.11716919 8.39855957 76.84643555 6.95605469 C78.515625 4.390625 78.515625 4.390625 83.515625 0.390625 C87.805625 0.390625 92.095625 0.390625 96.515625 0.390625 C96.515625 15.570625 96.515625 30.750625 96.515625 46.390625 C92.555625 46.390625 88.595625 46.390625 84.515625 46.390625 C84.185625 39.130625 83.855625 31.870625 83.515625 24.390625 C82.74476563 25.89496094 81.97390625 27.39929688 81.1796875 28.94921875 C80.16697151 30.90901172 79.15393406 32.86863861 78.140625 34.828125 C77.63273437 35.82134766 77.12484375 36.81457031 76.6015625 37.83789062 C76.11171875 38.78212891 75.621875 39.72636719 75.1171875 40.69921875 C74.44163818 42.01104126 74.44163818 42.01104126 73.75244141 43.34936523 C72.515625 45.390625 72.515625 45.390625 70.515625 46.390625 C67.35513138 47.06064965 64.66080251 47.1888934 61.515625 46.390625 C58.7421128 43.82560005 57.20935124 40.73608426 55.515625 37.390625 C54.67451172 35.77220703 54.67451172 35.77220703 53.81640625 34.12109375 C52.34404735 31.22785703 50.91357871 28.32037905 49.515625 25.390625 C49.47695312 27.16179687 49.47695312 27.16179687 49.4375 28.96875 C49.38121103 30.52607823 49.32386386 32.08336847 49.265625 33.640625 C49.25144531 34.41792969 49.23726562 35.19523437 49.22265625 35.99609375 C49.17431641 37.12724609 49.17431641 37.12724609 49.125 38.28125 C49.10405273 38.97250977 49.08310547 39.66376953 49.06152344 40.37597656 C48.27117229 43.29278233 46.824326 44.47789596 44.515625 46.390625 C42.00474548 46.89855957 42.00474548 46.89855957 39.15209961 46.90820312 C38.0809642 46.92081177 37.0098288 46.93342041 35.90623474 46.94641113 C34.75510696 46.93831421 33.60397919 46.93021729 32.41796875 46.921875 C31.23215714 46.9257019 30.04634552 46.92952881 28.82460022 46.93347168 C26.31884919 46.93619289 23.81306985 46.92881723 21.30737305 46.91210938 C17.46403984 46.89068584 13.62257219 46.91191588 9.77929688 46.9375 C7.34635003 46.93485714 4.91340434 46.92973302 2.48046875 46.921875 C0.75074074 46.93402039 0.75074074 46.93402039 -1.01393127 46.94641113 C-2.08191452 46.93380249 -3.14989777 46.92119385 -4.25024414 46.90820312 C-5.19082169 46.90502075 -6.13139923 46.90183838 -7.10047913 46.89855957 C-9.484375 46.390625 -9.484375 46.390625 -11.28625488 44.60070801 C-13.15089212 41.16115048 -12.93201156 37.64545585 -12.91796875 33.828125 C-12.9232106 32.99982178 -12.92845245 32.17151855 -12.93385315 31.31811523 C-12.94026612 29.56983561 -12.93894572 27.82151279 -12.93041992 26.07324219 C-12.92190362 23.39960948 -12.95068913 20.72810953 -12.98242188 18.0546875 C-12.98403388 16.35416731 -12.98345636 14.65364333 -12.98046875 12.953125 C-12.99170273 12.15511475 -13.00293671 11.35710449 -13.01451111 10.53491211 C-12.9722039 7.16341558 -12.72809137 4.79836523 -10.98364258 1.87988281 C-7.39503283 -0.2584897 -4.05075359 -0.10603525 0 0 Z " fill="#016237" transform="translate(199.484375,66.609375)"/>
<path d="M0 0 C0.81559387 0.00424484 1.63118774 0.00848969 2.47149658 0.01286316 C5.06987884 0.0296216 7.66747819 0.06726778 10.265625 0.10546875 C12.02993669 0.12051929 13.79426058 0.13420705 15.55859375 0.14648438 C19.87790465 0.17951574 24.1966322 0.23127789 28.515625 0.29296875 C28.515625 3.92296875 28.515625 7.55296875 28.515625 11.29296875 C15.150625 11.78796875 15.150625 11.78796875 1.515625 12.29296875 C1.185625 14.27296875 0.855625 16.25296875 0.515625 18.29296875 C8.765625 18.29296875 17.015625 18.29296875 25.515625 18.29296875 C25.515625 21.59296875 25.515625 24.89296875 25.515625 28.29296875 C17.265625 28.29296875 9.015625 28.29296875 0.515625 28.29296875 C0.845625 30.27296875 1.175625 32.25296875 1.515625 34.29296875 C6.92300219 34.54146954 12.32701456 34.72219473 17.73876953 34.84228516 C19.57627276 34.89236657 21.41338155 34.96045946 23.24951172 35.04736328 C33.99172567 35.90839317 33.99172567 35.90839317 43.55078125 32.02246094 C45.54854864 29.5252517 47.12610738 27.1672741 48.515625 24.29296875 C46.24978911 19.61647413 43.38285081 15.79188734 39.515625 12.29296875 C36.2647084 11.17367176 36.2647084 11.17367176 33.515625 11.29296875 C33.515625 7.66296875 33.515625 4.03296875 33.515625 0.29296875 C44.49126658 -1.08110694 44.49126658 -1.08110694 49.3125 2.19140625 C52.44899167 5.35864784 55.04472889 8.58662458 57.515625 12.29296875 C61.15764345 10.79859795 63.1196904 8.71629053 65.640625 5.73046875 C69.32118056 1.39019097 69.32118056 1.39019097 71.515625 0.29296875 C73.55617505 0.22231258 75.59896757 0.20874899 77.640625 0.23046875 C78.73632812 0.23949219 79.83203125 0.24851562 80.9609375 0.2578125 C82.22550781 0.27521484 82.22550781 0.27521484 83.515625 0.29296875 C83.515625 3.92296875 83.515625 7.55296875 83.515625 11.29296875 C82.505 11.43734375 81.494375 11.58171875 80.453125 11.73046875 C75.69683979 13.01621252 73.68556565 16.49264296 70.99609375 20.39453125 C70.50753906 21.02101563 70.01898438 21.6475 69.515625 22.29296875 C68.855625 22.29296875 68.195625 22.29296875 67.515625 22.29296875 C67.515625 22.95296875 67.515625 23.61296875 67.515625 24.29296875 C68.175625 24.29296875 68.835625 24.29296875 69.515625 24.29296875 C71.53162825 26.79481062 73.38231647 29.39379087 75.25 32.0078125 C77.98265986 34.76402978 79.7094408 35.03741067 83.515625 35.29296875 C83.515625 38.92296875 83.515625 42.55296875 83.515625 46.29296875 C71.64034288 47.07538119 71.64034288 47.07538119 67.640625 44.29296875 C66.58875 42.80796875 66.58875 42.80796875 65.515625 41.29296875 C64.25575182 39.84585328 62.98428549 38.40877243 61.703125 36.98046875 C60.63886505 35.7528256 59.57575206 34.5241826 58.515625 33.29296875 C57.88914062 34.06382813 57.26265625 34.8346875 56.6171875 35.62890625 C55.79992187 36.63179687 54.98265625 37.6346875 54.140625 38.66796875 C53.32851563 39.66570312 52.51640625 40.6634375 51.6796875 41.69140625 C47.8856128 46.2525141 47.8856128 46.2525141 45.13136292 46.55366516 C44.13225388 46.55827255 43.13314484 46.56287994 42.10375977 46.56762695 C40.97241104 46.57715897 39.84106232 46.58669098 38.6754303 46.59651184 C37.44835861 46.59560043 36.22128693 46.59468903 34.95703125 46.59375 C33.70180161 46.59803513 32.44657196 46.60232025 31.15330505 46.60673523 C28.49423294 46.61248773 25.83554783 46.61390334 23.17651367 46.60864258 C19.76880663 46.60284923 16.36164335 46.61977266 12.95402622 46.64298725 C9.70503178 46.66126224 6.45606787 46.65753935 3.20703125 46.65625 C1.36946007 46.67006462 1.36946007 46.67006462 -0.50523376 46.68415833 C-1.63973465 46.67792953 -2.77423553 46.67170074 -3.94311523 46.6652832 C-5.44297218 46.66622734 -5.44297218 46.66622734 -6.97312927 46.66719055 C-9.484375 46.29296875 -9.484375 46.29296875 -11.30545044 45.01750183 C-13.44670832 41.88526575 -12.93064431 38.0258594 -12.91796875 34.35546875 C-12.92583153 33.04074585 -12.92583153 33.04074585 -12.93385315 31.69946289 C-12.94027494 29.84685322 -12.9389343 27.99420279 -12.93041992 26.14160156 C-12.92190599 23.30330034 -12.95067411 20.46700874 -12.98242188 17.62890625 C-12.98403384 15.82942769 -12.98345644 14.02994555 -12.98046875 12.23046875 C-12.99170273 11.3804126 -13.00293671 10.53035645 -13.01451111 9.65454102 C-12.9465097 3.92125242 -12.9465097 3.92125242 -10.98364258 1.25268555 C-7.33962035 -0.14661614 -3.84277511 -0.0754433 0 0 Z " fill="#016237" transform="translate(316.484375,66.70703125)"/>
<path d="M0 0 C9.4978125 -0.12375 9.4978125 -0.12375 19.1875 -0.25 C21.1780542 -0.28641602 23.1686084 -0.32283203 25.21948242 -0.36035156 C26.80646691 -0.37203973 28.39346342 -0.38223126 29.98046875 -0.390625 C30.79696899 -0.41108887 31.61346924 -0.43155273 32.45471191 -0.45263672 C36.36741073 -0.45502725 38.54208982 -0.25446026 42.02441406 1.68066406 C44.42772778 4.50215199 44.63168109 5.82981007 44.62890625 9.5 C44.63083984 10.551875 44.63277344 11.60375 44.63476562 12.6875 C44.61091797 13.780625 44.58707031 14.87375 44.5625 16 C44.57345703 17.093125 44.58441406 18.18625 44.59570312 19.3125 C44.52252805 27.27394815 44.52252805 27.27394815 42.33081055 30.31933594 C39.38388768 32.44425654 37.74824581 32.46424991 34.140625 32.390625 C33.02558594 32.37773438 31.91054687 32.36484375 30.76171875 32.3515625 C29.02341797 32.30128906 29.02341797 32.30128906 27.25 32.25 C26.07566406 32.23195312 24.90132812 32.21390625 23.69140625 32.1953125 C20.79392243 32.14819894 17.89685805 32.07645666 15 32 C15 28.37 15 24.74 15 21 C20.61 21 26.22 21 32 21 C31.67 18.03 31.34 15.06 31 12 C25.06 12 19.12 12 13 12 C13 23.22 13 34.44 13 46 C8.71 46 4.42 46 0 46 C0 30.82 0 15.64 0 0 Z " fill="#016237" transform="translate(137,67)"/>
</svg>
