<?xml version="1.0" encoding="UTF-8"?>
<svg version="1.1" xmlns="http://www.w3.org/2000/svg" width="400" height="150">
<path d="M0 0 C0.99 0 1.98 0 3 0 C3.99 2.475 3.99 2.475 5 5 C5.45375 4.505 5.9075 4.01 6.375 3.5 C8 2 8 2 10 2 C9.896875 3.051875 9.79375 4.10375 9.6875 5.1875 C10.0802836 9.97945996 11.48066917 10.88989369 15 14 C19.11075942 19.70012226 18.81398688 25.21424022 18 32 C15.87365967 39.2453078 12.36652445 45.86326294 8 52 C7.34 52 6.68 52 6 52 C5.67 51.01 5.34 50.02 5 49 C4.66226563 50.03640625 4.32453125 51.0728125 3.9765625 52.140625 C3.52620263 53.5104696 3.07567286 54.88025834 2.625 56.25 C2.40328125 56.93191406 2.1815625 57.61382812 1.953125 58.31640625 C0.84061694 61.68665126 -0.36586518 64.85322737 -2 68 C-1.30890137 68.03440186 -0.61780273 68.06880371 0.09423828 68.10424805 C31.72336917 69.77781568 62.25226505 74.83058791 92 86 C92 87.32 92 88.64 92 90 C88.4502849 89.33038644 84.99796617 88.48386689 81.51953125 87.51171875 C23.05215528 71.50431721 -42.3127513 70.50505083 -100.65625 87.765625 C-104.08201926 88.77684605 -107.45383184 89.51643161 -111 90 C-111 88.68 -111 87.36 -111 86 C-77.50214475 73.98059971 -43.59484539 67.93722327 -8 69 C-6.42232445 58.91826843 -4.81294446 47.81022236 -11 39 C-15.81202536 33.72045558 -20.51916226 30.99795977 -27.6875 30.5625 C-33.50257668 30.66711907 -38.22872527 32.74268745 -43 36 C-43.66 36.99 -44.32 37.98 -45 39 C-45.99 39 -46.98 39 -48 39 C-46.91399296 30.03638966 -45.05322752 24.51279719 -38.1875 18.5625 C-37.465625 18.046875 -36.74375 17.53125 -36 17 C-37.32 17 -38.64 17 -40 17 C-40 16.34 -40 15.68 -40 15 C-33.86276745 11.18496355 -27.18750458 10.10067016 -20.08984375 11.625 C-10.1981575 14.89048102 -5.06599636 20.0961276 0 29 C-1.32 23.06 -2.64 17.12 -4 11 C-4.66 12.65 -5.32 14.3 -6 16 C-6.99 15.67 -7.98 15.34 -9 15 C-9.495 13.515 -9.495 13.515 -10 12 C-10.99 12.33 -11.98 12.66 -13 13 C-12.67 11.35 -12.34 9.7 -12 8 C-13.65 8 -15.3 8 -17 8 C-16 5 -16 5 -12.9375 3.25 C-8.69360318 1.55068032 -5.4228368 2.14647009 -1 3 C-0.67 2.01 -0.34 1.02 0 0 Z M1 31 C2 34 2 34 2 34 Z M2 34 C3 37 3 37 3 37 Z M3 38 C4 41 4 41 4 41 Z " fill="#DA262E" transform="translate(203,0)"/>
<path d="M0 0 C4.95 0 9.9 0 15 0 C15 1.32 15 2.64 15 4 C15.639375 3.484375 16.27875 2.96875 16.9375 2.4375 C21.18556146 0.44351197 24.52035906 0.78270627 29 2 C31.81992717 3.82120296 33.50345478 5.00690956 35 8 C35.53625 7.525625 36.0725 7.05125 36.625 6.5625 C39.5839959 4.61579217 41.45506508 4.13901706 45 4 C50.23023456 5.62317624 53.01208307 7.4327841 56 12 C56.5300293 15.09033203 56.5300293 15.09033203 56.57421875 18.5078125 C56.60193359 19.74144531 56.62964844 20.97507812 56.65820312 22.24609375 C56.66787109 23.52613281 56.67753906 24.80617188 56.6875 26.125 C56.7295235 28.66933193 56.77493317 31.21361088 56.82421875 33.7578125 C56.84101685 35.44608154 56.84101685 35.44608154 56.8581543 37.16845703 C56.87694668 40.07811855 56.87694668 40.07811855 58 43 C51.07 41.515 51.07 41.515 44 40 C44 31.75 44 23.5 44 15 C39.43328912 12.81430466 39.43328912 12.81430466 36 13 C36 21.58 36 30.16 36 39 C29.07 38.505 29.07 38.505 22 38 C22.33 36.68 22.66 35.36 23 34 C23.07991104 32.19418245 23.10769823 30.38568191 23.09765625 28.578125 C23.09443359 27.55332031 23.09121094 26.52851562 23.08789062 25.47265625 C23.07951172 24.40917969 23.07113281 23.34570312 23.0625 22.25 C23.05798828 21.17105469 23.05347656 20.09210938 23.04882812 18.98046875 C23.03705727 16.32025617 23.02061399 13.66015635 23 11 C20.64632287 10.3121764 20.64632287 10.3121764 18 10 C17.01 10.66 16.02 11.32 15 12 C14.58321393 14.51896074 14.58321393 14.51896074 14.70703125 17.4453125 C14.7215332 19.05986328 14.7215332 19.05986328 14.73632812 20.70703125 C14.76146484 21.83496094 14.78660156 22.96289062 14.8125 24.125 C14.82603516 25.26066406 14.83957031 26.39632812 14.85351562 27.56640625 C14.88895342 30.37780485 14.94276164 33.18896075 15 36 C8.07 35.505 8.07 35.505 1 35 C1.165 33.7625 1.33 32.525 1.5 31.25 C2.04799567 25.73033352 2.14741191 20.22967858 2.1875 14.6875 C2.20039063 13.81577148 2.21328125 12.94404297 2.2265625 12.04589844 C2.22849609 10.79147949 2.22849609 10.79147949 2.23046875 9.51171875 C2.23457764 8.76365967 2.23868652 8.01560059 2.24291992 7.24487305 C2.04320669 4.45709502 2.04320669 4.45709502 0 0 Z " fill="#003B70" transform="translate(226,100)"/>
<path d="M0 0 C3.4193053 0.44324328 6.02601833 0.17264232 9.375 -0.5625 C9.375 1.7475 9.375 4.0575 9.375 6.4375 C8.055 6.7675 6.735 7.0975 5.375 7.4375 C5.436875 8.489375 5.49875 9.54125 5.5625 10.625 C5.36123748 14.71733783 4.96991424 16.32360291 2.375 19.4375 C-2.9617802 23.13219399 -9.33539992 23.57242555 -15.625 24.4375 C-15.625 25.0975 -15.625 25.7575 -15.625 26.4375 C-13.76294922 26.49357422 -13.76294922 26.49357422 -11.86328125 26.55078125 C-10.22132489 26.6164595 -8.57939913 26.6829062 -6.9375 26.75 C-6.12087891 26.77255859 -5.30425781 26.79511719 -4.46289062 26.81835938 C0.24464104 27.02800653 3.55661451 27.3873104 7.375 30.4375 C8.98771641 33.66293282 8.8194859 36.94044182 8.375 40.4375 C6.22072244 45.21437633 3.07057934 48.13799565 -1.515625 50.5234375 C-5.83743204 51.79391847 -9.95129101 51.91126238 -14.4375 51.9375 C-15.27418213 51.94378418 -16.11086426 51.95006836 -16.97290039 51.95654297 C-20.53099539 51.88264766 -22.9900174 51.77550612 -26.1640625 50.0859375 C-27.625 48.4375 -27.625 48.4375 -28.1875 45.5625 C-27.45764627 41.50775703 -25.70765324 40.05775526 -22.625 37.4375 C-23.285 36.90125 -23.945 36.365 -24.625 35.8125 C-26.625 33.4375 -26.625 33.4375 -27.1875 30.5625 C-26.416155 26.27724998 -24.60432689 24.56579324 -21.625 21.4375 C-22.285 20.756875 -22.945 20.07625 -23.625 19.375 C-26.14717356 15.67055758 -26.24371554 13.84584824 -25.625 9.4375 C-22.80557941 3.79865881 -19.5170401 1.86458137 -13.75 -0.25 C-9.08373453 -0.93621551 -4.63176035 -0.71872143 0 0 Z M-13.625 6.4375 C-14.51593449 10.08223199 -14.86166047 12.86492531 -13.625 16.4375 C-11.84358253 17.30108623 -11.84358253 17.30108623 -9.625 17.4375 C-7.23049147 15.96061011 -7.23049147 15.96061011 -5.625 13.4375 C-5.12457854 10.35288029 -5.12457854 10.35288029 -5.625 7.4375 C-6.285 6.7775 -6.945 6.1175 -7.625 5.4375 C-11.4013932 5.1393576 -11.4013932 5.1393576 -13.625 6.4375 Z M-17.625 39.4375 C-17.8750773 41.97940002 -17.8750773 41.97940002 -17.625 44.4375 C-15.83078481 46.23171519 -13.23467074 45.65235363 -10.8125 45.6875 C-9.22501953 45.72617188 -9.22501953 45.72617188 -7.60546875 45.765625 C-4.33112476 45.40514676 -3.01500682 44.63653775 -0.625 42.4375 C-0.955 40.7875 -1.285 39.1375 -1.625 37.4375 C-3.91641286 37.38365479 -6.20818188 37.34477913 -8.5 37.3125 C-9.77617187 37.28929687 -11.05234375 37.26609375 -12.3671875 37.2421875 C-15.71093338 37.08108476 -15.71093338 37.08108476 -17.625 39.4375 Z " fill="#003B71" transform="translate(171.625,98.5625)"/>
<path d="M0 0 C3.41311667 2.52570633 4.66637768 3.99913304 6 8 C6.51800316 14.73404112 5.08964213 19.43272539 0.8125 24.6875 C-5.0666603 29.52147624 -10.44980071 31.46070005 -18 32 C-17.67 36.95 -17.34 41.9 -17 47 C-21.62 48.32 -26.24 49.64 -31 51 C-31 35.82 -31 20.64 -31 5 C-5.62175168 -1.34456208 -5.62175168 -1.34456208 0 0 Z M-18 9 C-18 13.95 -18 18.9 -18 24 C-11.497835 23.59765796 -11.497835 23.59765796 -8.625 21.375 C-6.48467195 18.24682823 -6.20475821 15.75390045 -6 12 C-6.33 11.01 -6.66 10.02 -7 9 C-11.20594226 8.27204845 -13.80104745 7.95026186 -18 9 Z " fill="#003B70" transform="translate(104,99)"/>
<path d="M0 0 C3.44523159 1.11167417 6.72223957 2.4671851 10 4 C9.67 6.97 9.34 9.94 9 13 C8.34 13 7.68 13 7 13 C6.4225 12.360625 5.845 11.72125 5.25 11.0625 C2.51617726 8.55649582 0.63214398 8.33019491 -3 8 C-2.80528889 9.94999129 -2.80528889 9.94999129 -2 12 C-0.67010887 12.6735071 0.66380552 13.3390866 2 14 C3.8515625 15.5859375 3.8515625 15.5859375 5.625 17.375 C6.21539062 17.96023437 6.80578125 18.54546875 7.4140625 19.1484375 C9.8470324 21.9888999 10.90113533 24.22556012 11.375 27.9375 C10.88934188 31.90370799 10.00808769 33.36792327 7 36 C-0.70252957 38.33826791 -7.98021955 35.50989022 -15 32 C-14.505 27.545 -14.505 27.545 -14 23 C-12.989375 23.639375 -11.97875 24.27875 -10.9375 24.9375 C-7.24780076 27.06848956 -4.22139745 27.65539613 0 28 C-1.73771889 24.30734737 -3.71929406 22.34813888 -7 20.0625 C-10.62528774 17.44534937 -12.65288069 15.40058974 -14 11 C-13.93382801 7.16202455 -13.51221621 4.83235134 -11.5 1.5625 C-7.67554913 -0.8277818 -4.38911407 -0.70551447 0 0 Z " fill="#003B71" transform="translate(304,111)"/>
<path d="M0 0 C0 15.51 0 31.02 0 47 C-4.62 47.33 -9.24 47.66 -14 48 C-13.505 45.03 -13.505 45.03 -13 42 C-12.90874687 39.37449254 -12.85956571 36.77695207 -12.8671875 34.15234375 C-12.86623077 33.41802628 -12.86527405 32.6837088 -12.86428833 31.92713928 C-12.86361125 30.38331008 -12.86543242 28.83947795 -12.86962891 27.2956543 C-12.87499162 24.9411782 -12.86966392 22.58689217 -12.86328125 20.23242188 C-12.86394197 18.72656208 -12.86522299 17.22070241 -12.8671875 15.71484375 C-12.86516327 15.01576401 -12.86313904 14.31668427 -12.86105347 13.59642029 C-12.87849628 9.93891817 -13.13321649 6.55708326 -14 3 C-12.4188708 2.49307308 -10.83498617 1.99473557 -9.25 1.5 C-7.92742187 1.08234375 -7.92742187 1.08234375 -6.578125 0.65625 C-4 0 -4 0 0 0 Z " fill="#003B70" transform="translate(143,90)"/>
<path d="M0 0 C0 1.98 0 3.96 0 6 C0.495 5.360625 0.99 4.72125 1.5 4.0625 C4.98806387 1.18484731 7.53461041 1.29769264 12 1 C11.34 4.63 10.68 8.26 10 12 C8.72125 11.95875 7.4425 11.9175 6.125 11.875 C3.98128508 11.75787127 3.98128508 11.75787127 2 12 C-1.37519301 15.37519301 -1.06879539 19.23885018 -1.125 23.8125 C-1.08477974 28.28365238 -0.65489078 32.57948726 0 37 C-4.62 37 -9.24 37 -14 37 C-13.835 35.494375 -13.67 33.98875 -13.5 32.4375 C-12.58158628 22.12198362 -12.18329943 12.03449579 -15 2 C-12.87528825 1.6648342 -10.75022095 1.33192171 -8.625 1 C-7.44164062 0.814375 -6.25828125 0.62875 -5.0390625 0.4375 C-2 0 -2 0 0 0 Z " fill="#003B70" transform="translate(197,97)"/>
<path d="M0 0 C-0.0721875 1.17175781 -0.144375 2.34351562 -0.21875 3.55078125 C-1.28784719 20.30365692 -1.28784719 20.30365692 0 37 C-6.93 36.505 -6.93 36.505 -14 36 C-13.90460938 34.22753906 -13.80921875 32.45507812 -13.7109375 30.62890625 C-13.59832689 28.2734676 -13.48638299 25.91799702 -13.375 23.5625 C-13.31054688 22.39783203 -13.24609375 21.23316406 -13.1796875 20.03320312 C-12.87456039 13.26319531 -13.16903621 7.53416467 -15 1 C-12.8750734 0.83240016 -10.75005624 0.66594799 -8.625 0.5 C-7.44164062 0.4071875 -6.25828125 0.314375 -5.0390625 0.21875 C-3.36213157 0.09804546 -1.68126944 0 0 0 Z " fill="#003B70" transform="translate(224,98)"/>
<path d="M0 0 C-0.16298584 1.00554932 -0.32597168 2.01109863 -0.49389648 3.04711914 C-0.97926213 6.8380285 -1.11404492 10.42753353 -1.09765625 14.24609375 C-1.09553383 15.23005882 -1.09553383 15.23005882 -1.09336853 16.23390198 C-1.08783031 18.30181702 -1.07529002 20.36961842 -1.0625 22.4375 C-1.05747699 23.85090988 -1.0529155 25.26432148 -1.04882812 26.67773438 C-1.03873771 30.11856718 -1.01915125 33.55915838 -1 37 C-5.62 37.66 -10.24 38.32 -15 39 C-14.67 37.68 -14.34 36.36 -14 35 C-13.90720479 32.87656553 -13.86931539 30.75046004 -13.8671875 28.625 C-13.86589844 27.39265625 -13.86460938 26.1603125 -13.86328125 24.890625 C-13.86714844 23.60671875 -13.87101562 22.3228125 -13.875 21 C-13.87113281 19.71609375 -13.86726563 18.4321875 -13.86328125 17.109375 C-13.86457031 15.87703125 -13.86585937 14.6446875 -13.8671875 13.375 C-13.86831543 12.24835938 -13.86944336 11.12171875 -13.87060547 9.9609375 C-13.9802478 7.45198996 -14.26705271 5.38735562 -15 3 C-14.22914062 2.86722656 -13.45828125 2.73445313 -12.6640625 2.59765625 C-11.66117187 2.42105469 -10.65828125 2.24445313 -9.625 2.0625 C-8.62726563 1.88847656 -7.62953125 1.71445313 -6.6015625 1.53515625 C-4.17911891 1.03684578 -2.44449381 0 0 0 Z " fill="#003B70" transform="translate(127,102)"/>
<path d="M0 0 C1.9375 1.625 1.9375 1.625 3 4 C2.875 7.125 2.875 7.125 2 10 C-1.23253796 12.15502531 -2.25150923 12.46856135 -6 12 C-7.8125 10.875 -7.8125 10.875 -9 9 C-9.39365568 5.85075452 -9.52854531 3.88090884 -7.875 1.125 C-5.08893958 -0.54663625 -3.18011138 -0.46376624 0 0 Z " fill="#013B71" transform="translate(122,91)"/>
<path d="M0 0 C2.62003113 1.00770428 3.86287756 1.61700377 5.4375 3.9375 C5.9375 6.375 5.9375 6.375 5.4375 8.9375 C3.3125 11.375 3.3125 11.375 0.4375 12.9375 C-2.875 12.1875 -2.875 12.1875 -5.5625 10.9375 C-6.3125 7.6875 -6.3125 7.6875 -6.5625 3.9375 C-4.58773133 0.89939436 -3.67484996 -0.08963049 0 0 Z " fill="#013B71" transform="translate(217.5625,85.0625)"/>
<path d="M0 0 C2.97 0.33 5.94 0.66 9 1 C8.86225898 6.50964081 6.5134745 9.52642027 2.921875 13.4296875 C1 15 1 15 -2.4375 15.5 C-3.283125 15.335 -4.12875 15.17 -5 15 C-4.72285156 14.50371094 -4.44570313 14.00742188 -4.16015625 13.49609375 C-1.71312324 8.90681832 -0.43203357 5.18440279 0 0 Z " fill="#013B71" transform="translate(288,99)"/>
<path d="M0 0 C1.89128342 1.89128342 1.2366852 4.57067726 1.328125 7.08984375 C1.21984375 7.72019531 1.1115625 8.35054687 1 9 C-2 11 -2 11 -5.0625 10.75 C-8 10 -8 10 -10 8 C-10.375 5.0625 -10.375 5.0625 -10 2 C-6.93891643 -1.64975349 -4.3702682 -1.16540485 0 0 Z M-8 4 C-7 6 -7 6 -7 6 Z M-2 5 C-1 7 -1 7 -1 7 Z " fill="#013A6F" transform="translate(325,117)"/>
</svg>
