<?xml version="1.0" encoding="UTF-8"?>
<svg version="1.1" xmlns="http://www.w3.org/2000/svg" width="400" height="150">
<path d="M0 0 C7.5669243 5.281863 12.02297679 12.71192631 14.4921875 21.52734375 C15.63180399 31.96941116 13.97162892 40.51788864 7.3671875 48.77734375 C-1.53835622 58.11684405 -12.88787426 61.50446333 -25.5703125 61.90234375 C-37.11708087 61.56677056 -48.26074656 58.10945131 -56.90625 50.29296875 C-63.2743883 43.27248458 -65.99449836 34.42509984 -65.75390625 25.0703125 C-64.93030948 16.55981254 -60.9336296 8.47896616 -54.5390625 2.76953125 C-39.3092695 -8.21137022 -16.24017824 -9.53667788 0 0 Z M-41.5078125 9.52734375 C-46.77319441 18.55371274 -46.99044602 29.96380226 -44.3828125 39.96484375 C-42.36023336 45.72871951 -39.24680246 50.06230261 -33.8203125 52.96484375 C-26.52506757 54.20365893 -19.7250848 54.62476681 -13.16015625 50.78515625 C-8.95862314 47.58682608 -6.91096644 43.212164 -5.82421875 38.12109375 C-4.52911346 27.50442818 -3.9795696 15.43921642 -10.7578125 6.58984375 C-21.04131576 -1.12278369 -33.02312879 -0.60713957 -41.5078125 9.52734375 Z " fill="#941B80" transform="translate(83.5078125,28.47265625)"/>
<path d="M0 0 C37.95 0 75.9 0 115 0 C115 37.95 115 75.9 115 115 C77.05 115 39.1 115 0 115 C0 77.05 0 39.1 0 0 Z M4 4 C4 38.98 4 73.96 4 110 C39.31 110 74.62 110 111 110 C111 75.02 111 40.04 111 4 C75.69 4 40.38 4 4 4 Z " fill="#941B80" transform="translate(0,14)"/>
<path d="M0 0 C6.5874282 5.38728946 10.42473746 12.02584598 11.75 20.375 C12.52071025 29.93180714 10.0017037 37.91277536 3.8671875 45.32421875 C0.29453849 48.78481051 -3.84702627 51.11592897 -8.25 53.375 C-3.72900181 56.38899879 -0.38967935 56.49608347 5 56.4375 C6.07765625 56.42847656 7.1553125 56.41945312 8.265625 56.41015625 C9.08546875 56.39855469 9.9053125 56.38695312 10.75 56.375 C10.75 58.375 10.75 58.375 9.28125 60.1015625 C5.90308172 63.25885054 3.66533833 65.18882949 -0.9375 66.125 C-9.94534924 65.24014251 -18.35314993 60.55624931 -25.84375 55.77734375 C-28.32214648 54.33295359 -30.74430834 53.35249878 -33.4375 52.375 C-41.44133514 49.31397214 -46.50337803 44.02860519 -50.25 36.375 C-53.21637668 28.41971709 -53.16909673 18.90769798 -49.6875 11.0625 C-45.47276251 3.86549338 -39.13914864 -1.83781575 -31.25 -4.625 C-20.56104814 -7.23590791 -9.2001814 -6.27285096 0 0 Z M-37.125 10.1875 C-41.88572572 16.15196275 -43.09014786 21.86617848 -42.25 29.375 C-40.23186245 35.6418482 -37.08313046 40.41879088 -31.625 44.1875 C-24.39910784 46.72994354 -17.4477175 47.22182084 -10.25390625 44.390625 C-5.25683606 41.85799683 -1.7278808 38.46117638 0.75 33.375 C2.54260329 27.37861575 2.78508716 20.89741592 0.1875 15.125 C-2.74480993 10.00640953 -6.79839355 6.57356316 -12.0625 4 C-21.68328981 2.11357063 -30.23521246 2.75789406 -37.125 10.1875 Z " fill="#0096AE" transform="translate(177.25,37.625)"/>
<path d="M0 0 C4.4522062 1.41439481 8.69843543 3.10391455 12.98046875 4.96875 C14.32333221 5.54612096 15.66643919 6.12292578 17.00976562 6.69921875 C19.09400413 7.59563916 21.17658626 8.49522419 23.25512695 9.40478516 C39.24019737 16.38624516 54.03540887 19.96601887 71.02734375 13.97265625 C74.01566419 12.99487466 76.89122525 12.4401395 80 12 C80.68359375 13.79296875 80.68359375 13.79296875 81 16 C79.84765625 17.67578125 79.84765625 17.67578125 78.0625 19.3125 C77.41152344 19.91835937 76.76054688 20.52421875 76.08984375 21.1484375 C75.40019531 21.75945312 74.71054688 22.37046875 74 23 C73.36191406 23.56976563 72.72382812 24.13953125 72.06640625 24.7265625 C70.75677527 25.88072421 69.43610391 27.02246206 68.10546875 28.15234375 C66.60440825 29.46960092 65.15287475 30.84419908 63.73828125 32.25390625 C62.97902344 32.99511719 62.21976562 33.73632812 61.4375 34.5 C60.75558594 35.1909375 60.07367188 35.881875 59.37109375 36.59375 C57 38 57 38 53.79296875 38.06640625 C48.83811823 36.67333293 45.12721841 34.27947596 40.875 31.4375 C39.1786185 30.33688025 37.48200341 29.23662045 35.78515625 28.13671875 C34.96418457 27.59837402 34.14321289 27.0600293 33.29736328 26.50537109 C23.20533688 19.89246623 12.8447554 14.25582002 2 9 C0.66540005 8.33587261 -0.66870537 7.67072859 -2 7 C-1.34 4.69 -0.68 2.38 0 0 Z " fill="#941B80" transform="translate(18,82)"/>
<path d="M0 0 C3.51372391 3.33803771 5.30895616 6.17701514 5.73779297 11.11083984 C5.79507059 14.32903098 5.76140719 17.53219459 5.6875 20.75 C5.66719727 22.42642578 5.66719727 22.42642578 5.64648438 24.13671875 C5.61127164 26.88331211 5.56202096 29.62890289 5.5 32.375 C7.48 31.715 9.46 31.055 11.5 30.375 C11.1875 33.25 11.1875 33.25 10.5 36.375 C6.44641576 39.07738949 4.31689896 38.60437614 -0.5 38.375 C-1.16 38.045 -1.82 37.715 -2.5 37.375 C-2.5 36.715 -2.5 36.055 -2.5 35.375 C-3.11875 35.87 -3.7375 36.365 -4.375 36.875 C-8.78775282 38.99312136 -12.68885654 39.19526052 -17.5 38.375 C-20.625 36.375 -20.625 36.375 -22.5 33.375 C-23.27088968 28.51839501 -23.10336789 26.51469491 -20.8125 22.1875 C-16.64598249 17.74077809 -10.12549512 16.23643762 -4.5 14.375 C-4.5 12.395 -4.5 10.415 -4.5 8.375 C-7.98382267 6.63308867 -11.79571409 7.51622091 -15.5 8.375 C-18.3874873 10.29893551 -18.3874873 10.29893551 -20.5 12.375 C-21.16 12.375 -21.82 12.375 -22.5 12.375 C-22.79354834 9.32209731 -22.93032367 6.41875276 -22.5 3.375 C-16.7267546 -2.86634638 -7.48893374 -3.47700495 0 0 Z M-8.4375 21.25 C-9.14777344 21.59804687 -9.85804688 21.94609375 -10.58984375 22.3046875 C-12.65320129 23.34738765 -12.65320129 23.34738765 -14.5 25.375 C-14.17801034 28.47426819 -14.17801034 28.47426819 -13.5 31.375 C-8.21800407 32.57488045 -8.21800407 32.57488045 -3.5 30.375 C-3.13539547 27.70846095 -3.13539547 27.70846095 -3.3125 24.75 C-3.33957031 23.74710938 -3.36664063 22.74421875 -3.39453125 21.7109375 C-3.42933594 20.94007812 -3.46414062 20.16921875 -3.5 19.375 C-5.30773957 19.375 -6.84554009 20.46121697 -8.4375 21.25 Z " fill="#0096AE" transform="translate(257.5,53.625)"/>
<path d="M0 0 C2.6404444 1.80323033 3.92032861 3.03204415 5.5625 5.75 C5.99487305 8.59082031 5.99487305 8.59082031 6.07421875 11.828125 C6.12739258 13.56835938 6.12739258 13.56835938 6.18164062 15.34375 C6.20419922 16.5503125 6.22675781 17.756875 6.25 19 C6.30124023 20.83304688 6.30124023 20.83304688 6.35351562 22.703125 C6.43597162 25.71865846 6.50513201 28.73390194 6.5625 31.75 C9.0375 31.255 9.0375 31.255 11.5625 30.75 C11.5625 32.73 11.5625 34.71 11.5625 36.75 C7.63428453 39.36881031 4.12806861 39.03987737 -0.4375 38.75 C-1.4275 38.09 -2.4175 37.43 -3.4375 36.75 C-4.00597656 37.07097656 -4.57445312 37.39195313 -5.16015625 37.72265625 C-8.88536333 39.40315275 -12.43676628 39.44174897 -16.4375 38.75 C-19.81632179 36.3566679 -21.10823608 34.71721278 -22.4375 30.8125 C-22.4375 26.8641366 -21.69533984 24.99564476 -19.4375 21.75 C-14.20704636 18.01396169 -8.60831615 16.38892904 -2.4375 14.75 C-3.40526098 10.95452079 -3.40526098 10.95452079 -5.4375 7.75 C-11.20059406 7.18499078 -13.86168094 8.3181357 -18.4375 11.75 C-19.4275 12.08 -20.4175 12.41 -21.4375 12.75 C-21.73104834 9.69709731 -21.86782367 6.79375276 -21.4375 3.75 C-15.7975495 -2.34724379 -7.50829276 -2.73028828 0 0 Z M-7.375 21.625 C-8.08527344 21.97304687 -8.79554688 22.32109375 -9.52734375 22.6796875 C-11.59070129 23.72238765 -11.59070129 23.72238765 -13.4375 25.75 C-13.77083333 28.25 -13.77083333 28.25 -13.4375 30.75 C-11.55976736 33.05746414 -11.55976736 33.05746414 -8.5 33 C-5.26467213 32.98517754 -5.26467213 32.98517754 -2.4375 30.75 C-2.07289547 28.08346095 -2.07289547 28.08346095 -2.25 25.125 C-2.27707031 24.12210938 -2.30414063 23.11921875 -2.33203125 22.0859375 C-2.36683594 21.31507812 -2.40164063 20.54421875 -2.4375 19.75 C-4.24523957 19.75 -5.78304009 20.83621697 -7.375 21.625 Z " fill="#0096AE" transform="translate(359.4375,53.25)"/>
<path d="M0 0 C2.97 0 5.94 0 9 0 C9.01458252 0.83249268 9.02916504 1.66498535 9.04418945 2.52270508 C9.1052863 5.61489653 9.17944556 8.70642082 9.26245117 11.7980957 C9.31201319 13.7929063 9.34651133 15.78807257 9.38085938 17.78320312 C9.41630859 19.03681641 9.45175781 20.29042969 9.48828125 21.58203125 C9.51446533 22.73936768 9.54064941 23.8967041 9.56762695 25.08911133 C9.77098814 27.98295008 9.77098814 27.98295008 11.34838867 29.8815918 C13.92216413 31.62445438 15.97241754 31.30893699 19 31 C22.20476624 29.79255056 22.20476624 29.79255056 24 27 C24.15411106 24.9692523 24.24982453 22.93393579 24.31640625 20.8984375 C24.35830078 19.68671875 24.40019531 18.475 24.44335938 17.2265625 C24.48267578 15.95554687 24.52199219 14.68453125 24.5625 13.375 C24.60568359 12.09625 24.64886719 10.8175 24.69335938 9.5 C24.79969886 6.33344652 24.90172833 3.16681247 25 0 C27.64 0 30.28 0 33 0 C33 12.87 33 25.74 33 39 C30.36 39 27.72 39 25 39 C24.67 38.01 24.34 37.02 24 36 C23.38125 36.495 22.7625 36.99 22.125 37.5 C17.71430378 39.61713419 13.81342072 39.70853553 9 39 C5.14455202 37.00342873 3.40194908 35.60292362 1 32 C-0.03428528 28.17661247 -0.11636535 24.55308786 -0.09765625 20.60546875 C-0.09443359 19.40341797 -0.09121094 18.20136719 -0.08789062 16.96289062 C-0.07951172 15.71701172 -0.07113281 14.47113281 -0.0625 13.1875 C-0.05798828 11.92228516 -0.05347656 10.65707031 -0.04882812 9.35351562 C-0.03706251 6.2356289 -0.02062272 3.11783867 0 0 Z " fill="#0096AE" transform="translate(194,53)"/>
<path d="M0 0 C1.423125 0.7425 1.423125 0.7425 2.875 1.5 C2.875 4.47 2.875 7.44 2.875 10.5 C2.12734375 10.19964844 1.3796875 9.89929687 0.609375 9.58984375 C-0.37546875 9.20957031 -1.3603125 8.82929687 -2.375 8.4375 C-3.34953125 8.05464844 -4.3240625 7.67179687 -5.328125 7.27734375 C-8.16507395 6.48886213 -9.41909552 6.47562188 -12.125 7.5 C-12.02518331 9.39799845 -12.02518331 9.39799845 -11.125 11.5 C-8.730801 13.33917389 -8.730801 13.33917389 -5.8125 14.9375 C-1.1059749 17.64579415 2.96123078 20.27658098 4.51171875 25.74609375 C4.61136427 30.04618106 4.22566302 32.87318459 1.1875 36.0625 C-4.00068221 39.87422571 -10.00598897 39.25407581 -16.125 38.5 C-19.875 37.5625 -19.875 37.5625 -22.125 35.5 C-22.90372944 32.4917575 -23.11200144 29.60015629 -23.125 26.5 C-20.21247225 27.44826485 -17.39455023 28.37196364 -14.625 29.6875 C-11.43184307 30.725276 -9.33603652 30.37573723 -6.125 29.5 C-5.795 28.84 -5.465 28.18 -5.125 27.5 C-7.67357492 24.61900226 -10.40664076 22.61440285 -13.625 20.5625 C-17.16697404 18.22841497 -20.00734419 16.27495166 -22.125 12.5 C-22.68067433 9.10421244 -22.88099645 6.78981074 -21.1015625 3.75390625 C-15.90247108 -2.81585472 -7.45579809 -3.22577387 0 0 Z " fill="#0096AE" transform="translate(396.125,53.5)"/>
<path d="M0 0 C0 2.64 0 5.28 0 8 C3.96 8 7.92 8 12 8 C12.04241723 10.33294775 12.04092937 12.66702567 12 15 C11.67 15.33 11.34 15.66 11 16 C7.37 16 3.74 16 0 16 C0.33 23.26 0.66 30.52 1 38 C7.72729224 38.07568426 7.72729224 38.07568426 14 37 C14 39.64 14 42.28 14 45 C9.00834411 47.97349837 3.63149966 47.75186911 -2 47 C-4.79422895 45.63696149 -5.91843084 44.41912091 -8 42 C-9.01973129 38.94080612 -9.11533602 36.87581975 -9.09765625 33.67578125 C-9.09282227 32.13374023 -9.09282227 32.13374023 -9.08789062 30.56054688 C-9.07951172 29.48869141 -9.07113281 28.41683594 -9.0625 27.3125 C-9.05798828 26.22904297 -9.05347656 25.14558594 -9.04882812 24.02929688 C-9.03703743 21.35280915 -9.02058063 18.67643223 -9 16 C-11.31 16 -13.62 16 -16 16 C-16 13 -16 13 -14.4609375 11.38671875 C-13.77257812 10.82597656 -13.08421875 10.26523437 -12.375 9.6875 C-9.64887646 7.41573038 -7.07913424 5.12597686 -4.625 2.5625 C-2 0 -2 0 0 0 Z " fill="#0096AE" transform="translate(321,45)"/>
<path d="M0 0 C2.64 0 5.28 0 8 0 C8 19.47 8 38.94 8 59 C5.36 59 2.72 59 0 59 C0 39.53 0 20.06 0 0 Z " fill="#0096AE" transform="translate(273,33)"/>
<path d="M0 0 C2.97 0 5.94 0 9 0 C9 12.87 9 25.74 9 39 C6.03 39 3.06 39 0 39 C0 26.13 0 13.26 0 0 Z " fill="#0096AE" transform="translate(292,53)"/>
<path d="M0 0 C4 1 4 1 5.25 3.0625 C5.4975 3.701875 5.745 4.34125 6 5 C6.7425 4.175 7.485 3.35 8.25 2.5 C11 0 11 0 15 0 C15 4.95 15 9.9 15 15 C13.68 15 12.36 15 11 15 C10.67 12.36 10.34 9.72 10 7 C9.01 7.99 8.02 8.98 7 10 C6.01 9.01 5.02 8.02 4 7 C3.67 9.64 3.34 12.28 3 15 C2.01 15 1.02 15 0 15 C0 10.05 0 5.1 0 0 Z " fill="#0096AE" transform="translate(163,114)"/>
<path d="M0 0 C4.18099116 1.04524779 4.72845936 1.4105742 7.25 4.5625 C8.03117188 5.52349609 8.03117188 5.52349609 8.828125 6.50390625 C9.21484375 6.99761719 9.6015625 7.49132812 10 8 C10.33 5.36 10.66 2.72 11 0 C12.32 0 13.64 0 15 0 C15 4.95 15 9.9 15 15 C9.375 13.875 9.375 13.875 6.6875 10.4375 C6.17574219 9.79683594 5.66398438 9.15617187 5.13671875 8.49609375 C4.76160156 8.00238281 4.38648438 7.50867188 4 7 C3.67 9.64 3.34 12.28 3 15 C2.01 15 1.02 15 0 15 C0 10.05 0 5.1 0 0 Z " fill="#0096AE" transform="translate(208,114)"/>
<path d="M0 0 C3 2.0625 3 2.0625 5 5 C5 8.54595558 4.72088444 10.86176141 2.8125 13.875 C0.15800608 15.52261692 -1.88327487 15.87533099 -5 16 C-8.52906067 14.39588152 -9.82772908 13.25840638 -12 10 C-11.86930146 6.34044098 -11.76812749 3.91584431 -9.375 1.0625 C-5.97380129 -0.4590889 -3.68717269 -0.51749792 0 0 Z M-7.875 4.1875 C-9.22522789 6.00732448 -9.22522789 6.00732448 -9 8.5625 C-8.20068137 11.18803279 -8.20068137 11.18803279 -5.6875 12.4375 C-3.02466396 13.24636987 -3.02466396 13.24636987 -0.6875 12.125 C-0.130625 11.75375 0.42625 11.3825 1 11 C1.16681109 8.08347826 1.16681109 8.08347826 1 5 C-0.82203581 2.77033253 -0.82203581 2.77033253 -3.4375 2.6875 C-6.00370015 2.81457344 -6.00370015 2.81457344 -7.875 4.1875 Z " fill="#0096AE" transform="translate(155,114)"/>
<path d="M0 0 C3 2.0625 3 2.0625 5 5 C5 8.54595558 4.72088444 10.86176141 2.8125 13.875 C0.15800608 15.52261692 -1.88327487 15.87533099 -5 16 C-8.52906067 14.39588152 -9.82772908 13.25840638 -12 10 C-11.86930146 6.34044098 -11.76812749 3.91584431 -9.375 1.0625 C-5.97380129 -0.4590889 -3.68717269 -0.51749792 0 0 Z M-8 4 C-8.84298574 6.38084878 -8.84298574 6.38084878 -9 9 C-7.36246318 12.04444636 -7.36246318 12.04444636 -5.125 12.8125 C-2.37228545 13.05538658 -1.20196231 12.67045417 1 11 C2.08024658 8.59889783 2.08024658 8.59889783 2 6 C0.98029682 4.06345052 0.98029682 4.06345052 -1 3 C-3.82594567 2.72429798 -5.45132831 2.72566416 -8 4 Z " fill="#0096AE" transform="translate(377,114)"/>
<path d="M0 0 C9.18762089 -0.48355899 9.18762089 -0.48355899 12.625 1.5625 C14.54211763 4.96102671 14.54861638 7.15968535 14 11 C12.625 13.4375 12.625 13.4375 10 15 C6.59264014 15.32578206 3.43853858 15.18097571 0 15 C0 10.05 0 5.1 0 0 Z M3 3 C3 5.97 3 8.94 3 12 C5.91652174 12.16681109 5.91652174 12.16681109 9 12 C11.2491908 10.17296773 11.2491908 10.17296773 11.25 7.5 C11.2491908 4.82703227 11.2491908 4.82703227 9 3 C5.91652174 2.83318891 5.91652174 2.83318891 3 3 Z " fill="#0096AE" transform="translate(257,114)"/>
<path d="M0 0 C0.66 0.33 1.32 0.66 2 1 C2 1.99 2 2.98 2 4 C1.36191406 3.98839844 0.72382813 3.97679688 0.06640625 3.96484375 C-0.75988281 3.95582031 -1.58617187 3.94679688 -2.4375 3.9375 C-3.26121094 3.92589844 -4.08492188 3.91429688 -4.93359375 3.90234375 C-6.99163938 3.76732652 -6.99163938 3.76732652 -8 5 C-8.04063832 6.66617115 -8.042721 8.33388095 -8 10 C-4.6136749 11.50930183 -4.6136749 11.50930183 -1 12 C-1 11.34 -1 10.68 -1 10 C-1.99 10 -2.98 10 -4 10 C-4 9.01 -4 8.02 -4 7 C-2.02 7 -0.04 7 2 7 C2 9.64 2 12.28 2 15 C-2.09882925 15.90174243 -4.41244928 16.22849195 -8.375 14.6875 C-11 13 -11 13 -12 11 C-12.35173852 7.20122401 -12.52701444 4.85639847 -10.5 1.5625 C-6.81855488 -0.7384032 -4.30631826 -0.34728373 0 0 Z " fill="#0096AE" transform="translate(330,114)"/>
<path d="M0 0 C1.32 0 2.64 0 4 0 C4 3.96 4 7.92 4 12 C5.98 11.67 7.96 11.34 10 11 C10.33 7.37 10.66 3.74 11 0 C11.99 0 12.98 0 14 0 C14.08107583 1.93681161 14.13922475 3.8745934 14.1875 5.8125 C14.22230469 6.89144531 14.25710938 7.97039062 14.29296875 9.08203125 C14 12 14 12 12.63671875 13.83203125 C10.36337343 15.45429915 8.79423732 15.86694108 6 16 C3.25 14.75 3.25 14.75 1 13 C-0.00496852 9.98509443 -0.10335303 7.95818308 -0.0625 4.8125 C-0.05347656 3.91144531 -0.04445313 3.01039062 -0.03515625 2.08203125 C-0.02355469 1.39496094 -0.01195312 0.70789063 0 0 Z " fill="#0096AE" transform="translate(335,114)"/>
<path d="M0 0 C3.3 0 6.6 0 10 0 C10 0.99 10 1.98 10 3 C8.02 3 6.04 3 4 3 C4 3.99 4 4.98 4 6 C5.98 6 7.96 6 10 6 C10 6.99 10 7.98 10 9 C8.02 9 6.04 9 4 9 C4 9.99 4 10.98 4 12 C5.98 12 7.96 12 10 12 C10 12.99 10 13.98 10 15 C6.7 15 3.4 15 0 15 C0 10.05 0 5.1 0 0 Z " fill="#0096AE" transform="translate(274,114)"/>
<path d="M0 0 C2.31 0 4.62 0 7 0 C9 2 9 2 9.125 4.4375 C9.08375 5.283125 9.0425 6.12875 9 7 C9 10.55955169 9.89341295 11.27899173 12 14 C12 14.66 12 15.32 12 16 C8.08597051 14.73058503 6.20927127 13.48832306 4 10 C3.67 11.65 3.34 13.3 3 15 C2.01 15 1.02 15 0 15 C0 10.05 0 5.1 0 0 Z M3 3 C3 3.99 3 4.98 3 6 C3.99 6 4.98 6 6 6 C6 5.01 6 4.02 6 3 C5.01 3 4.02 3 3 3 Z " fill="#0096AE" transform="translate(353,114)"/>
<path d="M0 0 C0.66 1.32 1.32 2.64 2 4 C1.36191406 3.98839844 0.72382813 3.97679688 0.06640625 3.96484375 C-0.75988281 3.95582031 -1.58617187 3.94679688 -2.4375 3.9375 C-3.26121094 3.92589844 -4.08492187 3.91429688 -4.93359375 3.90234375 C-6.99163938 3.76732652 -6.99163938 3.76732652 -8 5 C-8.04080783 6.99958364 -8.04254356 9.00045254 -8 11 C-4.7 11 -1.4 11 2 11 C1.67 12.32 1.34 13.64 1 15 C-5.20081967 16.33743169 -5.20081967 16.33743169 -8.8125 14.8125 C-11.11391664 12.90561193 -12.15971044 11.85698452 -13 9 C-12.84427725 5.88554495 -12.18451734 4.27308567 -10.4375 1.6875 C-6.86293612 -0.78719807 -4.28853105 -0.28590207 0 0 Z " fill="#0096AE" transform="translate(139,114)"/>
<path d="M0 0 C3.3 0 6.6 0 10 0 C10 0.66 10 1.32 10 2 C9.34 2 8.68 2 8 2 C7.59201172 2.85851563 7.59201172 2.85851563 7.17578125 3.734375 C5.98051458 6.03754666 4.67795377 8.12639832 3.1875 10.25 C2.70667969 10.95640625 2.22585937 11.6628125 1.73046875 12.390625 C0 14 0 14 -2.69921875 14.234375 C-3.45847656 14.15703125 -4.21773437 14.0796875 -5 14 C-4.34158873 8.89731263 -2.14106609 4.62746541 0 0 Z " fill="#0096AE" transform="translate(251,32)"/>
<path d="M0 0 C2.97 0 5.94 0 9 0 C9 0.99 9 1.98 9 3 C7.02 3 5.04 3 3 3 C3 3.99 3 4.98 3 6 C4.98 6 6.96 6 9 6 C9 6.99 9 7.98 9 9 C7.02 9 5.04 9 3 9 C3 9.99 3 10.98 3 12 C5.31 12 7.62 12 10 12 C10 12.99 10 13.98 10 15 C6.7 15 3.4 15 0 15 C0 10.05 0 5.1 0 0 Z " fill="#0096AE" transform="translate(306,114)"/>
<path d="M0 0 C0.99 0 1.98 0 3 0 C4.03271642 2.09836004 5.05083717 4.20390891 6.0625 6.3125 C6.63097656 7.48425781 7.19945312 8.65601562 7.78515625 9.86328125 C9 13 9 13 8 16 C7.46375 15.360625 6.9275 14.72125 6.375 14.0625 C3.55632807 11.61470596 1.66139268 11.33285388 -2 11 C-2.103125 11.639375 -2.20625 12.27875 -2.3125 12.9375 C-2.539375 13.618125 -2.76625 14.29875 -3 15 C-3.99 15.33 -4.98 15.66 -6 16 C-5.37183502 12.05050296 -4.1354471 8.80107972 -2.4375 5.1875 C-1.98246094 4.21167969 -1.52742187 3.23585938 -1.05859375 2.23046875 C-0.70925781 1.49441406 -0.35992187 0.75835937 0 0 Z M1 5 C0.67 5.99 0.34 6.98 0 8 C0.99 7.67 1.98 7.34 3 7 C2.34 6.34 1.68 5.68 1 5 Z " fill="#0096AE" transform="translate(238,114)"/>
<path d="M0 0 C3 1 3 1 4.640625 3.87109375 C5.17171875 5.04800781 5.7028125 6.22492188 6.25 7.4375 C7.06210938 9.19900391 7.06210938 9.19900391 7.890625 10.99609375 C8.25671875 11.98738281 8.6228125 12.97867188 9 14 C8.67 14.66 8.34 15.32 8 16 C7.01 15.67 6.02 15.34 5 15 C4.3125 12.9375 4.3125 12.9375 4 11 C2.02 11 0.04 11 -2 11 C-2.103125 11.639375 -2.20625 12.27875 -2.3125 12.9375 C-2.539375 13.618125 -2.76625 14.29875 -3 15 C-3.99 15.33 -4.98 15.66 -6 16 C-5.52412884 9.97229862 -2.80277043 5.23321711 0 0 Z M1 5 C0.67 5.99 0.34 6.98 0 8 C0.66 8 1.32 8 2 8 C1.67 7.01 1.34 6.02 1 5 Z " fill="#0096AE" transform="translate(197,114)"/>
<path d="M0 0 C1.670625 0.061875 1.670625 0.061875 3.375 0.125 C3.375 1.445 3.375 2.765 3.375 4.125 C0.405 3.63 0.405 3.63 -2.625 3.125 C-2.625 3.785 -2.625 4.445 -2.625 5.125 C-1.84125 5.351875 -1.0575 5.57875 -0.25 5.8125 C2.375 7.125 2.375 7.125 3.6875 9.75 C4.0278125 10.925625 4.0278125 10.925625 4.375 12.125 C3.055 13.445 1.735 14.765 0.375 16.125 C-1.605 15.465 -3.585 14.805 -5.625 14.125 C-5.625 13.135 -5.625 12.145 -5.625 11.125 C-2.655 11.62 -2.655 11.62 0.375 12.125 C-0.8315625 11.0421875 -0.8315625 11.0421875 -2.0625 9.9375 C-4.63420966 7.11489184 -5.52334392 5.88627491 -5.625 2.125 C-3.625 0.125 -3.625 0.125 0 0 Z " fill="#0096AE" transform="translate(389.625,113.875)"/>
<path d="M0 0 C6.0546875 -0.1953125 6.0546875 -0.1953125 8 0 C10 2 10 2 10.25 4.5 C10 7 10 7 8 9 C5.375 9.125 5.375 9.125 3 9 C3 10.98 3 12.96 3 15 C2.01 15 1.02 15 0 15 C0 10.05 0 5.1 0 0 Z M3 3 C3 3.99 3 4.98 3 6 C4.32 6 5.64 6 7 6 C7 5.01 7 4.02 7 3 C5.68 3 4.36 3 3 3 Z " fill="#0096AE" transform="translate(181,114)"/>
<path d="M0 0 C1.4540625 0.0309375 1.4540625 0.0309375 2.9375 0.0625 C3.2675 1.3825 3.5975 2.7025 3.9375 4.0625 C0.9675 3.5675 0.9675 3.5675 -2.0625 3.0625 C-1.258125 3.784375 -0.45375 4.50625 0.375 5.25 C2.96042072 8.08765689 3.61792813 9.33416147 3.9375 13.0625 C2.25 14.6875 2.25 14.6875 -0.0625 16.0625 C-2.75 15.5 -2.75 15.5 -5.0625 14.0625 C-5.875 11.9375 -5.875 11.9375 -6.0625 10.0625 C-4.0825 10.7225 -2.1025 11.3825 -0.0625 12.0625 C-0.0625 11.4025 -0.0625 10.7425 -0.0625 10.0625 C-1.68876404 8.68017557 -3.3550002 7.34312485 -5.0625 6.0625 C-3.98897059 0.08140756 -3.98897059 0.08140756 0 0 Z " fill="#0096AE" transform="translate(299.0625,113.9375)"/>
<path d="M0 0 C2.5 0.5 2.5 0.5 4.375 1.6875 C5.5 3.5 5.5 3.5 5.5 6.0625 C4.5 8.5 4.5 8.5 1.9375 9.8125 C0.7309375 10.1528125 0.7309375 10.1528125 -0.5 10.5 C-2.15 8.85 -3.8 7.2 -5.5 5.5 C-3.19060773 0.63812155 -3.19060773 0.63812155 0 0 Z " fill="#0096AE" transform="translate(296.5,36.5)"/>
<path d="M0 0 C0.99 0 1.98 0 3 0 C2.83628906 0.50015625 2.67257813 1.0003125 2.50390625 1.515625 C1.8121089 4.9263468 1.89495335 8.28735757 1.9375 11.75 C1.94201172 12.44738281 1.94652344 13.14476563 1.95117188 13.86328125 C1.9628998 15.57555803 1.98083347 17.28779033 2 19 C0.68 19 -0.64 19 -2 19 C-2.05411124 16.58303128 -2.09372278 14.16728213 -2.125 11.75 C-2.14175781 11.06808594 -2.15851563 10.38617188 -2.17578125 9.68359375 C-2.21213482 5.9391765 -2.07944349 3.17647273 0 0 Z " fill="#0096AE" transform="translate(228,110)"/>
<path d="M0 0 C1.67542976 0.28604898 3.34385343 0.61781233 5 1 C5 2.65 5 4.3 5 6 C3.02 6.99 3.02 6.99 1 8 C0.01 7.34 -0.98 6.68 -2 6 C-1.125 1.125 -1.125 1.125 0 0 Z " fill="#0096AE" transform="translate(395,128)"/>
<path d="M0 0 C1.98 0 3.96 0 6 0 C6 0.99 6 1.98 6 3 C3.69 3.33 1.38 3.66 -1 4 C-0.67 2.68 -0.34 1.36 0 0 Z " fill="#0096AE" transform="translate(213,110)"/>
<path d="M0 0 C1.65 0 3.3 0 5 0 C5 1.32 5 2.64 5 4 C3.35 4 1.7 4 0 4 C0 2.68 0 1.36 0 0 Z " fill="#941B80" transform="translate(110,132)"/>
<path d="M0 0 C1.65 0 3.3 0 5 0 C5 1.32 5 2.64 5 4 C3.35 4 1.7 4 0 4 C0 2.68 0 1.36 0 0 Z " fill="#941B80" transform="translate(101,132)"/>
<path d="M0 0 C1.65 0 3.3 0 5 0 C5 1.32 5 2.64 5 4 C3.35 4 1.7 4 0 4 C0 2.68 0 1.36 0 0 Z " fill="#941B80" transform="translate(92,132)"/>
<path d="M0 0 C1.65 0 3.3 0 5 0 C5 1.32 5 2.64 5 4 C3.35 4 1.7 4 0 4 C0 2.68 0 1.36 0 0 Z " fill="#941B80" transform="translate(83,132)"/>
<path d="M0 0 C1.65 0 3.3 0 5 0 C5 1.32 5 2.64 5 4 C3.35 4 1.7 4 0 4 C0 2.68 0 1.36 0 0 Z " fill="#941B80" transform="translate(73,132)"/>
<path d="M0 0 C1.65 0 3.3 0 5 0 C5 1.32 5 2.64 5 4 C3.35 4 1.7 4 0 4 C0 2.68 0 1.36 0 0 Z " fill="#941B80" transform="translate(64,132)"/>
<path d="M0 0 C1.65 0 3.3 0 5 0 C5 1.32 5 2.64 5 4 C3.35 4 1.7 4 0 4 C0 2.68 0 1.36 0 0 Z " fill="#941B80" transform="translate(55,132)"/>
<path d="M0 0 C1.65 0 3.3 0 5 0 C5 1.32 5 2.64 5 4 C3.35 4 1.7 4 0 4 C0 2.68 0 1.36 0 0 Z " fill="#941B80" transform="translate(46,132)"/>
<path d="M0 0 C1.65 0 3.3 0 5 0 C5 1.32 5 2.64 5 4 C3.35 4 1.7 4 0 4 C0 2.68 0 1.36 0 0 Z " fill="#941B80" transform="translate(27,132)"/>
<path d="M0 0 C1.65 0 3.3 0 5 0 C5 1.32 5 2.64 5 4 C3.35 4 1.7 4 0 4 C0 2.68 0 1.36 0 0 Z " fill="#941B80" transform="translate(18,132)"/>
<path d="M0 0 C1.65 0 3.3 0 5 0 C5 1.32 5 2.64 5 4 C3.35 4 1.7 4 0 4 C0 2.68 0 1.36 0 0 Z " fill="#941B80" transform="translate(9,132)"/>
<path d="M0 0 C1.65 0 3.3 0 5 0 C5 1.32 5 2.64 5 4 C3.35 4 1.7 4 0 4 C0 2.68 0 1.36 0 0 Z " fill="#941B80" transform="translate(0,132)"/>
<path d="M0 0 C1.32 0 2.64 0 4 0 C4 1.32 4 2.64 4 4 C2.68 4 1.36 4 0 4 C0 2.68 0 1.36 0 0 Z " fill="#941B80" transform="translate(37,132)"/>
</svg>
