<?xml version="1.0" encoding="UTF-8"?>
<svg version="1.1" xmlns="http://www.w3.org/2000/svg" width="400" height="150">
<path d="M0 0 C1.36128021 -0.00065712 1.36128021 -0.00065712 2.75006104 -0.00132751 C5.75326971 0.00076449 8.7559219 0.02411505 11.7590332 0.04760742 C13.83982539 0.05320191 15.92062152 0.0574727 18.00141907 0.06047058 C23.48091522 0.07193092 28.96017321 0.10140844 34.4395752 0.13458252 C40.02975238 0.16525773 45.61996801 0.17897047 51.21020508 0.1940918 C62.1810129 0.2262769 73.15164388 0.2774877 84.12231445 0.34057617 C84.12231445 1.00057617 84.12231445 1.66057617 84.12231445 2.34057617 C84.78231445 2.34057617 85.44231445 2.34057617 86.12231445 2.34057617 C87.29106255 5.84682048 87.24745712 8.98836277 87.2199707 12.63354492 C87.21855576 13.33957352 87.21714081 14.04560211 87.21568298 14.77302551 C87.21009209 17.02475243 87.19754133 19.27637938 87.18481445 21.52807617 C87.17979827 23.05606953 87.17523557 24.58406444 87.17114258 26.11206055 C87.16012565 29.85493752 87.14286733 33.5977399 87.12231445 37.34057617 C82.67930632 37.63116081 78.23595878 37.91567264 73.79223633 38.19506836 C72.28725232 38.29049075 70.78236435 38.38744268 69.27758789 38.48608398 C40.98222702 40.33718236 40.98222702 40.33718236 35.12231445 37.34057617 C34.20825195 35.41479492 34.20825195 35.41479492 34.12231445 33.34057617 C37.50789629 26.69962719 43.18797959 23.23634434 49.2590332 19.25854492 C52.10782 17.48437584 52.10782 17.48437584 54.12231445 15.34057617 C32.78204651 25.69516401 10.62989646 36.56586447 -8.2097168 51.14526367 C-9.87768555 52.34057617 -9.87768555 52.34057617 -11.87768555 52.34057617 C-11.95364266 45.41722629 -12.00624606 38.49398354 -12.04248047 31.5703125 C-12.05758302 29.21415186 -12.07806646 26.8580194 -12.10400391 24.50195312 C-12.14032211 21.11866305 -12.15739722 17.73574409 -12.1706543 14.35229492 C-12.18613815 13.29596359 -12.20162201 12.23963226 -12.21757507 11.15129089 C-12.21780167 10.17050064 -12.21802826 9.18971039 -12.21826172 8.17919922 C-12.22492355 7.31538132 -12.23158539 6.45156342 -12.2384491 5.56156921 C-11.18364663 -0.93218258 -5.31899305 -0.06679966 0 0 Z " fill="#E52A37" transform="translate(251.877685546875,4.659423828125)"/>
<path d="M0 0 C0.04945571 5.76577504 0.0857461 11.53142646 0.10986328 17.29736328 C0.11991783 19.25864818 0.13356333 21.21991811 0.15087891 23.18115234 C0.17515113 26.00101418 0.18648859 28.82067772 0.1953125 31.640625 C0.20563507 32.51680481 0.21595764 33.39298462 0.22659302 34.29571533 C0.22674408 35.11626404 0.22689514 35.93681274 0.22705078 36.78222656 C0.231492 37.50170471 0.23593323 38.22118286 0.24050903 38.96246338 C-0.04285589 41.36306513 -0.73356752 42.94908847 -2 45 C-5.02242048 46.51121024 -8.16152831 46.17922091 -11.47900391 46.20532227 C-12.24982803 46.21522186 -13.02065216 46.22512146 -13.81483459 46.23532104 C-16.3687124 46.2669683 -18.92260882 46.29170617 -21.4765625 46.31640625 C-23.24490855 46.336973 -25.01324965 46.35796939 -26.78158569 46.37937927 C-31.44059243 46.43462881 -36.09964375 46.48402536 -40.75872803 46.53222656 C-45.51106747 46.58242056 -50.26334202 46.63811758 -55.015625 46.69335938 C-64.34369459 46.80097619 -73.67182047 46.90241333 -83 47 C-83 46.34 -83 45.68 -83 45 C-83.99 45.495 -83.99 45.495 -85 46 C-86.80843663 46.14716542 -88.62331566 46.2210887 -90.4375 46.25 C-91.40558594 46.27578125 -92.37367188 46.3015625 -93.37109375 46.328125 C-96 46 -96 46 -97.64599609 44.88061523 C-99.63530398 42.11760791 -99.33876255 39.95550791 -99.29296875 36.58203125 C-99.28330078 35.32841797 -99.27363281 34.07480469 -99.26367188 32.78320312 C-99.23853516 31.47287109 -99.21339844 30.16253906 -99.1875 28.8125 C-99.17244967 27.47722837 -99.15876187 26.14194063 -99.14648438 24.80664062 C-99.11107694 21.53735424 -99.0616889 18.26887907 -99 15 C-90.00137968 14.62330425 -81.00189759 14.2883035 -72 14 C-71.02691895 13.96841797 -70.05383789 13.93683594 -69.05126953 13.90429688 C-66.59656164 13.83350108 -64.14293276 13.78593058 -61.6875 13.75 C-60.98512207 13.72873047 -60.28274414 13.70746094 -59.55908203 13.68554688 C-54.9759869 13.6539782 -51.93194571 14.68350485 -48 17 C-48.8332921 23.27674573 -52.25345962 26.0918996 -57 30 C-61.52959016 33.21283413 -66.25413172 36.12048442 -71 39 C-47.84521231 28.3195437 -24.76322197 17.14416421 -4.0390625 2.15625 C-1 0 -1 0 0 0 Z " fill="#E52937" transform="translate(339,56)"/>
<path d="M0 0 C5.58450384 1.11690077 7.31131381 2.97232921 10.8125 7.0625 C11.31458984 7.63033203 11.81667969 8.19816406 12.33398438 8.78320312 C13.56627224 10.17979604 14.78455648 11.5887232 16 13 C16.33 8.71 16.66 4.42 17 0 C18.32 0 19.64 0 21 0 C21 7.26 21 14.52 21 22 C15.40089239 20.88017848 13.96055333 19.18034691 10.6875 14.9375 C10.23310547 14.36966797 9.77871094 13.80183594 9.31054688 13.21679688 C8.19563356 11.82022125 7.09624226 10.41127888 6 9 C5.67 13.29 5.34 17.58 5 22 C3.35 22 1.7 22 0 22 C0 14.74 0 7.48 0 0 Z " fill="#000000" transform="translate(98,123)"/>
<path d="M0 0 C6.12767526 1.22553505 6.48181521 2.27558042 10 7 C10.78375 6.21625 11.5675 5.4325 12.375 4.625 C13.91666667 3.08333333 15.45833333 1.54166667 17 0 C18.32 0 19.64 0 21 0 C21 7.26 21 14.52 21 22 C19.68 22 18.36 22 17 22 C16.67 17.38 16.34 12.76 16 8 C15.21625 8.99 14.4325 9.98 13.625 11 C12.75875 11.99 11.8925 12.98 11 14 C10.34 14 9.68 14 9 14 C7.68 12.35 6.36 10.7 5 9 C4.67 13.29 4.34 17.58 4 22 C2.68 22 1.36 22 0 22 C0 14.74 0 7.48 0 0 Z " fill="#000000" transform="translate(130,123)"/>
<path d="M0 0 C5.49511023 1.09902205 6.21904812 1.81178812 9.6875 5.875 C10.45449219 6.75929687 11.22148437 7.64359375 12.01171875 8.5546875 C14 11 14 11 16 14 C16.33 9.38 16.66 4.76 17 0 C18.32 0 19.64 0 21 0 C21 7.26 21 14.52 21 22 C15.31502306 20.86300461 14.4254394 19.79365704 10.75 15.5625 C9.44289062 14.07943359 9.44289062 14.07943359 8.109375 12.56640625 C6 10 6 10 5 8 C4.67 12.62 4.34 17.24 4 22 C2.68 22 1.36 22 0 22 C0 14.74 0 7.48 0 0 Z " fill="#000000" transform="translate(176,123)"/>
<path d="M0 0 C1.32 0 2.64 0 4 0 C5.50605402 3.28893003 7.00380532 6.58157446 8.5 9.875 C8.92925781 10.81214844 9.35851562 11.74929687 9.80078125 12.71484375 C10.40986328 14.05869141 10.40986328 14.05869141 11.03125 15.4296875 C11.40830078 16.25710449 11.78535156 17.08452148 12.17382812 17.93701172 C13 20 13 20 13 22 C11.35 21.67 9.7 21.34 8 21 C7.505 18.525 7.505 18.525 7 16 C4.03 16.33 1.06 16.66 -2 17 C-2.99 19.475 -2.99 19.475 -4 22 C-5.65 22 -7.3 22 -9 22 C-7.45173401 17.04242102 -5.48219062 12.36189599 -3.375 7.625 C-2.88773437 6.52091797 -2.88773437 6.52091797 -2.390625 5.39453125 C-1.59615497 3.59529031 -0.79841229 1.79749504 0 0 Z M2 7 C1.34 8.65 0.68 10.3 0 12 C1.32 12 2.64 12 4 12 C3.67 10.35 3.34 8.7 3 7 C2.67 7 2.34 7 2 7 Z " fill="#000000" transform="translate(78,123)"/>
<path d="M0 0 C1.91503906 0.14428711 1.91503906 0.14428711 4 1 C5.28027344 3.04125977 5.28027344 3.04125977 6.359375 5.69140625 C6.75253906 6.63564453 7.14570313 7.57988281 7.55078125 8.55273438 C7.94652344 9.54595703 8.34226563 10.53917969 8.75 11.5625 C9.16121094 12.55958984 9.57242188 13.55667969 9.99609375 14.58398438 C11.0111278 17.05075317 12.01163793 19.5224509 13 22 C11.35 22 9.7 22 8 22 C7.34 20.02 6.68 18.04 6 16 C3.03 16 0.06 16 -3 16 C-3.66 17.98 -4.32 19.96 -5 22 C-6.32 22 -7.64 22 -9 22 C-8.32123256 17.21091862 -6.45906236 13.1244525 -4.5 8.75 C-4.01853516 7.65171875 -4.01853516 7.65171875 -3.52734375 6.53125 C-1.14218231 1.14218231 -1.14218231 1.14218231 0 0 Z M1 7 C0.34 8.65 -0.32 10.3 -1 12 C0.65 12 2.3 12 4 12 C3.34 10.35 2.68 8.7 2 7 C1.67 7 1.34 7 1 7 Z " fill="#000000" transform="translate(214,123)"/>
<path d="M0 0 C0 1.65 0 3.3 0 5 C-0.495 4.835 -0.99 4.67 -1.5 4.5 C-5.18005012 3.76398998 -8.23108935 3.70088011 -12 4 C-14.27314412 5.36375359 -14.27314412 5.36375359 -15 8 C-14.9260097 10.76935113 -14.50296411 13.25655942 -14 16 C-12.22925083 16.02705729 -10.45838289 16.04642195 -8.6875 16.0625 C-7.70136719 16.07410156 -6.71523438 16.08570313 -5.69921875 16.09765625 C-2.90036151 16.12329862 -2.90036151 16.12329862 0 15 C0 16.65 0 18.3 0 20 C-3.96283561 21.98141781 -8.69210238 21.55820645 -13 21 C-16.17852316 19.35551311 -18.37801764 17.24396473 -20 14 C-20.50301361 8.96986386 -20.6076821 6.96514216 -17.875 2.625 C-11.8692597 -2.85850202 -7.32564541 -2.11629756 0 0 Z " fill="#000000" transform="translate(293,124)"/>
<path d="M0 0 C0 1.65 0 3.3 0 5 C-2.64 4.67 -5.28 4.34 -8 4 C-6.02072057 6.04996798 -4.23306455 7.85350228 -1.8125 9.375 C0 11 0 11 0.9375 13.9375 C1 17 1 17 0.0625 19.375 C-3.21932805 21.96068271 -5.89214338 21.32602037 -10 21 C-10.66 20.67 -11.32 20.34 -12 20 C-12 18.35 -12 16.7 -12 15 C-10.02 15.66 -8.04 16.32 -6 17 C-5.34 16.34 -4.68 15.68 -4 15 C-4 14.34 -4 13.68 -4 13 C-4.763125 12.731875 -5.52625 12.46375 -6.3125 12.1875 C-10.45598194 10.35665914 -10.45598194 10.35665914 -12 8 C-12.3125 4.4375 -12.3125 4.4375 -12 1 C-7.98716318 -3.01283682 -5.03280241 -1.94449184 0 0 Z " fill="#000000" transform="translate(62,124)"/>
<path d="M0 0 C0 1.32 0 2.64 0 4 C-2.64 3.67 -5.28 3.34 -8 3 C-6.8635295 6.40941151 -6.43402802 6.54249189 -3.5 8.25 C-0.40139772 10.3539892 -0.06013704 10.80622511 1.125 14.625 C1 18 1 18 0.0625 19.9375 C-3.30411978 21.67181928 -6.24172073 21.23862091 -10 21 C-10.66 20.67 -11.32 20.34 -12 20 C-12 18.35 -12 16.7 -12 15 C-7.545 15.99 -7.545 15.99 -3 17 C-4.9447704 13.1104592 -5.22029737 12.60056819 -8.625 10.625 C-11.91979769 8.40101156 -11.91979769 8.40101156 -12.625 4.875 C-11.95780817 1.8059176 -11.53352265 0.78284927 -9 -1 C-5.23375329 -2.25541557 -3.62811066 -1.37061958 0 0 Z " fill="#000000" transform="translate(265,124)"/>
<path d="M0 0 C2.39629455 3.59444183 2.25781331 6.14861652 2.1953125 10.29296875 C2.1924826 10.99899734 2.18965271 11.70502594 2.18673706 12.43244934 C2.17555464 14.68430633 2.1504542 16.93576352 2.125 19.1875 C2.11496767 20.71548904 2.10584226 22.24348433 2.09765625 23.77148438 C2.07732428 27.51460033 2.03817373 31.2568534 2 35 C-4.27 34.67 -10.54 34.34 -17 34 C-17 33.67 -17 33.34 -17 33 C-11.72 33 -6.44 33 -1 33 C-1.01160156 30.70160156 -1.02320313 28.40320313 -1.03515625 26.03515625 C-1.04294709 23.81779112 -1.04902369 21.60042749 -1.05493164 19.38305664 C-1.0599714 17.83780234 -1.0668032 16.29255284 -1.07543945 14.74731445 C-1.08752076 12.53074971 -1.09323173 10.31424782 -1.09765625 8.09765625 C-1.10281754 7.4028566 -1.10797882 6.70805695 -1.11329651 5.99220276 C-1.11349277 4.3277067 -1.06189129 2.66334501 -1 1 C-0.67 0.67 -0.34 0.34 0 0 Z " fill="#F02639" transform="translate(337,7)"/>
<path d="M0 0 C1.65 0 3.3 0 5 0 C5 7.26 5 14.52 5 22 C3.35 22 1.7 22 0 22 C0 14.74 0 7.48 0 0 Z " fill="#000000" transform="translate(161,123)"/>
<path d="M0 0 C1.32 0 2.64 0 4 0 C4 7.26 4 14.52 4 22 C2.68 22 1.36 22 0 22 C0 14.74 0 7.48 0 0 Z " fill="#000000" transform="translate(302,123)"/>
<path d="M0 0 C0.625 1.8125 0.625 1.8125 1 4 C0.01 5.485 0.01 5.485 -1 7 C-3.5 7.3125 -3.5 7.3125 -6 7 C-6.66 6.34 -7.32 5.68 -8 5 C-7.75 2.4375 -7.75 2.4375 -7 0 C-4.3333581 -1.33332095 -2.83319697 -0.67102033 0 0 Z " fill="#000000" transform="translate(320,123)"/>
<path d="M0 0 C2.5 0.125 2.5 0.125 3.5 1.125 C3.54080783 3.12458364 3.54254356 5.12545254 3.5 7.125 C0.625 7.75 0.625 7.75 -2.5 8.125 C-3.16 7.465 -3.82 6.805 -4.5 6.125 C-3.77607362 0.18880368 -3.77607362 0.18880368 0 0 Z M1.5 3.125 C2.5 5.125 2.5 5.125 2.5 5.125 Z " fill="#000000" transform="translate(346.5,6.875)"/>
<path d="M0 0 C2.97 0 5.94 0 9 0 C9 1.32 9 2.64 9 4 C6.03 4 3.06 4 0 4 C0 2.68 0 1.36 0 0 Z " fill="#000000" transform="translate(233,132)"/>
</svg>
