<?xml version="1.0" encoding="UTF-8"?>
<svg version="1.1" xmlns="http://www.w3.org/2000/svg" width="400" height="150">
<path d="M0 0 C1.12559326 0.00132935 1.12559326 0.00132935 2.27392578 0.00268555 C8.88187954 0.14372205 14.49049263 1.34435274 19.4140625 6.01171875 C19.83429687 6.46160156 20.25453125 6.91148438 20.6875 7.375 C19.945 8.035 19.2025 8.695 18.4375 9.375 C13.54764155 14.32042502 11.12246655 20.17889747 10.66015625 27.08984375 C10.75596909 35.09705977 13.42920792 41.35357606 18.6875 47.375 C21.36307344 49.72787069 24.12701751 51.92562954 26.9296875 54.125 C35.11969308 60.8069309 39.92726002 67.27942682 41.0625 77.875 C40.13181756 86.5613694 37.0368293 92.35756746 30.6875 98.375 C27.53324514 100.47783657 26.4571514 100.69844469 22.828125 100.03515625 C9.74190667 95.99944293 -1.56248158 85.57013932 -11.3125 76.375 C-12.07433594 75.68921875 -12.83617188 75.0034375 -13.62109375 74.296875 C-24.58540519 64.03564766 -33.0780869 50.62813466 -33.77880859 35.34521484 C-33.94831417 24.80393332 -31.54184917 16.87037546 -24.23828125 9.12890625 C-17.1120698 2.63870556 -9.55056571 -0.02017576 0 0 Z " fill="#B6BE00" transform="translate(33.3125,24.625)"/>
<path d="M0 0 C5.39281023 5.6924108 7.57393953 11.55362446 7.8125 19.375 C7.30632504 31.69636425 1.08190686 42.81998643 -7.625 51.4375 C-8.19992188 51.96472656 -8.77484375 52.49195313 -9.3671875 53.03515625 C-10.87413426 54.34730304 -10.87413426 54.34730304 -11.75 56.375 C-12.41 56.375 -13.07 56.375 -13.75 56.375 C-13.81316406 55.67375 -13.87632813 54.9725 -13.94140625 54.25 C-15.12758801 45.06021292 -18.61210542 40.91091274 -25.515625 35.01171875 C-31.59803927 29.78311931 -36.24759883 25.49573738 -37.75 17.375 C-38.10290301 11.30702885 -36.71415575 7.06939497 -32.75 2.375 C-22.32763108 -8.17385398 -12.03389602 -7.11093856 0 0 Z " fill="#D52A1D" transform="translate(102.75,39.625)"/>
<path d="M0 0 C2.98434514 1.67586329 5.821124 3.47455613 8.4375 5.6875 C8.4375 7.6875 8.4375 7.6875 6.125 10.125 C5.238125 10.970625 4.35125 11.81625 3.4375 12.6875 C2.839375 13.285625 2.24125 13.88375 1.625 14.5 C1.0371875 15.0878125 1.0371875 15.0878125 0.4375 15.6875 C-2.5344385 14.56298273 -4.89690687 13.46456209 -7.5625 11.6875 C-9.61959596 11.44694532 -9.61959596 11.44694532 -11.75 11.5625 C-13.008125 11.60375 -14.26625 11.645 -15.5625 11.6875 C-15.8925 13.0075 -16.2225 14.3275 -16.5625 15.6875 C-13.72102184 17.95805761 -10.92519152 19.54715782 -7.625 21.0625 C-3.39426291 23.13418837 -0.53788521 25.04025361 2.4375 28.6875 C4.24770278 34.11810835 4.13847747 38.78493772 1.75 43.9375 C-1.28131653 49.33472212 -5.32099976 52.14328187 -11.203125 54.14453125 C-20.2096041 56.21721435 -28.3141038 54.56410473 -36.5625 50.6875 C-37.5525 50.0275 -38.5425 49.3675 -39.5625 48.6875 C-37.99608249 44.37985185 -35.87913844 40.62578536 -33.5625 36.6875 C-33.01722656 36.89246094 -32.47195312 37.09742188 -31.91015625 37.30859375 C-25.84740446 39.47460251 -20.01706439 40.6875 -13.5625 40.6875 C-13.22824265 38.31375139 -13.22824265 38.31375139 -13.5625 35.6875 C-16.27750206 33.26450045 -19.20027134 31.85453935 -22.5 30.375 C-27.27349152 27.97767782 -29.97406932 26.43295624 -32.5625 21.6875 C-33.4226799 16.0537091 -33.36696491 11.3560198 -30.875 6.1875 C-22.52623001 -2.83819729 -11.38623606 -5.60865041 0 0 Z " fill="#D52A1D" transform="translate(170.5625,51.3125)"/>
<path d="M0 0 C-0.40807349 8.09111232 -1.42150237 15.8518656 -2.90673828 23.80224609 C-3.96083774 29.52468692 -4.59095134 35.19150899 -5 41 C-9.29 41 -13.58 41 -18 41 C-18.33 40.34 -18.66 39.68 -19 39 C-19.825 39.495 -20.65 39.99 -21.5 40.5 C-25.58963365 42.25270013 -28.62303591 42.77754452 -33 42 C-36.55605455 40.25552041 -38.50667717 38.65776378 -40.875 35.5 C-43.5136942 27.29072915 -42.60527512 18.76758846 -39 11 C-35.3528662 4.4603118 -30.39109807 -0.11963398 -23.26171875 -2.49609375 C-15.10906356 -4.31248843 -7.71806143 -2.81265579 0 0 Z M-23.25 9.6875 C-26.69088443 14.23438299 -27.25770818 18.10781552 -27.1875 23.75 C-27.18105469 24.89984375 -27.17460937 26.0496875 -27.16796875 27.234375 C-27.31224369 29.90873614 -27.31224369 29.90873614 -26 31 C-23.04195427 31.33340471 -23.04195427 31.33340471 -20 31 C-17.54094926 27.31142389 -17.0758532 23.78378637 -16.375 19.5 C-16.2409375 18.72785156 -16.106875 17.95570312 -15.96875 17.16015625 C-15.44454931 14.07379094 -15 11.13596173 -15 8 C-18.53164047 7.67894178 -20.35715051 7.51786288 -23.25 9.6875 Z " fill="#D52A1D" transform="translate(400,64)"/>
<path d="M0 0 C-0.62376003 8.99184995 -2.03672244 17.81420629 -3.5625 26.6875 C-3.79921082 28.08261741 -4.03554141 29.4777994 -4.27148438 30.87304688 C-4.84328559 34.24945176 -5.42018955 37.6249601 -6 41 C-9.96 41 -13.92 41 -18 41 C-18.33 40.34 -18.66 39.68 -19 39 C-19.825 39.495 -20.65 39.99 -21.5 40.5 C-25.89396025 42.38312582 -28.24868421 42.45250627 -33 42 C-36.20824247 40.50282018 -38.72932114 38.72481464 -41 36 C-43.7383323 27.78500311 -42.80116969 17.76278494 -39.1328125 10.015625 C-35.65789008 3.8326596 -31.38804405 0.30309387 -24.75 -2.25 C-15.8613101 -4.02773798 -8.57165058 -2.66385969 0 0 Z M-24.3125 10 C-27.53066691 15.72118562 -28.51491249 21.43486573 -28 28 C-27.34 28.99 -26.68 29.98 -26 31 C-23.54290625 31.58350505 -23.54290625 31.58350505 -21 31 C-17.05120198 27.39845809 -16.98983936 22.261571 -16.3125 17.25 C-16.18294922 16.36183594 -16.05339844 15.47367188 -15.91992188 14.55859375 C-15.60275651 12.37367676 -15.29651599 10.18779859 -15 8 C-20.10363731 7.56753421 -20.10363731 7.56753421 -24.3125 10 Z " fill="#D52A1D" transform="translate(315,64)"/>
<path d="M0 0 C2.95618075 2.1493173 4.08692084 4.69577426 5.34765625 8.01953125 C6.62026007 16.92775799 4.86523211 25.59571304 0.375 33.45703125 C-3.84011589 38.90498048 -9.38039957 41.67360613 -16.15234375 42.5859375 C-22.07379752 42.83534656 -25.73084839 42.23990219 -30.33984375 38.20703125 C-30.93796875 37.69140625 -31.53609375 37.17578125 -32.15234375 36.64453125 C-35.96285802 32.03180345 -34.78754242 23.83357244 -34.5234375 18.12890625 C-34.12484895 13.95644738 -32.59320917 10.68004001 -30.33984375 7.20703125 C-29.63859375 6.11390625 -28.93734375 5.02078125 -28.21484375 3.89453125 C-20.29355747 -3.51014941 -9.50491225 -5.34769417 0 0 Z M-15.33984375 8.20703125 C-20.64602332 14.72605186 -20.82763909 21.10102045 -20.33984375 29.20703125 C-20.00984375 29.86703125 -19.67984375 30.52703125 -19.33984375 31.20703125 C-16.96609514 31.5412886 -16.96609514 31.5412886 -14.33984375 31.20703125 C-10.11472527 27.60785624 -9.58689788 21.16663892 -9.1484375 15.9140625 C-9.0485572 13.53122119 -9.0485572 13.53122119 -9.33984375 10.20703125 C-9.99984375 9.54703125 -10.65984375 8.88703125 -11.33984375 8.20703125 C-12.65984375 8.20703125 -13.97984375 8.20703125 -15.33984375 8.20703125 Z " fill="#D52A1D" transform="translate(212.33984375,63.79296875)"/>
<path d="M0 0 C2.1875 1.6875 2.1875 1.6875 4.1875 4.6875 C5.08176259 12.41843737 3.67415918 20.10841067 2.25 27.6875 C2.06759766 28.70972656 1.88519531 29.73195313 1.69726562 30.78515625 C0.35875496 38.17373512 0.35875496 38.17373512 -0.8125 41.6875 C-5.4325 41.6875 -10.0525 41.6875 -14.8125 41.6875 C-13.71790351 33.86895368 -12.58060932 26.0783217 -11.1796875 18.30859375 C-10.81843005 15.72983049 -10.7466772 13.28750058 -10.8125 10.6875 C-12.4625 11.0175 -14.1125 11.3475 -15.8125 11.6875 C-17.51753682 18.13899068 -18.77372276 24.61862404 -19.9375 31.1875 C-20.11925781 32.20070312 -20.30101562 33.21390625 -20.48828125 34.2578125 C-20.9321156 36.733941 -21.37264757 39.21066106 -21.8125 41.6875 C-26.4325 41.6875 -31.0525 41.6875 -35.8125 41.6875 C-33.8125 27.6875 -31.8125 13.6875 -29.8125 -0.3125 C-25.8525 -0.3125 -21.8925 -0.3125 -17.8125 -0.3125 C-17.4825 0.3475 -17.1525 1.0075 -16.8125 1.6875 C-15.2965625 0.945 -15.2965625 0.945 -13.75 0.1875 C-8.93435797 -1.85549965 -4.84027854 -2.25879665 0 0 Z " fill="#D52B1D" transform="translate(349.8125,62.3125)"/>
<path d="M0 0 C-0.28317926 1.60568666 -0.57687791 3.20952047 -0.875 4.8125 C-1.03742188 5.70582031 -1.19984375 6.59914063 -1.3671875 7.51953125 C-2 10 -2 10 -4 13 C-5.093125 12.773125 -6.18625 12.54625 -7.3125 12.3125 C-10.81422092 11.63070281 -10.81422092 11.63070281 -12.64379883 13.09301758 C-14.50704182 15.71296195 -14.83747018 18.03732833 -15.38671875 21.19921875 C-15.60263672 22.40771484 -15.81855469 23.61621094 -16.04101562 24.86132812 C-16.25435547 26.12396484 -16.46769531 27.38660156 -16.6875 28.6875 C-16.91244141 29.96173828 -17.13738281 31.23597656 -17.36914062 32.54882812 C-17.92337801 35.69736818 -18.46307132 38.8484621 -19 42 C-23.62 42 -28.24 42 -33 42 C-32.65066406 39.88980469 -32.30132812 37.77960938 -31.94140625 35.60546875 C-31.59956621 33.52367112 -31.25907284 31.4416573 -30.91870117 29.35961914 C-30.6844255 27.9310032 -30.44878689 26.50260999 -30.21166992 25.07446289 C-28.82746788 16.73120702 -27.63912984 8.44092164 -27 0 C-23.37 0 -19.74 0 -16 0 C-15.67 0.99 -15.34 1.98 -15 3 C-14.195625 2.319375 -13.39125 1.63875 -12.5625 0.9375 C-8.46450122 -1.86329053 -4.64370346 -0.94937937 0 0 Z " fill="#D52B1D" transform="translate(254,62)"/>
<path d="M0 0 C1.09570312 0.00902344 2.19140625 0.01804688 3.3203125 0.02734375 C4.16335938 0.03894531 5.00640625 0.05054688 5.875 0.0625 C5.25988332 8.87381695 3.89968507 17.49243885 2.375 26.1875 C2.1468335 27.52599024 1.91896712 28.86453167 1.69140625 30.203125 C0.00288238 39.93461762 0.00288238 39.93461762 -1.125 41.0625 C-3.31139453 41.13508946 -5.50000389 41.14623783 -7.6875 41.125 C-9.48380859 41.11146484 -9.48380859 41.11146484 -11.31640625 41.09765625 C-12.24324219 41.08605469 -13.17007813 41.07445312 -14.125 41.0625 C-13.50015335 32.25961447 -12.18139893 23.63085936 -10.6875 14.9375 C-10.46793047 13.59898596 -10.24852843 12.26044444 -10.02929688 10.921875 C-9.81466797 9.66632813 -9.60003906 8.41078125 -9.37890625 7.1171875 C-9.18627197 5.97749512 -8.9936377 4.83780273 -8.79516602 3.66357422 C-8.57401123 2.80521973 -8.35285645 1.94686523 -8.125 1.0625 C-5.36047967 -0.31976016 -3.0788637 -0.03275387 0 0 Z " fill="#D52A1D" transform="translate(265.125,62.9375)"/>
<path d="M0 0 C2.4375 2.125 2.4375 2.125 4 5 C4 8.61556077 3.44102079 10.39563818 1.3125 13.3125 C-1.60436182 15.44102079 -3.38443923 16 -7 16 C-9.875 14.4375 -9.875 14.4375 -12 12 C-12.75502236 8.05710546 -12.35744093 6.53616139 -10.125 3.1875 C-6.85094485 -0.18285089 -4.65844177 -0.55901301 0 0 Z " fill="#D52B1D" transform="translate(270,44)"/>
</svg>
