<?xml version="1.0" encoding="UTF-8"?>
<svg version="1.1" xmlns="http://www.w3.org/2000/svg" width="765" height="247">
<path d="M0 0 C32.01 0 64.02 0 97 0 C99.97 5.28 102.94 10.56 106 16 C107.72161003 19.00499205 109.44646726 22.00644615 111.1875 25 C111.85942383 26.15822266 111.85942383 26.15822266 112.54492188 27.33984375 C116.94314719 34.91556246 121.35613782 42.48278297 125.78100586 50.04296875 C128.63853854 54.92917975 131.47665078 59.82428426 134.265625 64.75 C134.7709375 65.63816406 135.27625 66.52632813 135.796875 67.44140625 C136.74586089 69.11233571 137.6888503 70.78668904 138.625 72.46484375 C139.69430262 74.34272396 140.83926556 76.17721703 142 78 C142.66 78 143.32 78 144 78 C144.59425781 76.92105469 145.18851563 75.84210938 145.80078125 74.73046875 C150.69337162 65.872021 155.66343781 57.06539166 160.75341797 48.31884766 C163.16796057 44.16819414 165.56903695 40.01086915 167.94140625 35.8359375 C168.44172363 34.95591064 168.94204102 34.07588379 169.45751953 33.16918945 C170.38624579 31.53342399 171.31326711 29.8966881 172.23779297 28.25854492 C173.16014996 26.63517664 174.10837748 25.02630319 175.0785675 23.43106079 C176.62073573 20.67724407 177.90033179 17.99781134 179.17085266 15.11955261 C185.52303265 1.68658597 185.52303265 1.68658597 191.31809807 -1.12444878 C197.91939113 -2.81074148 204.64879362 -2.29786636 211.390625 -1.953125 C213.54810399 -1.91576377 215.70575413 -1.88732208 217.86346436 -1.86737061 C223.51034203 -1.79143109 229.14672665 -1.59546674 234.78948975 -1.37329102 C240.56003802 -1.16769799 246.33230447 -1.07714834 252.10546875 -0.9765625 C263.40822723 -0.76284115 274.7032375 -0.42211387 286 0 C285.04809392 1.91780091 284.09457572 3.83480168 283.14038086 5.75146484 C282.60956406 6.81908051 282.07874725 7.88669617 281.53184509 8.98666382 C279.68150318 12.62652418 277.67403086 16.13267548 275.5625 19.625 C274.69285154 21.08394526 273.82444636 22.54363205 272.95703125 24.00390625 C272.4873291 24.7942627 272.01762695 25.58461914 271.53369141 26.39892578 C268.56672256 31.43077648 265.66285484 36.49920037 262.75 41.5625 C257.00444022 51.54418039 251.2200365 61.50225528 245.39160156 71.43579102 C244.84342773 72.37221436 244.29525391 73.3086377 243.73046875 74.2734375 C243.24989014 75.09247559 242.76931152 75.91151367 242.27416992 76.75537109 C241.11391255 78.79932707 240.05109022 80.89781957 239 83 C207.98 83.33 176.96 83.66 145 84 C148.3 89.61 151.6 95.22 155 101 C157.00857728 104.49569699 159.01141765 107.99310334 161 111.5 C164.58436381 117.79531888 168.19437507 124.07295718 171.875 130.3125 C172.26147705 130.97080811 172.6479541 131.62911621 173.04614258 132.30737305 C175.59262474 136.63879652 178.17387414 140.94784879 180.76953125 145.25 C182.07574599 147.43736556 183.38173652 149.62486503 184.6875 151.8125 C185.32478027 152.85768799 185.96206055 153.90287598 186.61865234 154.97973633 C187.20211426 155.96224365 187.78557617 156.94475098 188.38671875 157.95703125 C189.17888794 159.27151245 189.17888794 159.27151245 189.98706055 160.61254883 C191 163 191 163 190.77539062 165.09741211 C189.4035275 168.46357373 187.59976078 171.59251754 185.8125 174.75 C185.37397705 175.53221924 184.9354541 176.31443848 184.48364258 177.12036133 C180.20736668 184.71040018 175.80361036 192.22612936 171.39697266 199.7409668 C167.25747789 206.80994154 163.20144466 213.9215983 159.1875 221.0625 C157.12888982 224.71054441 155.06596908 228.35611859 153 232 C152.54157715 232.81049805 152.0831543 233.62099609 151.61083984 234.45605469 C150.37795293 236.62399885 149.12989712 238.78224237 147.875 240.9375 C147.52074951 241.56470947 147.16649902 242.19191895 146.80151367 242.83813477 C145.8046875 244.52734375 145.8046875 244.52734375 144 247 C143.01 247 142.02 247 141 247 C140.74009277 246.51982422 140.48018555 246.03964844 140.21240234 245.54492188 C134.17614626 234.41958122 127.95838729 223.41805656 121.55297852 212.5012207 C116.91751868 204.59426233 112.35132846 196.65012603 107.8125 188.6875 C102.51481135 179.39674231 97.1918711 170.12162292 91.82421875 160.87109375 C88.45587704 155.06582161 85.10314341 149.25155984 81.75 143.4375 C81.11570068 142.33776855 80.48140137 141.23803711 79.82788086 140.10498047 C78.53169703 137.85760843 77.23555475 135.61021242 75.93945312 133.36279297 C73.41523099 128.9860765 70.89040102 124.60971089 68.36547852 120.23339844 C67.12109997 118.07654076 65.87679667 115.91963966 64.63256836 113.76269531 C61.471226 108.28243015 58.30883506 102.80277457 55.14453125 97.32421875 C48.92486877 86.55358373 42.71970285 75.77526027 36.55786133 64.97143555 C31.92934825 56.86208305 27.26009767 48.77641424 22.58837891 40.69189453 C18.00842841 32.76174037 13.45698182 24.8157701 8.94335938 16.84765625 C6.38532643 12.34993502 3.73954136 7.94534836 0.90478516 3.61572266 C-0 2 -0 2 0 0 Z " fill="#FBBA75" transform="translate(0,0)"/>
<path d="M0 0 C2.08073502 0.10209901 4.16136212 0.20641845 6.24188232 0.31280518 C8.39936132 0.35016641 10.55701146 0.3786081 12.71472168 0.39855957 C18.36159936 0.47449908 23.99798397 0.67046343 29.64074707 0.89263916 C35.41129534 1.09823218 41.18356179 1.18878184 46.95672607 1.28936768 C58.25948455 1.50308902 69.55449482 1.84381631 80.85125732 2.26593018 C79.89935125 4.18373108 78.94583304 6.10073186 77.99163818 8.01739502 C77.46082138 9.08501068 76.93000458 10.15262634 76.38310242 11.25259399 C74.53276051 14.89245435 72.52528819 18.39860566 70.41375732 21.89093018 C69.54410887 23.34987544 68.67570368 24.80956223 67.80828857 26.26983643 C67.10373535 27.45537109 67.10373535 27.45537109 66.38494873 28.66485596 C63.41797988 33.69670666 60.51411216 38.76513054 57.60125732 43.82843018 C51.85569755 53.81011057 46.07129383 63.76818546 40.24285889 73.70172119 C39.69468506 74.63814453 39.14651123 75.57456787 38.58172607 76.53936768 C38.10114746 77.35840576 37.62056885 78.17744385 37.12542725 79.02130127 C35.96516988 81.06525725 34.90234754 83.16374974 33.85125732 85.26593018 C2.17125732 85.26593018 -29.50874268 85.26593018 -62.14874268 85.26593018 C-61.02348898 79.63966169 -61.02348898 79.63966169 -59.25030518 76.50811768 C-58.85923584 75.81033203 -58.4681665 75.11254639 -58.06524658 74.39361572 C-57.63905029 73.65022949 -57.212854 72.90684326 -56.77374268 72.14093018 C-56.32821045 71.35178223 -55.88267822 70.56263428 -55.42364502 69.74957275 C-51.3346029 62.52921149 -47.16982429 55.35181545 -42.99639893 48.17999268 C-41.04977906 44.83005824 -39.12150448 41.47044979 -37.20733643 38.10186768 C-36.45686035 36.78182739 -36.45686035 36.78182739 -35.69122314 35.43511963 C-34.76249689 33.79935416 -33.83547557 32.16261827 -32.91094971 30.5244751 C-31.98859272 28.90110681 -31.0403652 27.29223337 -30.07017517 25.69699097 C-28.52800695 22.94317425 -27.24841089 20.26374151 -25.97789001 17.38548279 C-19.76760115 4.25257357 -14.64698686 -0.26173322 0 0 Z " fill="#0066A5" transform="translate(205.14874267578125,-2.26593017578125)"/>
<path d="M0 0 C3.61948256 1.44779302 5.78240427 2.36527757 8.7578125 4.546875 C9.45592041 5.05484619 10.15402832 5.56281738 10.87329102 6.08618164 C11.61635498 6.6352417 12.35941895 7.18430176 13.125 7.75 C13.91124756 8.32419678 14.69749512 8.89839355 15.50756836 9.48999023 C18.00987378 11.32018985 20.50589697 13.15864103 23 15 C23.79905762 15.58990723 24.59811523 16.17981445 25.42138672 16.78759766 C32.19748877 21.79240528 32.19748877 21.79240528 34.921875 23.80834961 C41.16331134 28.41503163 47.47749195 32.91167356 53.83422852 37.35766602 C58.91010112 40.91010112 58.91010112 40.91010112 60 42 C60.33 28.47 60.66 14.94 61 1 C68.59 1 76.18 1 84 1 C84 28.72 84 56.44 84 85 C81.22809419 83.61404709 78.99827704 82.39413833 76.5234375 80.63671875 C75.862229 80.16886963 75.20102051 79.70102051 74.51977539 79.21899414 C73.81199951 78.71360107 73.10422363 78.20820801 72.375 77.6875 C71.62790771 77.15697021 70.88081543 76.62644043 70.11108398 76.07983398 C62.4886468 70.65726189 54.90716036 65.17782387 47.33203125 59.68945312 C43.24404978 56.72789201 39.15347878 53.76991867 35.0625 50.8125 C34.29881104 50.25957275 33.53512207 49.70664551 32.74829102 49.13696289 C32.03858154 48.62383545 31.32887207 48.11070801 30.59765625 47.58203125 C29.97383057 47.13061768 29.35000488 46.6792041 28.70727539 46.21411133 C27.15890613 45.11300446 25.58087009 44.05391339 24 43 C23.67 56.53 23.34 70.06 23 84 C15.41 84 7.82 84 0 84 C0 56.28 0 28.56 0 0 Z " fill="#0066A5" transform="translate(654,108)"/>
<path d="M0 0 C21.45 0 42.9 0 65 0 C65 6.27 65 12.54 65 19 C51.47 19.33 37.94 19.66 24 20 C24 23.63 24 27.26 24 31 C39.84 31.495 39.84 31.495 56 32 C56 37.94 56 43.88 56 50 C45.44 50 34.88 50 24 50 C24 54.29 24 58.58 24 63 C44.295 63.495 44.295 63.495 65 64 C65 70.27 65 76.54 65 83 C56.67270649 83.02255403 48.34543656 83.04091682 40.01812077 83.05181217 C36.15179882 83.05704026 32.28549879 83.06413654 28.41918945 83.07543945 C24.69096599 83.086271 20.96276366 83.0922774 17.23452568 83.09487724 C15.80910344 83.09673101 14.38368241 83.10035071 12.95826912 83.10573006 C10.96836592 83.11294393 8.97844166 83.11340808 6.98852539 83.11352539 C5.85379288 83.115746 4.71906036 83.11796661 3.54994202 83.12025452 C1 83 1 83 0 82 C-0.09506052 79.44410112 -0.12556761 76.91532028 -0.11352539 74.35913086 C-0.11367142 73.55919205 -0.11381744 72.75925323 -0.1139679 71.93507385 C-0.11326855 69.27830335 -0.10547518 66.62160207 -0.09765625 63.96484375 C-0.09579215 62.12781309 -0.09436821 60.29078194 -0.09336853 58.45375061 C-0.08954275 53.60890338 -0.07971196 48.76408592 -0.06866455 43.91925049 C-0.05665742 38.11148443 -0.05204848 32.30370844 -0.04621124 26.49593353 C-0.03650023 17.66393495 -0.0173441 8.83200176 0 0 Z " fill="#0066A5" transform="translate(575,109)"/>
<path d="M0 0 C3.18448893 3.75314767 5.65049269 7.69591063 8 12 C8.79221594 13.42880308 9.58522651 14.85716577 10.37890625 16.28515625 C10.80059082 17.04586426 11.22227539 17.80657227 11.65673828 18.59033203 C14.05350601 22.88987719 16.49487776 27.16388563 18.9375 31.4375 C19.45006348 32.33428467 19.96262695 33.23106934 20.49072266 34.1550293 C23.58650189 39.56016392 26.71175092 44.94660039 29.875 50.3125 C30.45459473 51.29875366 30.45459473 51.29875366 31.04589844 52.30493164 C33.59945856 56.64444556 36.17956948 60.96726187 38.76953125 65.28515625 C40.07575451 67.48163189 41.38174507 69.67824592 42.6875 71.875 C43.32478027 72.92856689 43.96206055 73.98213379 44.61865234 75.06762695 C45.49384521 76.54622192 45.49384521 76.54622192 46.38671875 78.0546875 C46.91483154 78.93624512 47.44294434 79.81780273 47.98706055 80.72607422 C49 83 49 83 48 86 C1.47 85.505 1.47 85.505 -46 85 C-44.90354896 80.61419584 -43.01639576 77.14340653 -40.8125 73.25 C-40.37180176 72.46415527 -39.93110352 71.67831055 -39.47705078 70.86865234 C-35.27262954 63.40779469 -30.94855059 56.01681614 -26.61889648 48.62817383 C-21.81766917 40.42799683 -17.08378378 32.19096136 -12.375 23.9375 C-12.03329773 23.33858948 -11.69159546 22.73967896 -11.33953857 22.12261963 C-9.7587841 19.35135556 -8.17918118 16.57944715 -6.6015625 13.80639648 C-5.2734663 11.47919132 -3.93172343 9.16072475 -2.5859375 6.84375 C-1.26351414 4.47250811 -0.42537022 2.65856387 0 0 Z " fill="#74A334" transform="translate(142,80)"/>
<path d="M0 0 C47.025 0.495 47.025 0.495 95 1 C93.34406227 5.9678132 91.47905084 9.82923319 88.75 14.1875 C85.53394151 19.37017266 82.54034366 24.63360786 79.63818359 29.9987793 C74.6079676 39.21434491 69.31330762 48.28791082 64.07617188 57.38720703 C62.72585256 59.73423177 61.38185753 62.08452265 60.04101562 64.43701172 C58.26721642 67.54764758 56.47947241 70.64980784 54.6875 73.75 C54.15503662 74.69012939 53.62257324 75.63025879 53.07397461 76.59887695 C52.33159546 77.87251099 52.33159546 77.87251099 51.57421875 79.171875 C51.14713623 79.9153418 50.72005371 80.65880859 50.2800293 81.42480469 C49.85761963 81.94461914 49.43520996 82.46443359 49 83 C48.01 83 47.02 83 46 83 C45.74009277 82.51982422 45.48018555 82.03964844 45.21240234 81.54492188 C39.18021928 70.42708815 32.96645001 59.43312071 26.56616211 48.52319336 C21.80409084 40.39920224 17.10699647 32.23990511 12.4375 24.0625 C12.09997711 23.47194824 11.76245422 22.88139648 11.41470337 22.27294922 C9.26970407 18.51911841 7.13365071 14.7602892 5 11 C4.48066895 10.09491699 3.96133789 9.18983398 3.42626953 8.25732422 C2.96720215 7.44924316 2.50813477 6.64116211 2.03515625 5.80859375 C1.63820557 5.11435303 1.24125488 4.4201123 0.83227539 3.70483398 C0 2 0 2 0 0 Z " fill="#B1C98C" transform="translate(95,164)"/>
<path d="M0 0 C31.35 0 62.7 0 95 0 C88.17448738 13.65102524 88.17448738 13.65102524 84.5625 19.625 C83.69285154 21.08394526 82.82444636 22.54363205 81.95703125 24.00390625 C81.4873291 24.7942627 81.01762695 25.58461914 80.53369141 26.39892578 C77.56672038 31.43078018 74.66313729 36.49935902 71.75 41.5625 C66.59549507 50.50706274 61.43579372 59.44853314 56.25 68.375 C55.66573242 69.38506104 55.08146484 70.39512207 54.47949219 71.43579102 C53.93454102 72.37221436 53.38958984 73.3086377 52.828125 74.2734375 C52.3527832 75.09247559 51.87744141 75.91151367 51.38769531 76.75537109 C50.0364274 78.94107785 48.57494933 80.97116306 47 83 C35.89266595 64.23513918 25.01696873 45.33536535 14.23388672 26.38256836 C11.86741925 22.23212978 9.47657588 18.09905297 7.03515625 13.9921875 C6.5656958 13.20207275 6.09623535 12.41195801 5.61254883 11.59790039 C4.72717144 10.11285869 3.83789738 8.63013079 2.9440918 7.15014648 C0 2.21771011 0 2.21771011 0 0 Z " fill="#8EADD3" transform="translate(191,0)"/>
<path d="M0 0 C0.66 0 1.32 0 2 0 C2.78310547 1.40185547 2.78310547 1.40185547 3.58203125 2.83203125 C11.30134291 16.62020835 19.24057615 30.27760841 27.20581055 43.92480469 C28.3970484 45.96655623 29.58732361 48.00886974 30.77661133 50.05175781 C33.60967747 54.91651579 36.45492327 59.77283595 39.3359375 64.609375 C39.85027344 65.47949219 40.36460937 66.34960938 40.89453125 67.24609375 C41.85626121 68.87266078 42.82465239 70.49531424 43.80078125 72.11328125 C44.22488281 72.83386719 44.64898437 73.55445312 45.0859375 74.296875 C45.4576709 74.91916992 45.8294043 75.54146484 46.21240234 76.18261719 C47 78 47 78 47 82 C15.98 82 -15.04 82 -47 82 C-36.54202267 62.82704157 -25.83281818 43.81656914 -14.75537109 24.99462891 C-12.92490807 21.87189463 -11.11177348 18.73952984 -9.30078125 15.60546875 C-8.11737011 13.57020631 -6.9337829 11.53504623 -5.75 9.5 C-5.20077881 8.54327393 -4.65155762 7.58654785 -4.08569336 6.60083008 C-3.5778833 5.73224365 -3.07007324 4.86365723 -2.546875 3.96875 C-2.10182617 3.19982422 -1.65677734 2.43089844 -1.19824219 1.63867188 C-0.80282227 1.09791016 -0.40740234 0.55714844 0 0 Z " fill="#F7921D" transform="translate(95,0)"/>
<path d="M0 0 C31.02 0 62.04 0 94 0 C89.99174071 8.01651859 85.93144061 15.75429202 81.375 23.4375 C80.13201475 25.55031213 78.88984135 27.66360206 77.6484375 29.77734375 C76.72562988 31.34718018 76.72562988 31.34718018 75.78417969 32.94873047 C73.15446411 37.4460191 70.57514305 41.97131516 68 46.5 C63.47803511 54.42803049 58.94259312 62.3481577 54.375 70.25 C53.46814453 71.83264648 53.46814453 71.83264648 52.54296875 73.44726562 C51.69798828 74.90422852 51.69798828 74.90422852 50.8359375 76.390625 C50.33626465 77.25719727 49.8365918 78.12376953 49.32177734 79.01660156 C48 81 48 81 46 82 C45.6282666 81.33170166 45.2565332 80.66340332 44.87353516 79.97485352 C35.43781257 63.02510982 35.43781257 63.02510982 25.68994141 46.25415039 C21.87793699 39.82595787 18.17961016 33.3348901 14.48681641 26.83764648 C12.03009697 22.52341721 9.55282222 18.22451653 7.015625 13.95703125 C6.54898438 13.17199219 6.08234375 12.38695313 5.6015625 11.578125 C4.72008666 10.10050654 3.83484214 8.62512785 2.9453125 7.15234375 C0 2.21748241 0 2.21748241 0 0 Z " fill="#FDCF9E" transform="translate(48,83)"/>
<path d="M0 0 C3.64751775 1.21583925 3.85255743 2.00287997 5.64453125 5.28515625 C6.14927979 6.19604004 6.65402832 7.10692383 7.17407227 8.04541016 C7.71475342 9.0410498 8.25543457 10.03668945 8.8125 11.0625 C9.9827862 13.1766615 11.15471367 15.28991517 12.328125 17.40234375 C12.93333984 18.49530762 13.53855469 19.58827148 14.16210938 20.71435547 C17.05862021 25.8925227 20.05841042 31.00873173 23.0625 36.125 C29.00191003 46.26603841 34.85637297 56.45282579 40.66894531 66.66699219 C41.94805095 68.90894624 43.23412786 71.14671401 44.5234375 73.3828125 C45.09312256 74.3725708 45.09312256 74.3725708 45.67431641 75.38232422 C46.67223908 77.11498615 47.67198044 78.84660027 48.671875 80.578125 C50 83 50 83 50 84 C46.12660021 84.29160411 42.2560148 84.46832697 38.375 84.625 C37.28058594 84.70878906 36.18617188 84.79257813 35.05859375 84.87890625 C31.76298741 84.97877311 29.16525131 84.94248145 26 84 C22.89263429 80.76334029 20 76.63577855 20 72 C14.83911231 71.89542352 9.68339114 71.85675856 4.52148438 71.87792969 C2.7677923 71.87598833 1.01402388 71.85634605 -0.73925781 71.81835938 C-10.83622251 71.17726426 -10.83622251 71.17726426 -19.48339844 75.26660156 C-21.00144232 77.81361242 -22.06704286 80.19380649 -23 83 C-24 84 -24 84 -26.22485352 84.11352539 C-27.66235962 84.10567017 -27.66235962 84.10567017 -29.12890625 84.09765625 C-30.68061523 84.09282227 -30.68061523 84.09282227 -32.26367188 84.08789062 C-33.35228516 84.07951172 -34.44089844 84.07113281 -35.5625 84.0625 C-37.2012207 84.05573242 -37.2012207 84.05573242 -38.87304688 84.04882812 C-41.58208495 84.03699826 -44.29101599 84.02051543 -47 84 C-46.32756505 80.5832767 -44.99948797 77.94123573 -43.296875 74.9140625 C-42.73532715 73.91213867 -42.1737793 72.91021484 -41.59521484 71.87792969 C-40.98629395 70.80446289 -40.37737305 69.73099609 -39.75 68.625 C-39.12174316 67.5102832 -38.49348633 66.39556641 -37.84619141 65.24707031 C-33.25046319 57.12476298 -28.54333391 49.07264675 -23.77001953 41.05371094 C-18.97393133 32.99135919 -14.31914672 24.85239759 -9.6796875 16.69921875 C-6.49676245 11.10713705 -3.26141116 5.54669575 0 0 Z M1 40 C-1.64 44.62 -4.28 49.24 -7 54 C-1.72 54 3.56 54 9 54 C6.69 49.38 4.38 44.76 2 40 C1.67 40 1.34 40 1 40 Z " fill="#0066A5" transform="translate(376,108)"/>
<path d="M0 0 C7.92 0 15.84 0 24 0 C25.753125 3.238125 27.50625 6.47625 29.3125 9.8125 C33.95297344 18.36236495 38.7247412 26.82102043 43.6965332 35.18286133 C44.1318335 35.92173584 44.56713379 36.66061035 45.015625 37.421875 C45.40008789 38.06737305 45.78455078 38.71287109 46.18066406 39.37792969 C47 41 47 41 47 43 C47.66 43 48.32 43 49 43 C49.27835693 42.27272705 49.55671387 41.5454541 49.84350586 40.79614258 C50.92791863 38.17427654 52.14121114 35.74808835 53.50390625 33.26171875 C53.99342773 32.36598145 54.48294922 31.47024414 54.98730469 30.54736328 C55.50711914 29.6036084 56.02693359 28.65985352 56.5625 27.6875 C57.09391602 26.71796387 57.62533203 25.74842773 58.17285156 24.74951172 C62.7221511 16.46552927 67.34450654 8.2247051 72 0 C79.92 0 87.84 0 96 0 C93.75042677 6.7487197 93.75042677 6.7487197 91.890625 9.8984375 C91.26474487 10.96856079 91.26474487 10.96856079 90.6262207 12.06030273 C90.17206787 12.82415283 89.71791504 13.58800293 89.25 14.375 C88.52526489 15.61068726 88.52526489 15.61068726 87.78588867 16.87133789 C86.73953972 18.65495888 85.69087108 20.43722065 84.64013672 22.21826172 C81.85033834 26.94987272 79.08195322 31.69396199 76.3125 36.4375 C75.73604736 37.42274658 75.15959473 38.40799316 74.56567383 39.4230957 C71.25133915 45.09868503 67.97086888 50.79200888 64.7265625 56.5078125 C64.36835922 57.13814896 64.01015594 57.76848541 63.64109802 58.41792297 C61.89473285 61.49184846 60.15252274 64.56800025 58.41723633 67.64819336 C55.19608963 73.32705576 51.93947379 78.79021604 48 84 C45.3091852 80.76733025 43.06115192 77.57222803 41.0390625 73.88671875 C40.49233887 72.89833008 39.94561523 71.90994141 39.38232422 70.89160156 C38.80240723 69.83424805 38.22249023 68.77689453 37.625 67.6875 C32.24725438 57.97952961 26.7500329 48.35418184 21.13378906 38.7824707 C16.6585772 31.14943905 12.2556367 23.47762333 7.90576172 15.77246094 C5.93134223 12.29229377 3.96048778 8.8801574 1.6640625 5.6015625 C0 3 0 3 0 0 Z " fill="#0066A5" transform="translate(253,109)"/>
<path d="M0 0 C7.92 0 15.84 0 24 0 C24 20.79 24 41.58 24 63 C35.55 63.33 47.1 63.66 59 64 C59 70.27 59 76.54 59 83 C51.45501411 83.02255549 43.91004069 83.04091769 36.36502934 83.05181217 C32.86191115 83.05703989 29.35881715 83.0641355 25.85571289 83.07543945 C21.83219159 83.08834206 17.80869586 83.09322912 13.78515625 83.09765625 C12.52163834 83.10281754 11.25812042 83.10797882 9.95631409 83.11329651 C8.795186 83.11337204 7.63405792 83.11344757 6.43774414 83.11352539 C4.8955294 83.11685631 4.8955294 83.11685631 3.32215881 83.12025452 C1 83 1 83 0 82 C-0.09506052 79.44410112 -0.12556761 76.91532028 -0.11352539 74.35913086 C-0.11367142 73.55919205 -0.11381744 72.75925323 -0.1139679 71.93507385 C-0.11326855 69.27830335 -0.10547518 66.62160207 -0.09765625 63.96484375 C-0.09579215 62.12781309 -0.09436821 60.29078194 -0.09336853 58.45375061 C-0.08954275 53.60890338 -0.07971196 48.76408592 -0.06866455 43.91925049 C-0.05845172 38.97937422 -0.05387119 34.03949315 -0.04882812 29.09960938 C-0.03808974 19.39972437 -0.02049246 9.69986931 0 0 Z " fill="#0066A5" transform="translate(505,109)"/>
<path d="M0 0 C7.59 0 15.18 0 23 0 C23 21.12 23 42.24 23 64 C34.55 64 46.1 64 58 64 C58 70.27 58 76.54 58 83 C38.86 83 19.72 83 0 83 C0 55.61 0 28.22 0 0 Z " fill="#0066A5" transform="translate(435,109)"/>
<path d="M0 0 C1.2065625 0.0309375 1.2065625 0.0309375 2.4375 0.0625 C2.7675 1.7125 3.0975 3.3625 3.4375 5.0625 C3.7675 3.4125 4.0975 1.7625 4.4375 0.0625 C6.90550047 1.21423355 8.48533565 2.11033565 10.4375 4.0625 C10.89125 3.4025 11.345 2.7425 11.8125 2.0625 C12.34875 1.4025 12.885 0.7425 13.4375 0.0625 C14.0975 0.0625 14.7575 0.0625 15.4375 0.0625 C15.4375 4.0225 15.4375 7.9825 15.4375 12.0625 C14.4475 12.0625 13.4575 12.0625 12.4375 12.0625 C12.1075 11.0725 11.7775 10.0825 11.4375 9.0625 C10.4475 8.7325 9.4575 8.4025 8.4375 8.0625 C8.1075 9.3825 7.7775 10.7025 7.4375 12.0625 C6.880625 11.876875 6.32375 11.69125 5.75 11.5 C3.39100072 10.89711649 3.39100072 10.89711649 0.875 11.625 C-1.5625 12.0625 -1.5625 12.0625 -4.5625 10.0625 C-4.5625 9.4025 -4.5625 8.7425 -4.5625 8.0625 C-2.9125 8.0625 -1.2625 8.0625 0.4375 8.0625 C-0.8825 7.4025 -2.2025 6.7425 -3.5625 6.0625 C-3.605221 4.39638095 -3.60313832 2.72867115 -3.5625 1.0625 C-2.5625 0.0625 -2.5625 0.0625 0 0 Z " fill="#0066A5" transform="translate(749.5625,179.9375)"/>
</svg>
